M48
; DRILL file {KiCad 8.0.6} date 2024-11-05T11:41:52-0800
; FORMAT={-:-/ absolute / inch / decimal}
; #@! TF.CreationDate,2024-11-05T11:41:52-08:00
; #@! TF.GenerationSoftware,Kicad,Pcbnew,8.0.6
; #@! TF.FileFunction,Plated,1,2,PTH
FMAT,2
INCH
; #@! TA.AperFunction,Plated,PTH,ViaDrill
T1C0.0118
; #@! TA.AperFunction,Plated,PTH,ComponentDrill
T2C0.0315
; #@! TA.AperFunction,Plated,PTH,ComponentDrill
T3C0.0394
; #@! TA.AperFunction,Plated,PTH,ComponentDrill
T4C0.0512
%
G90
G05
T1
X4.1201Y-2.1339
X4.2283Y-2.2736
T2
X2.8445Y-2.0834
X2.8445Y-2.1834
X2.8445Y-2.2834
X2.8445Y-2.3834
X2.8445Y-2.4834
X2.8445Y-2.5834
X2.8445Y-2.6834
X2.8445Y-2.7834
X2.8445Y-2.8834
X2.8445Y-2.9834
X2.8445Y-3.0834
X2.8445Y-3.1834
X2.8445Y-3.2834
X2.8445Y-3.3834
X2.8445Y-3.4834
X2.8445Y-3.5834
X2.8445Y-3.6834
X2.8445Y-3.7834
X2.8445Y-3.8834
X2.8445Y-3.9834
X2.8445Y-4.0834
X2.8445Y-4.1834
X3.8484Y-2.3834
X3.8484Y-2.4834
X3.8484Y-2.5834
X3.8484Y-2.6834
X3.8484Y-2.7834
X3.8484Y-2.8834
X3.8484Y-2.9834
X3.8484Y-3.0834
X3.8484Y-3.1834
X3.8484Y-3.2834
X3.8484Y-3.3834
X3.8484Y-3.4834
X3.8484Y-3.5834
X3.8484Y-3.6834
X3.8484Y-3.7834
X3.8484Y-3.8834
X3.8484Y-3.9834
X3.8484Y-4.0834
X3.8484Y-4.1834
X3.8486Y-2.0835
X3.8486Y-2.1835
X3.8486Y-2.2835
T3
X4.074Y-2.5059
X4.074Y-2.6059
X4.122Y-3.063
X4.5945Y-3.063
T4
X4.122Y-3.5433
X4.1634Y-3.9431
X4.3602Y-2.9862
X4.3602Y-3.9431
X4.5571Y-3.9431
X4.5965Y-3.5453
M30
