%TF.GenerationSoftware,KiCad,Pcbnew,8.0.6*%
%TF.CreationDate,2024-11-05T11:41:55-08:00*%
%TF.ProjectId,Garage Door Opener,47617261-6765-4204-946f-6f72204f7065,rev?*%
%TF.SameCoordinates,Original*%
%TF.FileFunction,Soldermask,Top*%
%TF.FilePolarity,Negative*%
%FSLAX46Y46*%
G04 Gerber Fmt 4.6, Leading zero omitted, Abs format (unit mm)*
G04 Created by KiCad (PCBNEW 8.0.6) date 2024-11-05 11:41:55*
%MOMM*%
%LPD*%
G01*
G04 APERTURE LIST*
G04 Aperture macros list*
%AMRoundRect*
0 Rectangle with rounded corners*
0 $1 Rounding radius*
0 $2 $3 $4 $5 $6 $7 $8 $9 X,Y pos of 4 corners*
0 Add a 4 corners polygon primitive as box body*
4,1,4,$2,$3,$4,$5,$6,$7,$8,$9,$2,$3,0*
0 Add four circle primitives for the rounded corners*
1,1,$1+$1,$2,$3*
1,1,$1+$1,$4,$5*
1,1,$1+$1,$6,$7*
1,1,$1+$1,$8,$9*
0 Add four rect primitives between the rounded corners*
20,1,$1+$1,$2,$3,$4,$5,0*
20,1,$1+$1,$4,$5,$6,$7,0*
20,1,$1+$1,$6,$7,$8,$9,0*
20,1,$1+$1,$8,$9,$2,$3,0*%
G04 Aperture macros list end*
%ADD10O,2.000000X1.200000*%
%ADD11R,2.000000X1.200000*%
%ADD12R,1.100000X1.800000*%
%ADD13R,2.600000X2.600000*%
%ADD14C,2.600000*%
%ADD15C,2.500000*%
%ADD16C,3.000000*%
%ADD17R,1.700000X1.700000*%
%ADD18O,1.700000X1.700000*%
%ADD19RoundRect,0.250000X0.450000X-0.262500X0.450000X0.262500X-0.450000X0.262500X-0.450000X-0.262500X0*%
%ADD20RoundRect,0.250000X0.400000X0.600000X-0.400000X0.600000X-0.400000X-0.600000X0.400000X-0.600000X0*%
%ADD21RoundRect,0.150000X0.150000X-0.587500X0.150000X0.587500X-0.150000X0.587500X-0.150000X-0.587500X0*%
G04 APERTURE END LIST*
D10*
%TO.C,U1*%
X72250000Y-106257280D03*
X72250000Y-103717280D03*
X72250000Y-101177280D03*
X72250000Y-98637280D03*
X72250000Y-96097280D03*
X72250000Y-93557280D03*
X72250000Y-91017280D03*
X72250000Y-88477280D03*
X72250000Y-85937280D03*
X72250000Y-83397280D03*
X72250000Y-80857280D03*
X72250000Y-78317280D03*
X72250000Y-75777280D03*
X72250000Y-73237280D03*
X72250000Y-70697280D03*
X72250000Y-68157280D03*
X72250000Y-65617280D03*
X72250000Y-63077280D03*
X72250000Y-60537280D03*
X72250000Y-57997280D03*
X72250000Y-55457280D03*
X72250000Y-52917280D03*
X97753680Y-52920000D03*
X97753680Y-55460000D03*
X97753680Y-58000000D03*
X97750000Y-60537280D03*
X97750000Y-63077280D03*
X97750000Y-65617280D03*
X97750000Y-68157280D03*
X97750000Y-70697280D03*
X97750000Y-73237280D03*
X97750000Y-75777280D03*
X97750000Y-78317280D03*
X97750000Y-80857280D03*
X97750000Y-83397280D03*
X97750000Y-85937280D03*
X97750000Y-88477280D03*
X97750000Y-91017280D03*
X97750000Y-93557280D03*
X97750000Y-96097280D03*
X97750000Y-98637280D03*
X97750000Y-101177280D03*
X97750000Y-103717280D03*
D11*
X97750000Y-106257280D03*
%TD*%
D12*
%TO.C,SW1*%
X113800000Y-68500000D03*
X113800000Y-62300000D03*
X117500000Y-68500000D03*
X117500000Y-62300000D03*
%TD*%
D13*
%TO.C,J1*%
X105750000Y-100155000D03*
D14*
X110750000Y-100155000D03*
X115750000Y-100155000D03*
%TD*%
D15*
%TO.C,K1*%
X116700000Y-77800000D03*
X104700000Y-77800000D03*
D16*
X110750000Y-75850000D03*
X116750000Y-90050000D03*
X104700000Y-90000000D03*
%TD*%
D17*
%TO.C,J3*%
X103480000Y-63650000D03*
D18*
X103480000Y-66190000D03*
%TD*%
D15*
%TO.C,REF\u002A\u002A*%
X117250000Y-54750000D03*
%TD*%
D19*
%TO.C,R1*%
X84000000Y-71500000D03*
X84000000Y-69675000D03*
%TD*%
D15*
%TO.C,REF\u002A\u002A*%
X67750000Y-54750000D03*
%TD*%
D20*
%TO.C,D1*%
X83250000Y-59925000D03*
X86750000Y-59925000D03*
%TD*%
D21*
%TO.C,Q1*%
X84000000Y-65925000D03*
X85900000Y-65925000D03*
X84950000Y-64050000D03*
%TD*%
M02*
