%TF.GenerationSoftware,KiCad,Pcbnew,8.0.6*%
%TF.CreationDate,2024-11-20T16:48:10-08:00*%
%TF.ProjectId,Garage Door Opener,47617261-6765-4204-946f-6f72204f7065,rev?*%
%TF.SameCoordinates,Original*%
%TF.FileFunction,Copper,L2,Bot*%
%TF.FilePolarity,Positive*%
%FSLAX46Y46*%
G04 Gerber Fmt 4.6, Leading zero omitted, Abs format (unit mm)*
G04 Created by KiCad (PCBNEW 8.0.6) date 2024-11-20 16:48:10*
%MOMM*%
%LPD*%
G01*
G04 APERTURE LIST*
%TA.AperFunction,ComponentPad*%
%ADD10C,2.500000*%
%TD*%
%TA.AperFunction,ComponentPad*%
%ADD11C,3.000000*%
%TD*%
%TA.AperFunction,ComponentPad*%
%ADD12O,2.000000X1.200000*%
%TD*%
%TA.AperFunction,ComponentPad*%
%ADD13R,2.000000X1.200000*%
%TD*%
%TA.AperFunction,ComponentPad*%
%ADD14R,1.700000X1.700000*%
%TD*%
%TA.AperFunction,ComponentPad*%
%ADD15O,1.700000X1.700000*%
%TD*%
%TA.AperFunction,ComponentPad*%
%ADD16R,2.600000X2.600000*%
%TD*%
%TA.AperFunction,ComponentPad*%
%ADD17C,2.600000*%
%TD*%
%TA.AperFunction,ComponentPad*%
%ADD18R,1.500000X1.050000*%
%TD*%
%TA.AperFunction,ComponentPad*%
%ADD19O,1.500000X1.050000*%
%TD*%
%TA.AperFunction,ViaPad*%
%ADD20C,0.600000*%
%TD*%
%TA.AperFunction,Conductor*%
%ADD21C,0.500000*%
%TD*%
G04 APERTURE END LIST*
D10*
%TO.P,K1,1,VCC*%
%TO.N,+5V*%
X116700000Y-77800000D03*
%TO.P,K1,2,GND*%
%TO.N,Net-(D1-A)*%
X104700000Y-77800000D03*
D11*
%TO.P,K1,3,Common*%
%TO.N,/Common*%
X110750000Y-75850000D03*
%TO.P,K1,4,Normally_Closed*%
%TO.N,/Normally Closed*%
X116750000Y-90050000D03*
%TO.P,K1,5,Normally_Open*%
%TO.N,/Normally Open*%
X104700000Y-90000000D03*
%TD*%
D12*
%TO.P,U1,44,GND*%
%TO.N,GND*%
X72250000Y-106257280D03*
%TO.P,U1,43,GPIO43/U0TXD*%
%TO.N,unconnected-(U1-GPIO43{slash}U0TXD-Pad43)*%
X72250000Y-103717280D03*
%TO.P,U1,42,GPIO44/U0RXD*%
%TO.N,unconnected-(U1-GPIO44{slash}U0RXD-Pad42)*%
X72250000Y-101177280D03*
%TO.P,U1,41,GPIO1/ADC1_CH0*%
%TO.N,unconnected-(U1-GPIO1{slash}ADC1_CH0-Pad41)*%
X72250000Y-98637280D03*
%TO.P,U1,40,GPIO2/ADC1_CH1*%
%TO.N,unconnected-(U1-GPIO2{slash}ADC1_CH1-Pad40)*%
X72250000Y-96097280D03*
%TO.P,U1,39,GPIO42/MTMS*%
%TO.N,unconnected-(U1-GPIO42{slash}MTMS-Pad39)*%
X72250000Y-93557280D03*
%TO.P,U1,38,GPIO41/MTDI*%
%TO.N,unconnected-(U1-GPIO41{slash}MTDI-Pad38)*%
X72250000Y-91017280D03*
%TO.P,U1,37,GPIO40/MTDO*%
%TO.N,unconnected-(U1-GPIO40{slash}MTDO-Pad37)*%
X72250000Y-88477280D03*
%TO.P,U1,36,GPIO39/MTCK*%
%TO.N,unconnected-(U1-GPIO39{slash}MTCK-Pad36)*%
X72250000Y-85937280D03*
%TO.P,U1,35,GPIO38*%
%TO.N,unconnected-(U1-GPIO38-Pad35)*%
X72250000Y-83397280D03*
%TO.P,U1,34,GPIO37*%
%TO.N,unconnected-(U1-GPIO37-Pad34)*%
X72250000Y-80857280D03*
%TO.P,U1,33,GPIO36*%
%TO.N,unconnected-(U1-GPIO36-Pad33)*%
X72250000Y-78317280D03*
%TO.P,U1,32,GPIO35*%
%TO.N,unconnected-(U1-GPIO35-Pad32)*%
X72250000Y-75777280D03*
%TO.P,U1,31,GPIO0*%
%TO.N,unconnected-(U1-GPIO0-Pad31)*%
X72250000Y-73237280D03*
%TO.P,U1,30,GPIO45*%
%TO.N,unconnected-(U1-GPIO45-Pad30)*%
X72250000Y-70697280D03*
%TO.P,U1,29,GPIO48*%
%TO.N,unconnected-(U1-GPIO48-Pad29)*%
X72250000Y-68157280D03*
%TO.P,U1,28,GPIO47*%
%TO.N,unconnected-(U1-GPIO47-Pad28)*%
X72250000Y-65617280D03*
%TO.P,U1,27,GPIO21*%
%TO.N,unconnected-(U1-GPIO21-Pad27)*%
X72250000Y-63077280D03*
%TO.P,U1,26,GPIO20/USB_D+*%
%TO.N,unconnected-(U1-GPIO20{slash}USB_D+-Pad26)*%
X72250000Y-60537280D03*
%TO.P,U1,25,GPIO19/USB_D-*%
%TO.N,unconnected-(U1-GPIO19{slash}USB_D--Pad25)*%
X72250000Y-57997280D03*
%TO.P,U1,24,GND*%
%TO.N,GND*%
X72250000Y-55457280D03*
%TO.P,U1,23,GND*%
X72250000Y-52917280D03*
%TO.P,U1,22,GND*%
X97753680Y-52920000D03*
%TO.P,U1,21,5V*%
%TO.N,+5V*%
X97753680Y-55460000D03*
%TO.P,U1,20,GPIO14/ADC2_CH3*%
%TO.N,unconnected-(U1-GPIO14{slash}ADC2_CH3-Pad20)*%
X97753680Y-58000000D03*
%TO.P,U1,19,GPIO13/ADC2_CH2*%
%TO.N,unconnected-(U1-GPIO13{slash}ADC2_CH2-Pad19)*%
X97750000Y-60537280D03*
%TO.P,U1,18,GPIO12/ADC2_CH1*%
%TO.N,Net-(J3-Pin_2)*%
X97750000Y-63077280D03*
%TO.P,U1,17,GPIO11/ADC2_CH0*%
%TO.N,Net-(U1-GPIO11{slash}ADC2_CH0)*%
X97750000Y-65617280D03*
%TO.P,U1,16,GPIO10/ADC1_CH9*%
%TO.N,unconnected-(U1-GPIO10{slash}ADC1_CH9-Pad16)*%
X97750000Y-68157280D03*
%TO.P,U1,15,GPIO9/ADC1_CH8*%
%TO.N,unconnected-(U1-GPIO9{slash}ADC1_CH8-Pad15)*%
X97750000Y-70697280D03*
%TO.P,U1,14,GPIO46*%
%TO.N,unconnected-(U1-GPIO46-Pad14)*%
X97750000Y-73237280D03*
%TO.P,U1,13,GPIO3/ADC1_CH2*%
%TO.N,unconnected-(U1-GPIO3{slash}ADC1_CH2-Pad13)*%
X97750000Y-75777280D03*
%TO.P,U1,12,GPIO8/ADC1_CH7*%
%TO.N,unconnected-(U1-GPIO8{slash}ADC1_CH7-Pad12)*%
X97750000Y-78317280D03*
%TO.P,U1,11,GPIO18/ADC2_CH7*%
%TO.N,unconnected-(U1-GPIO18{slash}ADC2_CH7-Pad11)*%
X97750000Y-80857280D03*
%TO.P,U1,10,GPIO17/ADC2_CH6*%
%TO.N,unconnected-(U1-GPIO17{slash}ADC2_CH6-Pad10)*%
X97750000Y-83397280D03*
%TO.P,U1,9,GPIO16/ADC2_CH5/32K_N*%
%TO.N,unconnected-(U1-GPIO16{slash}ADC2_CH5{slash}32K_N-Pad9)*%
X97750000Y-85937280D03*
%TO.P,U1,8,GPIO15/ADC2_CH4/32K_P*%
%TO.N,unconnected-(U1-GPIO15{slash}ADC2_CH4{slash}32K_P-Pad8)*%
X97750000Y-88477280D03*
%TO.P,U1,7,GPIO7/ADC1_CH6*%
%TO.N,unconnected-(U1-GPIO7{slash}ADC1_CH6-Pad7)*%
X97750000Y-91017280D03*
%TO.P,U1,6,GPIO6/ADC1_CH5*%
%TO.N,unconnected-(U1-GPIO6{slash}ADC1_CH5-Pad6)*%
X97750000Y-93557280D03*
%TO.P,U1,5,GPIO5/ADC1_CH4*%
%TO.N,unconnected-(U1-GPIO5{slash}ADC1_CH4-Pad5)*%
X97750000Y-96097280D03*
%TO.P,U1,4,GPIO4/ADC1_CH3*%
%TO.N,unconnected-(U1-GPIO4{slash}ADC1_CH3-Pad4)*%
X97750000Y-98637280D03*
%TO.P,U1,3,CHIP_PU*%
%TO.N,unconnected-(U1-CHIP_PU-Pad3)*%
X97750000Y-101177280D03*
%TO.P,U1,2,3V3*%
%TO.N,unconnected-(U1-3V3-Pad1)_1*%
X97750000Y-103717280D03*
D13*
%TO.P,U1,1,3V3*%
%TO.N,unconnected-(U1-3V3-Pad1)*%
X97750000Y-106257280D03*
%TD*%
D14*
%TO.P,J3,1,Pin_1*%
%TO.N,GND*%
X107600000Y-57300000D03*
D15*
%TO.P,J3,2,Pin_2*%
%TO.N,Net-(J3-Pin_2)*%
X105060000Y-57300000D03*
%TD*%
D16*
%TO.P,J1,1,Pin_1*%
%TO.N,/Normally Open*%
X105750000Y-100155000D03*
D17*
%TO.P,J1,2,Pin_2*%
%TO.N,/Common*%
X110750000Y-100155000D03*
%TO.P,J1,3,Pin_3*%
%TO.N,/Normally Closed*%
X115750000Y-100155000D03*
%TD*%
D18*
%TO.P,Q1,1,E*%
%TO.N,GND*%
X107300000Y-64360000D03*
D19*
%TO.P,Q1,2,B*%
%TO.N,Net-(Q1-B)*%
X107300000Y-65630000D03*
%TO.P,Q1,3,C*%
%TO.N,Net-(D1-A)*%
X107300000Y-66900000D03*
%TD*%
D20*
%TO.N,+5V*%
X112100000Y-72000000D03*
X101100000Y-57100000D03*
%TD*%
D21*
%TO.N,+5V*%
X101100000Y-67850000D02*
X103250000Y-70000000D01*
X103250000Y-70000000D02*
X110100000Y-70000000D01*
X110100000Y-70000000D02*
X112100000Y-72000000D01*
X101100000Y-57100000D02*
X101100000Y-67850000D01*
%TD*%
%TA.AperFunction,Conductor*%
%TO.N,GND*%
G36*
X118003736Y-51500726D02*
G01*
X118293796Y-51518271D01*
X118308659Y-51520076D01*
X118590798Y-51571780D01*
X118605335Y-51575363D01*
X118879172Y-51660695D01*
X118893163Y-51666000D01*
X119154743Y-51783727D01*
X119167989Y-51790680D01*
X119413465Y-51939075D01*
X119425776Y-51947573D01*
X119651573Y-52124473D01*
X119662781Y-52134403D01*
X119865596Y-52337218D01*
X119875526Y-52348426D01*
X119995481Y-52501538D01*
X120052422Y-52574217D01*
X120060926Y-52586537D01*
X120167533Y-52762886D01*
X120209316Y-52832004D01*
X120216275Y-52845263D01*
X120333997Y-53106831D01*
X120339306Y-53120832D01*
X120424635Y-53394663D01*
X120428219Y-53409201D01*
X120479923Y-53691340D01*
X120481728Y-53706205D01*
X120499274Y-53996263D01*
X120499500Y-54003750D01*
X120499500Y-104996249D01*
X120499274Y-105003736D01*
X120481728Y-105293794D01*
X120479923Y-105308659D01*
X120428219Y-105590798D01*
X120424635Y-105605336D01*
X120339306Y-105879167D01*
X120333997Y-105893168D01*
X120216275Y-106154736D01*
X120209316Y-106167995D01*
X120060928Y-106413459D01*
X120052422Y-106425782D01*
X119875526Y-106651573D01*
X119865596Y-106662781D01*
X119662781Y-106865596D01*
X119651573Y-106875526D01*
X119425782Y-107052422D01*
X119413459Y-107060928D01*
X119167995Y-107209316D01*
X119154736Y-107216275D01*
X118893168Y-107333997D01*
X118879167Y-107339306D01*
X118605336Y-107424635D01*
X118590798Y-107428219D01*
X118308659Y-107479923D01*
X118293794Y-107481728D01*
X118003736Y-107499274D01*
X117996249Y-107499500D01*
X99099828Y-107499500D01*
X99032789Y-107479815D01*
X98987034Y-107427011D01*
X98977090Y-107357853D01*
X99006115Y-107294297D01*
X99025516Y-107276234D01*
X99041620Y-107264177D01*
X99107546Y-107214826D01*
X99193796Y-107099611D01*
X99244091Y-106964763D01*
X99250500Y-106905153D01*
X99250499Y-105609408D01*
X99244091Y-105549797D01*
X99240689Y-105540677D01*
X99193797Y-105414951D01*
X99193793Y-105414944D01*
X99107547Y-105299735D01*
X99107544Y-105299732D01*
X98992335Y-105213486D01*
X98992328Y-105213482D01*
X98857482Y-105163188D01*
X98857483Y-105163188D01*
X98797883Y-105156781D01*
X98797881Y-105156780D01*
X98797873Y-105156780D01*
X98797864Y-105156780D01*
X96702129Y-105156780D01*
X96702123Y-105156781D01*
X96642516Y-105163188D01*
X96507671Y-105213482D01*
X96507664Y-105213486D01*
X96392455Y-105299732D01*
X96392452Y-105299735D01*
X96306206Y-105414944D01*
X96306202Y-105414951D01*
X96255908Y-105549797D01*
X96249501Y-105609396D01*
X96249501Y-105609403D01*
X96249500Y-105609415D01*
X96249500Y-106905150D01*
X96249501Y-106905156D01*
X96255908Y-106964763D01*
X96306202Y-107099608D01*
X96306206Y-107099615D01*
X96392452Y-107214824D01*
X96392453Y-107214824D01*
X96392454Y-107214826D01*
X96394390Y-107216275D01*
X96474484Y-107276234D01*
X96516354Y-107332168D01*
X96521338Y-107401860D01*
X96487852Y-107463182D01*
X96426529Y-107496667D01*
X96400172Y-107499500D01*
X73151462Y-107499500D01*
X73084423Y-107479815D01*
X73038668Y-107427011D01*
X73028724Y-107357853D01*
X73057749Y-107294297D01*
X73095167Y-107265015D01*
X73226524Y-107198084D01*
X73366602Y-107096312D01*
X73489032Y-106973882D01*
X73590804Y-106833804D01*
X73669408Y-106679535D01*
X73722914Y-106514864D01*
X73724115Y-106507280D01*
X72565686Y-106507280D01*
X72570080Y-106502886D01*
X72622741Y-106411674D01*
X72650000Y-106309941D01*
X72650000Y-106204619D01*
X72622741Y-106102886D01*
X72570080Y-106011674D01*
X72565686Y-106007280D01*
X73724115Y-106007280D01*
X73724115Y-106007279D01*
X73722914Y-105999695D01*
X73669408Y-105835024D01*
X73590804Y-105680755D01*
X73489032Y-105540677D01*
X73366602Y-105418247D01*
X73226524Y-105316475D01*
X73072257Y-105237871D01*
X72907584Y-105184365D01*
X72736571Y-105157280D01*
X72500000Y-105157280D01*
X72500000Y-105941594D01*
X72495606Y-105937200D01*
X72404394Y-105884539D01*
X72302661Y-105857280D01*
X72197339Y-105857280D01*
X72095606Y-105884539D01*
X72004394Y-105937200D01*
X72000000Y-105941594D01*
X72000000Y-105157280D01*
X71763429Y-105157280D01*
X71592415Y-105184365D01*
X71427742Y-105237871D01*
X71273475Y-105316475D01*
X71133397Y-105418247D01*
X71010967Y-105540677D01*
X70909195Y-105680755D01*
X70830591Y-105835024D01*
X70777085Y-105999695D01*
X70775884Y-106007279D01*
X70775885Y-106007280D01*
X71934314Y-106007280D01*
X71929920Y-106011674D01*
X71877259Y-106102886D01*
X71850000Y-106204619D01*
X71850000Y-106309941D01*
X71877259Y-106411674D01*
X71929920Y-106502886D01*
X71934314Y-106507280D01*
X70775885Y-106507280D01*
X70777085Y-106514864D01*
X70830591Y-106679535D01*
X70909195Y-106833804D01*
X71010967Y-106973882D01*
X71133397Y-107096312D01*
X71273475Y-107198084D01*
X71404833Y-107265015D01*
X71455629Y-107312990D01*
X71472424Y-107380811D01*
X71449886Y-107446946D01*
X71395171Y-107490397D01*
X71348538Y-107499500D01*
X67003751Y-107499500D01*
X66996264Y-107499274D01*
X66706205Y-107481728D01*
X66691340Y-107479923D01*
X66409201Y-107428219D01*
X66394663Y-107424635D01*
X66120832Y-107339306D01*
X66106831Y-107333997D01*
X65845263Y-107216275D01*
X65832004Y-107209316D01*
X65650525Y-107099608D01*
X65586537Y-107060926D01*
X65574217Y-107052422D01*
X65348426Y-106875526D01*
X65337218Y-106865596D01*
X65134403Y-106662781D01*
X65124473Y-106651573D01*
X65066331Y-106577360D01*
X64947573Y-106425776D01*
X64939075Y-106413465D01*
X64790680Y-106167989D01*
X64783727Y-106154743D01*
X64666000Y-105893163D01*
X64660693Y-105879167D01*
X64598865Y-105680755D01*
X64575363Y-105605335D01*
X64571780Y-105590798D01*
X64539554Y-105414949D01*
X64520075Y-105308657D01*
X64518271Y-105293794D01*
X64500726Y-105003736D01*
X64500500Y-104996249D01*
X64500500Y-103630669D01*
X70749500Y-103630669D01*
X70749500Y-103803891D01*
X70776598Y-103974981D01*
X70830127Y-104139725D01*
X70908768Y-104294068D01*
X71010586Y-104434208D01*
X71133072Y-104556694D01*
X71273212Y-104658512D01*
X71427555Y-104737153D01*
X71592299Y-104790682D01*
X71763389Y-104817780D01*
X71763390Y-104817780D01*
X72736610Y-104817780D01*
X72736611Y-104817780D01*
X72907701Y-104790682D01*
X73072445Y-104737153D01*
X73226788Y-104658512D01*
X73366928Y-104556694D01*
X73489414Y-104434208D01*
X73591232Y-104294068D01*
X73669873Y-104139725D01*
X73723402Y-103974981D01*
X73750500Y-103803891D01*
X73750500Y-103630669D01*
X96249500Y-103630669D01*
X96249500Y-103803891D01*
X96276598Y-103974981D01*
X96330127Y-104139725D01*
X96408768Y-104294068D01*
X96510586Y-104434208D01*
X96633072Y-104556694D01*
X96773212Y-104658512D01*
X96927555Y-104737153D01*
X97092299Y-104790682D01*
X97263389Y-104817780D01*
X97263390Y-104817780D01*
X98236610Y-104817780D01*
X98236611Y-104817780D01*
X98407701Y-104790682D01*
X98572445Y-104737153D01*
X98726788Y-104658512D01*
X98866928Y-104556694D01*
X98989414Y-104434208D01*
X99091232Y-104294068D01*
X99169873Y-104139725D01*
X99223402Y-103974981D01*
X99250500Y-103803891D01*
X99250500Y-103630669D01*
X99223402Y-103459579D01*
X99169873Y-103294835D01*
X99091232Y-103140492D01*
X98989414Y-103000352D01*
X98866928Y-102877866D01*
X98726788Y-102776048D01*
X98572445Y-102697407D01*
X98407701Y-102643878D01*
X98407699Y-102643877D01*
X98407698Y-102643877D01*
X98276271Y-102623061D01*
X98236611Y-102616780D01*
X97263389Y-102616780D01*
X97223728Y-102623061D01*
X97092302Y-102643877D01*
X96927552Y-102697408D01*
X96773211Y-102776048D01*
X96693256Y-102834139D01*
X96633072Y-102877866D01*
X96633070Y-102877868D01*
X96633069Y-102877868D01*
X96510588Y-103000349D01*
X96510588Y-103000350D01*
X96510586Y-103000352D01*
X96466859Y-103060536D01*
X96408768Y-103140491D01*
X96330128Y-103294832D01*
X96276597Y-103459582D01*
X96249500Y-103630669D01*
X73750500Y-103630669D01*
X73723402Y-103459579D01*
X73669873Y-103294835D01*
X73591232Y-103140492D01*
X73489414Y-103000352D01*
X73366928Y-102877866D01*
X73226788Y-102776048D01*
X73072445Y-102697407D01*
X72907701Y-102643878D01*
X72907699Y-102643877D01*
X72907698Y-102643877D01*
X72776271Y-102623061D01*
X72736611Y-102616780D01*
X71763389Y-102616780D01*
X71723728Y-102623061D01*
X71592302Y-102643877D01*
X71427552Y-102697408D01*
X71273211Y-102776048D01*
X71193256Y-102834139D01*
X71133072Y-102877866D01*
X71133070Y-102877868D01*
X71133069Y-102877868D01*
X71010588Y-103000349D01*
X71010588Y-103000350D01*
X71010586Y-103000352D01*
X70966859Y-103060536D01*
X70908768Y-103140491D01*
X70830128Y-103294832D01*
X70776597Y-103459582D01*
X70749500Y-103630669D01*
X64500500Y-103630669D01*
X64500500Y-101090669D01*
X70749500Y-101090669D01*
X70749500Y-101263891D01*
X70776598Y-101434981D01*
X70830127Y-101599725D01*
X70908768Y-101754068D01*
X71010586Y-101894208D01*
X71133072Y-102016694D01*
X71273212Y-102118512D01*
X71427555Y-102197153D01*
X71592299Y-102250682D01*
X71763389Y-102277780D01*
X71763390Y-102277780D01*
X72736610Y-102277780D01*
X72736611Y-102277780D01*
X72907701Y-102250682D01*
X73072445Y-102197153D01*
X73226788Y-102118512D01*
X73366928Y-102016694D01*
X73489414Y-101894208D01*
X73591232Y-101754068D01*
X73669873Y-101599725D01*
X73723402Y-101434981D01*
X73750500Y-101263891D01*
X73750500Y-101090669D01*
X96249500Y-101090669D01*
X96249500Y-101263891D01*
X96276598Y-101434981D01*
X96330127Y-101599725D01*
X96408768Y-101754068D01*
X96510586Y-101894208D01*
X96633072Y-102016694D01*
X96773212Y-102118512D01*
X96927555Y-102197153D01*
X97092299Y-102250682D01*
X97263389Y-102277780D01*
X97263390Y-102277780D01*
X98236610Y-102277780D01*
X98236611Y-102277780D01*
X98407701Y-102250682D01*
X98572445Y-102197153D01*
X98726788Y-102118512D01*
X98866928Y-102016694D01*
X98989414Y-101894208D01*
X99091232Y-101754068D01*
X99169873Y-101599725D01*
X99223402Y-101434981D01*
X99250500Y-101263891D01*
X99250500Y-101090669D01*
X99223402Y-100919579D01*
X99169873Y-100754835D01*
X99091232Y-100600492D01*
X98989414Y-100460352D01*
X98866928Y-100337866D01*
X98726788Y-100236048D01*
X98572445Y-100157407D01*
X98407701Y-100103878D01*
X98407699Y-100103877D01*
X98407698Y-100103877D01*
X98276271Y-100083061D01*
X98236611Y-100076780D01*
X97263389Y-100076780D01*
X97223728Y-100083061D01*
X97092302Y-100103877D01*
X96927552Y-100157408D01*
X96773211Y-100236048D01*
X96693256Y-100294139D01*
X96633072Y-100337866D01*
X96633070Y-100337868D01*
X96633069Y-100337868D01*
X96510588Y-100460349D01*
X96510588Y-100460350D01*
X96510586Y-100460352D01*
X96466859Y-100520536D01*
X96408768Y-100600491D01*
X96330128Y-100754832D01*
X96276597Y-100919582D01*
X96273617Y-100938398D01*
X96249500Y-101090669D01*
X73750500Y-101090669D01*
X73723402Y-100919579D01*
X73669873Y-100754835D01*
X73591232Y-100600492D01*
X73489414Y-100460352D01*
X73366928Y-100337866D01*
X73226788Y-100236048D01*
X73072445Y-100157407D01*
X72907701Y-100103878D01*
X72907699Y-100103877D01*
X72907698Y-100103877D01*
X72776271Y-100083061D01*
X72736611Y-100076780D01*
X71763389Y-100076780D01*
X71723728Y-100083061D01*
X71592302Y-100103877D01*
X71427552Y-100157408D01*
X71273211Y-100236048D01*
X71193256Y-100294139D01*
X71133072Y-100337866D01*
X71133070Y-100337868D01*
X71133069Y-100337868D01*
X71010588Y-100460349D01*
X71010588Y-100460350D01*
X71010586Y-100460352D01*
X70966859Y-100520536D01*
X70908768Y-100600491D01*
X70830128Y-100754832D01*
X70776597Y-100919582D01*
X70773617Y-100938398D01*
X70749500Y-101090669D01*
X64500500Y-101090669D01*
X64500500Y-98550669D01*
X70749500Y-98550669D01*
X70749500Y-98723890D01*
X70762684Y-98807135D01*
X70776598Y-98894981D01*
X70830127Y-99059725D01*
X70908768Y-99214068D01*
X71010586Y-99354208D01*
X71133072Y-99476694D01*
X71273212Y-99578512D01*
X71427555Y-99657153D01*
X71592299Y-99710682D01*
X71763389Y-99737780D01*
X71763390Y-99737780D01*
X72736610Y-99737780D01*
X72736611Y-99737780D01*
X72907701Y-99710682D01*
X73072445Y-99657153D01*
X73226788Y-99578512D01*
X73366928Y-99476694D01*
X73489414Y-99354208D01*
X73591232Y-99214068D01*
X73669873Y-99059725D01*
X73723402Y-98894981D01*
X73750500Y-98723891D01*
X73750500Y-98550669D01*
X96249500Y-98550669D01*
X96249500Y-98723890D01*
X96262684Y-98807135D01*
X96276598Y-98894981D01*
X96330127Y-99059725D01*
X96408768Y-99214068D01*
X96510586Y-99354208D01*
X96633072Y-99476694D01*
X96773212Y-99578512D01*
X96927555Y-99657153D01*
X97092299Y-99710682D01*
X97263389Y-99737780D01*
X97263390Y-99737780D01*
X98236610Y-99737780D01*
X98236611Y-99737780D01*
X98407701Y-99710682D01*
X98572445Y-99657153D01*
X98726788Y-99578512D01*
X98866928Y-99476694D01*
X98989414Y-99354208D01*
X99091232Y-99214068D01*
X99169873Y-99059725D01*
X99223402Y-98894981D01*
X99237315Y-98807135D01*
X103949500Y-98807135D01*
X103949500Y-101502870D01*
X103949501Y-101502876D01*
X103955908Y-101562483D01*
X104006202Y-101697328D01*
X104006206Y-101697335D01*
X104092452Y-101812544D01*
X104092455Y-101812547D01*
X104207664Y-101898793D01*
X104207671Y-101898797D01*
X104342517Y-101949091D01*
X104342516Y-101949091D01*
X104349444Y-101949835D01*
X104402127Y-101955500D01*
X107097872Y-101955499D01*
X107157483Y-101949091D01*
X107292331Y-101898796D01*
X107407546Y-101812546D01*
X107493796Y-101697331D01*
X107544091Y-101562483D01*
X107550500Y-101502873D01*
X107550499Y-100154995D01*
X108944451Y-100154995D01*
X108944451Y-100155004D01*
X108964616Y-100424101D01*
X109024664Y-100687188D01*
X109024666Y-100687195D01*
X109123257Y-100938398D01*
X109258185Y-101172102D01*
X109331384Y-101263890D01*
X109426442Y-101383089D01*
X109613183Y-101556358D01*
X109624259Y-101566635D01*
X109847226Y-101718651D01*
X110090359Y-101835738D01*
X110348228Y-101915280D01*
X110348229Y-101915280D01*
X110348232Y-101915281D01*
X110615063Y-101955499D01*
X110615068Y-101955499D01*
X110615071Y-101955500D01*
X110615072Y-101955500D01*
X110884928Y-101955500D01*
X110884929Y-101955500D01*
X110884936Y-101955499D01*
X111151767Y-101915281D01*
X111151768Y-101915280D01*
X111151772Y-101915280D01*
X111409641Y-101835738D01*
X111652775Y-101718651D01*
X111875741Y-101566635D01*
X112073561Y-101383085D01*
X112241815Y-101172102D01*
X112376743Y-100938398D01*
X112475334Y-100687195D01*
X112535383Y-100424103D01*
X112542105Y-100334402D01*
X112555549Y-100155004D01*
X112555549Y-100154995D01*
X113944451Y-100154995D01*
X113944451Y-100155004D01*
X113964616Y-100424101D01*
X114024664Y-100687188D01*
X114024666Y-100687195D01*
X114123257Y-100938398D01*
X114258185Y-101172102D01*
X114331384Y-101263890D01*
X114426442Y-101383089D01*
X114613183Y-101556358D01*
X114624259Y-101566635D01*
X114847226Y-101718651D01*
X115090359Y-101835738D01*
X115348228Y-101915280D01*
X115348229Y-101915280D01*
X115348232Y-101915281D01*
X115615063Y-101955499D01*
X115615068Y-101955499D01*
X115615071Y-101955500D01*
X115615072Y-101955500D01*
X115884928Y-101955500D01*
X115884929Y-101955500D01*
X115884936Y-101955499D01*
X116151767Y-101915281D01*
X116151768Y-101915280D01*
X116151772Y-101915280D01*
X116409641Y-101835738D01*
X116652775Y-101718651D01*
X116875741Y-101566635D01*
X117073561Y-101383085D01*
X117241815Y-101172102D01*
X117376743Y-100938398D01*
X117475334Y-100687195D01*
X117535383Y-100424103D01*
X117542105Y-100334402D01*
X117555549Y-100155004D01*
X117555549Y-100154995D01*
X117535383Y-99885898D01*
X117495391Y-99710682D01*
X117475334Y-99622805D01*
X117376743Y-99371602D01*
X117241815Y-99137898D01*
X117073561Y-98926915D01*
X117073560Y-98926914D01*
X117073557Y-98926910D01*
X116875741Y-98743365D01*
X116847176Y-98723890D01*
X116652775Y-98591349D01*
X116652769Y-98591346D01*
X116652768Y-98591345D01*
X116652767Y-98591344D01*
X116409643Y-98474263D01*
X116409645Y-98474263D01*
X116151773Y-98394720D01*
X116151767Y-98394718D01*
X115884936Y-98354500D01*
X115884929Y-98354500D01*
X115615071Y-98354500D01*
X115615063Y-98354500D01*
X115348232Y-98394718D01*
X115348226Y-98394720D01*
X115090358Y-98474262D01*
X114847230Y-98591346D01*
X114624258Y-98743365D01*
X114426442Y-98926910D01*
X114258185Y-99137898D01*
X114123258Y-99371599D01*
X114123256Y-99371603D01*
X114024666Y-99622804D01*
X114024664Y-99622811D01*
X113964616Y-99885898D01*
X113944451Y-100154995D01*
X112555549Y-100154995D01*
X112535383Y-99885898D01*
X112495391Y-99710682D01*
X112475334Y-99622805D01*
X112376743Y-99371602D01*
X112241815Y-99137898D01*
X112073561Y-98926915D01*
X112073560Y-98926914D01*
X112073557Y-98926910D01*
X111875741Y-98743365D01*
X111847176Y-98723890D01*
X111652775Y-98591349D01*
X111652769Y-98591346D01*
X111652768Y-98591345D01*
X111652767Y-98591344D01*
X111409643Y-98474263D01*
X111409645Y-98474263D01*
X111151773Y-98394720D01*
X111151767Y-98394718D01*
X110884936Y-98354500D01*
X110884929Y-98354500D01*
X110615071Y-98354500D01*
X110615063Y-98354500D01*
X110348232Y-98394718D01*
X110348226Y-98394720D01*
X110090358Y-98474262D01*
X109847230Y-98591346D01*
X109624258Y-98743365D01*
X109426442Y-98926910D01*
X109258185Y-99137898D01*
X109123258Y-99371599D01*
X109123256Y-99371603D01*
X109024666Y-99622804D01*
X109024664Y-99622811D01*
X108964616Y-99885898D01*
X108944451Y-100154995D01*
X107550499Y-100154995D01*
X107550499Y-98807128D01*
X107544091Y-98747517D01*
X107542542Y-98743365D01*
X107493797Y-98612671D01*
X107493793Y-98612664D01*
X107407547Y-98497455D01*
X107407544Y-98497452D01*
X107292335Y-98411206D01*
X107292328Y-98411202D01*
X107157482Y-98360908D01*
X107157483Y-98360908D01*
X107097883Y-98354501D01*
X107097881Y-98354500D01*
X107097873Y-98354500D01*
X107097864Y-98354500D01*
X104402129Y-98354500D01*
X104402123Y-98354501D01*
X104342516Y-98360908D01*
X104207671Y-98411202D01*
X104207664Y-98411206D01*
X104092455Y-98497452D01*
X104092452Y-98497455D01*
X104006206Y-98612664D01*
X104006202Y-98612671D01*
X103955908Y-98747517D01*
X103949501Y-98807116D01*
X103949501Y-98807123D01*
X103949500Y-98807135D01*
X99237315Y-98807135D01*
X99250500Y-98723891D01*
X99250500Y-98550669D01*
X99223402Y-98379579D01*
X99169873Y-98214835D01*
X99091232Y-98060492D01*
X98989414Y-97920352D01*
X98866928Y-97797866D01*
X98726788Y-97696048D01*
X98572445Y-97617407D01*
X98407701Y-97563878D01*
X98407699Y-97563877D01*
X98407698Y-97563877D01*
X98276271Y-97543061D01*
X98236611Y-97536780D01*
X97263389Y-97536780D01*
X97223728Y-97543061D01*
X97092302Y-97563877D01*
X96927552Y-97617408D01*
X96773211Y-97696048D01*
X96693256Y-97754139D01*
X96633072Y-97797866D01*
X96633070Y-97797868D01*
X96633069Y-97797868D01*
X96510588Y-97920349D01*
X96510588Y-97920350D01*
X96510586Y-97920352D01*
X96466859Y-97980536D01*
X96408768Y-98060491D01*
X96330128Y-98214832D01*
X96276597Y-98379582D01*
X96249500Y-98550669D01*
X73750500Y-98550669D01*
X73723402Y-98379579D01*
X73669873Y-98214835D01*
X73591232Y-98060492D01*
X73489414Y-97920352D01*
X73366928Y-97797866D01*
X73226788Y-97696048D01*
X73072445Y-97617407D01*
X72907701Y-97563878D01*
X72907699Y-97563877D01*
X72907698Y-97563877D01*
X72776271Y-97543061D01*
X72736611Y-97536780D01*
X71763389Y-97536780D01*
X71723728Y-97543061D01*
X71592302Y-97563877D01*
X71427552Y-97617408D01*
X71273211Y-97696048D01*
X71193256Y-97754139D01*
X71133072Y-97797866D01*
X71133070Y-97797868D01*
X71133069Y-97797868D01*
X71010588Y-97920349D01*
X71010588Y-97920350D01*
X71010586Y-97920352D01*
X70966859Y-97980536D01*
X70908768Y-98060491D01*
X70830128Y-98214832D01*
X70776597Y-98379582D01*
X70749500Y-98550669D01*
X64500500Y-98550669D01*
X64500500Y-96010669D01*
X70749500Y-96010669D01*
X70749500Y-96183891D01*
X70776598Y-96354981D01*
X70830127Y-96519725D01*
X70908768Y-96674068D01*
X71010586Y-96814208D01*
X71133072Y-96936694D01*
X71273212Y-97038512D01*
X71427555Y-97117153D01*
X71592299Y-97170682D01*
X71763389Y-97197780D01*
X71763390Y-97197780D01*
X72736610Y-97197780D01*
X72736611Y-97197780D01*
X72907701Y-97170682D01*
X73072445Y-97117153D01*
X73226788Y-97038512D01*
X73366928Y-96936694D01*
X73489414Y-96814208D01*
X73591232Y-96674068D01*
X73669873Y-96519725D01*
X73723402Y-96354981D01*
X73750500Y-96183891D01*
X73750500Y-96010669D01*
X96249500Y-96010669D01*
X96249500Y-96183891D01*
X96276598Y-96354981D01*
X96330127Y-96519725D01*
X96408768Y-96674068D01*
X96510586Y-96814208D01*
X96633072Y-96936694D01*
X96773212Y-97038512D01*
X96927555Y-97117153D01*
X97092299Y-97170682D01*
X97263389Y-97197780D01*
X97263390Y-97197780D01*
X98236610Y-97197780D01*
X98236611Y-97197780D01*
X98407701Y-97170682D01*
X98572445Y-97117153D01*
X98726788Y-97038512D01*
X98866928Y-96936694D01*
X98989414Y-96814208D01*
X99091232Y-96674068D01*
X99169873Y-96519725D01*
X99223402Y-96354981D01*
X99250500Y-96183891D01*
X99250500Y-96010669D01*
X99223402Y-95839579D01*
X99169873Y-95674835D01*
X99091232Y-95520492D01*
X98989414Y-95380352D01*
X98866928Y-95257866D01*
X98726788Y-95156048D01*
X98572445Y-95077407D01*
X98407701Y-95023878D01*
X98407699Y-95023877D01*
X98407698Y-95023877D01*
X98276271Y-95003061D01*
X98236611Y-94996780D01*
X97263389Y-94996780D01*
X97223728Y-95003061D01*
X97092302Y-95023877D01*
X96927552Y-95077408D01*
X96773211Y-95156048D01*
X96693256Y-95214139D01*
X96633072Y-95257866D01*
X96633070Y-95257868D01*
X96633069Y-95257868D01*
X96510588Y-95380349D01*
X96510588Y-95380350D01*
X96510586Y-95380352D01*
X96466859Y-95440536D01*
X96408768Y-95520491D01*
X96330128Y-95674832D01*
X96276597Y-95839582D01*
X96249500Y-96010669D01*
X73750500Y-96010669D01*
X73723402Y-95839579D01*
X73669873Y-95674835D01*
X73591232Y-95520492D01*
X73489414Y-95380352D01*
X73366928Y-95257866D01*
X73226788Y-95156048D01*
X73072445Y-95077407D01*
X72907701Y-95023878D01*
X72907699Y-95023877D01*
X72907698Y-95023877D01*
X72776271Y-95003061D01*
X72736611Y-94996780D01*
X71763389Y-94996780D01*
X71723728Y-95003061D01*
X71592302Y-95023877D01*
X71427552Y-95077408D01*
X71273211Y-95156048D01*
X71193256Y-95214139D01*
X71133072Y-95257866D01*
X71133070Y-95257868D01*
X71133069Y-95257868D01*
X71010588Y-95380349D01*
X71010588Y-95380350D01*
X71010586Y-95380352D01*
X70966859Y-95440536D01*
X70908768Y-95520491D01*
X70830128Y-95674832D01*
X70776597Y-95839582D01*
X70749500Y-96010669D01*
X64500500Y-96010669D01*
X64500500Y-93470669D01*
X70749500Y-93470669D01*
X70749500Y-93643891D01*
X70776598Y-93814981D01*
X70830127Y-93979725D01*
X70908768Y-94134068D01*
X71010586Y-94274208D01*
X71133072Y-94396694D01*
X71273212Y-94498512D01*
X71427555Y-94577153D01*
X71592299Y-94630682D01*
X71763389Y-94657780D01*
X71763390Y-94657780D01*
X72736610Y-94657780D01*
X72736611Y-94657780D01*
X72907701Y-94630682D01*
X73072445Y-94577153D01*
X73226788Y-94498512D01*
X73366928Y-94396694D01*
X73489414Y-94274208D01*
X73591232Y-94134068D01*
X73669873Y-93979725D01*
X73723402Y-93814981D01*
X73750500Y-93643891D01*
X73750500Y-93470669D01*
X96249500Y-93470669D01*
X96249500Y-93643891D01*
X96276598Y-93814981D01*
X96330127Y-93979725D01*
X96408768Y-94134068D01*
X96510586Y-94274208D01*
X96633072Y-94396694D01*
X96773212Y-94498512D01*
X96927555Y-94577153D01*
X97092299Y-94630682D01*
X97263389Y-94657780D01*
X97263390Y-94657780D01*
X98236610Y-94657780D01*
X98236611Y-94657780D01*
X98407701Y-94630682D01*
X98572445Y-94577153D01*
X98726788Y-94498512D01*
X98866928Y-94396694D01*
X98989414Y-94274208D01*
X99091232Y-94134068D01*
X99169873Y-93979725D01*
X99223402Y-93814981D01*
X99250500Y-93643891D01*
X99250500Y-93470669D01*
X99223402Y-93299579D01*
X99169873Y-93134835D01*
X99091232Y-92980492D01*
X98989414Y-92840352D01*
X98866928Y-92717866D01*
X98726788Y-92616048D01*
X98572445Y-92537407D01*
X98407701Y-92483878D01*
X98407699Y-92483877D01*
X98407698Y-92483877D01*
X98276271Y-92463061D01*
X98236611Y-92456780D01*
X97263389Y-92456780D01*
X97223728Y-92463061D01*
X97092302Y-92483877D01*
X96927552Y-92537408D01*
X96773211Y-92616048D01*
X96693256Y-92674139D01*
X96633072Y-92717866D01*
X96633070Y-92717868D01*
X96633069Y-92717868D01*
X96510588Y-92840349D01*
X96510588Y-92840350D01*
X96510586Y-92840352D01*
X96466859Y-92900536D01*
X96408768Y-92980491D01*
X96330128Y-93134832D01*
X96276597Y-93299582D01*
X96249500Y-93470669D01*
X73750500Y-93470669D01*
X73723402Y-93299579D01*
X73669873Y-93134835D01*
X73591232Y-92980492D01*
X73489414Y-92840352D01*
X73366928Y-92717866D01*
X73226788Y-92616048D01*
X73072445Y-92537407D01*
X72907701Y-92483878D01*
X72907699Y-92483877D01*
X72907698Y-92483877D01*
X72776271Y-92463061D01*
X72736611Y-92456780D01*
X71763389Y-92456780D01*
X71723728Y-92463061D01*
X71592302Y-92483877D01*
X71427552Y-92537408D01*
X71273211Y-92616048D01*
X71193256Y-92674139D01*
X71133072Y-92717866D01*
X71133070Y-92717868D01*
X71133069Y-92717868D01*
X71010588Y-92840349D01*
X71010588Y-92840350D01*
X71010586Y-92840352D01*
X70966859Y-92900536D01*
X70908768Y-92980491D01*
X70830128Y-93134832D01*
X70776597Y-93299582D01*
X70749500Y-93470669D01*
X64500500Y-93470669D01*
X64500500Y-90930669D01*
X70749500Y-90930669D01*
X70749500Y-91103891D01*
X70776598Y-91274981D01*
X70830127Y-91439725D01*
X70908768Y-91594068D01*
X71010586Y-91734208D01*
X71133072Y-91856694D01*
X71273212Y-91958512D01*
X71427555Y-92037153D01*
X71592299Y-92090682D01*
X71763389Y-92117780D01*
X71763390Y-92117780D01*
X72736610Y-92117780D01*
X72736611Y-92117780D01*
X72907701Y-92090682D01*
X73072445Y-92037153D01*
X73226788Y-91958512D01*
X73366928Y-91856694D01*
X73489414Y-91734208D01*
X73591232Y-91594068D01*
X73669873Y-91439725D01*
X73723402Y-91274981D01*
X73750500Y-91103891D01*
X73750500Y-90930669D01*
X96249500Y-90930669D01*
X96249500Y-91103891D01*
X96276598Y-91274981D01*
X96330127Y-91439725D01*
X96408768Y-91594068D01*
X96510586Y-91734208D01*
X96633072Y-91856694D01*
X96773212Y-91958512D01*
X96927555Y-92037153D01*
X97092299Y-92090682D01*
X97263389Y-92117780D01*
X97263390Y-92117780D01*
X98236610Y-92117780D01*
X98236611Y-92117780D01*
X98407701Y-92090682D01*
X98572445Y-92037153D01*
X98726788Y-91958512D01*
X98866928Y-91856694D01*
X98989414Y-91734208D01*
X99091232Y-91594068D01*
X99169873Y-91439725D01*
X99223402Y-91274981D01*
X99250500Y-91103891D01*
X99250500Y-90930669D01*
X99223402Y-90759579D01*
X99169873Y-90594835D01*
X99091232Y-90440492D01*
X98989414Y-90300352D01*
X98866928Y-90177866D01*
X98726788Y-90076048D01*
X98577530Y-89999998D01*
X102694390Y-89999998D01*
X102694390Y-90000001D01*
X102714804Y-90285433D01*
X102775628Y-90565037D01*
X102775630Y-90565043D01*
X102775631Y-90565046D01*
X102875633Y-90833161D01*
X102875635Y-90833166D01*
X103012770Y-91084309D01*
X103012775Y-91084317D01*
X103184254Y-91313387D01*
X103184270Y-91313405D01*
X103386594Y-91515729D01*
X103386612Y-91515745D01*
X103615682Y-91687224D01*
X103615690Y-91687229D01*
X103866833Y-91824364D01*
X103866832Y-91824364D01*
X103866836Y-91824365D01*
X103866839Y-91824367D01*
X104134954Y-91924369D01*
X104134960Y-91924370D01*
X104134962Y-91924371D01*
X104414566Y-91985195D01*
X104414568Y-91985195D01*
X104414572Y-91985196D01*
X104668220Y-92003337D01*
X104699999Y-92005610D01*
X104700000Y-92005610D01*
X104700001Y-92005610D01*
X104728595Y-92003564D01*
X104985428Y-91985196D01*
X105108098Y-91958511D01*
X105265037Y-91924371D01*
X105265037Y-91924370D01*
X105265046Y-91924369D01*
X105533161Y-91824367D01*
X105784315Y-91687226D01*
X106013395Y-91515739D01*
X106215739Y-91313395D01*
X106387226Y-91084315D01*
X106524367Y-90833161D01*
X106624369Y-90565046D01*
X106674319Y-90335428D01*
X106685195Y-90285433D01*
X106685195Y-90285432D01*
X106685196Y-90285428D01*
X106702034Y-90049998D01*
X114744390Y-90049998D01*
X114744390Y-90050001D01*
X114764804Y-90335433D01*
X114825628Y-90615037D01*
X114825630Y-90615043D01*
X114825631Y-90615046D01*
X114906984Y-90833161D01*
X114925635Y-90883166D01*
X115062770Y-91134309D01*
X115062775Y-91134317D01*
X115234254Y-91363387D01*
X115234270Y-91363405D01*
X115436594Y-91565729D01*
X115436612Y-91565745D01*
X115665682Y-91737224D01*
X115665690Y-91737229D01*
X115916833Y-91874364D01*
X115916832Y-91874364D01*
X115916836Y-91874365D01*
X115916839Y-91874367D01*
X116184954Y-91974369D01*
X116184960Y-91974370D01*
X116184962Y-91974371D01*
X116464566Y-92035195D01*
X116464568Y-92035195D01*
X116464572Y-92035196D01*
X116718220Y-92053337D01*
X116749999Y-92055610D01*
X116750000Y-92055610D01*
X116750001Y-92055610D01*
X116778595Y-92053564D01*
X117035428Y-92035196D01*
X117315046Y-91974369D01*
X117583161Y-91874367D01*
X117834315Y-91737226D01*
X118063395Y-91565739D01*
X118265739Y-91363395D01*
X118437226Y-91134315D01*
X118574367Y-90883161D01*
X118674369Y-90615046D01*
X118735196Y-90335428D01*
X118755610Y-90050000D01*
X118735196Y-89764572D01*
X118677022Y-89497151D01*
X118674371Y-89484962D01*
X118674370Y-89484960D01*
X118674369Y-89484954D01*
X118574367Y-89216839D01*
X118562009Y-89194208D01*
X118437229Y-88965690D01*
X118437224Y-88965682D01*
X118265745Y-88736612D01*
X118265729Y-88736594D01*
X118063405Y-88534270D01*
X118063387Y-88534254D01*
X117834317Y-88362775D01*
X117834309Y-88362770D01*
X117583166Y-88225635D01*
X117583167Y-88225635D01*
X117475915Y-88185632D01*
X117315046Y-88125631D01*
X117315043Y-88125630D01*
X117315037Y-88125628D01*
X117035433Y-88064804D01*
X116750001Y-88044390D01*
X116749999Y-88044390D01*
X116464566Y-88064804D01*
X116184962Y-88125628D01*
X115916833Y-88225635D01*
X115665690Y-88362770D01*
X115665682Y-88362775D01*
X115436612Y-88534254D01*
X115436594Y-88534270D01*
X115234270Y-88736594D01*
X115234254Y-88736612D01*
X115062775Y-88965682D01*
X115062770Y-88965690D01*
X114925635Y-89216833D01*
X114825628Y-89484962D01*
X114764804Y-89764566D01*
X114744390Y-90049998D01*
X106702034Y-90049998D01*
X106705610Y-90000000D01*
X106685196Y-89714572D01*
X106624369Y-89434954D01*
X106524367Y-89166839D01*
X106387226Y-88915685D01*
X106253169Y-88736605D01*
X106215745Y-88686612D01*
X106215729Y-88686594D01*
X106013405Y-88484270D01*
X106013387Y-88484254D01*
X105784317Y-88312775D01*
X105784309Y-88312770D01*
X105533166Y-88175635D01*
X105533167Y-88175635D01*
X105399093Y-88125628D01*
X105265046Y-88075631D01*
X105265043Y-88075630D01*
X105265037Y-88075628D01*
X104985433Y-88014804D01*
X104700001Y-87994390D01*
X104699999Y-87994390D01*
X104414566Y-88014804D01*
X104134962Y-88075628D01*
X103866833Y-88175635D01*
X103615690Y-88312770D01*
X103615682Y-88312775D01*
X103386612Y-88484254D01*
X103386594Y-88484270D01*
X103184270Y-88686594D01*
X103184254Y-88686612D01*
X103012775Y-88915682D01*
X103012770Y-88915690D01*
X102875635Y-89166833D01*
X102775628Y-89434962D01*
X102714804Y-89714566D01*
X102694390Y-89999998D01*
X98577530Y-89999998D01*
X98572445Y-89997407D01*
X98407701Y-89943878D01*
X98407699Y-89943877D01*
X98407698Y-89943877D01*
X98276271Y-89923061D01*
X98236611Y-89916780D01*
X97263389Y-89916780D01*
X97223728Y-89923061D01*
X97092302Y-89943877D01*
X96927552Y-89997408D01*
X96773211Y-90076048D01*
X96693256Y-90134139D01*
X96633072Y-90177866D01*
X96633070Y-90177868D01*
X96633069Y-90177868D01*
X96510588Y-90300349D01*
X96510588Y-90300350D01*
X96510586Y-90300352D01*
X96485102Y-90335428D01*
X96408768Y-90440491D01*
X96330128Y-90594832D01*
X96276597Y-90759582D01*
X96257024Y-90883166D01*
X96249500Y-90930669D01*
X73750500Y-90930669D01*
X73723402Y-90759579D01*
X73669873Y-90594835D01*
X73591232Y-90440492D01*
X73489414Y-90300352D01*
X73366928Y-90177866D01*
X73226788Y-90076048D01*
X73072445Y-89997407D01*
X72907701Y-89943878D01*
X72907699Y-89943877D01*
X72907698Y-89943877D01*
X72776271Y-89923061D01*
X72736611Y-89916780D01*
X71763389Y-89916780D01*
X71723728Y-89923061D01*
X71592302Y-89943877D01*
X71427552Y-89997408D01*
X71273211Y-90076048D01*
X71193256Y-90134139D01*
X71133072Y-90177866D01*
X71133070Y-90177868D01*
X71133069Y-90177868D01*
X71010588Y-90300349D01*
X71010588Y-90300350D01*
X71010586Y-90300352D01*
X70985102Y-90335428D01*
X70908768Y-90440491D01*
X70830128Y-90594832D01*
X70776597Y-90759582D01*
X70757024Y-90883166D01*
X70749500Y-90930669D01*
X64500500Y-90930669D01*
X64500500Y-88390669D01*
X70749500Y-88390669D01*
X70749500Y-88563890D01*
X70776597Y-88734977D01*
X70830128Y-88899727D01*
X70863733Y-88965682D01*
X70908768Y-89054068D01*
X71010586Y-89194208D01*
X71133072Y-89316694D01*
X71273212Y-89418512D01*
X71427555Y-89497153D01*
X71592299Y-89550682D01*
X71763389Y-89577780D01*
X71763390Y-89577780D01*
X72736610Y-89577780D01*
X72736611Y-89577780D01*
X72907701Y-89550682D01*
X73072445Y-89497153D01*
X73226788Y-89418512D01*
X73366928Y-89316694D01*
X73489414Y-89194208D01*
X73591232Y-89054068D01*
X73669873Y-88899725D01*
X73723402Y-88734981D01*
X73750500Y-88563891D01*
X73750500Y-88390669D01*
X96249500Y-88390669D01*
X96249500Y-88563890D01*
X96276597Y-88734977D01*
X96330128Y-88899727D01*
X96363733Y-88965682D01*
X96408768Y-89054068D01*
X96510586Y-89194208D01*
X96633072Y-89316694D01*
X96773212Y-89418512D01*
X96927555Y-89497153D01*
X97092299Y-89550682D01*
X97263389Y-89577780D01*
X97263390Y-89577780D01*
X98236610Y-89577780D01*
X98236611Y-89577780D01*
X98407701Y-89550682D01*
X98572445Y-89497153D01*
X98726788Y-89418512D01*
X98866928Y-89316694D01*
X98989414Y-89194208D01*
X99091232Y-89054068D01*
X99169873Y-88899725D01*
X99223402Y-88734981D01*
X99250500Y-88563891D01*
X99250500Y-88390669D01*
X99223402Y-88219579D01*
X99169873Y-88054835D01*
X99091232Y-87900492D01*
X98989414Y-87760352D01*
X98866928Y-87637866D01*
X98726788Y-87536048D01*
X98572445Y-87457407D01*
X98407701Y-87403878D01*
X98407699Y-87403877D01*
X98407698Y-87403877D01*
X98276271Y-87383061D01*
X98236611Y-87376780D01*
X97263389Y-87376780D01*
X97223728Y-87383061D01*
X97092302Y-87403877D01*
X96927552Y-87457408D01*
X96773211Y-87536048D01*
X96693256Y-87594139D01*
X96633072Y-87637866D01*
X96633070Y-87637868D01*
X96633069Y-87637868D01*
X96510588Y-87760349D01*
X96510588Y-87760350D01*
X96510586Y-87760352D01*
X96466859Y-87820536D01*
X96408768Y-87900491D01*
X96330128Y-88054832D01*
X96276597Y-88219582D01*
X96249500Y-88390669D01*
X73750500Y-88390669D01*
X73723402Y-88219579D01*
X73669873Y-88054835D01*
X73591232Y-87900492D01*
X73489414Y-87760352D01*
X73366928Y-87637866D01*
X73226788Y-87536048D01*
X73072445Y-87457407D01*
X72907701Y-87403878D01*
X72907699Y-87403877D01*
X72907698Y-87403877D01*
X72776271Y-87383061D01*
X72736611Y-87376780D01*
X71763389Y-87376780D01*
X71723728Y-87383061D01*
X71592302Y-87403877D01*
X71427552Y-87457408D01*
X71273211Y-87536048D01*
X71193256Y-87594139D01*
X71133072Y-87637866D01*
X71133070Y-87637868D01*
X71133069Y-87637868D01*
X71010588Y-87760349D01*
X71010588Y-87760350D01*
X71010586Y-87760352D01*
X70966859Y-87820536D01*
X70908768Y-87900491D01*
X70830128Y-88054832D01*
X70776597Y-88219582D01*
X70749500Y-88390669D01*
X64500500Y-88390669D01*
X64500500Y-85850669D01*
X70749500Y-85850669D01*
X70749500Y-86023891D01*
X70776598Y-86194981D01*
X70830127Y-86359725D01*
X70908768Y-86514068D01*
X71010586Y-86654208D01*
X71133072Y-86776694D01*
X71273212Y-86878512D01*
X71427555Y-86957153D01*
X71592299Y-87010682D01*
X71763389Y-87037780D01*
X71763390Y-87037780D01*
X72736610Y-87037780D01*
X72736611Y-87037780D01*
X72907701Y-87010682D01*
X73072445Y-86957153D01*
X73226788Y-86878512D01*
X73366928Y-86776694D01*
X73489414Y-86654208D01*
X73591232Y-86514068D01*
X73669873Y-86359725D01*
X73723402Y-86194981D01*
X73750500Y-86023891D01*
X73750500Y-85850669D01*
X96249500Y-85850669D01*
X96249500Y-86023891D01*
X96276598Y-86194981D01*
X96330127Y-86359725D01*
X96408768Y-86514068D01*
X96510586Y-86654208D01*
X96633072Y-86776694D01*
X96773212Y-86878512D01*
X96927555Y-86957153D01*
X97092299Y-87010682D01*
X97263389Y-87037780D01*
X97263390Y-87037780D01*
X98236610Y-87037780D01*
X98236611Y-87037780D01*
X98407701Y-87010682D01*
X98572445Y-86957153D01*
X98726788Y-86878512D01*
X98866928Y-86776694D01*
X98989414Y-86654208D01*
X99091232Y-86514068D01*
X99169873Y-86359725D01*
X99223402Y-86194981D01*
X99250500Y-86023891D01*
X99250500Y-85850669D01*
X99223402Y-85679579D01*
X99169873Y-85514835D01*
X99091232Y-85360492D01*
X98989414Y-85220352D01*
X98866928Y-85097866D01*
X98726788Y-84996048D01*
X98572445Y-84917407D01*
X98407701Y-84863878D01*
X98407699Y-84863877D01*
X98407698Y-84863877D01*
X98276271Y-84843061D01*
X98236611Y-84836780D01*
X97263389Y-84836780D01*
X97223728Y-84843061D01*
X97092302Y-84863877D01*
X96927552Y-84917408D01*
X96773211Y-84996048D01*
X96693256Y-85054139D01*
X96633072Y-85097866D01*
X96633070Y-85097868D01*
X96633069Y-85097868D01*
X96510588Y-85220349D01*
X96510588Y-85220350D01*
X96510586Y-85220352D01*
X96466859Y-85280536D01*
X96408768Y-85360491D01*
X96330128Y-85514832D01*
X96276597Y-85679582D01*
X96249500Y-85850669D01*
X73750500Y-85850669D01*
X73723402Y-85679579D01*
X73669873Y-85514835D01*
X73591232Y-85360492D01*
X73489414Y-85220352D01*
X73366928Y-85097866D01*
X73226788Y-84996048D01*
X73072445Y-84917407D01*
X72907701Y-84863878D01*
X72907699Y-84863877D01*
X72907698Y-84863877D01*
X72776271Y-84843061D01*
X72736611Y-84836780D01*
X71763389Y-84836780D01*
X71723728Y-84843061D01*
X71592302Y-84863877D01*
X71427552Y-84917408D01*
X71273211Y-84996048D01*
X71193256Y-85054139D01*
X71133072Y-85097866D01*
X71133070Y-85097868D01*
X71133069Y-85097868D01*
X71010588Y-85220349D01*
X71010588Y-85220350D01*
X71010586Y-85220352D01*
X70966859Y-85280536D01*
X70908768Y-85360491D01*
X70830128Y-85514832D01*
X70776597Y-85679582D01*
X70749500Y-85850669D01*
X64500500Y-85850669D01*
X64500500Y-83310669D01*
X70749500Y-83310669D01*
X70749500Y-83483891D01*
X70776598Y-83654981D01*
X70830127Y-83819725D01*
X70908768Y-83974068D01*
X71010586Y-84114208D01*
X71133072Y-84236694D01*
X71273212Y-84338512D01*
X71427555Y-84417153D01*
X71592299Y-84470682D01*
X71763389Y-84497780D01*
X71763390Y-84497780D01*
X72736610Y-84497780D01*
X72736611Y-84497780D01*
X72907701Y-84470682D01*
X73072445Y-84417153D01*
X73226788Y-84338512D01*
X73366928Y-84236694D01*
X73489414Y-84114208D01*
X73591232Y-83974068D01*
X73669873Y-83819725D01*
X73723402Y-83654981D01*
X73750500Y-83483891D01*
X73750500Y-83310669D01*
X96249500Y-83310669D01*
X96249500Y-83483891D01*
X96276598Y-83654981D01*
X96330127Y-83819725D01*
X96408768Y-83974068D01*
X96510586Y-84114208D01*
X96633072Y-84236694D01*
X96773212Y-84338512D01*
X96927555Y-84417153D01*
X97092299Y-84470682D01*
X97263389Y-84497780D01*
X97263390Y-84497780D01*
X98236610Y-84497780D01*
X98236611Y-84497780D01*
X98407701Y-84470682D01*
X98572445Y-84417153D01*
X98726788Y-84338512D01*
X98866928Y-84236694D01*
X98989414Y-84114208D01*
X99091232Y-83974068D01*
X99169873Y-83819725D01*
X99223402Y-83654981D01*
X99250500Y-83483891D01*
X99250500Y-83310669D01*
X99223402Y-83139579D01*
X99169873Y-82974835D01*
X99091232Y-82820492D01*
X98989414Y-82680352D01*
X98866928Y-82557866D01*
X98726788Y-82456048D01*
X98572445Y-82377407D01*
X98407701Y-82323878D01*
X98407699Y-82323877D01*
X98407698Y-82323877D01*
X98276271Y-82303061D01*
X98236611Y-82296780D01*
X97263389Y-82296780D01*
X97223728Y-82303061D01*
X97092302Y-82323877D01*
X96927552Y-82377408D01*
X96773211Y-82456048D01*
X96693256Y-82514139D01*
X96633072Y-82557866D01*
X96633070Y-82557868D01*
X96633069Y-82557868D01*
X96510588Y-82680349D01*
X96510588Y-82680350D01*
X96510586Y-82680352D01*
X96466859Y-82740536D01*
X96408768Y-82820491D01*
X96330128Y-82974832D01*
X96276597Y-83139582D01*
X96249500Y-83310669D01*
X73750500Y-83310669D01*
X73723402Y-83139579D01*
X73669873Y-82974835D01*
X73591232Y-82820492D01*
X73489414Y-82680352D01*
X73366928Y-82557866D01*
X73226788Y-82456048D01*
X73072445Y-82377407D01*
X72907701Y-82323878D01*
X72907699Y-82323877D01*
X72907698Y-82323877D01*
X72776271Y-82303061D01*
X72736611Y-82296780D01*
X71763389Y-82296780D01*
X71723728Y-82303061D01*
X71592302Y-82323877D01*
X71427552Y-82377408D01*
X71273211Y-82456048D01*
X71193256Y-82514139D01*
X71133072Y-82557866D01*
X71133070Y-82557868D01*
X71133069Y-82557868D01*
X71010588Y-82680349D01*
X71010588Y-82680350D01*
X71010586Y-82680352D01*
X70966859Y-82740536D01*
X70908768Y-82820491D01*
X70830128Y-82974832D01*
X70776597Y-83139582D01*
X70749500Y-83310669D01*
X64500500Y-83310669D01*
X64500500Y-80770669D01*
X70749500Y-80770669D01*
X70749500Y-80943891D01*
X70776598Y-81114981D01*
X70830127Y-81279725D01*
X70908768Y-81434068D01*
X71010586Y-81574208D01*
X71133072Y-81696694D01*
X71273212Y-81798512D01*
X71427555Y-81877153D01*
X71592299Y-81930682D01*
X71763389Y-81957780D01*
X71763390Y-81957780D01*
X72736610Y-81957780D01*
X72736611Y-81957780D01*
X72907701Y-81930682D01*
X73072445Y-81877153D01*
X73226788Y-81798512D01*
X73366928Y-81696694D01*
X73489414Y-81574208D01*
X73591232Y-81434068D01*
X73669873Y-81279725D01*
X73723402Y-81114981D01*
X73750500Y-80943891D01*
X73750500Y-80770669D01*
X96249500Y-80770669D01*
X96249500Y-80943891D01*
X96276598Y-81114981D01*
X96330127Y-81279725D01*
X96408768Y-81434068D01*
X96510586Y-81574208D01*
X96633072Y-81696694D01*
X96773212Y-81798512D01*
X96927555Y-81877153D01*
X97092299Y-81930682D01*
X97263389Y-81957780D01*
X97263390Y-81957780D01*
X98236610Y-81957780D01*
X98236611Y-81957780D01*
X98407701Y-81930682D01*
X98572445Y-81877153D01*
X98726788Y-81798512D01*
X98866928Y-81696694D01*
X98989414Y-81574208D01*
X99091232Y-81434068D01*
X99169873Y-81279725D01*
X99223402Y-81114981D01*
X99250500Y-80943891D01*
X99250500Y-80770669D01*
X99223402Y-80599579D01*
X99169873Y-80434835D01*
X99091232Y-80280492D01*
X98989414Y-80140352D01*
X98866928Y-80017866D01*
X98726788Y-79916048D01*
X98572445Y-79837407D01*
X98407701Y-79783878D01*
X98407699Y-79783877D01*
X98407698Y-79783877D01*
X98276271Y-79763061D01*
X98236611Y-79756780D01*
X97263389Y-79756780D01*
X97223728Y-79763061D01*
X97092302Y-79783877D01*
X96927552Y-79837408D01*
X96773211Y-79916048D01*
X96693256Y-79974139D01*
X96633072Y-80017866D01*
X96633070Y-80017868D01*
X96633069Y-80017868D01*
X96510588Y-80140349D01*
X96510588Y-80140350D01*
X96510586Y-80140352D01*
X96466859Y-80200536D01*
X96408768Y-80280491D01*
X96330128Y-80434832D01*
X96276597Y-80599582D01*
X96249500Y-80770669D01*
X73750500Y-80770669D01*
X73723402Y-80599579D01*
X73669873Y-80434835D01*
X73591232Y-80280492D01*
X73489414Y-80140352D01*
X73366928Y-80017866D01*
X73226788Y-79916048D01*
X73072445Y-79837407D01*
X72907701Y-79783878D01*
X72907699Y-79783877D01*
X72907698Y-79783877D01*
X72776271Y-79763061D01*
X72736611Y-79756780D01*
X71763389Y-79756780D01*
X71723728Y-79763061D01*
X71592302Y-79783877D01*
X71427552Y-79837408D01*
X71273211Y-79916048D01*
X71193256Y-79974139D01*
X71133072Y-80017866D01*
X71133070Y-80017868D01*
X71133069Y-80017868D01*
X71010588Y-80140349D01*
X71010588Y-80140350D01*
X71010586Y-80140352D01*
X70966859Y-80200536D01*
X70908768Y-80280491D01*
X70830128Y-80434832D01*
X70776597Y-80599582D01*
X70749500Y-80770669D01*
X64500500Y-80770669D01*
X64500500Y-78230669D01*
X70749500Y-78230669D01*
X70749500Y-78403891D01*
X70776598Y-78574981D01*
X70830127Y-78739725D01*
X70908768Y-78894068D01*
X71010586Y-79034208D01*
X71133072Y-79156694D01*
X71273212Y-79258512D01*
X71427555Y-79337153D01*
X71592299Y-79390682D01*
X71763389Y-79417780D01*
X71763390Y-79417780D01*
X72736610Y-79417780D01*
X72736611Y-79417780D01*
X72907701Y-79390682D01*
X73072445Y-79337153D01*
X73226788Y-79258512D01*
X73366928Y-79156694D01*
X73489414Y-79034208D01*
X73591232Y-78894068D01*
X73669873Y-78739725D01*
X73723402Y-78574981D01*
X73750500Y-78403891D01*
X73750500Y-78230669D01*
X96249500Y-78230669D01*
X96249500Y-78403891D01*
X96276598Y-78574981D01*
X96330127Y-78739725D01*
X96408768Y-78894068D01*
X96510586Y-79034208D01*
X96633072Y-79156694D01*
X96773212Y-79258512D01*
X96927555Y-79337153D01*
X97092299Y-79390682D01*
X97263389Y-79417780D01*
X97263390Y-79417780D01*
X98236610Y-79417780D01*
X98236611Y-79417780D01*
X98407701Y-79390682D01*
X98572445Y-79337153D01*
X98726788Y-79258512D01*
X98866928Y-79156694D01*
X98989414Y-79034208D01*
X99091232Y-78894068D01*
X99169873Y-78739725D01*
X99223402Y-78574981D01*
X99250500Y-78403891D01*
X99250500Y-78230669D01*
X99223402Y-78059579D01*
X99169873Y-77894835D01*
X99121550Y-77799995D01*
X102944592Y-77799995D01*
X102944592Y-77800004D01*
X102964196Y-78061620D01*
X102964197Y-78061625D01*
X103022576Y-78317402D01*
X103022578Y-78317411D01*
X103022580Y-78317416D01*
X103118432Y-78561643D01*
X103249614Y-78788857D01*
X103333517Y-78894068D01*
X103413198Y-78993985D01*
X103588555Y-79156691D01*
X103605521Y-79172433D01*
X103822296Y-79320228D01*
X103822301Y-79320230D01*
X103822302Y-79320231D01*
X103822303Y-79320232D01*
X103947843Y-79380688D01*
X104058673Y-79434061D01*
X104058674Y-79434061D01*
X104058677Y-79434063D01*
X104309385Y-79511396D01*
X104568818Y-79550500D01*
X104831182Y-79550500D01*
X105090615Y-79511396D01*
X105341323Y-79434063D01*
X105577704Y-79320228D01*
X105794479Y-79172433D01*
X105986805Y-78993981D01*
X106150386Y-78788857D01*
X106281568Y-78561643D01*
X106377420Y-78317416D01*
X106435802Y-78061630D01*
X106435803Y-78061620D01*
X106455408Y-77800004D01*
X106455408Y-77799995D01*
X106435803Y-77538379D01*
X106435802Y-77538374D01*
X106435802Y-77538370D01*
X106377420Y-77282584D01*
X106281568Y-77038357D01*
X106150386Y-76811143D01*
X105986805Y-76606019D01*
X105986804Y-76606018D01*
X105986801Y-76606014D01*
X105794479Y-76427567D01*
X105776101Y-76415037D01*
X105577704Y-76279772D01*
X105577700Y-76279770D01*
X105577697Y-76279768D01*
X105577696Y-76279767D01*
X105341325Y-76165938D01*
X105341327Y-76165938D01*
X105090623Y-76088606D01*
X105090619Y-76088605D01*
X105090615Y-76088604D01*
X104965823Y-76069794D01*
X104831187Y-76049500D01*
X104831182Y-76049500D01*
X104568818Y-76049500D01*
X104568812Y-76049500D01*
X104407247Y-76073853D01*
X104309385Y-76088604D01*
X104309382Y-76088605D01*
X104309376Y-76088606D01*
X104058673Y-76165938D01*
X103822303Y-76279767D01*
X103822302Y-76279768D01*
X103605520Y-76427567D01*
X103413198Y-76606014D01*
X103249614Y-76811143D01*
X103118432Y-77038356D01*
X103022582Y-77282578D01*
X103022576Y-77282597D01*
X102964197Y-77538374D01*
X102964196Y-77538379D01*
X102944592Y-77799995D01*
X99121550Y-77799995D01*
X99091232Y-77740492D01*
X98989414Y-77600352D01*
X98866928Y-77477866D01*
X98726788Y-77376048D01*
X98572445Y-77297407D01*
X98407701Y-77243878D01*
X98407699Y-77243877D01*
X98407698Y-77243877D01*
X98276271Y-77223061D01*
X98236611Y-77216780D01*
X97263389Y-77216780D01*
X97223728Y-77223061D01*
X97092302Y-77243877D01*
X96927552Y-77297408D01*
X96773211Y-77376048D01*
X96693256Y-77434139D01*
X96633072Y-77477866D01*
X96633070Y-77477868D01*
X96633069Y-77477868D01*
X96510588Y-77600349D01*
X96510588Y-77600350D01*
X96510586Y-77600352D01*
X96466859Y-77660536D01*
X96408768Y-77740491D01*
X96330128Y-77894832D01*
X96276597Y-78059582D01*
X96276273Y-78061630D01*
X96249500Y-78230669D01*
X73750500Y-78230669D01*
X73723402Y-78059579D01*
X73669873Y-77894835D01*
X73591232Y-77740492D01*
X73489414Y-77600352D01*
X73366928Y-77477866D01*
X73226788Y-77376048D01*
X73072445Y-77297407D01*
X72907701Y-77243878D01*
X72907699Y-77243877D01*
X72907698Y-77243877D01*
X72776271Y-77223061D01*
X72736611Y-77216780D01*
X71763389Y-77216780D01*
X71723728Y-77223061D01*
X71592302Y-77243877D01*
X71427552Y-77297408D01*
X71273211Y-77376048D01*
X71193256Y-77434139D01*
X71133072Y-77477866D01*
X71133070Y-77477868D01*
X71133069Y-77477868D01*
X71010588Y-77600349D01*
X71010588Y-77600350D01*
X71010586Y-77600352D01*
X70966859Y-77660536D01*
X70908768Y-77740491D01*
X70830128Y-77894832D01*
X70776597Y-78059582D01*
X70776273Y-78061630D01*
X70749500Y-78230669D01*
X64500500Y-78230669D01*
X64500500Y-75690669D01*
X70749500Y-75690669D01*
X70749500Y-75863891D01*
X70776598Y-76034981D01*
X70830127Y-76199725D01*
X70908768Y-76354068D01*
X71010586Y-76494208D01*
X71133072Y-76616694D01*
X71273212Y-76718512D01*
X71427555Y-76797153D01*
X71592299Y-76850682D01*
X71763389Y-76877780D01*
X71763390Y-76877780D01*
X72736610Y-76877780D01*
X72736611Y-76877780D01*
X72907701Y-76850682D01*
X73072445Y-76797153D01*
X73226788Y-76718512D01*
X73366928Y-76616694D01*
X73489414Y-76494208D01*
X73591232Y-76354068D01*
X73669873Y-76199725D01*
X73723402Y-76034981D01*
X73750500Y-75863891D01*
X73750500Y-75690669D01*
X96249500Y-75690669D01*
X96249500Y-75863891D01*
X96276598Y-76034981D01*
X96330127Y-76199725D01*
X96408768Y-76354068D01*
X96510586Y-76494208D01*
X96633072Y-76616694D01*
X96773212Y-76718512D01*
X96927555Y-76797153D01*
X97092299Y-76850682D01*
X97263389Y-76877780D01*
X97263390Y-76877780D01*
X98236610Y-76877780D01*
X98236611Y-76877780D01*
X98407701Y-76850682D01*
X98572445Y-76797153D01*
X98726788Y-76718512D01*
X98866928Y-76616694D01*
X98989414Y-76494208D01*
X99091232Y-76354068D01*
X99169873Y-76199725D01*
X99223402Y-76034981D01*
X99250500Y-75863891D01*
X99250500Y-75849998D01*
X108744390Y-75849998D01*
X108744390Y-75850001D01*
X108764804Y-76135433D01*
X108825628Y-76415037D01*
X108825630Y-76415043D01*
X108825631Y-76415046D01*
X108900841Y-76616691D01*
X108925635Y-76683166D01*
X109062770Y-76934309D01*
X109062775Y-76934317D01*
X109234254Y-77163387D01*
X109234270Y-77163405D01*
X109436594Y-77365729D01*
X109436612Y-77365745D01*
X109665682Y-77537224D01*
X109665690Y-77537229D01*
X109916833Y-77674364D01*
X109916832Y-77674364D01*
X109916836Y-77674365D01*
X109916839Y-77674367D01*
X110184954Y-77774369D01*
X110184960Y-77774370D01*
X110184962Y-77774371D01*
X110464566Y-77835195D01*
X110464568Y-77835195D01*
X110464572Y-77835196D01*
X110718220Y-77853337D01*
X110749999Y-77855610D01*
X110750000Y-77855610D01*
X110750001Y-77855610D01*
X110778595Y-77853564D01*
X111035428Y-77835196D01*
X111197204Y-77800004D01*
X111197245Y-77799995D01*
X114944592Y-77799995D01*
X114944592Y-77800004D01*
X114964196Y-78061620D01*
X114964197Y-78061625D01*
X115022576Y-78317402D01*
X115022578Y-78317411D01*
X115022580Y-78317416D01*
X115118432Y-78561643D01*
X115249614Y-78788857D01*
X115333517Y-78894068D01*
X115413198Y-78993985D01*
X115588555Y-79156691D01*
X115605521Y-79172433D01*
X115822296Y-79320228D01*
X115822301Y-79320230D01*
X115822302Y-79320231D01*
X115822303Y-79320232D01*
X115947843Y-79380688D01*
X116058673Y-79434061D01*
X116058674Y-79434061D01*
X116058677Y-79434063D01*
X116309385Y-79511396D01*
X116568818Y-79550500D01*
X116831182Y-79550500D01*
X117090615Y-79511396D01*
X117341323Y-79434063D01*
X117577704Y-79320228D01*
X117794479Y-79172433D01*
X117986805Y-78993981D01*
X118150386Y-78788857D01*
X118281568Y-78561643D01*
X118377420Y-78317416D01*
X118435802Y-78061630D01*
X118435803Y-78061620D01*
X118455408Y-77800004D01*
X118455408Y-77799995D01*
X118435803Y-77538379D01*
X118435802Y-77538374D01*
X118435802Y-77538370D01*
X118377420Y-77282584D01*
X118281568Y-77038357D01*
X118150386Y-76811143D01*
X117986805Y-76606019D01*
X117986804Y-76606018D01*
X117986801Y-76606014D01*
X117794479Y-76427567D01*
X117776101Y-76415037D01*
X117577704Y-76279772D01*
X117577700Y-76279770D01*
X117577697Y-76279768D01*
X117577696Y-76279767D01*
X117341325Y-76165938D01*
X117341327Y-76165938D01*
X117090623Y-76088606D01*
X117090619Y-76088605D01*
X117090615Y-76088604D01*
X116965823Y-76069794D01*
X116831187Y-76049500D01*
X116831182Y-76049500D01*
X116568818Y-76049500D01*
X116568812Y-76049500D01*
X116407247Y-76073853D01*
X116309385Y-76088604D01*
X116309382Y-76088605D01*
X116309376Y-76088606D01*
X116058673Y-76165938D01*
X115822303Y-76279767D01*
X115822302Y-76279768D01*
X115605520Y-76427567D01*
X115413198Y-76606014D01*
X115249614Y-76811143D01*
X115118432Y-77038356D01*
X115022582Y-77282578D01*
X115022576Y-77282597D01*
X114964197Y-77538374D01*
X114964196Y-77538379D01*
X114944592Y-77799995D01*
X111197245Y-77799995D01*
X111315037Y-77774371D01*
X111315037Y-77774370D01*
X111315046Y-77774369D01*
X111583161Y-77674367D01*
X111834315Y-77537226D01*
X112063395Y-77365739D01*
X112265739Y-77163395D01*
X112437226Y-76934315D01*
X112574367Y-76683161D01*
X112674369Y-76415046D01*
X112735196Y-76135428D01*
X112755610Y-75850000D01*
X112735196Y-75564572D01*
X112725408Y-75519579D01*
X112674371Y-75284962D01*
X112674370Y-75284960D01*
X112674369Y-75284954D01*
X112574367Y-75016839D01*
X112531245Y-74937868D01*
X112437229Y-74765690D01*
X112437224Y-74765682D01*
X112265745Y-74536612D01*
X112265729Y-74536594D01*
X112063405Y-74334270D01*
X112063387Y-74334254D01*
X111834317Y-74162775D01*
X111834309Y-74162770D01*
X111583166Y-74025635D01*
X111583167Y-74025635D01*
X111391666Y-73954209D01*
X111315046Y-73925631D01*
X111315043Y-73925630D01*
X111315037Y-73925628D01*
X111035433Y-73864804D01*
X110750001Y-73844390D01*
X110749999Y-73844390D01*
X110464566Y-73864804D01*
X110184962Y-73925628D01*
X109916833Y-74025635D01*
X109665690Y-74162770D01*
X109665682Y-74162775D01*
X109436612Y-74334254D01*
X109436594Y-74334270D01*
X109234270Y-74536594D01*
X109234254Y-74536612D01*
X109062775Y-74765682D01*
X109062770Y-74765690D01*
X108925635Y-75016833D01*
X108825628Y-75284962D01*
X108764804Y-75564566D01*
X108744390Y-75849998D01*
X99250500Y-75849998D01*
X99250500Y-75690669D01*
X99223402Y-75519579D01*
X99169873Y-75354835D01*
X99091232Y-75200492D01*
X98989414Y-75060352D01*
X98866928Y-74937866D01*
X98726788Y-74836048D01*
X98572445Y-74757407D01*
X98407701Y-74703878D01*
X98407699Y-74703877D01*
X98407698Y-74703877D01*
X98276271Y-74683061D01*
X98236611Y-74676780D01*
X97263389Y-74676780D01*
X97223728Y-74683061D01*
X97092302Y-74703877D01*
X96927552Y-74757408D01*
X96773211Y-74836048D01*
X96693256Y-74894139D01*
X96633072Y-74937866D01*
X96633070Y-74937868D01*
X96633069Y-74937868D01*
X96510588Y-75060349D01*
X96510588Y-75060350D01*
X96510586Y-75060352D01*
X96466859Y-75120536D01*
X96408768Y-75200491D01*
X96330128Y-75354832D01*
X96276597Y-75519582D01*
X96249500Y-75690669D01*
X73750500Y-75690669D01*
X73723402Y-75519579D01*
X73669873Y-75354835D01*
X73591232Y-75200492D01*
X73489414Y-75060352D01*
X73366928Y-74937866D01*
X73226788Y-74836048D01*
X73072445Y-74757407D01*
X72907701Y-74703878D01*
X72907699Y-74703877D01*
X72907698Y-74703877D01*
X72776271Y-74683061D01*
X72736611Y-74676780D01*
X71763389Y-74676780D01*
X71723728Y-74683061D01*
X71592302Y-74703877D01*
X71427552Y-74757408D01*
X71273211Y-74836048D01*
X71193256Y-74894139D01*
X71133072Y-74937866D01*
X71133070Y-74937868D01*
X71133069Y-74937868D01*
X71010588Y-75060349D01*
X71010588Y-75060350D01*
X71010586Y-75060352D01*
X70966859Y-75120536D01*
X70908768Y-75200491D01*
X70830128Y-75354832D01*
X70776597Y-75519582D01*
X70749500Y-75690669D01*
X64500500Y-75690669D01*
X64500500Y-73150669D01*
X70749500Y-73150669D01*
X70749500Y-73323891D01*
X70776598Y-73494981D01*
X70830127Y-73659725D01*
X70908768Y-73814068D01*
X71010586Y-73954208D01*
X71133072Y-74076694D01*
X71273212Y-74178512D01*
X71427555Y-74257153D01*
X71592299Y-74310682D01*
X71763389Y-74337780D01*
X71763390Y-74337780D01*
X72736610Y-74337780D01*
X72736611Y-74337780D01*
X72907701Y-74310682D01*
X73072445Y-74257153D01*
X73226788Y-74178512D01*
X73366928Y-74076694D01*
X73489414Y-73954208D01*
X73591232Y-73814068D01*
X73669873Y-73659725D01*
X73723402Y-73494981D01*
X73750500Y-73323891D01*
X73750500Y-73150669D01*
X96249500Y-73150669D01*
X96249500Y-73323891D01*
X96276598Y-73494981D01*
X96330127Y-73659725D01*
X96408768Y-73814068D01*
X96510586Y-73954208D01*
X96633072Y-74076694D01*
X96773212Y-74178512D01*
X96927555Y-74257153D01*
X97092299Y-74310682D01*
X97263389Y-74337780D01*
X97263390Y-74337780D01*
X98236610Y-74337780D01*
X98236611Y-74337780D01*
X98407701Y-74310682D01*
X98572445Y-74257153D01*
X98726788Y-74178512D01*
X98866928Y-74076694D01*
X98989414Y-73954208D01*
X99091232Y-73814068D01*
X99169873Y-73659725D01*
X99223402Y-73494981D01*
X99250500Y-73323891D01*
X99250500Y-73150669D01*
X99223402Y-72979579D01*
X99169873Y-72814835D01*
X99091232Y-72660492D01*
X98989414Y-72520352D01*
X98866928Y-72397866D01*
X98726788Y-72296048D01*
X98572445Y-72217407D01*
X98407701Y-72163878D01*
X98407699Y-72163877D01*
X98407698Y-72163877D01*
X98276271Y-72143061D01*
X98236611Y-72136780D01*
X97263389Y-72136780D01*
X97223728Y-72143061D01*
X97092302Y-72163877D01*
X96927552Y-72217408D01*
X96773211Y-72296048D01*
X96708252Y-72343244D01*
X96633072Y-72397866D01*
X96633070Y-72397868D01*
X96633069Y-72397868D01*
X96510588Y-72520349D01*
X96510588Y-72520350D01*
X96510586Y-72520352D01*
X96466859Y-72580536D01*
X96408768Y-72660491D01*
X96330128Y-72814832D01*
X96276597Y-72979582D01*
X96249500Y-73150669D01*
X73750500Y-73150669D01*
X73723402Y-72979579D01*
X73669873Y-72814835D01*
X73591232Y-72660492D01*
X73489414Y-72520352D01*
X73366928Y-72397866D01*
X73226788Y-72296048D01*
X73072445Y-72217407D01*
X72907701Y-72163878D01*
X72907699Y-72163877D01*
X72907698Y-72163877D01*
X72776271Y-72143061D01*
X72736611Y-72136780D01*
X71763389Y-72136780D01*
X71723728Y-72143061D01*
X71592302Y-72163877D01*
X71427552Y-72217408D01*
X71273211Y-72296048D01*
X71208252Y-72343244D01*
X71133072Y-72397866D01*
X71133070Y-72397868D01*
X71133069Y-72397868D01*
X71010588Y-72520349D01*
X71010588Y-72520350D01*
X71010586Y-72520352D01*
X70966859Y-72580536D01*
X70908768Y-72660491D01*
X70830128Y-72814832D01*
X70776597Y-72979582D01*
X70749500Y-73150669D01*
X64500500Y-73150669D01*
X64500500Y-70610669D01*
X70749500Y-70610669D01*
X70749500Y-70783891D01*
X70776598Y-70954981D01*
X70830127Y-71119725D01*
X70908768Y-71274068D01*
X71010586Y-71414208D01*
X71133072Y-71536694D01*
X71273212Y-71638512D01*
X71427555Y-71717153D01*
X71592299Y-71770682D01*
X71763389Y-71797780D01*
X71763390Y-71797780D01*
X72736610Y-71797780D01*
X72736611Y-71797780D01*
X72907701Y-71770682D01*
X73072445Y-71717153D01*
X73226788Y-71638512D01*
X73366928Y-71536694D01*
X73489414Y-71414208D01*
X73591232Y-71274068D01*
X73669873Y-71119725D01*
X73723402Y-70954981D01*
X73750500Y-70783891D01*
X73750500Y-70610669D01*
X96249500Y-70610669D01*
X96249500Y-70783891D01*
X96276598Y-70954981D01*
X96330127Y-71119725D01*
X96408768Y-71274068D01*
X96510586Y-71414208D01*
X96633072Y-71536694D01*
X96773212Y-71638512D01*
X96927555Y-71717153D01*
X97092299Y-71770682D01*
X97263389Y-71797780D01*
X97263390Y-71797780D01*
X98236610Y-71797780D01*
X98236611Y-71797780D01*
X98407701Y-71770682D01*
X98572445Y-71717153D01*
X98726788Y-71638512D01*
X98866928Y-71536694D01*
X98989414Y-71414208D01*
X99091232Y-71274068D01*
X99169873Y-71119725D01*
X99223402Y-70954981D01*
X99250500Y-70783891D01*
X99250500Y-70610669D01*
X99223402Y-70439579D01*
X99169873Y-70274835D01*
X99091232Y-70120492D01*
X98989414Y-69980352D01*
X98866928Y-69857866D01*
X98726788Y-69756048D01*
X98572445Y-69677407D01*
X98407701Y-69623878D01*
X98407699Y-69623877D01*
X98407698Y-69623877D01*
X98276271Y-69603061D01*
X98236611Y-69596780D01*
X97263389Y-69596780D01*
X97223728Y-69603061D01*
X97092302Y-69623877D01*
X96927552Y-69677408D01*
X96773211Y-69756048D01*
X96693256Y-69814139D01*
X96633072Y-69857866D01*
X96633070Y-69857868D01*
X96633069Y-69857868D01*
X96510588Y-69980349D01*
X96510588Y-69980350D01*
X96510586Y-69980352D01*
X96466859Y-70040536D01*
X96408768Y-70120491D01*
X96330128Y-70274832D01*
X96276597Y-70439582D01*
X96253890Y-70582951D01*
X96249500Y-70610669D01*
X73750500Y-70610669D01*
X73723402Y-70439579D01*
X73669873Y-70274835D01*
X73591232Y-70120492D01*
X73489414Y-69980352D01*
X73366928Y-69857866D01*
X73226788Y-69756048D01*
X73072445Y-69677407D01*
X72907701Y-69623878D01*
X72907699Y-69623877D01*
X72907698Y-69623877D01*
X72776271Y-69603061D01*
X72736611Y-69596780D01*
X71763389Y-69596780D01*
X71723728Y-69603061D01*
X71592302Y-69623877D01*
X71427552Y-69677408D01*
X71273211Y-69756048D01*
X71193256Y-69814139D01*
X71133072Y-69857866D01*
X71133070Y-69857868D01*
X71133069Y-69857868D01*
X71010588Y-69980349D01*
X71010588Y-69980350D01*
X71010586Y-69980352D01*
X70966859Y-70040536D01*
X70908768Y-70120491D01*
X70830128Y-70274832D01*
X70776597Y-70439582D01*
X70753890Y-70582951D01*
X70749500Y-70610669D01*
X64500500Y-70610669D01*
X64500500Y-68070669D01*
X70749500Y-68070669D01*
X70749500Y-68243891D01*
X70776598Y-68414981D01*
X70830127Y-68579725D01*
X70908768Y-68734068D01*
X71010586Y-68874208D01*
X71133072Y-68996694D01*
X71273212Y-69098512D01*
X71427555Y-69177153D01*
X71592299Y-69230682D01*
X71763389Y-69257780D01*
X71763390Y-69257780D01*
X72736610Y-69257780D01*
X72736611Y-69257780D01*
X72907701Y-69230682D01*
X73072445Y-69177153D01*
X73226788Y-69098512D01*
X73366928Y-68996694D01*
X73489414Y-68874208D01*
X73591232Y-68734068D01*
X73669873Y-68579725D01*
X73723402Y-68414981D01*
X73750500Y-68243891D01*
X73750500Y-68070669D01*
X96249500Y-68070669D01*
X96249500Y-68243891D01*
X96276598Y-68414981D01*
X96330127Y-68579725D01*
X96408768Y-68734068D01*
X96510586Y-68874208D01*
X96633072Y-68996694D01*
X96773212Y-69098512D01*
X96927555Y-69177153D01*
X97092299Y-69230682D01*
X97263389Y-69257780D01*
X97263390Y-69257780D01*
X98236610Y-69257780D01*
X98236611Y-69257780D01*
X98407701Y-69230682D01*
X98572445Y-69177153D01*
X98726788Y-69098512D01*
X98866928Y-68996694D01*
X98989414Y-68874208D01*
X99091232Y-68734068D01*
X99169873Y-68579725D01*
X99223402Y-68414981D01*
X99250500Y-68243891D01*
X99250500Y-68070669D01*
X99223402Y-67899579D01*
X99169873Y-67734835D01*
X99091232Y-67580492D01*
X98989414Y-67440352D01*
X98866928Y-67317866D01*
X98726788Y-67216048D01*
X98572445Y-67137407D01*
X98407701Y-67083878D01*
X98407699Y-67083877D01*
X98407698Y-67083877D01*
X98276271Y-67063061D01*
X98236611Y-67056780D01*
X97263389Y-67056780D01*
X97223728Y-67063061D01*
X97092302Y-67083877D01*
X96927552Y-67137408D01*
X96773211Y-67216048D01*
X96693256Y-67274139D01*
X96633072Y-67317866D01*
X96633070Y-67317868D01*
X96633069Y-67317868D01*
X96510588Y-67440349D01*
X96510588Y-67440350D01*
X96510586Y-67440352D01*
X96476135Y-67487770D01*
X96408768Y-67580491D01*
X96330128Y-67734832D01*
X96276597Y-67899582D01*
X96249779Y-68068907D01*
X96249500Y-68070669D01*
X73750500Y-68070669D01*
X73723402Y-67899579D01*
X73669873Y-67734835D01*
X73591232Y-67580492D01*
X73489414Y-67440352D01*
X73366928Y-67317866D01*
X73226788Y-67216048D01*
X73072445Y-67137407D01*
X72907701Y-67083878D01*
X72907699Y-67083877D01*
X72907698Y-67083877D01*
X72776271Y-67063061D01*
X72736611Y-67056780D01*
X71763389Y-67056780D01*
X71723728Y-67063061D01*
X71592302Y-67083877D01*
X71427552Y-67137408D01*
X71273211Y-67216048D01*
X71193256Y-67274139D01*
X71133072Y-67317866D01*
X71133070Y-67317868D01*
X71133069Y-67317868D01*
X71010588Y-67440349D01*
X71010588Y-67440350D01*
X71010586Y-67440352D01*
X70976135Y-67487770D01*
X70908768Y-67580491D01*
X70830128Y-67734832D01*
X70776597Y-67899582D01*
X70749779Y-68068907D01*
X70749500Y-68070669D01*
X64500500Y-68070669D01*
X64500500Y-65530669D01*
X70749500Y-65530669D01*
X70749500Y-65703891D01*
X70776598Y-65874981D01*
X70830127Y-66039725D01*
X70908768Y-66194068D01*
X71010586Y-66334208D01*
X71133072Y-66456694D01*
X71273212Y-66558512D01*
X71427555Y-66637153D01*
X71592299Y-66690682D01*
X71763389Y-66717780D01*
X71763390Y-66717780D01*
X72736610Y-66717780D01*
X72736611Y-66717780D01*
X72907701Y-66690682D01*
X73072445Y-66637153D01*
X73226788Y-66558512D01*
X73366928Y-66456694D01*
X73489414Y-66334208D01*
X73591232Y-66194068D01*
X73669873Y-66039725D01*
X73723402Y-65874981D01*
X73750500Y-65703891D01*
X73750500Y-65530669D01*
X96249500Y-65530669D01*
X96249500Y-65703891D01*
X96276598Y-65874981D01*
X96330127Y-66039725D01*
X96408768Y-66194068D01*
X96510586Y-66334208D01*
X96633072Y-66456694D01*
X96773212Y-66558512D01*
X96927555Y-66637153D01*
X97092299Y-66690682D01*
X97263389Y-66717780D01*
X97263390Y-66717780D01*
X98236610Y-66717780D01*
X98236611Y-66717780D01*
X98407701Y-66690682D01*
X98572445Y-66637153D01*
X98726788Y-66558512D01*
X98866928Y-66456694D01*
X98989414Y-66334208D01*
X99091232Y-66194068D01*
X99169873Y-66039725D01*
X99223402Y-65874981D01*
X99250500Y-65703891D01*
X99250500Y-65530669D01*
X99223402Y-65359579D01*
X99169873Y-65194835D01*
X99091232Y-65040492D01*
X98989414Y-64900352D01*
X98866928Y-64777866D01*
X98726788Y-64676048D01*
X98572445Y-64597407D01*
X98407701Y-64543878D01*
X98407699Y-64543877D01*
X98407698Y-64543877D01*
X98276271Y-64523061D01*
X98236611Y-64516780D01*
X97263389Y-64516780D01*
X97223728Y-64523061D01*
X97092302Y-64543877D01*
X96927552Y-64597408D01*
X96773211Y-64676048D01*
X96693256Y-64734139D01*
X96633072Y-64777866D01*
X96633070Y-64777868D01*
X96633069Y-64777868D01*
X96510588Y-64900349D01*
X96510588Y-64900350D01*
X96510586Y-64900352D01*
X96486979Y-64932844D01*
X96408768Y-65040491D01*
X96330128Y-65194832D01*
X96276597Y-65359582D01*
X96249766Y-65528992D01*
X96249500Y-65530669D01*
X73750500Y-65530669D01*
X73723402Y-65359579D01*
X73669873Y-65194835D01*
X73591232Y-65040492D01*
X73489414Y-64900352D01*
X73366928Y-64777866D01*
X73226788Y-64676048D01*
X73072445Y-64597407D01*
X72907701Y-64543878D01*
X72907699Y-64543877D01*
X72907698Y-64543877D01*
X72776271Y-64523061D01*
X72736611Y-64516780D01*
X71763389Y-64516780D01*
X71723728Y-64523061D01*
X71592302Y-64543877D01*
X71427552Y-64597408D01*
X71273211Y-64676048D01*
X71193256Y-64734139D01*
X71133072Y-64777866D01*
X71133070Y-64777868D01*
X71133069Y-64777868D01*
X71010588Y-64900349D01*
X71010588Y-64900350D01*
X71010586Y-64900352D01*
X70986979Y-64932844D01*
X70908768Y-65040491D01*
X70830128Y-65194832D01*
X70776597Y-65359582D01*
X70749766Y-65528992D01*
X70749500Y-65530669D01*
X64500500Y-65530669D01*
X64500500Y-62990669D01*
X70749500Y-62990669D01*
X70749500Y-63163891D01*
X70776598Y-63334981D01*
X70830127Y-63499725D01*
X70908768Y-63654068D01*
X71010586Y-63794208D01*
X71133072Y-63916694D01*
X71273212Y-64018512D01*
X71427555Y-64097153D01*
X71592299Y-64150682D01*
X71763389Y-64177780D01*
X71763390Y-64177780D01*
X72736610Y-64177780D01*
X72736611Y-64177780D01*
X72907701Y-64150682D01*
X73072445Y-64097153D01*
X73226788Y-64018512D01*
X73366928Y-63916694D01*
X73489414Y-63794208D01*
X73591232Y-63654068D01*
X73669873Y-63499725D01*
X73723402Y-63334981D01*
X73750500Y-63163891D01*
X73750500Y-62990669D01*
X96249500Y-62990669D01*
X96249500Y-63163891D01*
X96276598Y-63334981D01*
X96330127Y-63499725D01*
X96408768Y-63654068D01*
X96510586Y-63794208D01*
X96633072Y-63916694D01*
X96773212Y-64018512D01*
X96927555Y-64097153D01*
X97092299Y-64150682D01*
X97263389Y-64177780D01*
X97263390Y-64177780D01*
X98236610Y-64177780D01*
X98236611Y-64177780D01*
X98407701Y-64150682D01*
X98572445Y-64097153D01*
X98726788Y-64018512D01*
X98866928Y-63916694D01*
X98989414Y-63794208D01*
X99091232Y-63654068D01*
X99169873Y-63499725D01*
X99223402Y-63334981D01*
X99250500Y-63163891D01*
X99250500Y-62990669D01*
X99223402Y-62819579D01*
X99169873Y-62654835D01*
X99091232Y-62500492D01*
X98989414Y-62360352D01*
X98866928Y-62237866D01*
X98726788Y-62136048D01*
X98572445Y-62057407D01*
X98407701Y-62003878D01*
X98407699Y-62003877D01*
X98407698Y-62003877D01*
X98276271Y-61983061D01*
X98236611Y-61976780D01*
X97263389Y-61976780D01*
X97223728Y-61983061D01*
X97092302Y-62003877D01*
X96927552Y-62057408D01*
X96773211Y-62136048D01*
X96693256Y-62194139D01*
X96633072Y-62237866D01*
X96633070Y-62237868D01*
X96633069Y-62237868D01*
X96510588Y-62360349D01*
X96510588Y-62360350D01*
X96510586Y-62360352D01*
X96466859Y-62420536D01*
X96408768Y-62500491D01*
X96330128Y-62654832D01*
X96276597Y-62819582D01*
X96249500Y-62990669D01*
X73750500Y-62990669D01*
X73723402Y-62819579D01*
X73669873Y-62654835D01*
X73591232Y-62500492D01*
X73489414Y-62360352D01*
X73366928Y-62237866D01*
X73226788Y-62136048D01*
X73072445Y-62057407D01*
X72907701Y-62003878D01*
X72907699Y-62003877D01*
X72907698Y-62003877D01*
X72776271Y-61983061D01*
X72736611Y-61976780D01*
X71763389Y-61976780D01*
X71723728Y-61983061D01*
X71592302Y-62003877D01*
X71427552Y-62057408D01*
X71273211Y-62136048D01*
X71193256Y-62194139D01*
X71133072Y-62237866D01*
X71133070Y-62237868D01*
X71133069Y-62237868D01*
X71010588Y-62360349D01*
X71010588Y-62360350D01*
X71010586Y-62360352D01*
X70966859Y-62420536D01*
X70908768Y-62500491D01*
X70830128Y-62654832D01*
X70776597Y-62819582D01*
X70749500Y-62990669D01*
X64500500Y-62990669D01*
X64500500Y-60450669D01*
X70749500Y-60450669D01*
X70749500Y-60623891D01*
X70776598Y-60794981D01*
X70830127Y-60959725D01*
X70908768Y-61114068D01*
X71010586Y-61254208D01*
X71133072Y-61376694D01*
X71273212Y-61478512D01*
X71427555Y-61557153D01*
X71592299Y-61610682D01*
X71763389Y-61637780D01*
X71763390Y-61637780D01*
X72736610Y-61637780D01*
X72736611Y-61637780D01*
X72907701Y-61610682D01*
X73072445Y-61557153D01*
X73226788Y-61478512D01*
X73366928Y-61376694D01*
X73489414Y-61254208D01*
X73591232Y-61114068D01*
X73669873Y-60959725D01*
X73723402Y-60794981D01*
X73750500Y-60623891D01*
X73750500Y-60450669D01*
X96249500Y-60450669D01*
X96249500Y-60623891D01*
X96276598Y-60794981D01*
X96330127Y-60959725D01*
X96408768Y-61114068D01*
X96510586Y-61254208D01*
X96633072Y-61376694D01*
X96773212Y-61478512D01*
X96927555Y-61557153D01*
X97092299Y-61610682D01*
X97263389Y-61637780D01*
X97263390Y-61637780D01*
X98236610Y-61637780D01*
X98236611Y-61637780D01*
X98407701Y-61610682D01*
X98572445Y-61557153D01*
X98726788Y-61478512D01*
X98866928Y-61376694D01*
X98989414Y-61254208D01*
X99091232Y-61114068D01*
X99169873Y-60959725D01*
X99223402Y-60794981D01*
X99250500Y-60623891D01*
X99250500Y-60450669D01*
X99223402Y-60279579D01*
X99169873Y-60114835D01*
X99091232Y-59960492D01*
X98989414Y-59820352D01*
X98866928Y-59697866D01*
X98726788Y-59596048D01*
X98572445Y-59517407D01*
X98407701Y-59463878D01*
X98407699Y-59463877D01*
X98407698Y-59463877D01*
X98276271Y-59443061D01*
X98236611Y-59436780D01*
X97263389Y-59436780D01*
X97223728Y-59443061D01*
X97092302Y-59463877D01*
X96927552Y-59517408D01*
X96773211Y-59596048D01*
X96693256Y-59654139D01*
X96633072Y-59697866D01*
X96633070Y-59697868D01*
X96633069Y-59697868D01*
X96510588Y-59820349D01*
X96510588Y-59820350D01*
X96510586Y-59820352D01*
X96466859Y-59880536D01*
X96408768Y-59960491D01*
X96330128Y-60114832D01*
X96276597Y-60279582D01*
X96249500Y-60450669D01*
X73750500Y-60450669D01*
X73723402Y-60279579D01*
X73669873Y-60114835D01*
X73591232Y-59960492D01*
X73489414Y-59820352D01*
X73366928Y-59697866D01*
X73226788Y-59596048D01*
X73072445Y-59517407D01*
X72907701Y-59463878D01*
X72907699Y-59463877D01*
X72907698Y-59463877D01*
X72776271Y-59443061D01*
X72736611Y-59436780D01*
X71763389Y-59436780D01*
X71723728Y-59443061D01*
X71592302Y-59463877D01*
X71427552Y-59517408D01*
X71273211Y-59596048D01*
X71193256Y-59654139D01*
X71133072Y-59697866D01*
X71133070Y-59697868D01*
X71133069Y-59697868D01*
X71010588Y-59820349D01*
X71010588Y-59820350D01*
X71010586Y-59820352D01*
X70966859Y-59880536D01*
X70908768Y-59960491D01*
X70830128Y-60114832D01*
X70776597Y-60279582D01*
X70749500Y-60450669D01*
X64500500Y-60450669D01*
X64500500Y-57910669D01*
X70749500Y-57910669D01*
X70749500Y-58083890D01*
X70770452Y-58216181D01*
X70776598Y-58254981D01*
X70830127Y-58419725D01*
X70908768Y-58574068D01*
X71010586Y-58714208D01*
X71133072Y-58836694D01*
X71273212Y-58938512D01*
X71427555Y-59017153D01*
X71592299Y-59070682D01*
X71763389Y-59097780D01*
X71763390Y-59097780D01*
X72736610Y-59097780D01*
X72736611Y-59097780D01*
X72907701Y-59070682D01*
X73072445Y-59017153D01*
X73226788Y-58938512D01*
X73366928Y-58836694D01*
X73489414Y-58714208D01*
X73591232Y-58574068D01*
X73669873Y-58419725D01*
X73723402Y-58254981D01*
X73750500Y-58083891D01*
X73750500Y-57913389D01*
X96253180Y-57913389D01*
X96253180Y-58086610D01*
X96279846Y-58254977D01*
X96280278Y-58257701D01*
X96333807Y-58422445D01*
X96412448Y-58576788D01*
X96514266Y-58716928D01*
X96636752Y-58839414D01*
X96776892Y-58941232D01*
X96931235Y-59019873D01*
X97095979Y-59073402D01*
X97267069Y-59100500D01*
X97267070Y-59100500D01*
X98240290Y-59100500D01*
X98240291Y-59100500D01*
X98411381Y-59073402D01*
X98576125Y-59019873D01*
X98730468Y-58941232D01*
X98870608Y-58839414D01*
X98993094Y-58716928D01*
X99094912Y-58576788D01*
X99173553Y-58422445D01*
X99227082Y-58257701D01*
X99254180Y-58086611D01*
X99254180Y-57913389D01*
X99227082Y-57742299D01*
X99173553Y-57577555D01*
X99094912Y-57423212D01*
X98993094Y-57283072D01*
X98870608Y-57160586D01*
X98787213Y-57099996D01*
X100294435Y-57099996D01*
X100294435Y-57100003D01*
X100314630Y-57279249D01*
X100314631Y-57279254D01*
X100342542Y-57359017D01*
X100349500Y-57399972D01*
X100349500Y-67923918D01*
X100349500Y-67923920D01*
X100349499Y-67923920D01*
X100378340Y-68068907D01*
X100378343Y-68068917D01*
X100379069Y-68070669D01*
X100434916Y-68205495D01*
X100452094Y-68231205D01*
X100460570Y-68243890D01*
X100517049Y-68328418D01*
X100517052Y-68328421D01*
X102667049Y-70478416D01*
X102771584Y-70582951D01*
X102771585Y-70582952D01*
X102894498Y-70665080D01*
X102894511Y-70665087D01*
X103031082Y-70721656D01*
X103031087Y-70721658D01*
X103031091Y-70721658D01*
X103031092Y-70721659D01*
X103176079Y-70750500D01*
X103176082Y-70750500D01*
X109737770Y-70750500D01*
X109804809Y-70770185D01*
X109825451Y-70786819D01*
X111346692Y-72308059D01*
X111369358Y-72344125D01*
X111371188Y-72343244D01*
X111374209Y-72349518D01*
X111374211Y-72349522D01*
X111470184Y-72502262D01*
X111597738Y-72629816D01*
X111750478Y-72725789D01*
X111920745Y-72785368D01*
X111920750Y-72785369D01*
X112099996Y-72805565D01*
X112100000Y-72805565D01*
X112100004Y-72805565D01*
X112279249Y-72785369D01*
X112279252Y-72785368D01*
X112279255Y-72785368D01*
X112449522Y-72725789D01*
X112602262Y-72629816D01*
X112729816Y-72502262D01*
X112825789Y-72349522D01*
X112885368Y-72179255D01*
X112905565Y-72000000D01*
X112885368Y-71820745D01*
X112825789Y-71650478D01*
X112729816Y-71497738D01*
X112602262Y-71370184D01*
X112449522Y-71274211D01*
X112449518Y-71274209D01*
X112443244Y-71271188D01*
X112444125Y-71269358D01*
X112408059Y-71246692D01*
X110578421Y-69417052D01*
X110578414Y-69417046D01*
X110504729Y-69367812D01*
X110504729Y-69367813D01*
X110455491Y-69334913D01*
X110318917Y-69278343D01*
X110318907Y-69278340D01*
X110173920Y-69249500D01*
X110173918Y-69249500D01*
X103612229Y-69249500D01*
X103545190Y-69229815D01*
X103524548Y-69213181D01*
X101886819Y-67575451D01*
X101853334Y-67514128D01*
X101850500Y-67487770D01*
X101850500Y-65528992D01*
X106049500Y-65528992D01*
X106049500Y-65731007D01*
X106088907Y-65929119D01*
X106088909Y-65929127D01*
X106166213Y-66115755D01*
X106219904Y-66196109D01*
X106240782Y-66262787D01*
X106222297Y-66330167D01*
X106219908Y-66333883D01*
X106219691Y-66334210D01*
X106166213Y-66414244D01*
X106088909Y-66600872D01*
X106088907Y-66600880D01*
X106049500Y-66798992D01*
X106049500Y-67001007D01*
X106088907Y-67199119D01*
X106088909Y-67199127D01*
X106166212Y-67385752D01*
X106166217Y-67385762D01*
X106278441Y-67553718D01*
X106421281Y-67696558D01*
X106589237Y-67808782D01*
X106589241Y-67808784D01*
X106589244Y-67808786D01*
X106775873Y-67886091D01*
X106966044Y-67923918D01*
X106973992Y-67925499D01*
X106973996Y-67925500D01*
X106973997Y-67925500D01*
X107626004Y-67925500D01*
X107626005Y-67925499D01*
X107824127Y-67886091D01*
X108010756Y-67808786D01*
X108178718Y-67696558D01*
X108321558Y-67553718D01*
X108433786Y-67385756D01*
X108511091Y-67199127D01*
X108550500Y-67001003D01*
X108550500Y-66798997D01*
X108511091Y-66600873D01*
X108433786Y-66414244D01*
X108380094Y-66333889D01*
X108359217Y-66267214D01*
X108377701Y-66199834D01*
X108380078Y-66196134D01*
X108433786Y-66115756D01*
X108511091Y-65929127D01*
X108550500Y-65731003D01*
X108550500Y-65528997D01*
X108511091Y-65330873D01*
X108477451Y-65249661D01*
X108469983Y-65180194D01*
X108489592Y-65135144D01*
X108489101Y-65134876D01*
X108492102Y-65129379D01*
X108492748Y-65127896D01*
X108493352Y-65127089D01*
X108543597Y-64992376D01*
X108543598Y-64992372D01*
X108549999Y-64932844D01*
X108550000Y-64932827D01*
X108550000Y-64610000D01*
X107665866Y-64610000D01*
X107641674Y-64607617D01*
X107626004Y-64604500D01*
X107626003Y-64604500D01*
X107585830Y-64604500D01*
X107600075Y-64590255D01*
X107649444Y-64504745D01*
X107675000Y-64409370D01*
X107675000Y-64310630D01*
X107649444Y-64215255D01*
X107600075Y-64129745D01*
X107580330Y-64110000D01*
X108550000Y-64110000D01*
X108550000Y-63787172D01*
X108549999Y-63787155D01*
X108543598Y-63727627D01*
X108543596Y-63727620D01*
X108493354Y-63592913D01*
X108493350Y-63592906D01*
X108407190Y-63477812D01*
X108407187Y-63477809D01*
X108292093Y-63391649D01*
X108292086Y-63391645D01*
X108157379Y-63341403D01*
X108157372Y-63341401D01*
X108097844Y-63335000D01*
X107550000Y-63335000D01*
X107550000Y-64079670D01*
X107530255Y-64059925D01*
X107444745Y-64010556D01*
X107349370Y-63985000D01*
X107250630Y-63985000D01*
X107155255Y-64010556D01*
X107069745Y-64059925D01*
X107050000Y-64079670D01*
X107050000Y-63335000D01*
X106502155Y-63335000D01*
X106442627Y-63341401D01*
X106442620Y-63341403D01*
X106307913Y-63391645D01*
X106307906Y-63391649D01*
X106192812Y-63477809D01*
X106192809Y-63477812D01*
X106106649Y-63592906D01*
X106106645Y-63592913D01*
X106056403Y-63727620D01*
X106056401Y-63727627D01*
X106050000Y-63787155D01*
X106050000Y-64110000D01*
X107019670Y-64110000D01*
X106999925Y-64129745D01*
X106950556Y-64215255D01*
X106925000Y-64310630D01*
X106925000Y-64409370D01*
X106950556Y-64504745D01*
X106999925Y-64590255D01*
X107014170Y-64604500D01*
X106973997Y-64604500D01*
X106973996Y-64604500D01*
X106958326Y-64607617D01*
X106934134Y-64610000D01*
X106050000Y-64610000D01*
X106050000Y-64932844D01*
X106056401Y-64992372D01*
X106056403Y-64992379D01*
X106106645Y-65127086D01*
X106107251Y-65127895D01*
X106107604Y-65128841D01*
X106110897Y-65134872D01*
X106110030Y-65135345D01*
X106131670Y-65193359D01*
X106122547Y-65249661D01*
X106088910Y-65330868D01*
X106088907Y-65330880D01*
X106049500Y-65528992D01*
X101850500Y-65528992D01*
X101850500Y-57399972D01*
X101857458Y-57359017D01*
X101878109Y-57299999D01*
X103704341Y-57299999D01*
X103704341Y-57300000D01*
X103724936Y-57535403D01*
X103724938Y-57535413D01*
X103786094Y-57763655D01*
X103786096Y-57763659D01*
X103786097Y-57763663D01*
X103854647Y-57910669D01*
X103885965Y-57977830D01*
X103885967Y-57977834D01*
X103962134Y-58086611D01*
X104021505Y-58171401D01*
X104188599Y-58338495D01*
X104265135Y-58392086D01*
X104382165Y-58474032D01*
X104382167Y-58474033D01*
X104382170Y-58474035D01*
X104596337Y-58573903D01*
X104596343Y-58573904D01*
X104596344Y-58573905D01*
X104607104Y-58576788D01*
X104824592Y-58635063D01*
X104995319Y-58650000D01*
X105059999Y-58655659D01*
X105060000Y-58655659D01*
X105060001Y-58655659D01*
X105124681Y-58650000D01*
X105295408Y-58635063D01*
X105523663Y-58573903D01*
X105737830Y-58474035D01*
X105931401Y-58338495D01*
X106053717Y-58216178D01*
X106115036Y-58182696D01*
X106184728Y-58187680D01*
X106240662Y-58229551D01*
X106257577Y-58260528D01*
X106306646Y-58392088D01*
X106306649Y-58392093D01*
X106392809Y-58507187D01*
X106392812Y-58507190D01*
X106507906Y-58593350D01*
X106507913Y-58593354D01*
X106642620Y-58643596D01*
X106642627Y-58643598D01*
X106702155Y-58649999D01*
X106702172Y-58650000D01*
X107350000Y-58650000D01*
X107350000Y-57733012D01*
X107407007Y-57765925D01*
X107534174Y-57800000D01*
X107665826Y-57800000D01*
X107792993Y-57765925D01*
X107850000Y-57733012D01*
X107850000Y-58650000D01*
X108497828Y-58650000D01*
X108497844Y-58649999D01*
X108557372Y-58643598D01*
X108557379Y-58643596D01*
X108692086Y-58593354D01*
X108692093Y-58593350D01*
X108807187Y-58507190D01*
X108807190Y-58507187D01*
X108893350Y-58392093D01*
X108893354Y-58392086D01*
X108943596Y-58257379D01*
X108943598Y-58257372D01*
X108949999Y-58197844D01*
X108950000Y-58197827D01*
X108950000Y-57550000D01*
X108033012Y-57550000D01*
X108065925Y-57492993D01*
X108100000Y-57365826D01*
X108100000Y-57234174D01*
X108065925Y-57107007D01*
X108033012Y-57050000D01*
X108950000Y-57050000D01*
X108950000Y-56402172D01*
X108949999Y-56402155D01*
X108943598Y-56342627D01*
X108943596Y-56342620D01*
X108893354Y-56207913D01*
X108893350Y-56207906D01*
X108807190Y-56092812D01*
X108807187Y-56092809D01*
X108692093Y-56006649D01*
X108692086Y-56006645D01*
X108557379Y-55956403D01*
X108557372Y-55956401D01*
X108497844Y-55950000D01*
X107850000Y-55950000D01*
X107850000Y-56866988D01*
X107792993Y-56834075D01*
X107665826Y-56800000D01*
X107534174Y-56800000D01*
X107407007Y-56834075D01*
X107350000Y-56866988D01*
X107350000Y-55950000D01*
X106702155Y-55950000D01*
X106642627Y-55956401D01*
X106642620Y-55956403D01*
X106507913Y-56006645D01*
X106507906Y-56006649D01*
X106392812Y-56092809D01*
X106392809Y-56092812D01*
X106306649Y-56207906D01*
X106306645Y-56207913D01*
X106257578Y-56339470D01*
X106215707Y-56395404D01*
X106150242Y-56419821D01*
X106081969Y-56404969D01*
X106053715Y-56383819D01*
X106009366Y-56339470D01*
X105931401Y-56261505D01*
X105931397Y-56261502D01*
X105931396Y-56261501D01*
X105737834Y-56125967D01*
X105737830Y-56125965D01*
X105729027Y-56121860D01*
X105523663Y-56026097D01*
X105523659Y-56026096D01*
X105523655Y-56026094D01*
X105295413Y-55964938D01*
X105295403Y-55964936D01*
X105060001Y-55944341D01*
X105059999Y-55944341D01*
X104824596Y-55964936D01*
X104824586Y-55964938D01*
X104596344Y-56026094D01*
X104596335Y-56026098D01*
X104382171Y-56125964D01*
X104382169Y-56125965D01*
X104188597Y-56261505D01*
X104021505Y-56428597D01*
X103885965Y-56622169D01*
X103885964Y-56622171D01*
X103786098Y-56836335D01*
X103786094Y-56836344D01*
X103724938Y-57064586D01*
X103724936Y-57064596D01*
X103704341Y-57299999D01*
X101878109Y-57299999D01*
X101884984Y-57280352D01*
X101885368Y-57279255D01*
X101885369Y-57279249D01*
X101905565Y-57100003D01*
X101905565Y-57099996D01*
X101885369Y-56920750D01*
X101885368Y-56920745D01*
X101831315Y-56766270D01*
X101825789Y-56750478D01*
X101729816Y-56597738D01*
X101602262Y-56470184D01*
X101522110Y-56419821D01*
X101449523Y-56374211D01*
X101279254Y-56314631D01*
X101279249Y-56314630D01*
X101100004Y-56294435D01*
X101099996Y-56294435D01*
X100920750Y-56314630D01*
X100920745Y-56314631D01*
X100750476Y-56374211D01*
X100597737Y-56470184D01*
X100470184Y-56597737D01*
X100374211Y-56750476D01*
X100314631Y-56920745D01*
X100314630Y-56920750D01*
X100294435Y-57099996D01*
X98787213Y-57099996D01*
X98730468Y-57058768D01*
X98576125Y-56980127D01*
X98411381Y-56926598D01*
X98411379Y-56926597D01*
X98411378Y-56926597D01*
X98279951Y-56905781D01*
X98240291Y-56899500D01*
X97267069Y-56899500D01*
X97227408Y-56905781D01*
X97095982Y-56926597D01*
X96931232Y-56980128D01*
X96776891Y-57058768D01*
X96720141Y-57100000D01*
X96636752Y-57160586D01*
X96636750Y-57160588D01*
X96636749Y-57160588D01*
X96514268Y-57283069D01*
X96514268Y-57283070D01*
X96514266Y-57283072D01*
X96501968Y-57299999D01*
X96412448Y-57423211D01*
X96333808Y-57577552D01*
X96280277Y-57742302D01*
X96253180Y-57913389D01*
X73750500Y-57913389D01*
X73750500Y-57910669D01*
X73723402Y-57739579D01*
X73669873Y-57574835D01*
X73591232Y-57420492D01*
X73489414Y-57280352D01*
X73366928Y-57157866D01*
X73226788Y-57056048D01*
X73072445Y-56977407D01*
X72907701Y-56923878D01*
X72907699Y-56923877D01*
X72907698Y-56923877D01*
X72753784Y-56899500D01*
X72736611Y-56896780D01*
X71763389Y-56896780D01*
X71746216Y-56899500D01*
X71592302Y-56923877D01*
X71427552Y-56977408D01*
X71273211Y-57056048D01*
X71212723Y-57099996D01*
X71133072Y-57157866D01*
X71133070Y-57157868D01*
X71133069Y-57157868D01*
X71010588Y-57280349D01*
X71010588Y-57280350D01*
X71010586Y-57280352D01*
X71008610Y-57283072D01*
X70908768Y-57420491D01*
X70830128Y-57574832D01*
X70776597Y-57739582D01*
X70749500Y-57910669D01*
X64500500Y-57910669D01*
X64500500Y-54668872D01*
X65799500Y-54668872D01*
X65799500Y-54931127D01*
X65826123Y-55133339D01*
X65833730Y-55191116D01*
X65863679Y-55302886D01*
X65901602Y-55444418D01*
X65901605Y-55444428D01*
X66001953Y-55686690D01*
X66001958Y-55686700D01*
X66133075Y-55913803D01*
X66292718Y-56121851D01*
X66292726Y-56121860D01*
X66478140Y-56307274D01*
X66478148Y-56307281D01*
X66478149Y-56307282D01*
X66487728Y-56314632D01*
X66686196Y-56466924D01*
X66913299Y-56598041D01*
X66913309Y-56598046D01*
X67155571Y-56698394D01*
X67155581Y-56698398D01*
X67408884Y-56766270D01*
X67668880Y-56800500D01*
X67668887Y-56800500D01*
X67931113Y-56800500D01*
X67931120Y-56800500D01*
X68191116Y-56766270D01*
X68444419Y-56698398D01*
X68686697Y-56598043D01*
X68913803Y-56466924D01*
X69121851Y-56307282D01*
X69121855Y-56307277D01*
X69121860Y-56307274D01*
X69307274Y-56121860D01*
X69307277Y-56121855D01*
X69307282Y-56121851D01*
X69466924Y-55913803D01*
X69598043Y-55686697D01*
X69698398Y-55444419D01*
X69761939Y-55207279D01*
X70775884Y-55207279D01*
X70775885Y-55207280D01*
X71934314Y-55207280D01*
X71929920Y-55211674D01*
X71877259Y-55302886D01*
X71850000Y-55404619D01*
X71850000Y-55509941D01*
X71877259Y-55611674D01*
X71929920Y-55702886D01*
X71934314Y-55707280D01*
X70775885Y-55707280D01*
X70777085Y-55714864D01*
X70830591Y-55879535D01*
X70909195Y-56033804D01*
X71010967Y-56173882D01*
X71133397Y-56296312D01*
X71273475Y-56398084D01*
X71427742Y-56476688D01*
X71592415Y-56530194D01*
X71763429Y-56557280D01*
X72000000Y-56557280D01*
X72000000Y-55772966D01*
X72004394Y-55777360D01*
X72095606Y-55830021D01*
X72197339Y-55857280D01*
X72302661Y-55857280D01*
X72404394Y-55830021D01*
X72495606Y-55777360D01*
X72500000Y-55772966D01*
X72500000Y-56557280D01*
X72736571Y-56557280D01*
X72907584Y-56530194D01*
X73072257Y-56476688D01*
X73226524Y-56398084D01*
X73366602Y-56296312D01*
X73489032Y-56173882D01*
X73590804Y-56033804D01*
X73669408Y-55879535D01*
X73722914Y-55714864D01*
X73724115Y-55707280D01*
X72565686Y-55707280D01*
X72570080Y-55702886D01*
X72622741Y-55611674D01*
X72650000Y-55509941D01*
X72650000Y-55404619D01*
X72641632Y-55373389D01*
X96253180Y-55373389D01*
X96253180Y-55546610D01*
X96279828Y-55714864D01*
X96280278Y-55717701D01*
X96333807Y-55882445D01*
X96412448Y-56036788D01*
X96514266Y-56176928D01*
X96636752Y-56299414D01*
X96776892Y-56401232D01*
X96931235Y-56479873D01*
X97095979Y-56533402D01*
X97267069Y-56560500D01*
X97267070Y-56560500D01*
X98240290Y-56560500D01*
X98240291Y-56560500D01*
X98411381Y-56533402D01*
X98576125Y-56479873D01*
X98730468Y-56401232D01*
X98870608Y-56299414D01*
X98993094Y-56176928D01*
X99094912Y-56036788D01*
X99173553Y-55882445D01*
X99227082Y-55717701D01*
X99254180Y-55546611D01*
X99254180Y-55373389D01*
X99227082Y-55202299D01*
X99173553Y-55037555D01*
X99094912Y-54883212D01*
X98993094Y-54743072D01*
X98918894Y-54668872D01*
X115199500Y-54668872D01*
X115199500Y-54931127D01*
X115226123Y-55133339D01*
X115233730Y-55191116D01*
X115263679Y-55302886D01*
X115301602Y-55444418D01*
X115301605Y-55444428D01*
X115401953Y-55686690D01*
X115401958Y-55686700D01*
X115533075Y-55913803D01*
X115692718Y-56121851D01*
X115692726Y-56121860D01*
X115878140Y-56307274D01*
X115878148Y-56307281D01*
X115878149Y-56307282D01*
X115887728Y-56314632D01*
X116086196Y-56466924D01*
X116313299Y-56598041D01*
X116313309Y-56598046D01*
X116555571Y-56698394D01*
X116555581Y-56698398D01*
X116808884Y-56766270D01*
X117068880Y-56800500D01*
X117068887Y-56800500D01*
X117331113Y-56800500D01*
X117331120Y-56800500D01*
X117591116Y-56766270D01*
X117844419Y-56698398D01*
X118086697Y-56598043D01*
X118313803Y-56466924D01*
X118521851Y-56307282D01*
X118521855Y-56307277D01*
X118521860Y-56307274D01*
X118707274Y-56121860D01*
X118707277Y-56121855D01*
X118707282Y-56121851D01*
X118866924Y-55913803D01*
X118998043Y-55686697D01*
X119098398Y-55444419D01*
X119166270Y-55191116D01*
X119200500Y-54931120D01*
X119200500Y-54668880D01*
X119166270Y-54408884D01*
X119098398Y-54155581D01*
X119098394Y-54155571D01*
X118998046Y-53913309D01*
X118998041Y-53913299D01*
X118866924Y-53686196D01*
X118721382Y-53496524D01*
X118707282Y-53478149D01*
X118707281Y-53478148D01*
X118707274Y-53478140D01*
X118521860Y-53292726D01*
X118521851Y-53292718D01*
X118313803Y-53133075D01*
X118086700Y-53001958D01*
X118086690Y-53001953D01*
X117844428Y-52901605D01*
X117844421Y-52901603D01*
X117844419Y-52901602D01*
X117591116Y-52833730D01*
X117533339Y-52826123D01*
X117331127Y-52799500D01*
X117331120Y-52799500D01*
X117068880Y-52799500D01*
X117068872Y-52799500D01*
X116837772Y-52829926D01*
X116808884Y-52833730D01*
X116683453Y-52867339D01*
X116555581Y-52901602D01*
X116555571Y-52901605D01*
X116313309Y-53001953D01*
X116313299Y-53001958D01*
X116086196Y-53133075D01*
X115878148Y-53292718D01*
X115692718Y-53478148D01*
X115533075Y-53686196D01*
X115401958Y-53913299D01*
X115401953Y-53913309D01*
X115301605Y-54155571D01*
X115301602Y-54155581D01*
X115239702Y-54386598D01*
X115233730Y-54408885D01*
X115199500Y-54668872D01*
X98918894Y-54668872D01*
X98870608Y-54620586D01*
X98730468Y-54518768D01*
X98576125Y-54440127D01*
X98411381Y-54386598D01*
X98411379Y-54386597D01*
X98411378Y-54386597D01*
X98279951Y-54365781D01*
X98240291Y-54359500D01*
X97267069Y-54359500D01*
X97227408Y-54365781D01*
X97095982Y-54386597D01*
X96931232Y-54440128D01*
X96776891Y-54518768D01*
X96696936Y-54576859D01*
X96636752Y-54620586D01*
X96636750Y-54620588D01*
X96636749Y-54620588D01*
X96514268Y-54743069D01*
X96514268Y-54743070D01*
X96514266Y-54743072D01*
X96470539Y-54803256D01*
X96412448Y-54883211D01*
X96333808Y-55037552D01*
X96280277Y-55202302D01*
X96253180Y-55373389D01*
X72641632Y-55373389D01*
X72622741Y-55302886D01*
X72570080Y-55211674D01*
X72565686Y-55207280D01*
X73724115Y-55207280D01*
X73724115Y-55207279D01*
X73722914Y-55199695D01*
X73669408Y-55035024D01*
X73590804Y-54880755D01*
X73489032Y-54740677D01*
X73366602Y-54618247D01*
X73226524Y-54516475D01*
X73072257Y-54437871D01*
X72907584Y-54384365D01*
X72736571Y-54357280D01*
X72500000Y-54357280D01*
X72500000Y-55141594D01*
X72495606Y-55137200D01*
X72404394Y-55084539D01*
X72302661Y-55057280D01*
X72197339Y-55057280D01*
X72095606Y-55084539D01*
X72004394Y-55137200D01*
X72000000Y-55141594D01*
X72000000Y-54357280D01*
X71763429Y-54357280D01*
X71592415Y-54384365D01*
X71427742Y-54437871D01*
X71273475Y-54516475D01*
X71133397Y-54618247D01*
X71010967Y-54740677D01*
X70909195Y-54880755D01*
X70830591Y-55035024D01*
X70777085Y-55199695D01*
X70775884Y-55207279D01*
X69761939Y-55207279D01*
X69766270Y-55191116D01*
X69800500Y-54931120D01*
X69800500Y-54668880D01*
X69766270Y-54408884D01*
X69698398Y-54155581D01*
X69698394Y-54155571D01*
X69598046Y-53913309D01*
X69598041Y-53913299D01*
X69466924Y-53686196D01*
X69321382Y-53496524D01*
X69307282Y-53478149D01*
X69307281Y-53478148D01*
X69307274Y-53478140D01*
X69121860Y-53292726D01*
X69121851Y-53292718D01*
X68913803Y-53133075D01*
X68686700Y-53001958D01*
X68686690Y-53001953D01*
X68444428Y-52901605D01*
X68444421Y-52901603D01*
X68444419Y-52901602D01*
X68191116Y-52833730D01*
X68133339Y-52826123D01*
X67931127Y-52799500D01*
X67931120Y-52799500D01*
X67668880Y-52799500D01*
X67668872Y-52799500D01*
X67437772Y-52829926D01*
X67408884Y-52833730D01*
X67283453Y-52867339D01*
X67155581Y-52901602D01*
X67155571Y-52901605D01*
X66913309Y-53001953D01*
X66913299Y-53001958D01*
X66686196Y-53133075D01*
X66478148Y-53292718D01*
X66292718Y-53478148D01*
X66133075Y-53686196D01*
X66001958Y-53913299D01*
X66001953Y-53913309D01*
X65901605Y-54155571D01*
X65901602Y-54155581D01*
X65839702Y-54386598D01*
X65833730Y-54408885D01*
X65799500Y-54668872D01*
X64500500Y-54668872D01*
X64500500Y-54003750D01*
X64500726Y-53996263D01*
X64518271Y-53706205D01*
X64520076Y-53691340D01*
X64521019Y-53686197D01*
X64571780Y-53409197D01*
X64575364Y-53394663D01*
X64598630Y-53320000D01*
X64660696Y-53120822D01*
X64665998Y-53106841D01*
X64783731Y-52845249D01*
X64790676Y-52832016D01*
X64890263Y-52667279D01*
X70775884Y-52667279D01*
X70775885Y-52667280D01*
X71934314Y-52667280D01*
X71929920Y-52671674D01*
X71877259Y-52762886D01*
X71850000Y-52864619D01*
X71850000Y-52969941D01*
X71877259Y-53071674D01*
X71929920Y-53162886D01*
X71934314Y-53167280D01*
X70775885Y-53167280D01*
X70777085Y-53174864D01*
X70830591Y-53339535D01*
X70909195Y-53493804D01*
X71010967Y-53633882D01*
X71133397Y-53756312D01*
X71273475Y-53858084D01*
X71427742Y-53936688D01*
X71592415Y-53990194D01*
X71763429Y-54017280D01*
X72000000Y-54017280D01*
X72000000Y-53232966D01*
X72004394Y-53237360D01*
X72095606Y-53290021D01*
X72197339Y-53317280D01*
X72302661Y-53317280D01*
X72404394Y-53290021D01*
X72495606Y-53237360D01*
X72500000Y-53232966D01*
X72500000Y-54017280D01*
X72736571Y-54017280D01*
X72907584Y-53990194D01*
X73072257Y-53936688D01*
X73226524Y-53858084D01*
X73366602Y-53756312D01*
X73489032Y-53633882D01*
X73590804Y-53493804D01*
X73669408Y-53339535D01*
X73722914Y-53174864D01*
X73724115Y-53167280D01*
X72565686Y-53167280D01*
X72570080Y-53162886D01*
X72622741Y-53071674D01*
X72650000Y-52969941D01*
X72650000Y-52864619D01*
X72622741Y-52762886D01*
X72570080Y-52671674D01*
X72568405Y-52669999D01*
X96279564Y-52669999D01*
X96279565Y-52670000D01*
X97437994Y-52670000D01*
X97433600Y-52674394D01*
X97380939Y-52765606D01*
X97353680Y-52867339D01*
X97353680Y-52972661D01*
X97380939Y-53074394D01*
X97433600Y-53165606D01*
X97437994Y-53170000D01*
X96279565Y-53170000D01*
X96280765Y-53177584D01*
X96334271Y-53342255D01*
X96412875Y-53496524D01*
X96514647Y-53636602D01*
X96637077Y-53759032D01*
X96777155Y-53860804D01*
X96931422Y-53939408D01*
X97096095Y-53992914D01*
X97267109Y-54020000D01*
X97503680Y-54020000D01*
X97503680Y-53235686D01*
X97508074Y-53240080D01*
X97599286Y-53292741D01*
X97701019Y-53320000D01*
X97806341Y-53320000D01*
X97908074Y-53292741D01*
X97999286Y-53240080D01*
X98003680Y-53235686D01*
X98003680Y-54020000D01*
X98240251Y-54020000D01*
X98411264Y-53992914D01*
X98575937Y-53939408D01*
X98730204Y-53860804D01*
X98870282Y-53759032D01*
X98992712Y-53636602D01*
X99094484Y-53496524D01*
X99173088Y-53342255D01*
X99226594Y-53177584D01*
X99227795Y-53170000D01*
X98069366Y-53170000D01*
X98073760Y-53165606D01*
X98126421Y-53074394D01*
X98153680Y-52972661D01*
X98153680Y-52867339D01*
X98126421Y-52765606D01*
X98073760Y-52674394D01*
X98069366Y-52670000D01*
X99227795Y-52670000D01*
X99227795Y-52669999D01*
X99226594Y-52662415D01*
X99173088Y-52497744D01*
X99094484Y-52343475D01*
X98992712Y-52203397D01*
X98870282Y-52080967D01*
X98730204Y-51979195D01*
X98575937Y-51900591D01*
X98411264Y-51847085D01*
X98240251Y-51820000D01*
X98003680Y-51820000D01*
X98003680Y-52604314D01*
X97999286Y-52599920D01*
X97908074Y-52547259D01*
X97806341Y-52520000D01*
X97701019Y-52520000D01*
X97599286Y-52547259D01*
X97508074Y-52599920D01*
X97503680Y-52604314D01*
X97503680Y-51820000D01*
X97267109Y-51820000D01*
X97096095Y-51847085D01*
X96931422Y-51900591D01*
X96777155Y-51979195D01*
X96637077Y-52080967D01*
X96514647Y-52203397D01*
X96412875Y-52343475D01*
X96334271Y-52497744D01*
X96280765Y-52662415D01*
X96279564Y-52669999D01*
X72568405Y-52669999D01*
X72565686Y-52667280D01*
X73724115Y-52667280D01*
X73724115Y-52667279D01*
X73722914Y-52659695D01*
X73669408Y-52495024D01*
X73590804Y-52340755D01*
X73489032Y-52200677D01*
X73366602Y-52078247D01*
X73226524Y-51976475D01*
X73072257Y-51897871D01*
X72907584Y-51844365D01*
X72736571Y-51817280D01*
X72500000Y-51817280D01*
X72500000Y-52601594D01*
X72495606Y-52597200D01*
X72404394Y-52544539D01*
X72302661Y-52517280D01*
X72197339Y-52517280D01*
X72095606Y-52544539D01*
X72004394Y-52597200D01*
X72000000Y-52601594D01*
X72000000Y-51817280D01*
X71763429Y-51817280D01*
X71592415Y-51844365D01*
X71427742Y-51897871D01*
X71273475Y-51976475D01*
X71133397Y-52078247D01*
X71010967Y-52200677D01*
X70909195Y-52340755D01*
X70830591Y-52495024D01*
X70777085Y-52659695D01*
X70775884Y-52667279D01*
X64890263Y-52667279D01*
X64939080Y-52586526D01*
X64947567Y-52574230D01*
X65124480Y-52348417D01*
X65134395Y-52337226D01*
X65337226Y-52134395D01*
X65348417Y-52124480D01*
X65574230Y-51947567D01*
X65586526Y-51939080D01*
X65832016Y-51790676D01*
X65845249Y-51783731D01*
X66106841Y-51665998D01*
X66120822Y-51660696D01*
X66394668Y-51575362D01*
X66409197Y-51571780D01*
X66691344Y-51520075D01*
X66706201Y-51518271D01*
X66996264Y-51500726D01*
X67003751Y-51500500D01*
X67065892Y-51500500D01*
X117934108Y-51500500D01*
X117996249Y-51500500D01*
X118003736Y-51500726D01*
G37*
%TD.AperFunction*%
%TD*%
M02*
