%TF.GenerationSoftware,KiCad,Pcbnew,8.0.6*%
%TF.CreationDate,2024-11-20T16:48:05-08:00*%
%TF.ProjectId,Garage Door Opener,47617261-6765-4204-946f-6f72204f7065,rev?*%
%TF.SameCoordinates,Original*%
%TF.FileFunction,Drillmap*%
%TF.FilePolarity,Positive*%
%FSLAX45Y45*%
G04 Gerber Fmt 4.5, Leading zero omitted, Abs format (unit mm)*
G04 Created by KiCad (PCBNEW 8.0.6) date 2024-11-20 16:48:05*
%MOMM*%
%LPD*%
G01*
G04 APERTURE LIST*
%ADD10C,0.050000*%
%ADD11C,0.200000*%
%ADD12C,0.100000*%
%ADD13C,0.130000*%
G04 APERTURE END LIST*
D10*
X6700000Y-10800000D02*
G75*
G02*
X6400000Y-10500000I0J300000D01*
G01*
X11800000Y-10800000D02*
X6700000Y-10800000D01*
X12100000Y-10500000D02*
G75*
G02*
X11800000Y-10800000I-300000J0D01*
G01*
X6400000Y-5400000D02*
G75*
G02*
X6700000Y-5100000I300000J0D01*
G01*
X6400000Y-10500000D02*
X6400000Y-5400000D01*
X11800000Y-5100000D02*
G75*
G02*
X12100000Y-5400000I0J-300000D01*
G01*
X12100000Y-5400000D02*
X12100000Y-10500000D01*
X6700000Y-5100000D02*
X11800000Y-5100000D01*
D11*
D12*
X10095000Y-5695000D02*
X10125000Y-5725000D01*
X10125000Y-5695000D02*
X10095000Y-5725000D01*
X11195000Y-7185000D02*
X11225000Y-7215000D01*
X11225000Y-7185000D02*
X11195000Y-7215000D01*
X10767500Y-6436000D02*
G75*
G02*
X10692500Y-6436000I-37500J0D01*
G01*
X10692500Y-6436000D02*
G75*
G02*
X10767500Y-6436000I37500J0D01*
G01*
X10767500Y-6563000D02*
G75*
G02*
X10692500Y-6563000I-37500J0D01*
G01*
X10692500Y-6563000D02*
G75*
G02*
X10767500Y-6563000I37500J0D01*
G01*
X10767500Y-6690000D02*
G75*
G02*
X10692500Y-6690000I-37500J0D01*
G01*
X10692500Y-6690000D02*
G75*
G02*
X10767500Y-6690000I37500J0D01*
G01*
X7225000Y-5251728D02*
X7225000Y-5331728D01*
X7185000Y-5291728D02*
X7265000Y-5291728D01*
X7225000Y-5505728D02*
X7225000Y-5585728D01*
X7185000Y-5545728D02*
X7265000Y-5545728D01*
X7225000Y-5759728D02*
X7225000Y-5839728D01*
X7185000Y-5799728D02*
X7265000Y-5799728D01*
X7225000Y-6013728D02*
X7225000Y-6093728D01*
X7185000Y-6053728D02*
X7265000Y-6053728D01*
X7225000Y-6267728D02*
X7225000Y-6347728D01*
X7185000Y-6307728D02*
X7265000Y-6307728D01*
X7225000Y-6521728D02*
X7225000Y-6601728D01*
X7185000Y-6561728D02*
X7265000Y-6561728D01*
X7225000Y-6775728D02*
X7225000Y-6855728D01*
X7185000Y-6815728D02*
X7265000Y-6815728D01*
X7225000Y-7029728D02*
X7225000Y-7109728D01*
X7185000Y-7069728D02*
X7265000Y-7069728D01*
X7225000Y-7283728D02*
X7225000Y-7363728D01*
X7185000Y-7323728D02*
X7265000Y-7323728D01*
X7225000Y-7537728D02*
X7225000Y-7617728D01*
X7185000Y-7577728D02*
X7265000Y-7577728D01*
X7225000Y-7791728D02*
X7225000Y-7871728D01*
X7185000Y-7831728D02*
X7265000Y-7831728D01*
X7225000Y-8045728D02*
X7225000Y-8125728D01*
X7185000Y-8085728D02*
X7265000Y-8085728D01*
X7225000Y-8299728D02*
X7225000Y-8379728D01*
X7185000Y-8339728D02*
X7265000Y-8339728D01*
X7225000Y-8553728D02*
X7225000Y-8633728D01*
X7185000Y-8593728D02*
X7265000Y-8593728D01*
X7225000Y-8807728D02*
X7225000Y-8887728D01*
X7185000Y-8847728D02*
X7265000Y-8847728D01*
X7225000Y-9061728D02*
X7225000Y-9141728D01*
X7185000Y-9101728D02*
X7265000Y-9101728D01*
X7225000Y-9315728D02*
X7225000Y-9395728D01*
X7185000Y-9355728D02*
X7265000Y-9355728D01*
X7225000Y-9569728D02*
X7225000Y-9649728D01*
X7185000Y-9609728D02*
X7265000Y-9609728D01*
X7225000Y-9823728D02*
X7225000Y-9903728D01*
X7185000Y-9863728D02*
X7265000Y-9863728D01*
X7225000Y-10077728D02*
X7225000Y-10157728D01*
X7185000Y-10117728D02*
X7265000Y-10117728D01*
X7225000Y-10331728D02*
X7225000Y-10411728D01*
X7185000Y-10371728D02*
X7265000Y-10371728D01*
X7225000Y-10585728D02*
X7225000Y-10665728D01*
X7185000Y-10625728D02*
X7265000Y-10625728D01*
X9775000Y-6013728D02*
X9775000Y-6093728D01*
X9735000Y-6053728D02*
X9815000Y-6053728D01*
X9775000Y-6267728D02*
X9775000Y-6347728D01*
X9735000Y-6307728D02*
X9815000Y-6307728D01*
X9775000Y-6521728D02*
X9775000Y-6601728D01*
X9735000Y-6561728D02*
X9815000Y-6561728D01*
X9775000Y-6775728D02*
X9775000Y-6855728D01*
X9735000Y-6815728D02*
X9815000Y-6815728D01*
X9775000Y-7029728D02*
X9775000Y-7109728D01*
X9735000Y-7069728D02*
X9815000Y-7069728D01*
X9775000Y-7283728D02*
X9775000Y-7363728D01*
X9735000Y-7323728D02*
X9815000Y-7323728D01*
X9775000Y-7537728D02*
X9775000Y-7617728D01*
X9735000Y-7577728D02*
X9815000Y-7577728D01*
X9775000Y-7791728D02*
X9775000Y-7871728D01*
X9735000Y-7831728D02*
X9815000Y-7831728D01*
X9775000Y-8045728D02*
X9775000Y-8125728D01*
X9735000Y-8085728D02*
X9815000Y-8085728D01*
X9775000Y-8299728D02*
X9775000Y-8379728D01*
X9735000Y-8339728D02*
X9815000Y-8339728D01*
X9775000Y-8553728D02*
X9775000Y-8633728D01*
X9735000Y-8593728D02*
X9815000Y-8593728D01*
X9775000Y-8807728D02*
X9775000Y-8887728D01*
X9735000Y-8847728D02*
X9815000Y-8847728D01*
X9775000Y-9061728D02*
X9775000Y-9141728D01*
X9735000Y-9101728D02*
X9815000Y-9101728D01*
X9775000Y-9315728D02*
X9775000Y-9395728D01*
X9735000Y-9355728D02*
X9815000Y-9355728D01*
X9775000Y-9569728D02*
X9775000Y-9649728D01*
X9735000Y-9609728D02*
X9815000Y-9609728D01*
X9775000Y-9823728D02*
X9775000Y-9903728D01*
X9735000Y-9863728D02*
X9815000Y-9863728D01*
X9775000Y-10077728D02*
X9775000Y-10157728D01*
X9735000Y-10117728D02*
X9815000Y-10117728D01*
X9775000Y-10331728D02*
X9775000Y-10411728D01*
X9735000Y-10371728D02*
X9815000Y-10371728D01*
X9775000Y-10585728D02*
X9775000Y-10665728D01*
X9735000Y-10625728D02*
X9815000Y-10625728D01*
X9775368Y-5252000D02*
X9775368Y-5332000D01*
X9735368Y-5292000D02*
X9815368Y-5292000D01*
X9775368Y-5506000D02*
X9775368Y-5586000D01*
X9735368Y-5546000D02*
X9815368Y-5546000D01*
X9775368Y-5760000D02*
X9775368Y-5840000D01*
X9735368Y-5800000D02*
X9815368Y-5800000D01*
X10505356Y-7815356D02*
X10505356Y-7744644D01*
X10434644Y-7744644D01*
X10434644Y-7815356D01*
X10505356Y-7815356D01*
X10541356Y-5765356D02*
X10541356Y-5694644D01*
X10470644Y-5694644D01*
X10470644Y-5765356D01*
X10541356Y-5765356D01*
X10795356Y-5765356D02*
X10795356Y-5694644D01*
X10724644Y-5694644D01*
X10724644Y-5765356D01*
X10795356Y-5765356D01*
X11705356Y-7815356D02*
X11705356Y-7744644D01*
X11634644Y-7744644D01*
X11634644Y-7815356D01*
X11705356Y-7815356D01*
D13*
X10470000Y-9065000D02*
X10535000Y-9000000D01*
X10470000Y-8935000D01*
X10405000Y-9000000D01*
X10470000Y-9065000D01*
X10575000Y-10080500D02*
X10640000Y-10015500D01*
X10575000Y-9950500D01*
X10510000Y-10015500D01*
X10575000Y-10080500D01*
X11075000Y-7650000D02*
X11140000Y-7585000D01*
X11075000Y-7520000D01*
X11010000Y-7585000D01*
X11075000Y-7650000D01*
X11075000Y-10080500D02*
X11140000Y-10015500D01*
X11075000Y-9950500D01*
X11010000Y-10015500D01*
X11075000Y-10080500D01*
X11575000Y-10080500D02*
X11640000Y-10015500D01*
X11575000Y-9950500D01*
X11510000Y-10015500D01*
X11575000Y-10080500D01*
X11675000Y-9070000D02*
X11740000Y-9005000D01*
X11675000Y-8940000D01*
X11610000Y-9005000D01*
X11675000Y-9070000D01*
D11*
X6658277Y-11113984D02*
X6658277Y-10913984D01*
X6658277Y-10913984D02*
X6705896Y-10913984D01*
X6705896Y-10913984D02*
X6734467Y-10923508D01*
X6734467Y-10923508D02*
X6753515Y-10942555D01*
X6753515Y-10942555D02*
X6763039Y-10961603D01*
X6763039Y-10961603D02*
X6772562Y-10999698D01*
X6772562Y-10999698D02*
X6772562Y-11028270D01*
X6772562Y-11028270D02*
X6763039Y-11066365D01*
X6763039Y-11066365D02*
X6753515Y-11085412D01*
X6753515Y-11085412D02*
X6734467Y-11104460D01*
X6734467Y-11104460D02*
X6705896Y-11113984D01*
X6705896Y-11113984D02*
X6658277Y-11113984D01*
X6858277Y-11113984D02*
X6858277Y-10980650D01*
X6858277Y-11018746D02*
X6867801Y-10999698D01*
X6867801Y-10999698D02*
X6877324Y-10990174D01*
X6877324Y-10990174D02*
X6896372Y-10980650D01*
X6896372Y-10980650D02*
X6915420Y-10980650D01*
X6982086Y-11113984D02*
X6982086Y-10980650D01*
X6982086Y-10913984D02*
X6972562Y-10923508D01*
X6972562Y-10923508D02*
X6982086Y-10933031D01*
X6982086Y-10933031D02*
X6991610Y-10923508D01*
X6991610Y-10923508D02*
X6982086Y-10913984D01*
X6982086Y-10913984D02*
X6982086Y-10933031D01*
X7105896Y-11113984D02*
X7086848Y-11104460D01*
X7086848Y-11104460D02*
X7077324Y-11085412D01*
X7077324Y-11085412D02*
X7077324Y-10913984D01*
X7210658Y-11113984D02*
X7191610Y-11104460D01*
X7191610Y-11104460D02*
X7182086Y-11085412D01*
X7182086Y-11085412D02*
X7182086Y-10913984D01*
X7439229Y-11113984D02*
X7439229Y-10913984D01*
X7439229Y-10913984D02*
X7505896Y-11056841D01*
X7505896Y-11056841D02*
X7572562Y-10913984D01*
X7572562Y-10913984D02*
X7572562Y-11113984D01*
X7753515Y-11113984D02*
X7753515Y-11009222D01*
X7753515Y-11009222D02*
X7743991Y-10990174D01*
X7743991Y-10990174D02*
X7724943Y-10980650D01*
X7724943Y-10980650D02*
X7686848Y-10980650D01*
X7686848Y-10980650D02*
X7667801Y-10990174D01*
X7753515Y-11104460D02*
X7734467Y-11113984D01*
X7734467Y-11113984D02*
X7686848Y-11113984D01*
X7686848Y-11113984D02*
X7667801Y-11104460D01*
X7667801Y-11104460D02*
X7658277Y-11085412D01*
X7658277Y-11085412D02*
X7658277Y-11066365D01*
X7658277Y-11066365D02*
X7667801Y-11047317D01*
X7667801Y-11047317D02*
X7686848Y-11037793D01*
X7686848Y-11037793D02*
X7734467Y-11037793D01*
X7734467Y-11037793D02*
X7753515Y-11028270D01*
X7848753Y-10980650D02*
X7848753Y-11180650D01*
X7848753Y-10990174D02*
X7867801Y-10980650D01*
X7867801Y-10980650D02*
X7905896Y-10980650D01*
X7905896Y-10980650D02*
X7924943Y-10990174D01*
X7924943Y-10990174D02*
X7934467Y-10999698D01*
X7934467Y-10999698D02*
X7943991Y-11018746D01*
X7943991Y-11018746D02*
X7943991Y-11075889D01*
X7943991Y-11075889D02*
X7934467Y-11094936D01*
X7934467Y-11094936D02*
X7924943Y-11104460D01*
X7924943Y-11104460D02*
X7905896Y-11113984D01*
X7905896Y-11113984D02*
X7867801Y-11113984D01*
X7867801Y-11113984D02*
X7848753Y-11104460D01*
X8029705Y-11094936D02*
X8039229Y-11104460D01*
X8039229Y-11104460D02*
X8029705Y-11113984D01*
X8029705Y-11113984D02*
X8020182Y-11104460D01*
X8020182Y-11104460D02*
X8029705Y-11094936D01*
X8029705Y-11094936D02*
X8029705Y-11113984D01*
X8029705Y-10990174D02*
X8039229Y-10999698D01*
X8039229Y-10999698D02*
X8029705Y-11009222D01*
X8029705Y-11009222D02*
X8020182Y-10999698D01*
X8020182Y-10999698D02*
X8029705Y-10990174D01*
X8029705Y-10990174D02*
X8029705Y-11009222D01*
D12*
X6367500Y-11427500D02*
X6397500Y-11457500D01*
X6397500Y-11427500D02*
X6367500Y-11457500D01*
D11*
X6696372Y-11333984D02*
X6715420Y-11333984D01*
X6715420Y-11333984D02*
X6734467Y-11343508D01*
X6734467Y-11343508D02*
X6743991Y-11353031D01*
X6743991Y-11353031D02*
X6753515Y-11372079D01*
X6753515Y-11372079D02*
X6763039Y-11410174D01*
X6763039Y-11410174D02*
X6763039Y-11457793D01*
X6763039Y-11457793D02*
X6753515Y-11495888D01*
X6753515Y-11495888D02*
X6743991Y-11514936D01*
X6743991Y-11514936D02*
X6734467Y-11524460D01*
X6734467Y-11524460D02*
X6715420Y-11533984D01*
X6715420Y-11533984D02*
X6696372Y-11533984D01*
X6696372Y-11533984D02*
X6677324Y-11524460D01*
X6677324Y-11524460D02*
X6667801Y-11514936D01*
X6667801Y-11514936D02*
X6658277Y-11495888D01*
X6658277Y-11495888D02*
X6648753Y-11457793D01*
X6648753Y-11457793D02*
X6648753Y-11410174D01*
X6648753Y-11410174D02*
X6658277Y-11372079D01*
X6658277Y-11372079D02*
X6667801Y-11353031D01*
X6667801Y-11353031D02*
X6677324Y-11343508D01*
X6677324Y-11343508D02*
X6696372Y-11333984D01*
X6848753Y-11514936D02*
X6858277Y-11524460D01*
X6858277Y-11524460D02*
X6848753Y-11533984D01*
X6848753Y-11533984D02*
X6839229Y-11524460D01*
X6839229Y-11524460D02*
X6848753Y-11514936D01*
X6848753Y-11514936D02*
X6848753Y-11533984D01*
X6924943Y-11333984D02*
X7048753Y-11333984D01*
X7048753Y-11333984D02*
X6982086Y-11410174D01*
X6982086Y-11410174D02*
X7010658Y-11410174D01*
X7010658Y-11410174D02*
X7029705Y-11419698D01*
X7029705Y-11419698D02*
X7039229Y-11429222D01*
X7039229Y-11429222D02*
X7048753Y-11448269D01*
X7048753Y-11448269D02*
X7048753Y-11495888D01*
X7048753Y-11495888D02*
X7039229Y-11514936D01*
X7039229Y-11514936D02*
X7029705Y-11524460D01*
X7029705Y-11524460D02*
X7010658Y-11533984D01*
X7010658Y-11533984D02*
X6953515Y-11533984D01*
X6953515Y-11533984D02*
X6934467Y-11524460D01*
X6934467Y-11524460D02*
X6924943Y-11514936D01*
X7172562Y-11333984D02*
X7191610Y-11333984D01*
X7191610Y-11333984D02*
X7210658Y-11343508D01*
X7210658Y-11343508D02*
X7220182Y-11353031D01*
X7220182Y-11353031D02*
X7229705Y-11372079D01*
X7229705Y-11372079D02*
X7239229Y-11410174D01*
X7239229Y-11410174D02*
X7239229Y-11457793D01*
X7239229Y-11457793D02*
X7229705Y-11495888D01*
X7229705Y-11495888D02*
X7220182Y-11514936D01*
X7220182Y-11514936D02*
X7210658Y-11524460D01*
X7210658Y-11524460D02*
X7191610Y-11533984D01*
X7191610Y-11533984D02*
X7172562Y-11533984D01*
X7172562Y-11533984D02*
X7153515Y-11524460D01*
X7153515Y-11524460D02*
X7143991Y-11514936D01*
X7143991Y-11514936D02*
X7134467Y-11495888D01*
X7134467Y-11495888D02*
X7124943Y-11457793D01*
X7124943Y-11457793D02*
X7124943Y-11410174D01*
X7124943Y-11410174D02*
X7134467Y-11372079D01*
X7134467Y-11372079D02*
X7143991Y-11353031D01*
X7143991Y-11353031D02*
X7153515Y-11343508D01*
X7153515Y-11343508D02*
X7172562Y-11333984D01*
X7363039Y-11333984D02*
X7382086Y-11333984D01*
X7382086Y-11333984D02*
X7401134Y-11343508D01*
X7401134Y-11343508D02*
X7410658Y-11353031D01*
X7410658Y-11353031D02*
X7420182Y-11372079D01*
X7420182Y-11372079D02*
X7429705Y-11410174D01*
X7429705Y-11410174D02*
X7429705Y-11457793D01*
X7429705Y-11457793D02*
X7420182Y-11495888D01*
X7420182Y-11495888D02*
X7410658Y-11514936D01*
X7410658Y-11514936D02*
X7401134Y-11524460D01*
X7401134Y-11524460D02*
X7382086Y-11533984D01*
X7382086Y-11533984D02*
X7363039Y-11533984D01*
X7363039Y-11533984D02*
X7343991Y-11524460D01*
X7343991Y-11524460D02*
X7334467Y-11514936D01*
X7334467Y-11514936D02*
X7324943Y-11495888D01*
X7324943Y-11495888D02*
X7315420Y-11457793D01*
X7315420Y-11457793D02*
X7315420Y-11410174D01*
X7315420Y-11410174D02*
X7324943Y-11372079D01*
X7324943Y-11372079D02*
X7334467Y-11353031D01*
X7334467Y-11353031D02*
X7343991Y-11343508D01*
X7343991Y-11343508D02*
X7363039Y-11333984D01*
X7515420Y-11533984D02*
X7515420Y-11400650D01*
X7515420Y-11419698D02*
X7524943Y-11410174D01*
X7524943Y-11410174D02*
X7543991Y-11400650D01*
X7543991Y-11400650D02*
X7572563Y-11400650D01*
X7572563Y-11400650D02*
X7591610Y-11410174D01*
X7591610Y-11410174D02*
X7601134Y-11429222D01*
X7601134Y-11429222D02*
X7601134Y-11533984D01*
X7601134Y-11429222D02*
X7610658Y-11410174D01*
X7610658Y-11410174D02*
X7629705Y-11400650D01*
X7629705Y-11400650D02*
X7658277Y-11400650D01*
X7658277Y-11400650D02*
X7677324Y-11410174D01*
X7677324Y-11410174D02*
X7686848Y-11429222D01*
X7686848Y-11429222D02*
X7686848Y-11533984D01*
X7782086Y-11533984D02*
X7782086Y-11400650D01*
X7782086Y-11419698D02*
X7791610Y-11410174D01*
X7791610Y-11410174D02*
X7810658Y-11400650D01*
X7810658Y-11400650D02*
X7839229Y-11400650D01*
X7839229Y-11400650D02*
X7858277Y-11410174D01*
X7858277Y-11410174D02*
X7867801Y-11429222D01*
X7867801Y-11429222D02*
X7867801Y-11533984D01*
X7867801Y-11429222D02*
X7877324Y-11410174D01*
X7877324Y-11410174D02*
X7896372Y-11400650D01*
X7896372Y-11400650D02*
X7924943Y-11400650D01*
X7924943Y-11400650D02*
X7943991Y-11410174D01*
X7943991Y-11410174D02*
X7953515Y-11429222D01*
X7953515Y-11429222D02*
X7953515Y-11533984D01*
X8343991Y-11324460D02*
X8172563Y-11581603D01*
X8601134Y-11333984D02*
X8620182Y-11333984D01*
X8620182Y-11333984D02*
X8639229Y-11343508D01*
X8639229Y-11343508D02*
X8648753Y-11353031D01*
X8648753Y-11353031D02*
X8658277Y-11372079D01*
X8658277Y-11372079D02*
X8667801Y-11410174D01*
X8667801Y-11410174D02*
X8667801Y-11457793D01*
X8667801Y-11457793D02*
X8658277Y-11495888D01*
X8658277Y-11495888D02*
X8648753Y-11514936D01*
X8648753Y-11514936D02*
X8639229Y-11524460D01*
X8639229Y-11524460D02*
X8620182Y-11533984D01*
X8620182Y-11533984D02*
X8601134Y-11533984D01*
X8601134Y-11533984D02*
X8582087Y-11524460D01*
X8582087Y-11524460D02*
X8572563Y-11514936D01*
X8572563Y-11514936D02*
X8563039Y-11495888D01*
X8563039Y-11495888D02*
X8553515Y-11457793D01*
X8553515Y-11457793D02*
X8553515Y-11410174D01*
X8553515Y-11410174D02*
X8563039Y-11372079D01*
X8563039Y-11372079D02*
X8572563Y-11353031D01*
X8572563Y-11353031D02*
X8582087Y-11343508D01*
X8582087Y-11343508D02*
X8601134Y-11333984D01*
X8753515Y-11514936D02*
X8763039Y-11524460D01*
X8763039Y-11524460D02*
X8753515Y-11533984D01*
X8753515Y-11533984D02*
X8743991Y-11524460D01*
X8743991Y-11524460D02*
X8753515Y-11514936D01*
X8753515Y-11514936D02*
X8753515Y-11533984D01*
X8886848Y-11333984D02*
X8905896Y-11333984D01*
X8905896Y-11333984D02*
X8924944Y-11343508D01*
X8924944Y-11343508D02*
X8934468Y-11353031D01*
X8934468Y-11353031D02*
X8943991Y-11372079D01*
X8943991Y-11372079D02*
X8953515Y-11410174D01*
X8953515Y-11410174D02*
X8953515Y-11457793D01*
X8953515Y-11457793D02*
X8943991Y-11495888D01*
X8943991Y-11495888D02*
X8934468Y-11514936D01*
X8934468Y-11514936D02*
X8924944Y-11524460D01*
X8924944Y-11524460D02*
X8905896Y-11533984D01*
X8905896Y-11533984D02*
X8886848Y-11533984D01*
X8886848Y-11533984D02*
X8867801Y-11524460D01*
X8867801Y-11524460D02*
X8858277Y-11514936D01*
X8858277Y-11514936D02*
X8848753Y-11495888D01*
X8848753Y-11495888D02*
X8839229Y-11457793D01*
X8839229Y-11457793D02*
X8839229Y-11410174D01*
X8839229Y-11410174D02*
X8848753Y-11372079D01*
X8848753Y-11372079D02*
X8858277Y-11353031D01*
X8858277Y-11353031D02*
X8867801Y-11343508D01*
X8867801Y-11343508D02*
X8886848Y-11333984D01*
X9143991Y-11533984D02*
X9029706Y-11533984D01*
X9086848Y-11533984D02*
X9086848Y-11333984D01*
X9086848Y-11333984D02*
X9067801Y-11362555D01*
X9067801Y-11362555D02*
X9048753Y-11381603D01*
X9048753Y-11381603D02*
X9029706Y-11391127D01*
X9334468Y-11533984D02*
X9220182Y-11533984D01*
X9277325Y-11533984D02*
X9277325Y-11333984D01*
X9277325Y-11333984D02*
X9258277Y-11362555D01*
X9258277Y-11362555D02*
X9239229Y-11381603D01*
X9239229Y-11381603D02*
X9220182Y-11391127D01*
X9448753Y-11419698D02*
X9429706Y-11410174D01*
X9429706Y-11410174D02*
X9420182Y-11400650D01*
X9420182Y-11400650D02*
X9410658Y-11381603D01*
X9410658Y-11381603D02*
X9410658Y-11372079D01*
X9410658Y-11372079D02*
X9420182Y-11353031D01*
X9420182Y-11353031D02*
X9429706Y-11343508D01*
X9429706Y-11343508D02*
X9448753Y-11333984D01*
X9448753Y-11333984D02*
X9486849Y-11333984D01*
X9486849Y-11333984D02*
X9505896Y-11343508D01*
X9505896Y-11343508D02*
X9515420Y-11353031D01*
X9515420Y-11353031D02*
X9524944Y-11372079D01*
X9524944Y-11372079D02*
X9524944Y-11381603D01*
X9524944Y-11381603D02*
X9515420Y-11400650D01*
X9515420Y-11400650D02*
X9505896Y-11410174D01*
X9505896Y-11410174D02*
X9486849Y-11419698D01*
X9486849Y-11419698D02*
X9448753Y-11419698D01*
X9448753Y-11419698D02*
X9429706Y-11429222D01*
X9429706Y-11429222D02*
X9420182Y-11438746D01*
X9420182Y-11438746D02*
X9410658Y-11457793D01*
X9410658Y-11457793D02*
X9410658Y-11495888D01*
X9410658Y-11495888D02*
X9420182Y-11514936D01*
X9420182Y-11514936D02*
X9429706Y-11524460D01*
X9429706Y-11524460D02*
X9448753Y-11533984D01*
X9448753Y-11533984D02*
X9486849Y-11533984D01*
X9486849Y-11533984D02*
X9505896Y-11524460D01*
X9505896Y-11524460D02*
X9515420Y-11514936D01*
X9515420Y-11514936D02*
X9524944Y-11495888D01*
X9524944Y-11495888D02*
X9524944Y-11457793D01*
X9524944Y-11457793D02*
X9515420Y-11438746D01*
X9515420Y-11438746D02*
X9505896Y-11429222D01*
X9505896Y-11429222D02*
X9486849Y-11419698D01*
X9601134Y-11333984D02*
X9601134Y-11372079D01*
X9677325Y-11333984D02*
X9677325Y-11372079D01*
X9972563Y-11610174D02*
X9963039Y-11600650D01*
X9963039Y-11600650D02*
X9943991Y-11572079D01*
X9943991Y-11572079D02*
X9934468Y-11553031D01*
X9934468Y-11553031D02*
X9924944Y-11524460D01*
X9924944Y-11524460D02*
X9915420Y-11476841D01*
X9915420Y-11476841D02*
X9915420Y-11438746D01*
X9915420Y-11438746D02*
X9924944Y-11391127D01*
X9924944Y-11391127D02*
X9934468Y-11362555D01*
X9934468Y-11362555D02*
X9943991Y-11343508D01*
X9943991Y-11343508D02*
X9963039Y-11314936D01*
X9963039Y-11314936D02*
X9972563Y-11305412D01*
X10039230Y-11353031D02*
X10048753Y-11343508D01*
X10048753Y-11343508D02*
X10067801Y-11333984D01*
X10067801Y-11333984D02*
X10115420Y-11333984D01*
X10115420Y-11333984D02*
X10134468Y-11343508D01*
X10134468Y-11343508D02*
X10143991Y-11353031D01*
X10143991Y-11353031D02*
X10153515Y-11372079D01*
X10153515Y-11372079D02*
X10153515Y-11391127D01*
X10153515Y-11391127D02*
X10143991Y-11419698D01*
X10143991Y-11419698D02*
X10029706Y-11533984D01*
X10029706Y-11533984D02*
X10153515Y-11533984D01*
X10391611Y-11533984D02*
X10391611Y-11333984D01*
X10477325Y-11533984D02*
X10477325Y-11429222D01*
X10477325Y-11429222D02*
X10467801Y-11410174D01*
X10467801Y-11410174D02*
X10448753Y-11400650D01*
X10448753Y-11400650D02*
X10420182Y-11400650D01*
X10420182Y-11400650D02*
X10401134Y-11410174D01*
X10401134Y-11410174D02*
X10391611Y-11419698D01*
X10601134Y-11533984D02*
X10582087Y-11524460D01*
X10582087Y-11524460D02*
X10572563Y-11514936D01*
X10572563Y-11514936D02*
X10563039Y-11495888D01*
X10563039Y-11495888D02*
X10563039Y-11438746D01*
X10563039Y-11438746D02*
X10572563Y-11419698D01*
X10572563Y-11419698D02*
X10582087Y-11410174D01*
X10582087Y-11410174D02*
X10601134Y-11400650D01*
X10601134Y-11400650D02*
X10629706Y-11400650D01*
X10629706Y-11400650D02*
X10648753Y-11410174D01*
X10648753Y-11410174D02*
X10658277Y-11419698D01*
X10658277Y-11419698D02*
X10667801Y-11438746D01*
X10667801Y-11438746D02*
X10667801Y-11495888D01*
X10667801Y-11495888D02*
X10658277Y-11514936D01*
X10658277Y-11514936D02*
X10648753Y-11524460D01*
X10648753Y-11524460D02*
X10629706Y-11533984D01*
X10629706Y-11533984D02*
X10601134Y-11533984D01*
X10782087Y-11533984D02*
X10763039Y-11524460D01*
X10763039Y-11524460D02*
X10753515Y-11505412D01*
X10753515Y-11505412D02*
X10753515Y-11333984D01*
X10934468Y-11524460D02*
X10915420Y-11533984D01*
X10915420Y-11533984D02*
X10877325Y-11533984D01*
X10877325Y-11533984D02*
X10858277Y-11524460D01*
X10858277Y-11524460D02*
X10848753Y-11505412D01*
X10848753Y-11505412D02*
X10848753Y-11429222D01*
X10848753Y-11429222D02*
X10858277Y-11410174D01*
X10858277Y-11410174D02*
X10877325Y-11400650D01*
X10877325Y-11400650D02*
X10915420Y-11400650D01*
X10915420Y-11400650D02*
X10934468Y-11410174D01*
X10934468Y-11410174D02*
X10943992Y-11429222D01*
X10943992Y-11429222D02*
X10943992Y-11448269D01*
X10943992Y-11448269D02*
X10848753Y-11467317D01*
X11020182Y-11524460D02*
X11039230Y-11533984D01*
X11039230Y-11533984D02*
X11077325Y-11533984D01*
X11077325Y-11533984D02*
X11096373Y-11524460D01*
X11096373Y-11524460D02*
X11105896Y-11505412D01*
X11105896Y-11505412D02*
X11105896Y-11495888D01*
X11105896Y-11495888D02*
X11096373Y-11476841D01*
X11096373Y-11476841D02*
X11077325Y-11467317D01*
X11077325Y-11467317D02*
X11048753Y-11467317D01*
X11048753Y-11467317D02*
X11029706Y-11457793D01*
X11029706Y-11457793D02*
X11020182Y-11438746D01*
X11020182Y-11438746D02*
X11020182Y-11429222D01*
X11020182Y-11429222D02*
X11029706Y-11410174D01*
X11029706Y-11410174D02*
X11048753Y-11400650D01*
X11048753Y-11400650D02*
X11077325Y-11400650D01*
X11077325Y-11400650D02*
X11096373Y-11410174D01*
X11172563Y-11610174D02*
X11182087Y-11600650D01*
X11182087Y-11600650D02*
X11201134Y-11572079D01*
X11201134Y-11572079D02*
X11210658Y-11553031D01*
X11210658Y-11553031D02*
X11220182Y-11524460D01*
X11220182Y-11524460D02*
X11229706Y-11476841D01*
X11229706Y-11476841D02*
X11229706Y-11438746D01*
X11229706Y-11438746D02*
X11220182Y-11391127D01*
X11220182Y-11391127D02*
X11210658Y-11362555D01*
X11210658Y-11362555D02*
X11201134Y-11343508D01*
X11201134Y-11343508D02*
X11182087Y-11314936D01*
X11182087Y-11314936D02*
X11172563Y-11305412D01*
D12*
X6397500Y-11706500D02*
G75*
G02*
X6322500Y-11706500I-37500J0D01*
G01*
X6322500Y-11706500D02*
G75*
G02*
X6397500Y-11706500I37500J0D01*
G01*
D11*
X6696372Y-11597984D02*
X6715420Y-11597984D01*
X6715420Y-11597984D02*
X6734467Y-11607508D01*
X6734467Y-11607508D02*
X6743991Y-11617031D01*
X6743991Y-11617031D02*
X6753515Y-11636079D01*
X6753515Y-11636079D02*
X6763039Y-11674174D01*
X6763039Y-11674174D02*
X6763039Y-11721793D01*
X6763039Y-11721793D02*
X6753515Y-11759888D01*
X6753515Y-11759888D02*
X6743991Y-11778936D01*
X6743991Y-11778936D02*
X6734467Y-11788460D01*
X6734467Y-11788460D02*
X6715420Y-11797984D01*
X6715420Y-11797984D02*
X6696372Y-11797984D01*
X6696372Y-11797984D02*
X6677324Y-11788460D01*
X6677324Y-11788460D02*
X6667801Y-11778936D01*
X6667801Y-11778936D02*
X6658277Y-11759888D01*
X6658277Y-11759888D02*
X6648753Y-11721793D01*
X6648753Y-11721793D02*
X6648753Y-11674174D01*
X6648753Y-11674174D02*
X6658277Y-11636079D01*
X6658277Y-11636079D02*
X6667801Y-11617031D01*
X6667801Y-11617031D02*
X6677324Y-11607508D01*
X6677324Y-11607508D02*
X6696372Y-11597984D01*
X6848753Y-11778936D02*
X6858277Y-11788460D01*
X6858277Y-11788460D02*
X6848753Y-11797984D01*
X6848753Y-11797984D02*
X6839229Y-11788460D01*
X6839229Y-11788460D02*
X6848753Y-11778936D01*
X6848753Y-11778936D02*
X6848753Y-11797984D01*
X6924943Y-11597984D02*
X7058277Y-11597984D01*
X7058277Y-11597984D02*
X6972562Y-11797984D01*
X7229705Y-11597984D02*
X7134467Y-11597984D01*
X7134467Y-11597984D02*
X7124943Y-11693222D01*
X7124943Y-11693222D02*
X7134467Y-11683698D01*
X7134467Y-11683698D02*
X7153515Y-11674174D01*
X7153515Y-11674174D02*
X7201134Y-11674174D01*
X7201134Y-11674174D02*
X7220182Y-11683698D01*
X7220182Y-11683698D02*
X7229705Y-11693222D01*
X7229705Y-11693222D02*
X7239229Y-11712269D01*
X7239229Y-11712269D02*
X7239229Y-11759888D01*
X7239229Y-11759888D02*
X7229705Y-11778936D01*
X7229705Y-11778936D02*
X7220182Y-11788460D01*
X7220182Y-11788460D02*
X7201134Y-11797984D01*
X7201134Y-11797984D02*
X7153515Y-11797984D01*
X7153515Y-11797984D02*
X7134467Y-11788460D01*
X7134467Y-11788460D02*
X7124943Y-11778936D01*
X7363039Y-11597984D02*
X7382086Y-11597984D01*
X7382086Y-11597984D02*
X7401134Y-11607508D01*
X7401134Y-11607508D02*
X7410658Y-11617031D01*
X7410658Y-11617031D02*
X7420182Y-11636079D01*
X7420182Y-11636079D02*
X7429705Y-11674174D01*
X7429705Y-11674174D02*
X7429705Y-11721793D01*
X7429705Y-11721793D02*
X7420182Y-11759888D01*
X7420182Y-11759888D02*
X7410658Y-11778936D01*
X7410658Y-11778936D02*
X7401134Y-11788460D01*
X7401134Y-11788460D02*
X7382086Y-11797984D01*
X7382086Y-11797984D02*
X7363039Y-11797984D01*
X7363039Y-11797984D02*
X7343991Y-11788460D01*
X7343991Y-11788460D02*
X7334467Y-11778936D01*
X7334467Y-11778936D02*
X7324943Y-11759888D01*
X7324943Y-11759888D02*
X7315420Y-11721793D01*
X7315420Y-11721793D02*
X7315420Y-11674174D01*
X7315420Y-11674174D02*
X7324943Y-11636079D01*
X7324943Y-11636079D02*
X7334467Y-11617031D01*
X7334467Y-11617031D02*
X7343991Y-11607508D01*
X7343991Y-11607508D02*
X7363039Y-11597984D01*
X7515420Y-11797984D02*
X7515420Y-11664650D01*
X7515420Y-11683698D02*
X7524943Y-11674174D01*
X7524943Y-11674174D02*
X7543991Y-11664650D01*
X7543991Y-11664650D02*
X7572563Y-11664650D01*
X7572563Y-11664650D02*
X7591610Y-11674174D01*
X7591610Y-11674174D02*
X7601134Y-11693222D01*
X7601134Y-11693222D02*
X7601134Y-11797984D01*
X7601134Y-11693222D02*
X7610658Y-11674174D01*
X7610658Y-11674174D02*
X7629705Y-11664650D01*
X7629705Y-11664650D02*
X7658277Y-11664650D01*
X7658277Y-11664650D02*
X7677324Y-11674174D01*
X7677324Y-11674174D02*
X7686848Y-11693222D01*
X7686848Y-11693222D02*
X7686848Y-11797984D01*
X7782086Y-11797984D02*
X7782086Y-11664650D01*
X7782086Y-11683698D02*
X7791610Y-11674174D01*
X7791610Y-11674174D02*
X7810658Y-11664650D01*
X7810658Y-11664650D02*
X7839229Y-11664650D01*
X7839229Y-11664650D02*
X7858277Y-11674174D01*
X7858277Y-11674174D02*
X7867801Y-11693222D01*
X7867801Y-11693222D02*
X7867801Y-11797984D01*
X7867801Y-11693222D02*
X7877324Y-11674174D01*
X7877324Y-11674174D02*
X7896372Y-11664650D01*
X7896372Y-11664650D02*
X7924943Y-11664650D01*
X7924943Y-11664650D02*
X7943991Y-11674174D01*
X7943991Y-11674174D02*
X7953515Y-11693222D01*
X7953515Y-11693222D02*
X7953515Y-11797984D01*
X8343991Y-11588460D02*
X8172563Y-11845603D01*
X8601134Y-11597984D02*
X8620182Y-11597984D01*
X8620182Y-11597984D02*
X8639229Y-11607508D01*
X8639229Y-11607508D02*
X8648753Y-11617031D01*
X8648753Y-11617031D02*
X8658277Y-11636079D01*
X8658277Y-11636079D02*
X8667801Y-11674174D01*
X8667801Y-11674174D02*
X8667801Y-11721793D01*
X8667801Y-11721793D02*
X8658277Y-11759888D01*
X8658277Y-11759888D02*
X8648753Y-11778936D01*
X8648753Y-11778936D02*
X8639229Y-11788460D01*
X8639229Y-11788460D02*
X8620182Y-11797984D01*
X8620182Y-11797984D02*
X8601134Y-11797984D01*
X8601134Y-11797984D02*
X8582087Y-11788460D01*
X8582087Y-11788460D02*
X8572563Y-11778936D01*
X8572563Y-11778936D02*
X8563039Y-11759888D01*
X8563039Y-11759888D02*
X8553515Y-11721793D01*
X8553515Y-11721793D02*
X8553515Y-11674174D01*
X8553515Y-11674174D02*
X8563039Y-11636079D01*
X8563039Y-11636079D02*
X8572563Y-11617031D01*
X8572563Y-11617031D02*
X8582087Y-11607508D01*
X8582087Y-11607508D02*
X8601134Y-11597984D01*
X8753515Y-11778936D02*
X8763039Y-11788460D01*
X8763039Y-11788460D02*
X8753515Y-11797984D01*
X8753515Y-11797984D02*
X8743991Y-11788460D01*
X8743991Y-11788460D02*
X8753515Y-11778936D01*
X8753515Y-11778936D02*
X8753515Y-11797984D01*
X8886848Y-11597984D02*
X8905896Y-11597984D01*
X8905896Y-11597984D02*
X8924944Y-11607508D01*
X8924944Y-11607508D02*
X8934468Y-11617031D01*
X8934468Y-11617031D02*
X8943991Y-11636079D01*
X8943991Y-11636079D02*
X8953515Y-11674174D01*
X8953515Y-11674174D02*
X8953515Y-11721793D01*
X8953515Y-11721793D02*
X8943991Y-11759888D01*
X8943991Y-11759888D02*
X8934468Y-11778936D01*
X8934468Y-11778936D02*
X8924944Y-11788460D01*
X8924944Y-11788460D02*
X8905896Y-11797984D01*
X8905896Y-11797984D02*
X8886848Y-11797984D01*
X8886848Y-11797984D02*
X8867801Y-11788460D01*
X8867801Y-11788460D02*
X8858277Y-11778936D01*
X8858277Y-11778936D02*
X8848753Y-11759888D01*
X8848753Y-11759888D02*
X8839229Y-11721793D01*
X8839229Y-11721793D02*
X8839229Y-11674174D01*
X8839229Y-11674174D02*
X8848753Y-11636079D01*
X8848753Y-11636079D02*
X8858277Y-11617031D01*
X8858277Y-11617031D02*
X8867801Y-11607508D01*
X8867801Y-11607508D02*
X8886848Y-11597984D01*
X9029706Y-11617031D02*
X9039229Y-11607508D01*
X9039229Y-11607508D02*
X9058277Y-11597984D01*
X9058277Y-11597984D02*
X9105896Y-11597984D01*
X9105896Y-11597984D02*
X9124944Y-11607508D01*
X9124944Y-11607508D02*
X9134468Y-11617031D01*
X9134468Y-11617031D02*
X9143991Y-11636079D01*
X9143991Y-11636079D02*
X9143991Y-11655127D01*
X9143991Y-11655127D02*
X9134468Y-11683698D01*
X9134468Y-11683698D02*
X9020182Y-11797984D01*
X9020182Y-11797984D02*
X9143991Y-11797984D01*
X9239229Y-11797984D02*
X9277325Y-11797984D01*
X9277325Y-11797984D02*
X9296372Y-11788460D01*
X9296372Y-11788460D02*
X9305896Y-11778936D01*
X9305896Y-11778936D02*
X9324944Y-11750365D01*
X9324944Y-11750365D02*
X9334468Y-11712269D01*
X9334468Y-11712269D02*
X9334468Y-11636079D01*
X9334468Y-11636079D02*
X9324944Y-11617031D01*
X9324944Y-11617031D02*
X9315420Y-11607508D01*
X9315420Y-11607508D02*
X9296372Y-11597984D01*
X9296372Y-11597984D02*
X9258277Y-11597984D01*
X9258277Y-11597984D02*
X9239229Y-11607508D01*
X9239229Y-11607508D02*
X9229706Y-11617031D01*
X9229706Y-11617031D02*
X9220182Y-11636079D01*
X9220182Y-11636079D02*
X9220182Y-11683698D01*
X9220182Y-11683698D02*
X9229706Y-11702746D01*
X9229706Y-11702746D02*
X9239229Y-11712269D01*
X9239229Y-11712269D02*
X9258277Y-11721793D01*
X9258277Y-11721793D02*
X9296372Y-11721793D01*
X9296372Y-11721793D02*
X9315420Y-11712269D01*
X9315420Y-11712269D02*
X9324944Y-11702746D01*
X9324944Y-11702746D02*
X9334468Y-11683698D01*
X9515420Y-11597984D02*
X9420182Y-11597984D01*
X9420182Y-11597984D02*
X9410658Y-11693222D01*
X9410658Y-11693222D02*
X9420182Y-11683698D01*
X9420182Y-11683698D02*
X9439229Y-11674174D01*
X9439229Y-11674174D02*
X9486849Y-11674174D01*
X9486849Y-11674174D02*
X9505896Y-11683698D01*
X9505896Y-11683698D02*
X9515420Y-11693222D01*
X9515420Y-11693222D02*
X9524944Y-11712269D01*
X9524944Y-11712269D02*
X9524944Y-11759888D01*
X9524944Y-11759888D02*
X9515420Y-11778936D01*
X9515420Y-11778936D02*
X9505896Y-11788460D01*
X9505896Y-11788460D02*
X9486849Y-11797984D01*
X9486849Y-11797984D02*
X9439229Y-11797984D01*
X9439229Y-11797984D02*
X9420182Y-11788460D01*
X9420182Y-11788460D02*
X9410658Y-11778936D01*
X9601134Y-11597984D02*
X9601134Y-11636079D01*
X9677325Y-11597984D02*
X9677325Y-11636079D01*
X9972563Y-11874174D02*
X9963039Y-11864650D01*
X9963039Y-11864650D02*
X9943991Y-11836079D01*
X9943991Y-11836079D02*
X9934468Y-11817031D01*
X9934468Y-11817031D02*
X9924944Y-11788460D01*
X9924944Y-11788460D02*
X9915420Y-11740841D01*
X9915420Y-11740841D02*
X9915420Y-11702746D01*
X9915420Y-11702746D02*
X9924944Y-11655127D01*
X9924944Y-11655127D02*
X9934468Y-11626555D01*
X9934468Y-11626555D02*
X9943991Y-11607508D01*
X9943991Y-11607508D02*
X9963039Y-11578936D01*
X9963039Y-11578936D02*
X9972563Y-11569412D01*
X10029706Y-11597984D02*
X10153515Y-11597984D01*
X10153515Y-11597984D02*
X10086849Y-11674174D01*
X10086849Y-11674174D02*
X10115420Y-11674174D01*
X10115420Y-11674174D02*
X10134468Y-11683698D01*
X10134468Y-11683698D02*
X10143991Y-11693222D01*
X10143991Y-11693222D02*
X10153515Y-11712269D01*
X10153515Y-11712269D02*
X10153515Y-11759888D01*
X10153515Y-11759888D02*
X10143991Y-11778936D01*
X10143991Y-11778936D02*
X10134468Y-11788460D01*
X10134468Y-11788460D02*
X10115420Y-11797984D01*
X10115420Y-11797984D02*
X10058277Y-11797984D01*
X10058277Y-11797984D02*
X10039230Y-11788460D01*
X10039230Y-11788460D02*
X10029706Y-11778936D01*
X10391611Y-11797984D02*
X10391611Y-11597984D01*
X10477325Y-11797984D02*
X10477325Y-11693222D01*
X10477325Y-11693222D02*
X10467801Y-11674174D01*
X10467801Y-11674174D02*
X10448753Y-11664650D01*
X10448753Y-11664650D02*
X10420182Y-11664650D01*
X10420182Y-11664650D02*
X10401134Y-11674174D01*
X10401134Y-11674174D02*
X10391611Y-11683698D01*
X10601134Y-11797984D02*
X10582087Y-11788460D01*
X10582087Y-11788460D02*
X10572563Y-11778936D01*
X10572563Y-11778936D02*
X10563039Y-11759888D01*
X10563039Y-11759888D02*
X10563039Y-11702746D01*
X10563039Y-11702746D02*
X10572563Y-11683698D01*
X10572563Y-11683698D02*
X10582087Y-11674174D01*
X10582087Y-11674174D02*
X10601134Y-11664650D01*
X10601134Y-11664650D02*
X10629706Y-11664650D01*
X10629706Y-11664650D02*
X10648753Y-11674174D01*
X10648753Y-11674174D02*
X10658277Y-11683698D01*
X10658277Y-11683698D02*
X10667801Y-11702746D01*
X10667801Y-11702746D02*
X10667801Y-11759888D01*
X10667801Y-11759888D02*
X10658277Y-11778936D01*
X10658277Y-11778936D02*
X10648753Y-11788460D01*
X10648753Y-11788460D02*
X10629706Y-11797984D01*
X10629706Y-11797984D02*
X10601134Y-11797984D01*
X10782087Y-11797984D02*
X10763039Y-11788460D01*
X10763039Y-11788460D02*
X10753515Y-11769412D01*
X10753515Y-11769412D02*
X10753515Y-11597984D01*
X10934468Y-11788460D02*
X10915420Y-11797984D01*
X10915420Y-11797984D02*
X10877325Y-11797984D01*
X10877325Y-11797984D02*
X10858277Y-11788460D01*
X10858277Y-11788460D02*
X10848753Y-11769412D01*
X10848753Y-11769412D02*
X10848753Y-11693222D01*
X10848753Y-11693222D02*
X10858277Y-11674174D01*
X10858277Y-11674174D02*
X10877325Y-11664650D01*
X10877325Y-11664650D02*
X10915420Y-11664650D01*
X10915420Y-11664650D02*
X10934468Y-11674174D01*
X10934468Y-11674174D02*
X10943992Y-11693222D01*
X10943992Y-11693222D02*
X10943992Y-11712269D01*
X10943992Y-11712269D02*
X10848753Y-11731317D01*
X11020182Y-11788460D02*
X11039230Y-11797984D01*
X11039230Y-11797984D02*
X11077325Y-11797984D01*
X11077325Y-11797984D02*
X11096373Y-11788460D01*
X11096373Y-11788460D02*
X11105896Y-11769412D01*
X11105896Y-11769412D02*
X11105896Y-11759888D01*
X11105896Y-11759888D02*
X11096373Y-11740841D01*
X11096373Y-11740841D02*
X11077325Y-11731317D01*
X11077325Y-11731317D02*
X11048753Y-11731317D01*
X11048753Y-11731317D02*
X11029706Y-11721793D01*
X11029706Y-11721793D02*
X11020182Y-11702746D01*
X11020182Y-11702746D02*
X11020182Y-11693222D01*
X11020182Y-11693222D02*
X11029706Y-11674174D01*
X11029706Y-11674174D02*
X11048753Y-11664650D01*
X11048753Y-11664650D02*
X11077325Y-11664650D01*
X11077325Y-11664650D02*
X11096373Y-11674174D01*
X11172563Y-11874174D02*
X11182087Y-11864650D01*
X11182087Y-11864650D02*
X11201134Y-11836079D01*
X11201134Y-11836079D02*
X11210658Y-11817031D01*
X11210658Y-11817031D02*
X11220182Y-11788460D01*
X11220182Y-11788460D02*
X11229706Y-11740841D01*
X11229706Y-11740841D02*
X11229706Y-11702746D01*
X11229706Y-11702746D02*
X11220182Y-11655127D01*
X11220182Y-11655127D02*
X11210658Y-11626555D01*
X11210658Y-11626555D02*
X11201134Y-11607508D01*
X11201134Y-11607508D02*
X11182087Y-11578936D01*
X11182087Y-11578936D02*
X11172563Y-11569412D01*
D12*
X6357500Y-11930500D02*
X6357500Y-12010500D01*
X6317500Y-11970500D02*
X6397500Y-11970500D01*
D11*
X6696372Y-11861984D02*
X6715420Y-11861984D01*
X6715420Y-11861984D02*
X6734467Y-11871508D01*
X6734467Y-11871508D02*
X6743991Y-11881031D01*
X6743991Y-11881031D02*
X6753515Y-11900079D01*
X6753515Y-11900079D02*
X6763039Y-11938174D01*
X6763039Y-11938174D02*
X6763039Y-11985793D01*
X6763039Y-11985793D02*
X6753515Y-12023888D01*
X6753515Y-12023888D02*
X6743991Y-12042936D01*
X6743991Y-12042936D02*
X6734467Y-12052460D01*
X6734467Y-12052460D02*
X6715420Y-12061984D01*
X6715420Y-12061984D02*
X6696372Y-12061984D01*
X6696372Y-12061984D02*
X6677324Y-12052460D01*
X6677324Y-12052460D02*
X6667801Y-12042936D01*
X6667801Y-12042936D02*
X6658277Y-12023888D01*
X6658277Y-12023888D02*
X6648753Y-11985793D01*
X6648753Y-11985793D02*
X6648753Y-11938174D01*
X6648753Y-11938174D02*
X6658277Y-11900079D01*
X6658277Y-11900079D02*
X6667801Y-11881031D01*
X6667801Y-11881031D02*
X6677324Y-11871508D01*
X6677324Y-11871508D02*
X6696372Y-11861984D01*
X6848753Y-12042936D02*
X6858277Y-12052460D01*
X6858277Y-12052460D02*
X6848753Y-12061984D01*
X6848753Y-12061984D02*
X6839229Y-12052460D01*
X6839229Y-12052460D02*
X6848753Y-12042936D01*
X6848753Y-12042936D02*
X6848753Y-12061984D01*
X6972562Y-11947698D02*
X6953515Y-11938174D01*
X6953515Y-11938174D02*
X6943991Y-11928650D01*
X6943991Y-11928650D02*
X6934467Y-11909603D01*
X6934467Y-11909603D02*
X6934467Y-11900079D01*
X6934467Y-11900079D02*
X6943991Y-11881031D01*
X6943991Y-11881031D02*
X6953515Y-11871508D01*
X6953515Y-11871508D02*
X6972562Y-11861984D01*
X6972562Y-11861984D02*
X7010658Y-11861984D01*
X7010658Y-11861984D02*
X7029705Y-11871508D01*
X7029705Y-11871508D02*
X7039229Y-11881031D01*
X7039229Y-11881031D02*
X7048753Y-11900079D01*
X7048753Y-11900079D02*
X7048753Y-11909603D01*
X7048753Y-11909603D02*
X7039229Y-11928650D01*
X7039229Y-11928650D02*
X7029705Y-11938174D01*
X7029705Y-11938174D02*
X7010658Y-11947698D01*
X7010658Y-11947698D02*
X6972562Y-11947698D01*
X6972562Y-11947698D02*
X6953515Y-11957222D01*
X6953515Y-11957222D02*
X6943991Y-11966746D01*
X6943991Y-11966746D02*
X6934467Y-11985793D01*
X6934467Y-11985793D02*
X6934467Y-12023888D01*
X6934467Y-12023888D02*
X6943991Y-12042936D01*
X6943991Y-12042936D02*
X6953515Y-12052460D01*
X6953515Y-12052460D02*
X6972562Y-12061984D01*
X6972562Y-12061984D02*
X7010658Y-12061984D01*
X7010658Y-12061984D02*
X7029705Y-12052460D01*
X7029705Y-12052460D02*
X7039229Y-12042936D01*
X7039229Y-12042936D02*
X7048753Y-12023888D01*
X7048753Y-12023888D02*
X7048753Y-11985793D01*
X7048753Y-11985793D02*
X7039229Y-11966746D01*
X7039229Y-11966746D02*
X7029705Y-11957222D01*
X7029705Y-11957222D02*
X7010658Y-11947698D01*
X7172562Y-11861984D02*
X7191610Y-11861984D01*
X7191610Y-11861984D02*
X7210658Y-11871508D01*
X7210658Y-11871508D02*
X7220182Y-11881031D01*
X7220182Y-11881031D02*
X7229705Y-11900079D01*
X7229705Y-11900079D02*
X7239229Y-11938174D01*
X7239229Y-11938174D02*
X7239229Y-11985793D01*
X7239229Y-11985793D02*
X7229705Y-12023888D01*
X7229705Y-12023888D02*
X7220182Y-12042936D01*
X7220182Y-12042936D02*
X7210658Y-12052460D01*
X7210658Y-12052460D02*
X7191610Y-12061984D01*
X7191610Y-12061984D02*
X7172562Y-12061984D01*
X7172562Y-12061984D02*
X7153515Y-12052460D01*
X7153515Y-12052460D02*
X7143991Y-12042936D01*
X7143991Y-12042936D02*
X7134467Y-12023888D01*
X7134467Y-12023888D02*
X7124943Y-11985793D01*
X7124943Y-11985793D02*
X7124943Y-11938174D01*
X7124943Y-11938174D02*
X7134467Y-11900079D01*
X7134467Y-11900079D02*
X7143991Y-11881031D01*
X7143991Y-11881031D02*
X7153515Y-11871508D01*
X7153515Y-11871508D02*
X7172562Y-11861984D01*
X7363039Y-11861984D02*
X7382086Y-11861984D01*
X7382086Y-11861984D02*
X7401134Y-11871508D01*
X7401134Y-11871508D02*
X7410658Y-11881031D01*
X7410658Y-11881031D02*
X7420182Y-11900079D01*
X7420182Y-11900079D02*
X7429705Y-11938174D01*
X7429705Y-11938174D02*
X7429705Y-11985793D01*
X7429705Y-11985793D02*
X7420182Y-12023888D01*
X7420182Y-12023888D02*
X7410658Y-12042936D01*
X7410658Y-12042936D02*
X7401134Y-12052460D01*
X7401134Y-12052460D02*
X7382086Y-12061984D01*
X7382086Y-12061984D02*
X7363039Y-12061984D01*
X7363039Y-12061984D02*
X7343991Y-12052460D01*
X7343991Y-12052460D02*
X7334467Y-12042936D01*
X7334467Y-12042936D02*
X7324943Y-12023888D01*
X7324943Y-12023888D02*
X7315420Y-11985793D01*
X7315420Y-11985793D02*
X7315420Y-11938174D01*
X7315420Y-11938174D02*
X7324943Y-11900079D01*
X7324943Y-11900079D02*
X7334467Y-11881031D01*
X7334467Y-11881031D02*
X7343991Y-11871508D01*
X7343991Y-11871508D02*
X7363039Y-11861984D01*
X7515420Y-12061984D02*
X7515420Y-11928650D01*
X7515420Y-11947698D02*
X7524943Y-11938174D01*
X7524943Y-11938174D02*
X7543991Y-11928650D01*
X7543991Y-11928650D02*
X7572563Y-11928650D01*
X7572563Y-11928650D02*
X7591610Y-11938174D01*
X7591610Y-11938174D02*
X7601134Y-11957222D01*
X7601134Y-11957222D02*
X7601134Y-12061984D01*
X7601134Y-11957222D02*
X7610658Y-11938174D01*
X7610658Y-11938174D02*
X7629705Y-11928650D01*
X7629705Y-11928650D02*
X7658277Y-11928650D01*
X7658277Y-11928650D02*
X7677324Y-11938174D01*
X7677324Y-11938174D02*
X7686848Y-11957222D01*
X7686848Y-11957222D02*
X7686848Y-12061984D01*
X7782086Y-12061984D02*
X7782086Y-11928650D01*
X7782086Y-11947698D02*
X7791610Y-11938174D01*
X7791610Y-11938174D02*
X7810658Y-11928650D01*
X7810658Y-11928650D02*
X7839229Y-11928650D01*
X7839229Y-11928650D02*
X7858277Y-11938174D01*
X7858277Y-11938174D02*
X7867801Y-11957222D01*
X7867801Y-11957222D02*
X7867801Y-12061984D01*
X7867801Y-11957222D02*
X7877324Y-11938174D01*
X7877324Y-11938174D02*
X7896372Y-11928650D01*
X7896372Y-11928650D02*
X7924943Y-11928650D01*
X7924943Y-11928650D02*
X7943991Y-11938174D01*
X7943991Y-11938174D02*
X7953515Y-11957222D01*
X7953515Y-11957222D02*
X7953515Y-12061984D01*
X8343991Y-11852460D02*
X8172563Y-12109603D01*
X8601134Y-11861984D02*
X8620182Y-11861984D01*
X8620182Y-11861984D02*
X8639229Y-11871508D01*
X8639229Y-11871508D02*
X8648753Y-11881031D01*
X8648753Y-11881031D02*
X8658277Y-11900079D01*
X8658277Y-11900079D02*
X8667801Y-11938174D01*
X8667801Y-11938174D02*
X8667801Y-11985793D01*
X8667801Y-11985793D02*
X8658277Y-12023888D01*
X8658277Y-12023888D02*
X8648753Y-12042936D01*
X8648753Y-12042936D02*
X8639229Y-12052460D01*
X8639229Y-12052460D02*
X8620182Y-12061984D01*
X8620182Y-12061984D02*
X8601134Y-12061984D01*
X8601134Y-12061984D02*
X8582087Y-12052460D01*
X8582087Y-12052460D02*
X8572563Y-12042936D01*
X8572563Y-12042936D02*
X8563039Y-12023888D01*
X8563039Y-12023888D02*
X8553515Y-11985793D01*
X8553515Y-11985793D02*
X8553515Y-11938174D01*
X8553515Y-11938174D02*
X8563039Y-11900079D01*
X8563039Y-11900079D02*
X8572563Y-11881031D01*
X8572563Y-11881031D02*
X8582087Y-11871508D01*
X8582087Y-11871508D02*
X8601134Y-11861984D01*
X8753515Y-12042936D02*
X8763039Y-12052460D01*
X8763039Y-12052460D02*
X8753515Y-12061984D01*
X8753515Y-12061984D02*
X8743991Y-12052460D01*
X8743991Y-12052460D02*
X8753515Y-12042936D01*
X8753515Y-12042936D02*
X8753515Y-12061984D01*
X8886848Y-11861984D02*
X8905896Y-11861984D01*
X8905896Y-11861984D02*
X8924944Y-11871508D01*
X8924944Y-11871508D02*
X8934468Y-11881031D01*
X8934468Y-11881031D02*
X8943991Y-11900079D01*
X8943991Y-11900079D02*
X8953515Y-11938174D01*
X8953515Y-11938174D02*
X8953515Y-11985793D01*
X8953515Y-11985793D02*
X8943991Y-12023888D01*
X8943991Y-12023888D02*
X8934468Y-12042936D01*
X8934468Y-12042936D02*
X8924944Y-12052460D01*
X8924944Y-12052460D02*
X8905896Y-12061984D01*
X8905896Y-12061984D02*
X8886848Y-12061984D01*
X8886848Y-12061984D02*
X8867801Y-12052460D01*
X8867801Y-12052460D02*
X8858277Y-12042936D01*
X8858277Y-12042936D02*
X8848753Y-12023888D01*
X8848753Y-12023888D02*
X8839229Y-11985793D01*
X8839229Y-11985793D02*
X8839229Y-11938174D01*
X8839229Y-11938174D02*
X8848753Y-11900079D01*
X8848753Y-11900079D02*
X8858277Y-11881031D01*
X8858277Y-11881031D02*
X8867801Y-11871508D01*
X8867801Y-11871508D02*
X8886848Y-11861984D01*
X9020182Y-11861984D02*
X9143991Y-11861984D01*
X9143991Y-11861984D02*
X9077325Y-11938174D01*
X9077325Y-11938174D02*
X9105896Y-11938174D01*
X9105896Y-11938174D02*
X9124944Y-11947698D01*
X9124944Y-11947698D02*
X9134468Y-11957222D01*
X9134468Y-11957222D02*
X9143991Y-11976269D01*
X9143991Y-11976269D02*
X9143991Y-12023888D01*
X9143991Y-12023888D02*
X9134468Y-12042936D01*
X9134468Y-12042936D02*
X9124944Y-12052460D01*
X9124944Y-12052460D02*
X9105896Y-12061984D01*
X9105896Y-12061984D02*
X9048753Y-12061984D01*
X9048753Y-12061984D02*
X9029706Y-12052460D01*
X9029706Y-12052460D02*
X9020182Y-12042936D01*
X9334468Y-12061984D02*
X9220182Y-12061984D01*
X9277325Y-12061984D02*
X9277325Y-11861984D01*
X9277325Y-11861984D02*
X9258277Y-11890555D01*
X9258277Y-11890555D02*
X9239229Y-11909603D01*
X9239229Y-11909603D02*
X9220182Y-11919127D01*
X9515420Y-11861984D02*
X9420182Y-11861984D01*
X9420182Y-11861984D02*
X9410658Y-11957222D01*
X9410658Y-11957222D02*
X9420182Y-11947698D01*
X9420182Y-11947698D02*
X9439229Y-11938174D01*
X9439229Y-11938174D02*
X9486849Y-11938174D01*
X9486849Y-11938174D02*
X9505896Y-11947698D01*
X9505896Y-11947698D02*
X9515420Y-11957222D01*
X9515420Y-11957222D02*
X9524944Y-11976269D01*
X9524944Y-11976269D02*
X9524944Y-12023888D01*
X9524944Y-12023888D02*
X9515420Y-12042936D01*
X9515420Y-12042936D02*
X9505896Y-12052460D01*
X9505896Y-12052460D02*
X9486849Y-12061984D01*
X9486849Y-12061984D02*
X9439229Y-12061984D01*
X9439229Y-12061984D02*
X9420182Y-12052460D01*
X9420182Y-12052460D02*
X9410658Y-12042936D01*
X9601134Y-11861984D02*
X9601134Y-11900079D01*
X9677325Y-11861984D02*
X9677325Y-11900079D01*
X9972563Y-12138174D02*
X9963039Y-12128650D01*
X9963039Y-12128650D02*
X9943991Y-12100079D01*
X9943991Y-12100079D02*
X9934468Y-12081031D01*
X9934468Y-12081031D02*
X9924944Y-12052460D01*
X9924944Y-12052460D02*
X9915420Y-12004841D01*
X9915420Y-12004841D02*
X9915420Y-11966746D01*
X9915420Y-11966746D02*
X9924944Y-11919127D01*
X9924944Y-11919127D02*
X9934468Y-11890555D01*
X9934468Y-11890555D02*
X9943991Y-11871508D01*
X9943991Y-11871508D02*
X9963039Y-11842936D01*
X9963039Y-11842936D02*
X9972563Y-11833412D01*
X10134468Y-11928650D02*
X10134468Y-12061984D01*
X10086849Y-11852460D02*
X10039230Y-11995317D01*
X10039230Y-11995317D02*
X10163039Y-11995317D01*
X10324944Y-11928650D02*
X10324944Y-12061984D01*
X10277325Y-11852460D02*
X10229706Y-11995317D01*
X10229706Y-11995317D02*
X10353515Y-11995317D01*
X10582087Y-12061984D02*
X10582087Y-11861984D01*
X10667801Y-12061984D02*
X10667801Y-11957222D01*
X10667801Y-11957222D02*
X10658277Y-11938174D01*
X10658277Y-11938174D02*
X10639230Y-11928650D01*
X10639230Y-11928650D02*
X10610658Y-11928650D01*
X10610658Y-11928650D02*
X10591611Y-11938174D01*
X10591611Y-11938174D02*
X10582087Y-11947698D01*
X10791611Y-12061984D02*
X10772563Y-12052460D01*
X10772563Y-12052460D02*
X10763039Y-12042936D01*
X10763039Y-12042936D02*
X10753515Y-12023888D01*
X10753515Y-12023888D02*
X10753515Y-11966746D01*
X10753515Y-11966746D02*
X10763039Y-11947698D01*
X10763039Y-11947698D02*
X10772563Y-11938174D01*
X10772563Y-11938174D02*
X10791611Y-11928650D01*
X10791611Y-11928650D02*
X10820182Y-11928650D01*
X10820182Y-11928650D02*
X10839230Y-11938174D01*
X10839230Y-11938174D02*
X10848753Y-11947698D01*
X10848753Y-11947698D02*
X10858277Y-11966746D01*
X10858277Y-11966746D02*
X10858277Y-12023888D01*
X10858277Y-12023888D02*
X10848753Y-12042936D01*
X10848753Y-12042936D02*
X10839230Y-12052460D01*
X10839230Y-12052460D02*
X10820182Y-12061984D01*
X10820182Y-12061984D02*
X10791611Y-12061984D01*
X10972563Y-12061984D02*
X10953515Y-12052460D01*
X10953515Y-12052460D02*
X10943992Y-12033412D01*
X10943992Y-12033412D02*
X10943992Y-11861984D01*
X11124944Y-12052460D02*
X11105896Y-12061984D01*
X11105896Y-12061984D02*
X11067801Y-12061984D01*
X11067801Y-12061984D02*
X11048753Y-12052460D01*
X11048753Y-12052460D02*
X11039230Y-12033412D01*
X11039230Y-12033412D02*
X11039230Y-11957222D01*
X11039230Y-11957222D02*
X11048753Y-11938174D01*
X11048753Y-11938174D02*
X11067801Y-11928650D01*
X11067801Y-11928650D02*
X11105896Y-11928650D01*
X11105896Y-11928650D02*
X11124944Y-11938174D01*
X11124944Y-11938174D02*
X11134468Y-11957222D01*
X11134468Y-11957222D02*
X11134468Y-11976269D01*
X11134468Y-11976269D02*
X11039230Y-11995317D01*
X11210658Y-12052460D02*
X11229706Y-12061984D01*
X11229706Y-12061984D02*
X11267801Y-12061984D01*
X11267801Y-12061984D02*
X11286849Y-12052460D01*
X11286849Y-12052460D02*
X11296372Y-12033412D01*
X11296372Y-12033412D02*
X11296372Y-12023888D01*
X11296372Y-12023888D02*
X11286849Y-12004841D01*
X11286849Y-12004841D02*
X11267801Y-11995317D01*
X11267801Y-11995317D02*
X11239230Y-11995317D01*
X11239230Y-11995317D02*
X11220182Y-11985793D01*
X11220182Y-11985793D02*
X11210658Y-11966746D01*
X11210658Y-11966746D02*
X11210658Y-11957222D01*
X11210658Y-11957222D02*
X11220182Y-11938174D01*
X11220182Y-11938174D02*
X11239230Y-11928650D01*
X11239230Y-11928650D02*
X11267801Y-11928650D01*
X11267801Y-11928650D02*
X11286849Y-11938174D01*
X11363039Y-12138174D02*
X11372563Y-12128650D01*
X11372563Y-12128650D02*
X11391611Y-12100079D01*
X11391611Y-12100079D02*
X11401134Y-12081031D01*
X11401134Y-12081031D02*
X11410658Y-12052460D01*
X11410658Y-12052460D02*
X11420182Y-12004841D01*
X11420182Y-12004841D02*
X11420182Y-11966746D01*
X11420182Y-11966746D02*
X11410658Y-11919127D01*
X11410658Y-11919127D02*
X11401134Y-11890555D01*
X11401134Y-11890555D02*
X11391611Y-11871508D01*
X11391611Y-11871508D02*
X11372563Y-11842936D01*
X11372563Y-11842936D02*
X11363039Y-11833412D01*
D12*
X6382856Y-12269856D02*
X6382856Y-12199144D01*
X6312144Y-12199144D01*
X6312144Y-12269856D01*
X6382856Y-12269856D01*
D11*
X6763039Y-12325984D02*
X6648753Y-12325984D01*
X6705896Y-12325984D02*
X6705896Y-12125984D01*
X6705896Y-12125984D02*
X6686848Y-12154555D01*
X6686848Y-12154555D02*
X6667801Y-12173603D01*
X6667801Y-12173603D02*
X6648753Y-12183127D01*
X6848753Y-12306936D02*
X6858277Y-12316460D01*
X6858277Y-12316460D02*
X6848753Y-12325984D01*
X6848753Y-12325984D02*
X6839229Y-12316460D01*
X6839229Y-12316460D02*
X6848753Y-12306936D01*
X6848753Y-12306936D02*
X6848753Y-12325984D01*
X6982086Y-12125984D02*
X7001134Y-12125984D01*
X7001134Y-12125984D02*
X7020182Y-12135508D01*
X7020182Y-12135508D02*
X7029705Y-12145031D01*
X7029705Y-12145031D02*
X7039229Y-12164079D01*
X7039229Y-12164079D02*
X7048753Y-12202174D01*
X7048753Y-12202174D02*
X7048753Y-12249793D01*
X7048753Y-12249793D02*
X7039229Y-12287888D01*
X7039229Y-12287888D02*
X7029705Y-12306936D01*
X7029705Y-12306936D02*
X7020182Y-12316460D01*
X7020182Y-12316460D02*
X7001134Y-12325984D01*
X7001134Y-12325984D02*
X6982086Y-12325984D01*
X6982086Y-12325984D02*
X6963039Y-12316460D01*
X6963039Y-12316460D02*
X6953515Y-12306936D01*
X6953515Y-12306936D02*
X6943991Y-12287888D01*
X6943991Y-12287888D02*
X6934467Y-12249793D01*
X6934467Y-12249793D02*
X6934467Y-12202174D01*
X6934467Y-12202174D02*
X6943991Y-12164079D01*
X6943991Y-12164079D02*
X6953515Y-12145031D01*
X6953515Y-12145031D02*
X6963039Y-12135508D01*
X6963039Y-12135508D02*
X6982086Y-12125984D01*
X7172562Y-12125984D02*
X7191610Y-12125984D01*
X7191610Y-12125984D02*
X7210658Y-12135508D01*
X7210658Y-12135508D02*
X7220182Y-12145031D01*
X7220182Y-12145031D02*
X7229705Y-12164079D01*
X7229705Y-12164079D02*
X7239229Y-12202174D01*
X7239229Y-12202174D02*
X7239229Y-12249793D01*
X7239229Y-12249793D02*
X7229705Y-12287888D01*
X7229705Y-12287888D02*
X7220182Y-12306936D01*
X7220182Y-12306936D02*
X7210658Y-12316460D01*
X7210658Y-12316460D02*
X7191610Y-12325984D01*
X7191610Y-12325984D02*
X7172562Y-12325984D01*
X7172562Y-12325984D02*
X7153515Y-12316460D01*
X7153515Y-12316460D02*
X7143991Y-12306936D01*
X7143991Y-12306936D02*
X7134467Y-12287888D01*
X7134467Y-12287888D02*
X7124943Y-12249793D01*
X7124943Y-12249793D02*
X7124943Y-12202174D01*
X7124943Y-12202174D02*
X7134467Y-12164079D01*
X7134467Y-12164079D02*
X7143991Y-12145031D01*
X7143991Y-12145031D02*
X7153515Y-12135508D01*
X7153515Y-12135508D02*
X7172562Y-12125984D01*
X7363039Y-12125984D02*
X7382086Y-12125984D01*
X7382086Y-12125984D02*
X7401134Y-12135508D01*
X7401134Y-12135508D02*
X7410658Y-12145031D01*
X7410658Y-12145031D02*
X7420182Y-12164079D01*
X7420182Y-12164079D02*
X7429705Y-12202174D01*
X7429705Y-12202174D02*
X7429705Y-12249793D01*
X7429705Y-12249793D02*
X7420182Y-12287888D01*
X7420182Y-12287888D02*
X7410658Y-12306936D01*
X7410658Y-12306936D02*
X7401134Y-12316460D01*
X7401134Y-12316460D02*
X7382086Y-12325984D01*
X7382086Y-12325984D02*
X7363039Y-12325984D01*
X7363039Y-12325984D02*
X7343991Y-12316460D01*
X7343991Y-12316460D02*
X7334467Y-12306936D01*
X7334467Y-12306936D02*
X7324943Y-12287888D01*
X7324943Y-12287888D02*
X7315420Y-12249793D01*
X7315420Y-12249793D02*
X7315420Y-12202174D01*
X7315420Y-12202174D02*
X7324943Y-12164079D01*
X7324943Y-12164079D02*
X7334467Y-12145031D01*
X7334467Y-12145031D02*
X7343991Y-12135508D01*
X7343991Y-12135508D02*
X7363039Y-12125984D01*
X7515420Y-12325984D02*
X7515420Y-12192650D01*
X7515420Y-12211698D02*
X7524943Y-12202174D01*
X7524943Y-12202174D02*
X7543991Y-12192650D01*
X7543991Y-12192650D02*
X7572563Y-12192650D01*
X7572563Y-12192650D02*
X7591610Y-12202174D01*
X7591610Y-12202174D02*
X7601134Y-12221222D01*
X7601134Y-12221222D02*
X7601134Y-12325984D01*
X7601134Y-12221222D02*
X7610658Y-12202174D01*
X7610658Y-12202174D02*
X7629705Y-12192650D01*
X7629705Y-12192650D02*
X7658277Y-12192650D01*
X7658277Y-12192650D02*
X7677324Y-12202174D01*
X7677324Y-12202174D02*
X7686848Y-12221222D01*
X7686848Y-12221222D02*
X7686848Y-12325984D01*
X7782086Y-12325984D02*
X7782086Y-12192650D01*
X7782086Y-12211698D02*
X7791610Y-12202174D01*
X7791610Y-12202174D02*
X7810658Y-12192650D01*
X7810658Y-12192650D02*
X7839229Y-12192650D01*
X7839229Y-12192650D02*
X7858277Y-12202174D01*
X7858277Y-12202174D02*
X7867801Y-12221222D01*
X7867801Y-12221222D02*
X7867801Y-12325984D01*
X7867801Y-12221222D02*
X7877324Y-12202174D01*
X7877324Y-12202174D02*
X7896372Y-12192650D01*
X7896372Y-12192650D02*
X7924943Y-12192650D01*
X7924943Y-12192650D02*
X7943991Y-12202174D01*
X7943991Y-12202174D02*
X7953515Y-12221222D01*
X7953515Y-12221222D02*
X7953515Y-12325984D01*
X8343991Y-12116460D02*
X8172563Y-12373603D01*
X8601134Y-12125984D02*
X8620182Y-12125984D01*
X8620182Y-12125984D02*
X8639229Y-12135508D01*
X8639229Y-12135508D02*
X8648753Y-12145031D01*
X8648753Y-12145031D02*
X8658277Y-12164079D01*
X8658277Y-12164079D02*
X8667801Y-12202174D01*
X8667801Y-12202174D02*
X8667801Y-12249793D01*
X8667801Y-12249793D02*
X8658277Y-12287888D01*
X8658277Y-12287888D02*
X8648753Y-12306936D01*
X8648753Y-12306936D02*
X8639229Y-12316460D01*
X8639229Y-12316460D02*
X8620182Y-12325984D01*
X8620182Y-12325984D02*
X8601134Y-12325984D01*
X8601134Y-12325984D02*
X8582087Y-12316460D01*
X8582087Y-12316460D02*
X8572563Y-12306936D01*
X8572563Y-12306936D02*
X8563039Y-12287888D01*
X8563039Y-12287888D02*
X8553515Y-12249793D01*
X8553515Y-12249793D02*
X8553515Y-12202174D01*
X8553515Y-12202174D02*
X8563039Y-12164079D01*
X8563039Y-12164079D02*
X8572563Y-12145031D01*
X8572563Y-12145031D02*
X8582087Y-12135508D01*
X8582087Y-12135508D02*
X8601134Y-12125984D01*
X8753515Y-12306936D02*
X8763039Y-12316460D01*
X8763039Y-12316460D02*
X8753515Y-12325984D01*
X8753515Y-12325984D02*
X8743991Y-12316460D01*
X8743991Y-12316460D02*
X8753515Y-12306936D01*
X8753515Y-12306936D02*
X8753515Y-12325984D01*
X8886848Y-12125984D02*
X8905896Y-12125984D01*
X8905896Y-12125984D02*
X8924944Y-12135508D01*
X8924944Y-12135508D02*
X8934468Y-12145031D01*
X8934468Y-12145031D02*
X8943991Y-12164079D01*
X8943991Y-12164079D02*
X8953515Y-12202174D01*
X8953515Y-12202174D02*
X8953515Y-12249793D01*
X8953515Y-12249793D02*
X8943991Y-12287888D01*
X8943991Y-12287888D02*
X8934468Y-12306936D01*
X8934468Y-12306936D02*
X8924944Y-12316460D01*
X8924944Y-12316460D02*
X8905896Y-12325984D01*
X8905896Y-12325984D02*
X8886848Y-12325984D01*
X8886848Y-12325984D02*
X8867801Y-12316460D01*
X8867801Y-12316460D02*
X8858277Y-12306936D01*
X8858277Y-12306936D02*
X8848753Y-12287888D01*
X8848753Y-12287888D02*
X8839229Y-12249793D01*
X8839229Y-12249793D02*
X8839229Y-12202174D01*
X8839229Y-12202174D02*
X8848753Y-12164079D01*
X8848753Y-12164079D02*
X8858277Y-12145031D01*
X8858277Y-12145031D02*
X8867801Y-12135508D01*
X8867801Y-12135508D02*
X8886848Y-12125984D01*
X9020182Y-12125984D02*
X9143991Y-12125984D01*
X9143991Y-12125984D02*
X9077325Y-12202174D01*
X9077325Y-12202174D02*
X9105896Y-12202174D01*
X9105896Y-12202174D02*
X9124944Y-12211698D01*
X9124944Y-12211698D02*
X9134468Y-12221222D01*
X9134468Y-12221222D02*
X9143991Y-12240269D01*
X9143991Y-12240269D02*
X9143991Y-12287888D01*
X9143991Y-12287888D02*
X9134468Y-12306936D01*
X9134468Y-12306936D02*
X9124944Y-12316460D01*
X9124944Y-12316460D02*
X9105896Y-12325984D01*
X9105896Y-12325984D02*
X9048753Y-12325984D01*
X9048753Y-12325984D02*
X9029706Y-12316460D01*
X9029706Y-12316460D02*
X9020182Y-12306936D01*
X9239229Y-12325984D02*
X9277325Y-12325984D01*
X9277325Y-12325984D02*
X9296372Y-12316460D01*
X9296372Y-12316460D02*
X9305896Y-12306936D01*
X9305896Y-12306936D02*
X9324944Y-12278365D01*
X9324944Y-12278365D02*
X9334468Y-12240269D01*
X9334468Y-12240269D02*
X9334468Y-12164079D01*
X9334468Y-12164079D02*
X9324944Y-12145031D01*
X9324944Y-12145031D02*
X9315420Y-12135508D01*
X9315420Y-12135508D02*
X9296372Y-12125984D01*
X9296372Y-12125984D02*
X9258277Y-12125984D01*
X9258277Y-12125984D02*
X9239229Y-12135508D01*
X9239229Y-12135508D02*
X9229706Y-12145031D01*
X9229706Y-12145031D02*
X9220182Y-12164079D01*
X9220182Y-12164079D02*
X9220182Y-12211698D01*
X9220182Y-12211698D02*
X9229706Y-12230746D01*
X9229706Y-12230746D02*
X9239229Y-12240269D01*
X9239229Y-12240269D02*
X9258277Y-12249793D01*
X9258277Y-12249793D02*
X9296372Y-12249793D01*
X9296372Y-12249793D02*
X9315420Y-12240269D01*
X9315420Y-12240269D02*
X9324944Y-12230746D01*
X9324944Y-12230746D02*
X9334468Y-12211698D01*
X9505896Y-12192650D02*
X9505896Y-12325984D01*
X9458277Y-12116460D02*
X9410658Y-12259317D01*
X9410658Y-12259317D02*
X9534468Y-12259317D01*
X9601134Y-12125984D02*
X9601134Y-12164079D01*
X9677325Y-12125984D02*
X9677325Y-12164079D01*
X9972563Y-12402174D02*
X9963039Y-12392650D01*
X9963039Y-12392650D02*
X9943991Y-12364079D01*
X9943991Y-12364079D02*
X9934468Y-12345031D01*
X9934468Y-12345031D02*
X9924944Y-12316460D01*
X9924944Y-12316460D02*
X9915420Y-12268841D01*
X9915420Y-12268841D02*
X9915420Y-12230746D01*
X9915420Y-12230746D02*
X9924944Y-12183127D01*
X9924944Y-12183127D02*
X9934468Y-12154555D01*
X9934468Y-12154555D02*
X9943991Y-12135508D01*
X9943991Y-12135508D02*
X9963039Y-12106936D01*
X9963039Y-12106936D02*
X9972563Y-12097412D01*
X10134468Y-12192650D02*
X10134468Y-12325984D01*
X10086849Y-12116460D02*
X10039230Y-12259317D01*
X10039230Y-12259317D02*
X10163039Y-12259317D01*
X10391611Y-12325984D02*
X10391611Y-12125984D01*
X10477325Y-12325984D02*
X10477325Y-12221222D01*
X10477325Y-12221222D02*
X10467801Y-12202174D01*
X10467801Y-12202174D02*
X10448753Y-12192650D01*
X10448753Y-12192650D02*
X10420182Y-12192650D01*
X10420182Y-12192650D02*
X10401134Y-12202174D01*
X10401134Y-12202174D02*
X10391611Y-12211698D01*
X10601134Y-12325984D02*
X10582087Y-12316460D01*
X10582087Y-12316460D02*
X10572563Y-12306936D01*
X10572563Y-12306936D02*
X10563039Y-12287888D01*
X10563039Y-12287888D02*
X10563039Y-12230746D01*
X10563039Y-12230746D02*
X10572563Y-12211698D01*
X10572563Y-12211698D02*
X10582087Y-12202174D01*
X10582087Y-12202174D02*
X10601134Y-12192650D01*
X10601134Y-12192650D02*
X10629706Y-12192650D01*
X10629706Y-12192650D02*
X10648753Y-12202174D01*
X10648753Y-12202174D02*
X10658277Y-12211698D01*
X10658277Y-12211698D02*
X10667801Y-12230746D01*
X10667801Y-12230746D02*
X10667801Y-12287888D01*
X10667801Y-12287888D02*
X10658277Y-12306936D01*
X10658277Y-12306936D02*
X10648753Y-12316460D01*
X10648753Y-12316460D02*
X10629706Y-12325984D01*
X10629706Y-12325984D02*
X10601134Y-12325984D01*
X10782087Y-12325984D02*
X10763039Y-12316460D01*
X10763039Y-12316460D02*
X10753515Y-12297412D01*
X10753515Y-12297412D02*
X10753515Y-12125984D01*
X10934468Y-12316460D02*
X10915420Y-12325984D01*
X10915420Y-12325984D02*
X10877325Y-12325984D01*
X10877325Y-12325984D02*
X10858277Y-12316460D01*
X10858277Y-12316460D02*
X10848753Y-12297412D01*
X10848753Y-12297412D02*
X10848753Y-12221222D01*
X10848753Y-12221222D02*
X10858277Y-12202174D01*
X10858277Y-12202174D02*
X10877325Y-12192650D01*
X10877325Y-12192650D02*
X10915420Y-12192650D01*
X10915420Y-12192650D02*
X10934468Y-12202174D01*
X10934468Y-12202174D02*
X10943992Y-12221222D01*
X10943992Y-12221222D02*
X10943992Y-12240269D01*
X10943992Y-12240269D02*
X10848753Y-12259317D01*
X11020182Y-12316460D02*
X11039230Y-12325984D01*
X11039230Y-12325984D02*
X11077325Y-12325984D01*
X11077325Y-12325984D02*
X11096373Y-12316460D01*
X11096373Y-12316460D02*
X11105896Y-12297412D01*
X11105896Y-12297412D02*
X11105896Y-12287888D01*
X11105896Y-12287888D02*
X11096373Y-12268841D01*
X11096373Y-12268841D02*
X11077325Y-12259317D01*
X11077325Y-12259317D02*
X11048753Y-12259317D01*
X11048753Y-12259317D02*
X11029706Y-12249793D01*
X11029706Y-12249793D02*
X11020182Y-12230746D01*
X11020182Y-12230746D02*
X11020182Y-12221222D01*
X11020182Y-12221222D02*
X11029706Y-12202174D01*
X11029706Y-12202174D02*
X11048753Y-12192650D01*
X11048753Y-12192650D02*
X11077325Y-12192650D01*
X11077325Y-12192650D02*
X11096373Y-12202174D01*
X11172563Y-12402174D02*
X11182087Y-12392650D01*
X11182087Y-12392650D02*
X11201134Y-12364079D01*
X11201134Y-12364079D02*
X11210658Y-12345031D01*
X11210658Y-12345031D02*
X11220182Y-12316460D01*
X11220182Y-12316460D02*
X11229706Y-12268841D01*
X11229706Y-12268841D02*
X11229706Y-12230746D01*
X11229706Y-12230746D02*
X11220182Y-12183127D01*
X11220182Y-12183127D02*
X11210658Y-12154555D01*
X11210658Y-12154555D02*
X11201134Y-12135508D01*
X11201134Y-12135508D02*
X11182087Y-12106936D01*
X11182087Y-12106936D02*
X11172563Y-12097412D01*
D13*
X6332500Y-12563500D02*
X6397500Y-12498500D01*
X6332500Y-12433500D01*
X6267500Y-12498500D01*
X6332500Y-12563500D01*
D11*
X6763039Y-12589984D02*
X6648753Y-12589984D01*
X6705896Y-12589984D02*
X6705896Y-12389984D01*
X6705896Y-12389984D02*
X6686848Y-12418555D01*
X6686848Y-12418555D02*
X6667801Y-12437603D01*
X6667801Y-12437603D02*
X6648753Y-12447127D01*
X6848753Y-12570936D02*
X6858277Y-12580460D01*
X6858277Y-12580460D02*
X6848753Y-12589984D01*
X6848753Y-12589984D02*
X6839229Y-12580460D01*
X6839229Y-12580460D02*
X6848753Y-12570936D01*
X6848753Y-12570936D02*
X6848753Y-12589984D01*
X6924943Y-12389984D02*
X7048753Y-12389984D01*
X7048753Y-12389984D02*
X6982086Y-12466174D01*
X6982086Y-12466174D02*
X7010658Y-12466174D01*
X7010658Y-12466174D02*
X7029705Y-12475698D01*
X7029705Y-12475698D02*
X7039229Y-12485222D01*
X7039229Y-12485222D02*
X7048753Y-12504269D01*
X7048753Y-12504269D02*
X7048753Y-12551888D01*
X7048753Y-12551888D02*
X7039229Y-12570936D01*
X7039229Y-12570936D02*
X7029705Y-12580460D01*
X7029705Y-12580460D02*
X7010658Y-12589984D01*
X7010658Y-12589984D02*
X6953515Y-12589984D01*
X6953515Y-12589984D02*
X6934467Y-12580460D01*
X6934467Y-12580460D02*
X6924943Y-12570936D01*
X7172562Y-12389984D02*
X7191610Y-12389984D01*
X7191610Y-12389984D02*
X7210658Y-12399508D01*
X7210658Y-12399508D02*
X7220182Y-12409031D01*
X7220182Y-12409031D02*
X7229705Y-12428079D01*
X7229705Y-12428079D02*
X7239229Y-12466174D01*
X7239229Y-12466174D02*
X7239229Y-12513793D01*
X7239229Y-12513793D02*
X7229705Y-12551888D01*
X7229705Y-12551888D02*
X7220182Y-12570936D01*
X7220182Y-12570936D02*
X7210658Y-12580460D01*
X7210658Y-12580460D02*
X7191610Y-12589984D01*
X7191610Y-12589984D02*
X7172562Y-12589984D01*
X7172562Y-12589984D02*
X7153515Y-12580460D01*
X7153515Y-12580460D02*
X7143991Y-12570936D01*
X7143991Y-12570936D02*
X7134467Y-12551888D01*
X7134467Y-12551888D02*
X7124943Y-12513793D01*
X7124943Y-12513793D02*
X7124943Y-12466174D01*
X7124943Y-12466174D02*
X7134467Y-12428079D01*
X7134467Y-12428079D02*
X7143991Y-12409031D01*
X7143991Y-12409031D02*
X7153515Y-12399508D01*
X7153515Y-12399508D02*
X7172562Y-12389984D01*
X7363039Y-12389984D02*
X7382086Y-12389984D01*
X7382086Y-12389984D02*
X7401134Y-12399508D01*
X7401134Y-12399508D02*
X7410658Y-12409031D01*
X7410658Y-12409031D02*
X7420182Y-12428079D01*
X7420182Y-12428079D02*
X7429705Y-12466174D01*
X7429705Y-12466174D02*
X7429705Y-12513793D01*
X7429705Y-12513793D02*
X7420182Y-12551888D01*
X7420182Y-12551888D02*
X7410658Y-12570936D01*
X7410658Y-12570936D02*
X7401134Y-12580460D01*
X7401134Y-12580460D02*
X7382086Y-12589984D01*
X7382086Y-12589984D02*
X7363039Y-12589984D01*
X7363039Y-12589984D02*
X7343991Y-12580460D01*
X7343991Y-12580460D02*
X7334467Y-12570936D01*
X7334467Y-12570936D02*
X7324943Y-12551888D01*
X7324943Y-12551888D02*
X7315420Y-12513793D01*
X7315420Y-12513793D02*
X7315420Y-12466174D01*
X7315420Y-12466174D02*
X7324943Y-12428079D01*
X7324943Y-12428079D02*
X7334467Y-12409031D01*
X7334467Y-12409031D02*
X7343991Y-12399508D01*
X7343991Y-12399508D02*
X7363039Y-12389984D01*
X7515420Y-12589984D02*
X7515420Y-12456650D01*
X7515420Y-12475698D02*
X7524943Y-12466174D01*
X7524943Y-12466174D02*
X7543991Y-12456650D01*
X7543991Y-12456650D02*
X7572563Y-12456650D01*
X7572563Y-12456650D02*
X7591610Y-12466174D01*
X7591610Y-12466174D02*
X7601134Y-12485222D01*
X7601134Y-12485222D02*
X7601134Y-12589984D01*
X7601134Y-12485222D02*
X7610658Y-12466174D01*
X7610658Y-12466174D02*
X7629705Y-12456650D01*
X7629705Y-12456650D02*
X7658277Y-12456650D01*
X7658277Y-12456650D02*
X7677324Y-12466174D01*
X7677324Y-12466174D02*
X7686848Y-12485222D01*
X7686848Y-12485222D02*
X7686848Y-12589984D01*
X7782086Y-12589984D02*
X7782086Y-12456650D01*
X7782086Y-12475698D02*
X7791610Y-12466174D01*
X7791610Y-12466174D02*
X7810658Y-12456650D01*
X7810658Y-12456650D02*
X7839229Y-12456650D01*
X7839229Y-12456650D02*
X7858277Y-12466174D01*
X7858277Y-12466174D02*
X7867801Y-12485222D01*
X7867801Y-12485222D02*
X7867801Y-12589984D01*
X7867801Y-12485222D02*
X7877324Y-12466174D01*
X7877324Y-12466174D02*
X7896372Y-12456650D01*
X7896372Y-12456650D02*
X7924943Y-12456650D01*
X7924943Y-12456650D02*
X7943991Y-12466174D01*
X7943991Y-12466174D02*
X7953515Y-12485222D01*
X7953515Y-12485222D02*
X7953515Y-12589984D01*
X8343991Y-12380460D02*
X8172563Y-12637603D01*
X8601134Y-12389984D02*
X8620182Y-12389984D01*
X8620182Y-12389984D02*
X8639229Y-12399508D01*
X8639229Y-12399508D02*
X8648753Y-12409031D01*
X8648753Y-12409031D02*
X8658277Y-12428079D01*
X8658277Y-12428079D02*
X8667801Y-12466174D01*
X8667801Y-12466174D02*
X8667801Y-12513793D01*
X8667801Y-12513793D02*
X8658277Y-12551888D01*
X8658277Y-12551888D02*
X8648753Y-12570936D01*
X8648753Y-12570936D02*
X8639229Y-12580460D01*
X8639229Y-12580460D02*
X8620182Y-12589984D01*
X8620182Y-12589984D02*
X8601134Y-12589984D01*
X8601134Y-12589984D02*
X8582087Y-12580460D01*
X8582087Y-12580460D02*
X8572563Y-12570936D01*
X8572563Y-12570936D02*
X8563039Y-12551888D01*
X8563039Y-12551888D02*
X8553515Y-12513793D01*
X8553515Y-12513793D02*
X8553515Y-12466174D01*
X8553515Y-12466174D02*
X8563039Y-12428079D01*
X8563039Y-12428079D02*
X8572563Y-12409031D01*
X8572563Y-12409031D02*
X8582087Y-12399508D01*
X8582087Y-12399508D02*
X8601134Y-12389984D01*
X8753515Y-12570936D02*
X8763039Y-12580460D01*
X8763039Y-12580460D02*
X8753515Y-12589984D01*
X8753515Y-12589984D02*
X8743991Y-12580460D01*
X8743991Y-12580460D02*
X8753515Y-12570936D01*
X8753515Y-12570936D02*
X8753515Y-12589984D01*
X8886848Y-12389984D02*
X8905896Y-12389984D01*
X8905896Y-12389984D02*
X8924944Y-12399508D01*
X8924944Y-12399508D02*
X8934468Y-12409031D01*
X8934468Y-12409031D02*
X8943991Y-12428079D01*
X8943991Y-12428079D02*
X8953515Y-12466174D01*
X8953515Y-12466174D02*
X8953515Y-12513793D01*
X8953515Y-12513793D02*
X8943991Y-12551888D01*
X8943991Y-12551888D02*
X8934468Y-12570936D01*
X8934468Y-12570936D02*
X8924944Y-12580460D01*
X8924944Y-12580460D02*
X8905896Y-12589984D01*
X8905896Y-12589984D02*
X8886848Y-12589984D01*
X8886848Y-12589984D02*
X8867801Y-12580460D01*
X8867801Y-12580460D02*
X8858277Y-12570936D01*
X8858277Y-12570936D02*
X8848753Y-12551888D01*
X8848753Y-12551888D02*
X8839229Y-12513793D01*
X8839229Y-12513793D02*
X8839229Y-12466174D01*
X8839229Y-12466174D02*
X8848753Y-12428079D01*
X8848753Y-12428079D02*
X8858277Y-12409031D01*
X8858277Y-12409031D02*
X8867801Y-12399508D01*
X8867801Y-12399508D02*
X8886848Y-12389984D01*
X9134468Y-12389984D02*
X9039229Y-12389984D01*
X9039229Y-12389984D02*
X9029706Y-12485222D01*
X9029706Y-12485222D02*
X9039229Y-12475698D01*
X9039229Y-12475698D02*
X9058277Y-12466174D01*
X9058277Y-12466174D02*
X9105896Y-12466174D01*
X9105896Y-12466174D02*
X9124944Y-12475698D01*
X9124944Y-12475698D02*
X9134468Y-12485222D01*
X9134468Y-12485222D02*
X9143991Y-12504269D01*
X9143991Y-12504269D02*
X9143991Y-12551888D01*
X9143991Y-12551888D02*
X9134468Y-12570936D01*
X9134468Y-12570936D02*
X9124944Y-12580460D01*
X9124944Y-12580460D02*
X9105896Y-12589984D01*
X9105896Y-12589984D02*
X9058277Y-12589984D01*
X9058277Y-12589984D02*
X9039229Y-12580460D01*
X9039229Y-12580460D02*
X9029706Y-12570936D01*
X9334468Y-12589984D02*
X9220182Y-12589984D01*
X9277325Y-12589984D02*
X9277325Y-12389984D01*
X9277325Y-12389984D02*
X9258277Y-12418555D01*
X9258277Y-12418555D02*
X9239229Y-12437603D01*
X9239229Y-12437603D02*
X9220182Y-12447127D01*
X9410658Y-12409031D02*
X9420182Y-12399508D01*
X9420182Y-12399508D02*
X9439229Y-12389984D01*
X9439229Y-12389984D02*
X9486849Y-12389984D01*
X9486849Y-12389984D02*
X9505896Y-12399508D01*
X9505896Y-12399508D02*
X9515420Y-12409031D01*
X9515420Y-12409031D02*
X9524944Y-12428079D01*
X9524944Y-12428079D02*
X9524944Y-12447127D01*
X9524944Y-12447127D02*
X9515420Y-12475698D01*
X9515420Y-12475698D02*
X9401134Y-12589984D01*
X9401134Y-12589984D02*
X9524944Y-12589984D01*
X9601134Y-12389984D02*
X9601134Y-12428079D01*
X9677325Y-12389984D02*
X9677325Y-12428079D01*
X9972563Y-12666174D02*
X9963039Y-12656650D01*
X9963039Y-12656650D02*
X9943991Y-12628079D01*
X9943991Y-12628079D02*
X9934468Y-12609031D01*
X9934468Y-12609031D02*
X9924944Y-12580460D01*
X9924944Y-12580460D02*
X9915420Y-12532841D01*
X9915420Y-12532841D02*
X9915420Y-12494746D01*
X9915420Y-12494746D02*
X9924944Y-12447127D01*
X9924944Y-12447127D02*
X9934468Y-12418555D01*
X9934468Y-12418555D02*
X9943991Y-12399508D01*
X9943991Y-12399508D02*
X9963039Y-12370936D01*
X9963039Y-12370936D02*
X9972563Y-12361412D01*
X10134468Y-12389984D02*
X10096372Y-12389984D01*
X10096372Y-12389984D02*
X10077325Y-12399508D01*
X10077325Y-12399508D02*
X10067801Y-12409031D01*
X10067801Y-12409031D02*
X10048753Y-12437603D01*
X10048753Y-12437603D02*
X10039230Y-12475698D01*
X10039230Y-12475698D02*
X10039230Y-12551888D01*
X10039230Y-12551888D02*
X10048753Y-12570936D01*
X10048753Y-12570936D02*
X10058277Y-12580460D01*
X10058277Y-12580460D02*
X10077325Y-12589984D01*
X10077325Y-12589984D02*
X10115420Y-12589984D01*
X10115420Y-12589984D02*
X10134468Y-12580460D01*
X10134468Y-12580460D02*
X10143991Y-12570936D01*
X10143991Y-12570936D02*
X10153515Y-12551888D01*
X10153515Y-12551888D02*
X10153515Y-12504269D01*
X10153515Y-12504269D02*
X10143991Y-12485222D01*
X10143991Y-12485222D02*
X10134468Y-12475698D01*
X10134468Y-12475698D02*
X10115420Y-12466174D01*
X10115420Y-12466174D02*
X10077325Y-12466174D01*
X10077325Y-12466174D02*
X10058277Y-12475698D01*
X10058277Y-12475698D02*
X10048753Y-12485222D01*
X10048753Y-12485222D02*
X10039230Y-12504269D01*
X10391611Y-12589984D02*
X10391611Y-12389984D01*
X10477325Y-12589984D02*
X10477325Y-12485222D01*
X10477325Y-12485222D02*
X10467801Y-12466174D01*
X10467801Y-12466174D02*
X10448753Y-12456650D01*
X10448753Y-12456650D02*
X10420182Y-12456650D01*
X10420182Y-12456650D02*
X10401134Y-12466174D01*
X10401134Y-12466174D02*
X10391611Y-12475698D01*
X10601134Y-12589984D02*
X10582087Y-12580460D01*
X10582087Y-12580460D02*
X10572563Y-12570936D01*
X10572563Y-12570936D02*
X10563039Y-12551888D01*
X10563039Y-12551888D02*
X10563039Y-12494746D01*
X10563039Y-12494746D02*
X10572563Y-12475698D01*
X10572563Y-12475698D02*
X10582087Y-12466174D01*
X10582087Y-12466174D02*
X10601134Y-12456650D01*
X10601134Y-12456650D02*
X10629706Y-12456650D01*
X10629706Y-12456650D02*
X10648753Y-12466174D01*
X10648753Y-12466174D02*
X10658277Y-12475698D01*
X10658277Y-12475698D02*
X10667801Y-12494746D01*
X10667801Y-12494746D02*
X10667801Y-12551888D01*
X10667801Y-12551888D02*
X10658277Y-12570936D01*
X10658277Y-12570936D02*
X10648753Y-12580460D01*
X10648753Y-12580460D02*
X10629706Y-12589984D01*
X10629706Y-12589984D02*
X10601134Y-12589984D01*
X10782087Y-12589984D02*
X10763039Y-12580460D01*
X10763039Y-12580460D02*
X10753515Y-12561412D01*
X10753515Y-12561412D02*
X10753515Y-12389984D01*
X10934468Y-12580460D02*
X10915420Y-12589984D01*
X10915420Y-12589984D02*
X10877325Y-12589984D01*
X10877325Y-12589984D02*
X10858277Y-12580460D01*
X10858277Y-12580460D02*
X10848753Y-12561412D01*
X10848753Y-12561412D02*
X10848753Y-12485222D01*
X10848753Y-12485222D02*
X10858277Y-12466174D01*
X10858277Y-12466174D02*
X10877325Y-12456650D01*
X10877325Y-12456650D02*
X10915420Y-12456650D01*
X10915420Y-12456650D02*
X10934468Y-12466174D01*
X10934468Y-12466174D02*
X10943992Y-12485222D01*
X10943992Y-12485222D02*
X10943992Y-12504269D01*
X10943992Y-12504269D02*
X10848753Y-12523317D01*
X11020182Y-12580460D02*
X11039230Y-12589984D01*
X11039230Y-12589984D02*
X11077325Y-12589984D01*
X11077325Y-12589984D02*
X11096373Y-12580460D01*
X11096373Y-12580460D02*
X11105896Y-12561412D01*
X11105896Y-12561412D02*
X11105896Y-12551888D01*
X11105896Y-12551888D02*
X11096373Y-12532841D01*
X11096373Y-12532841D02*
X11077325Y-12523317D01*
X11077325Y-12523317D02*
X11048753Y-12523317D01*
X11048753Y-12523317D02*
X11029706Y-12513793D01*
X11029706Y-12513793D02*
X11020182Y-12494746D01*
X11020182Y-12494746D02*
X11020182Y-12485222D01*
X11020182Y-12485222D02*
X11029706Y-12466174D01*
X11029706Y-12466174D02*
X11048753Y-12456650D01*
X11048753Y-12456650D02*
X11077325Y-12456650D01*
X11077325Y-12456650D02*
X11096373Y-12466174D01*
X11172563Y-12666174D02*
X11182087Y-12656650D01*
X11182087Y-12656650D02*
X11201134Y-12628079D01*
X11201134Y-12628079D02*
X11210658Y-12609031D01*
X11210658Y-12609031D02*
X11220182Y-12580460D01*
X11220182Y-12580460D02*
X11229706Y-12532841D01*
X11229706Y-12532841D02*
X11229706Y-12494746D01*
X11229706Y-12494746D02*
X11220182Y-12447127D01*
X11220182Y-12447127D02*
X11210658Y-12418555D01*
X11210658Y-12418555D02*
X11201134Y-12399508D01*
X11201134Y-12399508D02*
X11182087Y-12370936D01*
X11182087Y-12370936D02*
X11172563Y-12361412D01*
M02*
