%TF.GenerationSoftware,KiCad,Pcbnew,8.0.6*%
%TF.CreationDate,2024-11-20T16:48:10-08:00*%
%TF.ProjectId,Garage Door Opener,47617261-6765-4204-946f-6f72204f7065,rev?*%
%TF.SameCoordinates,Original*%
%TF.FileFunction,Soldermask,Bot*%
%TF.FilePolarity,Negative*%
%FSLAX46Y46*%
G04 Gerber Fmt 4.6, Leading zero omitted, Abs format (unit mm)*
G04 Created by KiCad (PCBNEW 8.0.6) date 2024-11-20 16:48:10*
%MOMM*%
%LPD*%
G01*
G04 APERTURE LIST*
%ADD10C,2.500000*%
%ADD11C,3.000000*%
%ADD12C,3.500000*%
%ADD13O,2.000000X1.200000*%
%ADD14R,2.000000X1.200000*%
%ADD15R,1.700000X1.700000*%
%ADD16O,1.700000X1.700000*%
%ADD17R,2.600000X2.600000*%
%ADD18C,2.600000*%
%ADD19R,1.500000X1.050000*%
%ADD20O,1.500000X1.050000*%
G04 APERTURE END LIST*
D10*
%TO.C,K1*%
X116700000Y-77800000D03*
X104700000Y-77800000D03*
D11*
X110750000Y-75850000D03*
X116750000Y-90050000D03*
X104700000Y-90000000D03*
%TD*%
D12*
%TO.C,H2*%
X117200000Y-54800000D03*
%TD*%
D13*
%TO.C,U1*%
X72250000Y-106257280D03*
X72250000Y-103717280D03*
X72250000Y-101177280D03*
X72250000Y-98637280D03*
X72250000Y-96097280D03*
X72250000Y-93557280D03*
X72250000Y-91017280D03*
X72250000Y-88477280D03*
X72250000Y-85937280D03*
X72250000Y-83397280D03*
X72250000Y-80857280D03*
X72250000Y-78317280D03*
X72250000Y-75777280D03*
X72250000Y-73237280D03*
X72250000Y-70697280D03*
X72250000Y-68157280D03*
X72250000Y-65617280D03*
X72250000Y-63077280D03*
X72250000Y-60537280D03*
X72250000Y-57997280D03*
X72250000Y-55457280D03*
X72250000Y-52917280D03*
X97753680Y-52920000D03*
X97753680Y-55460000D03*
X97753680Y-58000000D03*
X97750000Y-60537280D03*
X97750000Y-63077280D03*
X97750000Y-65617280D03*
X97750000Y-68157280D03*
X97750000Y-70697280D03*
X97750000Y-73237280D03*
X97750000Y-75777280D03*
X97750000Y-78317280D03*
X97750000Y-80857280D03*
X97750000Y-83397280D03*
X97750000Y-85937280D03*
X97750000Y-88477280D03*
X97750000Y-91017280D03*
X97750000Y-93557280D03*
X97750000Y-96097280D03*
X97750000Y-98637280D03*
X97750000Y-101177280D03*
X97750000Y-103717280D03*
D14*
X97750000Y-106257280D03*
%TD*%
D15*
%TO.C,J3*%
X107600000Y-57300000D03*
D16*
X105060000Y-57300000D03*
%TD*%
D17*
%TO.C,J1*%
X105750000Y-100155000D03*
D18*
X110750000Y-100155000D03*
X115750000Y-100155000D03*
%TD*%
D12*
%TO.C,H1*%
X67800000Y-54800000D03*
%TD*%
D19*
%TO.C,Q1*%
X107300000Y-64360000D03*
D20*
X107300000Y-65630000D03*
X107300000Y-66900000D03*
%TD*%
M02*
