%TF.GenerationSoftware,KiCad,Pcbnew,8.0.6*%
%TF.CreationDate,2024-11-05T11:41:55-08:00*%
%TF.ProjectId,Garage Door Opener,47617261-6765-4204-946f-6f72204f7065,rev?*%
%TF.SameCoordinates,Original*%
%TF.FileFunction,Copper,L1,Top*%
%TF.FilePolarity,Positive*%
%FSLAX46Y46*%
G04 Gerber Fmt 4.6, Leading zero omitted, Abs format (unit mm)*
G04 Created by KiCad (PCBNEW 8.0.6) date 2024-11-05 11:41:55*
%MOMM*%
%LPD*%
G01*
G04 APERTURE LIST*
G04 Aperture macros list*
%AMRoundRect*
0 Rectangle with rounded corners*
0 $1 Rounding radius*
0 $2 $3 $4 $5 $6 $7 $8 $9 X,Y pos of 4 corners*
0 Add a 4 corners polygon primitive as box body*
4,1,4,$2,$3,$4,$5,$6,$7,$8,$9,$2,$3,0*
0 Add four circle primitives for the rounded corners*
1,1,$1+$1,$2,$3*
1,1,$1+$1,$4,$5*
1,1,$1+$1,$6,$7*
1,1,$1+$1,$8,$9*
0 Add four rect primitives between the rounded corners*
20,1,$1+$1,$2,$3,$4,$5,0*
20,1,$1+$1,$4,$5,$6,$7,0*
20,1,$1+$1,$6,$7,$8,$9,0*
20,1,$1+$1,$8,$9,$2,$3,0*%
G04 Aperture macros list end*
%TA.AperFunction,ComponentPad*%
%ADD10O,2.000000X1.200000*%
%TD*%
%TA.AperFunction,ComponentPad*%
%ADD11R,2.000000X1.200000*%
%TD*%
%TA.AperFunction,SMDPad,CuDef*%
%ADD12R,1.100000X1.800000*%
%TD*%
%TA.AperFunction,ComponentPad*%
%ADD13R,2.600000X2.600000*%
%TD*%
%TA.AperFunction,ComponentPad*%
%ADD14C,2.600000*%
%TD*%
%TA.AperFunction,ComponentPad*%
%ADD15C,2.500000*%
%TD*%
%TA.AperFunction,ComponentPad*%
%ADD16C,3.000000*%
%TD*%
%TA.AperFunction,ComponentPad*%
%ADD17R,1.700000X1.700000*%
%TD*%
%TA.AperFunction,ComponentPad*%
%ADD18O,1.700000X1.700000*%
%TD*%
%TA.AperFunction,SMDPad,CuDef*%
%ADD19RoundRect,0.250000X0.450000X-0.262500X0.450000X0.262500X-0.450000X0.262500X-0.450000X-0.262500X0*%
%TD*%
%TA.AperFunction,SMDPad,CuDef*%
%ADD20RoundRect,0.250000X0.400000X0.600000X-0.400000X0.600000X-0.400000X-0.600000X0.400000X-0.600000X0*%
%TD*%
%TA.AperFunction,SMDPad,CuDef*%
%ADD21RoundRect,0.150000X0.150000X-0.587500X0.150000X0.587500X-0.150000X0.587500X-0.150000X-0.587500X0*%
%TD*%
%TA.AperFunction,ViaPad*%
%ADD22C,0.600000*%
%TD*%
%TA.AperFunction,Conductor*%
%ADD23C,0.500000*%
%TD*%
G04 APERTURE END LIST*
D10*
%TO.P,U1,44,GND*%
%TO.N,GND*%
X72250000Y-106257280D03*
%TO.P,U1,43,GPIO43/U0TXD*%
%TO.N,unconnected-(U1-GPIO43{slash}U0TXD-Pad43)*%
X72250000Y-103717280D03*
%TO.P,U1,42,GPIO44/U0RXD*%
%TO.N,unconnected-(U1-GPIO44{slash}U0RXD-Pad42)*%
X72250000Y-101177280D03*
%TO.P,U1,41,GPIO1/ADC1_CH0*%
%TO.N,unconnected-(U1-GPIO1{slash}ADC1_CH0-Pad41)*%
X72250000Y-98637280D03*
%TO.P,U1,40,GPIO2/ADC1_CH1*%
%TO.N,unconnected-(U1-GPIO2{slash}ADC1_CH1-Pad40)*%
X72250000Y-96097280D03*
%TO.P,U1,39,GPIO42/MTMS*%
%TO.N,unconnected-(U1-GPIO42{slash}MTMS-Pad39)*%
X72250000Y-93557280D03*
%TO.P,U1,38,GPIO41/MTDI*%
%TO.N,unconnected-(U1-GPIO41{slash}MTDI-Pad38)*%
X72250000Y-91017280D03*
%TO.P,U1,37,GPIO40/MTDO*%
%TO.N,unconnected-(U1-GPIO40{slash}MTDO-Pad37)*%
X72250000Y-88477280D03*
%TO.P,U1,36,GPIO39/MTCK*%
%TO.N,unconnected-(U1-GPIO39{slash}MTCK-Pad36)*%
X72250000Y-85937280D03*
%TO.P,U1,35,GPIO38*%
%TO.N,unconnected-(U1-GPIO38-Pad35)*%
X72250000Y-83397280D03*
%TO.P,U1,34,GPIO37*%
%TO.N,unconnected-(U1-GPIO37-Pad34)*%
X72250000Y-80857280D03*
%TO.P,U1,33,GPIO36*%
%TO.N,unconnected-(U1-GPIO36-Pad33)*%
X72250000Y-78317280D03*
%TO.P,U1,32,GPIO35*%
%TO.N,unconnected-(U1-GPIO35-Pad32)*%
X72250000Y-75777280D03*
%TO.P,U1,31,GPIO0*%
%TO.N,unconnected-(U1-GPIO0-Pad31)*%
X72250000Y-73237280D03*
%TO.P,U1,30,GPIO45*%
%TO.N,unconnected-(U1-GPIO45-Pad30)*%
X72250000Y-70697280D03*
%TO.P,U1,29,GPIO48*%
%TO.N,unconnected-(U1-GPIO48-Pad29)*%
X72250000Y-68157280D03*
%TO.P,U1,28,GPIO47*%
%TO.N,unconnected-(U1-GPIO47-Pad28)*%
X72250000Y-65617280D03*
%TO.P,U1,27,GPIO21*%
%TO.N,unconnected-(U1-GPIO21-Pad27)*%
X72250000Y-63077280D03*
%TO.P,U1,26,GPIO20/USB_D+*%
%TO.N,unconnected-(U1-GPIO20{slash}USB_D+-Pad26)*%
X72250000Y-60537280D03*
%TO.P,U1,25,GPIO19/USB_D-*%
%TO.N,unconnected-(U1-GPIO19{slash}USB_D--Pad25)*%
X72250000Y-57997280D03*
%TO.P,U1,24,GND*%
%TO.N,GND*%
X72250000Y-55457280D03*
%TO.P,U1,23,GND*%
X72250000Y-52917280D03*
%TO.P,U1,22,GND*%
X97753680Y-52920000D03*
%TO.P,U1,21,5V*%
%TO.N,+5V*%
X97753680Y-55460000D03*
%TO.P,U1,20,GPIO14/ADC2_CH3*%
%TO.N,unconnected-(U1-GPIO14{slash}ADC2_CH3-Pad20)*%
X97753680Y-58000000D03*
%TO.P,U1,19,GPIO13/ADC2_CH2*%
%TO.N,unconnected-(U1-GPIO13{slash}ADC2_CH2-Pad19)*%
X97750000Y-60537280D03*
%TO.P,U1,18,GPIO12/ADC2_CH1*%
%TO.N,unconnected-(U1-GPIO12{slash}ADC2_CH1-Pad18)*%
X97750000Y-63077280D03*
%TO.P,U1,17,GPIO11/ADC2_CH0*%
%TO.N,unconnected-(U1-GPIO11{slash}ADC2_CH0-Pad17)*%
X97750000Y-65617280D03*
%TO.P,U1,16,GPIO10/ADC1_CH9*%
%TO.N,unconnected-(U1-GPIO10{slash}ADC1_CH9-Pad16)*%
X97750000Y-68157280D03*
%TO.P,U1,15,GPIO9/ADC1_CH8*%
%TO.N,unconnected-(U1-GPIO9{slash}ADC1_CH8-Pad15)*%
X97750000Y-70697280D03*
%TO.P,U1,14,GPIO46*%
%TO.N,unconnected-(U1-GPIO46-Pad14)*%
X97750000Y-73237280D03*
%TO.P,U1,13,GPIO3/ADC1_CH2*%
%TO.N,unconnected-(U1-GPIO3{slash}ADC1_CH2-Pad13)*%
X97750000Y-75777280D03*
%TO.P,U1,12,GPIO8/ADC1_CH7*%
%TO.N,unconnected-(U1-GPIO8{slash}ADC1_CH7-Pad12)*%
X97750000Y-78317280D03*
%TO.P,U1,11,GPIO18/ADC2_CH7*%
%TO.N,unconnected-(U1-GPIO18{slash}ADC2_CH7-Pad11)*%
X97750000Y-80857280D03*
%TO.P,U1,10,GPIO17/ADC2_CH6*%
%TO.N,unconnected-(U1-GPIO17{slash}ADC2_CH6-Pad10)*%
X97750000Y-83397280D03*
%TO.P,U1,9,GPIO16/ADC2_CH5/32K_N*%
%TO.N,unconnected-(U1-GPIO16{slash}ADC2_CH5{slash}32K_N-Pad9)*%
X97750000Y-85937280D03*
%TO.P,U1,8,GPIO15/ADC2_CH4/32K_P*%
%TO.N,unconnected-(U1-GPIO15{slash}ADC2_CH4{slash}32K_P-Pad8)*%
X97750000Y-88477280D03*
%TO.P,U1,7,GPIO7/ADC1_CH6*%
%TO.N,unconnected-(U1-GPIO7{slash}ADC1_CH6-Pad7)*%
X97750000Y-91017280D03*
%TO.P,U1,6,GPIO6/ADC1_CH5*%
%TO.N,Net-(J3-Pin_1)*%
X97750000Y-93557280D03*
%TO.P,U1,5,GPIO5/ADC1_CH4*%
%TO.N,Net-(U1-GPIO5{slash}ADC1_CH4)*%
X97750000Y-96097280D03*
%TO.P,U1,4,GPIO4/ADC1_CH3*%
%TO.N,unconnected-(U1-GPIO4{slash}ADC1_CH3-Pad4)*%
X97750000Y-98637280D03*
%TO.P,U1,3,CHIP_PU*%
%TO.N,unconnected-(U1-CHIP_PU-Pad3)*%
X97750000Y-101177280D03*
%TO.P,U1,2,3V3*%
%TO.N,unconnected-(U1-3V3-Pad1)_1*%
X97750000Y-103717280D03*
D11*
%TO.P,U1,1,3V3*%
%TO.N,unconnected-(U1-3V3-Pad1)*%
X97750000Y-106257280D03*
%TD*%
D12*
%TO.P,SW1,1,1*%
%TO.N,+5V*%
X113800000Y-68500000D03*
X113800000Y-62300000D03*
%TO.P,SW1,2,2*%
%TO.N,Net-(D1-K)*%
X117500000Y-68500000D03*
X117500000Y-62300000D03*
%TD*%
D13*
%TO.P,J1,1,Pin_1*%
%TO.N,/Normally Open*%
X105750000Y-100155000D03*
D14*
%TO.P,J1,2,Pin_2*%
%TO.N,/Common*%
X110750000Y-100155000D03*
%TO.P,J1,3,Pin_3*%
%TO.N,/Normally Closed*%
X115750000Y-100155000D03*
%TD*%
D15*
%TO.P,K1,1,VCC*%
%TO.N,Net-(D1-K)*%
X116700000Y-77800000D03*
%TO.P,K1,2,GND*%
%TO.N,GND*%
X104700000Y-77800000D03*
D16*
%TO.P,K1,3,Common*%
%TO.N,/Common*%
X110750000Y-75850000D03*
%TO.P,K1,4,Normally_Closed*%
%TO.N,/Normally Closed*%
X116750000Y-90050000D03*
%TO.P,K1,5,Normally_Open*%
%TO.N,/Normally Open*%
X104700000Y-90000000D03*
%TD*%
D17*
%TO.P,J3,1,Pin_1*%
%TO.N,Net-(J3-Pin_1)*%
X103480000Y-63650000D03*
D18*
%TO.P,J3,2,Pin_2*%
%TO.N,GND*%
X103480000Y-66190000D03*
%TD*%
D19*
%TO.P,R1,1*%
%TO.N,Net-(U1-GPIO5{slash}ADC1_CH4)*%
X84000000Y-71500000D03*
%TO.P,R1,2*%
%TO.N,Net-(Q1-E)*%
X84000000Y-69675000D03*
%TD*%
D20*
%TO.P,D1,2,A*%
%TO.N,GND*%
X83250000Y-59925000D03*
%TO.P,D1,1,K*%
%TO.N,Net-(D1-K)*%
X86750000Y-59925000D03*
%TD*%
D21*
%TO.P,Q1,1,E*%
%TO.N,Net-(Q1-E)*%
X84000000Y-65925000D03*
%TO.P,Q1,2,B*%
%TO.N,+5V*%
X85900000Y-65925000D03*
%TO.P,Q1,3,C*%
%TO.N,Net-(D1-K)*%
X84950000Y-64050000D03*
%TD*%
D22*
%TO.N,Net-(D1-K)*%
X107400000Y-57750000D03*
X104650000Y-54200000D03*
%TD*%
D23*
%TO.N,+5V*%
X85900000Y-65925000D02*
X89000000Y-62825000D01*
X89000000Y-59500000D02*
X93040000Y-55460000D01*
X89000000Y-62825000D02*
X89000000Y-59500000D01*
X93040000Y-55460000D02*
X97753680Y-55460000D01*
%TO.N,Net-(D1-K)*%
X117500000Y-68500000D02*
X117500000Y-69500000D01*
X117500000Y-69500000D02*
X116700000Y-70300000D01*
X116700000Y-70300000D02*
X116700000Y-77800000D01*
X117500000Y-62300000D02*
X117500000Y-68500000D01*
%TO.N,+5V*%
X113800000Y-62300000D02*
X113800000Y-68500000D01*
X113800000Y-62300000D02*
X113800000Y-59300000D01*
X113800000Y-59300000D02*
X109960000Y-55460000D01*
X109960000Y-55460000D02*
X97753680Y-55460000D01*
%TO.N,Net-(U1-GPIO5{slash}ADC1_CH4)*%
X84000000Y-91500000D02*
X84000000Y-71500000D01*
X85750000Y-93220000D02*
X85720000Y-93220000D01*
X85720000Y-93220000D02*
X84000000Y-91500000D01*
%TO.N,Net-(D1-K)*%
X101330000Y-54170000D02*
X92500000Y-54170000D01*
X86750000Y-59920000D02*
X92500000Y-54170000D01*
X86750000Y-59925000D02*
X86750000Y-59920000D01*
X107400000Y-57750000D02*
X107400000Y-68500000D01*
X107400000Y-68500000D02*
X116700000Y-77800000D01*
X104620000Y-54170000D02*
X104650000Y-54200000D01*
X101330000Y-54170000D02*
X104620000Y-54170000D01*
%TO.N,+5V*%
X113650000Y-62150000D02*
X113800000Y-62300000D01*
%TO.N,Net-(J3-Pin_1)*%
X100750000Y-91340000D02*
X100750000Y-66380000D01*
X98532720Y-93557280D02*
X100750000Y-91340000D01*
X97750000Y-93557280D02*
X98532720Y-93557280D01*
X100750000Y-66380000D02*
X103480000Y-63650000D01*
%TO.N,Net-(U1-GPIO5{slash}ADC1_CH4)*%
X88627280Y-96097280D02*
X85750000Y-93220000D01*
X97750000Y-96097280D02*
X88627280Y-96097280D01*
%TO.N,Net-(D1-K)*%
X84950000Y-64050000D02*
X84950000Y-61725000D01*
X84950000Y-61725000D02*
X86750000Y-59925000D01*
%TO.N,Net-(Q1-E)*%
X84000000Y-69675000D02*
X84000000Y-65925000D01*
%TO.N,/Common*%
X110750000Y-75850000D02*
X110750000Y-100155000D01*
%TO.N,/Normally Open*%
X104700000Y-90000000D02*
X104700000Y-99105000D01*
X104700000Y-99105000D02*
X105750000Y-100155000D01*
%TO.N,/Normally Closed*%
X116750000Y-90050000D02*
X116750000Y-99155000D01*
X116750000Y-99155000D02*
X115750000Y-100155000D01*
%TD*%
%TA.AperFunction,Conductor*%
%TO.N,GND*%
G36*
X118003736Y-51500726D02*
G01*
X118293796Y-51518271D01*
X118308659Y-51520076D01*
X118590798Y-51571780D01*
X118605335Y-51575363D01*
X118879172Y-51660695D01*
X118893163Y-51666000D01*
X119154743Y-51783727D01*
X119167989Y-51790680D01*
X119413465Y-51939075D01*
X119425776Y-51947573D01*
X119651573Y-52124473D01*
X119662781Y-52134403D01*
X119865596Y-52337218D01*
X119875526Y-52348426D01*
X119995481Y-52501538D01*
X120052422Y-52574217D01*
X120060926Y-52586537D01*
X120167533Y-52762886D01*
X120209316Y-52832004D01*
X120216275Y-52845263D01*
X120333997Y-53106831D01*
X120339306Y-53120832D01*
X120424635Y-53394663D01*
X120428219Y-53409201D01*
X120479923Y-53691340D01*
X120481728Y-53706205D01*
X120499274Y-53996263D01*
X120499500Y-54003750D01*
X120499500Y-104996249D01*
X120499274Y-105003736D01*
X120481728Y-105293794D01*
X120479923Y-105308659D01*
X120428219Y-105590798D01*
X120424635Y-105605336D01*
X120339306Y-105879167D01*
X120333997Y-105893168D01*
X120216275Y-106154736D01*
X120209316Y-106167995D01*
X120060928Y-106413459D01*
X120052422Y-106425782D01*
X119875526Y-106651573D01*
X119865596Y-106662781D01*
X119662781Y-106865596D01*
X119651573Y-106875526D01*
X119425782Y-107052422D01*
X119413459Y-107060928D01*
X119167995Y-107209316D01*
X119154736Y-107216275D01*
X118893168Y-107333997D01*
X118879167Y-107339306D01*
X118605336Y-107424635D01*
X118590798Y-107428219D01*
X118308659Y-107479923D01*
X118293794Y-107481728D01*
X118003736Y-107499274D01*
X117996249Y-107499500D01*
X99099828Y-107499500D01*
X99032789Y-107479815D01*
X98987034Y-107427011D01*
X98977090Y-107357853D01*
X99006115Y-107294297D01*
X99025516Y-107276234D01*
X99041620Y-107264177D01*
X99107546Y-107214826D01*
X99193796Y-107099611D01*
X99244091Y-106964763D01*
X99250500Y-106905153D01*
X99250499Y-105609408D01*
X99244091Y-105549797D01*
X99240689Y-105540677D01*
X99193797Y-105414951D01*
X99193793Y-105414944D01*
X99107547Y-105299735D01*
X99107544Y-105299732D01*
X98992335Y-105213486D01*
X98992328Y-105213482D01*
X98857482Y-105163188D01*
X98857483Y-105163188D01*
X98797883Y-105156781D01*
X98797881Y-105156780D01*
X98797873Y-105156780D01*
X98797864Y-105156780D01*
X96702129Y-105156780D01*
X96702123Y-105156781D01*
X96642516Y-105163188D01*
X96507671Y-105213482D01*
X96507664Y-105213486D01*
X96392455Y-105299732D01*
X96392452Y-105299735D01*
X96306206Y-105414944D01*
X96306202Y-105414951D01*
X96255908Y-105549797D01*
X96249501Y-105609396D01*
X96249501Y-105609403D01*
X96249500Y-105609415D01*
X96249500Y-106905150D01*
X96249501Y-106905156D01*
X96255908Y-106964763D01*
X96306202Y-107099608D01*
X96306206Y-107099615D01*
X96392452Y-107214824D01*
X96392453Y-107214824D01*
X96392454Y-107214826D01*
X96394390Y-107216275D01*
X96474484Y-107276234D01*
X96516354Y-107332168D01*
X96521338Y-107401860D01*
X96487852Y-107463182D01*
X96426529Y-107496667D01*
X96400172Y-107499500D01*
X73151462Y-107499500D01*
X73084423Y-107479815D01*
X73038668Y-107427011D01*
X73028724Y-107357853D01*
X73057749Y-107294297D01*
X73095167Y-107265015D01*
X73226524Y-107198084D01*
X73366602Y-107096312D01*
X73489032Y-106973882D01*
X73590804Y-106833804D01*
X73669408Y-106679535D01*
X73722914Y-106514864D01*
X73724115Y-106507280D01*
X72565686Y-106507280D01*
X72570080Y-106502886D01*
X72622741Y-106411674D01*
X72650000Y-106309941D01*
X72650000Y-106204619D01*
X72622741Y-106102886D01*
X72570080Y-106011674D01*
X72565686Y-106007280D01*
X73724115Y-106007280D01*
X73724115Y-106007279D01*
X73722914Y-105999695D01*
X73669408Y-105835024D01*
X73590804Y-105680755D01*
X73489032Y-105540677D01*
X73366602Y-105418247D01*
X73226524Y-105316475D01*
X73072257Y-105237871D01*
X72907584Y-105184365D01*
X72736571Y-105157280D01*
X72500000Y-105157280D01*
X72500000Y-105941594D01*
X72495606Y-105937200D01*
X72404394Y-105884539D01*
X72302661Y-105857280D01*
X72197339Y-105857280D01*
X72095606Y-105884539D01*
X72004394Y-105937200D01*
X72000000Y-105941594D01*
X72000000Y-105157280D01*
X71763429Y-105157280D01*
X71592415Y-105184365D01*
X71427742Y-105237871D01*
X71273475Y-105316475D01*
X71133397Y-105418247D01*
X71010967Y-105540677D01*
X70909195Y-105680755D01*
X70830591Y-105835024D01*
X70777085Y-105999695D01*
X70775884Y-106007279D01*
X70775885Y-106007280D01*
X71934314Y-106007280D01*
X71929920Y-106011674D01*
X71877259Y-106102886D01*
X71850000Y-106204619D01*
X71850000Y-106309941D01*
X71877259Y-106411674D01*
X71929920Y-106502886D01*
X71934314Y-106507280D01*
X70775885Y-106507280D01*
X70777085Y-106514864D01*
X70830591Y-106679535D01*
X70909195Y-106833804D01*
X71010967Y-106973882D01*
X71133397Y-107096312D01*
X71273475Y-107198084D01*
X71404833Y-107265015D01*
X71455629Y-107312990D01*
X71472424Y-107380811D01*
X71449886Y-107446946D01*
X71395171Y-107490397D01*
X71348538Y-107499500D01*
X67003751Y-107499500D01*
X66996264Y-107499274D01*
X66706205Y-107481728D01*
X66691340Y-107479923D01*
X66409201Y-107428219D01*
X66394663Y-107424635D01*
X66120832Y-107339306D01*
X66106831Y-107333997D01*
X65845263Y-107216275D01*
X65832004Y-107209316D01*
X65650525Y-107099608D01*
X65586537Y-107060926D01*
X65574217Y-107052422D01*
X65348426Y-106875526D01*
X65337218Y-106865596D01*
X65134403Y-106662781D01*
X65124473Y-106651573D01*
X65066331Y-106577360D01*
X64947573Y-106425776D01*
X64939075Y-106413465D01*
X64790680Y-106167989D01*
X64783727Y-106154743D01*
X64666000Y-105893163D01*
X64660693Y-105879167D01*
X64598865Y-105680755D01*
X64575363Y-105605335D01*
X64571780Y-105590798D01*
X64539554Y-105414949D01*
X64520075Y-105308657D01*
X64518271Y-105293794D01*
X64500726Y-105003736D01*
X64500500Y-104996249D01*
X64500500Y-103630669D01*
X70749500Y-103630669D01*
X70749500Y-103803891D01*
X70776598Y-103974981D01*
X70830127Y-104139725D01*
X70908768Y-104294068D01*
X71010586Y-104434208D01*
X71133072Y-104556694D01*
X71273212Y-104658512D01*
X71427555Y-104737153D01*
X71592299Y-104790682D01*
X71763389Y-104817780D01*
X71763390Y-104817780D01*
X72736610Y-104817780D01*
X72736611Y-104817780D01*
X72907701Y-104790682D01*
X73072445Y-104737153D01*
X73226788Y-104658512D01*
X73366928Y-104556694D01*
X73489414Y-104434208D01*
X73591232Y-104294068D01*
X73669873Y-104139725D01*
X73723402Y-103974981D01*
X73750500Y-103803891D01*
X73750500Y-103630669D01*
X96249500Y-103630669D01*
X96249500Y-103803891D01*
X96276598Y-103974981D01*
X96330127Y-104139725D01*
X96408768Y-104294068D01*
X96510586Y-104434208D01*
X96633072Y-104556694D01*
X96773212Y-104658512D01*
X96927555Y-104737153D01*
X97092299Y-104790682D01*
X97263389Y-104817780D01*
X97263390Y-104817780D01*
X98236610Y-104817780D01*
X98236611Y-104817780D01*
X98407701Y-104790682D01*
X98572445Y-104737153D01*
X98726788Y-104658512D01*
X98866928Y-104556694D01*
X98989414Y-104434208D01*
X99091232Y-104294068D01*
X99169873Y-104139725D01*
X99223402Y-103974981D01*
X99250500Y-103803891D01*
X99250500Y-103630669D01*
X99223402Y-103459579D01*
X99169873Y-103294835D01*
X99091232Y-103140492D01*
X98989414Y-103000352D01*
X98866928Y-102877866D01*
X98726788Y-102776048D01*
X98572445Y-102697407D01*
X98407701Y-102643878D01*
X98407699Y-102643877D01*
X98407698Y-102643877D01*
X98276271Y-102623061D01*
X98236611Y-102616780D01*
X97263389Y-102616780D01*
X97223728Y-102623061D01*
X97092302Y-102643877D01*
X96927552Y-102697408D01*
X96773211Y-102776048D01*
X96693256Y-102834139D01*
X96633072Y-102877866D01*
X96633070Y-102877868D01*
X96633069Y-102877868D01*
X96510588Y-103000349D01*
X96510588Y-103000350D01*
X96510586Y-103000352D01*
X96466859Y-103060536D01*
X96408768Y-103140491D01*
X96330128Y-103294832D01*
X96276597Y-103459582D01*
X96249500Y-103630669D01*
X73750500Y-103630669D01*
X73723402Y-103459579D01*
X73669873Y-103294835D01*
X73591232Y-103140492D01*
X73489414Y-103000352D01*
X73366928Y-102877866D01*
X73226788Y-102776048D01*
X73072445Y-102697407D01*
X72907701Y-102643878D01*
X72907699Y-102643877D01*
X72907698Y-102643877D01*
X72776271Y-102623061D01*
X72736611Y-102616780D01*
X71763389Y-102616780D01*
X71723728Y-102623061D01*
X71592302Y-102643877D01*
X71427552Y-102697408D01*
X71273211Y-102776048D01*
X71193256Y-102834139D01*
X71133072Y-102877866D01*
X71133070Y-102877868D01*
X71133069Y-102877868D01*
X71010588Y-103000349D01*
X71010588Y-103000350D01*
X71010586Y-103000352D01*
X70966859Y-103060536D01*
X70908768Y-103140491D01*
X70830128Y-103294832D01*
X70776597Y-103459582D01*
X70749500Y-103630669D01*
X64500500Y-103630669D01*
X64500500Y-101090669D01*
X70749500Y-101090669D01*
X70749500Y-101263891D01*
X70776598Y-101434981D01*
X70830127Y-101599725D01*
X70908768Y-101754068D01*
X71010586Y-101894208D01*
X71133072Y-102016694D01*
X71273212Y-102118512D01*
X71427555Y-102197153D01*
X71592299Y-102250682D01*
X71763389Y-102277780D01*
X71763390Y-102277780D01*
X72736610Y-102277780D01*
X72736611Y-102277780D01*
X72907701Y-102250682D01*
X73072445Y-102197153D01*
X73226788Y-102118512D01*
X73366928Y-102016694D01*
X73489414Y-101894208D01*
X73591232Y-101754068D01*
X73669873Y-101599725D01*
X73723402Y-101434981D01*
X73750500Y-101263891D01*
X73750500Y-101090669D01*
X96249500Y-101090669D01*
X96249500Y-101263891D01*
X96276598Y-101434981D01*
X96330127Y-101599725D01*
X96408768Y-101754068D01*
X96510586Y-101894208D01*
X96633072Y-102016694D01*
X96773212Y-102118512D01*
X96927555Y-102197153D01*
X97092299Y-102250682D01*
X97263389Y-102277780D01*
X97263390Y-102277780D01*
X98236610Y-102277780D01*
X98236611Y-102277780D01*
X98407701Y-102250682D01*
X98572445Y-102197153D01*
X98726788Y-102118512D01*
X98866928Y-102016694D01*
X98989414Y-101894208D01*
X99091232Y-101754068D01*
X99169873Y-101599725D01*
X99223402Y-101434981D01*
X99250500Y-101263891D01*
X99250500Y-101090669D01*
X99223402Y-100919579D01*
X99169873Y-100754835D01*
X99091232Y-100600492D01*
X98989414Y-100460352D01*
X98866928Y-100337866D01*
X98726788Y-100236048D01*
X98572445Y-100157407D01*
X98407701Y-100103878D01*
X98407699Y-100103877D01*
X98407698Y-100103877D01*
X98276271Y-100083061D01*
X98236611Y-100076780D01*
X97263389Y-100076780D01*
X97223728Y-100083061D01*
X97092302Y-100103877D01*
X96927552Y-100157408D01*
X96773211Y-100236048D01*
X96693256Y-100294139D01*
X96633072Y-100337866D01*
X96633070Y-100337868D01*
X96633069Y-100337868D01*
X96510588Y-100460349D01*
X96510588Y-100460350D01*
X96510586Y-100460352D01*
X96466859Y-100520536D01*
X96408768Y-100600491D01*
X96330128Y-100754832D01*
X96276597Y-100919582D01*
X96273617Y-100938398D01*
X96249500Y-101090669D01*
X73750500Y-101090669D01*
X73723402Y-100919579D01*
X73669873Y-100754835D01*
X73591232Y-100600492D01*
X73489414Y-100460352D01*
X73366928Y-100337866D01*
X73226788Y-100236048D01*
X73072445Y-100157407D01*
X72907701Y-100103878D01*
X72907699Y-100103877D01*
X72907698Y-100103877D01*
X72776271Y-100083061D01*
X72736611Y-100076780D01*
X71763389Y-100076780D01*
X71723728Y-100083061D01*
X71592302Y-100103877D01*
X71427552Y-100157408D01*
X71273211Y-100236048D01*
X71193256Y-100294139D01*
X71133072Y-100337866D01*
X71133070Y-100337868D01*
X71133069Y-100337868D01*
X71010588Y-100460349D01*
X71010588Y-100460350D01*
X71010586Y-100460352D01*
X70966859Y-100520536D01*
X70908768Y-100600491D01*
X70830128Y-100754832D01*
X70776597Y-100919582D01*
X70773617Y-100938398D01*
X70749500Y-101090669D01*
X64500500Y-101090669D01*
X64500500Y-98550669D01*
X70749500Y-98550669D01*
X70749500Y-98723891D01*
X70776598Y-98894981D01*
X70830127Y-99059725D01*
X70908768Y-99214068D01*
X71010586Y-99354208D01*
X71133072Y-99476694D01*
X71273212Y-99578512D01*
X71427555Y-99657153D01*
X71592299Y-99710682D01*
X71763389Y-99737780D01*
X71763390Y-99737780D01*
X72736610Y-99737780D01*
X72736611Y-99737780D01*
X72907701Y-99710682D01*
X73072445Y-99657153D01*
X73226788Y-99578512D01*
X73366928Y-99476694D01*
X73489414Y-99354208D01*
X73591232Y-99214068D01*
X73669873Y-99059725D01*
X73723402Y-98894981D01*
X73750500Y-98723891D01*
X73750500Y-98550669D01*
X96249500Y-98550669D01*
X96249500Y-98723891D01*
X96276598Y-98894981D01*
X96330127Y-99059725D01*
X96408768Y-99214068D01*
X96510586Y-99354208D01*
X96633072Y-99476694D01*
X96773212Y-99578512D01*
X96927555Y-99657153D01*
X97092299Y-99710682D01*
X97263389Y-99737780D01*
X97263390Y-99737780D01*
X98236610Y-99737780D01*
X98236611Y-99737780D01*
X98407701Y-99710682D01*
X98572445Y-99657153D01*
X98726788Y-99578512D01*
X98866928Y-99476694D01*
X98989414Y-99354208D01*
X99091232Y-99214068D01*
X99169873Y-99059725D01*
X99223402Y-98894981D01*
X99250500Y-98723891D01*
X99250500Y-98550669D01*
X99223402Y-98379579D01*
X99169873Y-98214835D01*
X99091232Y-98060492D01*
X98989414Y-97920352D01*
X98866928Y-97797866D01*
X98726788Y-97696048D01*
X98572445Y-97617407D01*
X98407701Y-97563878D01*
X98407699Y-97563877D01*
X98407698Y-97563877D01*
X98276271Y-97543061D01*
X98236611Y-97536780D01*
X97263389Y-97536780D01*
X97223728Y-97543061D01*
X97092302Y-97563877D01*
X96927552Y-97617408D01*
X96773211Y-97696048D01*
X96693256Y-97754139D01*
X96633072Y-97797866D01*
X96633070Y-97797868D01*
X96633069Y-97797868D01*
X96510588Y-97920349D01*
X96510588Y-97920350D01*
X96510586Y-97920352D01*
X96466859Y-97980536D01*
X96408768Y-98060491D01*
X96330128Y-98214832D01*
X96276597Y-98379582D01*
X96249500Y-98550669D01*
X73750500Y-98550669D01*
X73723402Y-98379579D01*
X73669873Y-98214835D01*
X73591232Y-98060492D01*
X73489414Y-97920352D01*
X73366928Y-97797866D01*
X73226788Y-97696048D01*
X73072445Y-97617407D01*
X72907701Y-97563878D01*
X72907699Y-97563877D01*
X72907698Y-97563877D01*
X72776271Y-97543061D01*
X72736611Y-97536780D01*
X71763389Y-97536780D01*
X71723728Y-97543061D01*
X71592302Y-97563877D01*
X71427552Y-97617408D01*
X71273211Y-97696048D01*
X71193256Y-97754139D01*
X71133072Y-97797866D01*
X71133070Y-97797868D01*
X71133069Y-97797868D01*
X71010588Y-97920349D01*
X71010588Y-97920350D01*
X71010586Y-97920352D01*
X70966859Y-97980536D01*
X70908768Y-98060491D01*
X70830128Y-98214832D01*
X70776597Y-98379582D01*
X70749500Y-98550669D01*
X64500500Y-98550669D01*
X64500500Y-96010669D01*
X70749500Y-96010669D01*
X70749500Y-96183891D01*
X70776598Y-96354981D01*
X70830127Y-96519725D01*
X70908768Y-96674068D01*
X71010586Y-96814208D01*
X71133072Y-96936694D01*
X71273212Y-97038512D01*
X71427555Y-97117153D01*
X71592299Y-97170682D01*
X71763389Y-97197780D01*
X71763390Y-97197780D01*
X72736610Y-97197780D01*
X72736611Y-97197780D01*
X72907701Y-97170682D01*
X73072445Y-97117153D01*
X73226788Y-97038512D01*
X73366928Y-96936694D01*
X73489414Y-96814208D01*
X73591232Y-96674068D01*
X73669873Y-96519725D01*
X73723402Y-96354981D01*
X73750500Y-96183891D01*
X73750500Y-96010669D01*
X73723402Y-95839579D01*
X73669873Y-95674835D01*
X73591232Y-95520492D01*
X73489414Y-95380352D01*
X73366928Y-95257866D01*
X73226788Y-95156048D01*
X73072445Y-95077407D01*
X72907701Y-95023878D01*
X72907699Y-95023877D01*
X72907698Y-95023877D01*
X72776271Y-95003061D01*
X72736611Y-94996780D01*
X71763389Y-94996780D01*
X71723728Y-95003061D01*
X71592302Y-95023877D01*
X71427552Y-95077408D01*
X71273211Y-95156048D01*
X71193256Y-95214139D01*
X71133072Y-95257866D01*
X71133070Y-95257868D01*
X71133069Y-95257868D01*
X71010588Y-95380349D01*
X71010588Y-95380350D01*
X71010586Y-95380352D01*
X70966859Y-95440536D01*
X70908768Y-95520491D01*
X70830128Y-95674832D01*
X70776597Y-95839582D01*
X70749500Y-96010669D01*
X64500500Y-96010669D01*
X64500500Y-93470669D01*
X70749500Y-93470669D01*
X70749500Y-93643890D01*
X70774692Y-93802951D01*
X70776598Y-93814981D01*
X70830127Y-93979725D01*
X70908768Y-94134068D01*
X71010586Y-94274208D01*
X71133072Y-94396694D01*
X71273212Y-94498512D01*
X71427555Y-94577153D01*
X71592299Y-94630682D01*
X71763389Y-94657780D01*
X71763390Y-94657780D01*
X72736610Y-94657780D01*
X72736611Y-94657780D01*
X72907701Y-94630682D01*
X73072445Y-94577153D01*
X73226788Y-94498512D01*
X73366928Y-94396694D01*
X73489414Y-94274208D01*
X73591232Y-94134068D01*
X73669873Y-93979725D01*
X73723402Y-93814981D01*
X73750500Y-93643891D01*
X73750500Y-93470669D01*
X73723402Y-93299579D01*
X73669873Y-93134835D01*
X73591232Y-92980492D01*
X73489414Y-92840352D01*
X73366928Y-92717866D01*
X73226788Y-92616048D01*
X73072445Y-92537407D01*
X72907701Y-92483878D01*
X72907699Y-92483877D01*
X72907698Y-92483877D01*
X72776271Y-92463061D01*
X72736611Y-92456780D01*
X71763389Y-92456780D01*
X71723728Y-92463061D01*
X71592302Y-92483877D01*
X71427552Y-92537408D01*
X71273211Y-92616048D01*
X71193256Y-92674139D01*
X71133072Y-92717866D01*
X71133070Y-92717868D01*
X71133069Y-92717868D01*
X71010588Y-92840349D01*
X71010588Y-92840350D01*
X71010586Y-92840352D01*
X70966859Y-92900536D01*
X70908768Y-92980491D01*
X70830128Y-93134832D01*
X70776597Y-93299582D01*
X70749500Y-93470669D01*
X64500500Y-93470669D01*
X64500500Y-90930669D01*
X70749500Y-90930669D01*
X70749500Y-91103891D01*
X70776598Y-91274981D01*
X70830127Y-91439725D01*
X70908768Y-91594068D01*
X71010586Y-91734208D01*
X71133072Y-91856694D01*
X71273212Y-91958512D01*
X71427555Y-92037153D01*
X71592299Y-92090682D01*
X71763389Y-92117780D01*
X71763390Y-92117780D01*
X72736610Y-92117780D01*
X72736611Y-92117780D01*
X72907701Y-92090682D01*
X73072445Y-92037153D01*
X73226788Y-91958512D01*
X73366928Y-91856694D01*
X73489414Y-91734208D01*
X73591232Y-91594068D01*
X73669873Y-91439725D01*
X73723402Y-91274981D01*
X73750500Y-91103891D01*
X73750500Y-90930669D01*
X73723402Y-90759579D01*
X73669873Y-90594835D01*
X73591232Y-90440492D01*
X73489414Y-90300352D01*
X73366928Y-90177866D01*
X73226788Y-90076048D01*
X73072445Y-89997407D01*
X72907701Y-89943878D01*
X72907699Y-89943877D01*
X72907698Y-89943877D01*
X72776271Y-89923061D01*
X72736611Y-89916780D01*
X71763389Y-89916780D01*
X71723728Y-89923061D01*
X71592302Y-89943877D01*
X71427552Y-89997408D01*
X71273211Y-90076048D01*
X71193256Y-90134139D01*
X71133072Y-90177866D01*
X71133070Y-90177868D01*
X71133069Y-90177868D01*
X71010588Y-90300349D01*
X71010588Y-90300350D01*
X71010586Y-90300352D01*
X70985102Y-90335428D01*
X70908768Y-90440491D01*
X70830128Y-90594832D01*
X70776597Y-90759582D01*
X70757024Y-90883166D01*
X70749500Y-90930669D01*
X64500500Y-90930669D01*
X64500500Y-88390669D01*
X70749500Y-88390669D01*
X70749500Y-88563890D01*
X70776597Y-88734977D01*
X70830128Y-88899727D01*
X70863733Y-88965682D01*
X70908768Y-89054068D01*
X71010586Y-89194208D01*
X71133072Y-89316694D01*
X71273212Y-89418512D01*
X71427555Y-89497153D01*
X71592299Y-89550682D01*
X71763389Y-89577780D01*
X71763390Y-89577780D01*
X72736610Y-89577780D01*
X72736611Y-89577780D01*
X72907701Y-89550682D01*
X73072445Y-89497153D01*
X73226788Y-89418512D01*
X73366928Y-89316694D01*
X73489414Y-89194208D01*
X73591232Y-89054068D01*
X73669873Y-88899725D01*
X73723402Y-88734981D01*
X73750500Y-88563891D01*
X73750500Y-88390669D01*
X73723402Y-88219579D01*
X73669873Y-88054835D01*
X73591232Y-87900492D01*
X73489414Y-87760352D01*
X73366928Y-87637866D01*
X73226788Y-87536048D01*
X73072445Y-87457407D01*
X72907701Y-87403878D01*
X72907699Y-87403877D01*
X72907698Y-87403877D01*
X72776271Y-87383061D01*
X72736611Y-87376780D01*
X71763389Y-87376780D01*
X71723728Y-87383061D01*
X71592302Y-87403877D01*
X71427552Y-87457408D01*
X71273211Y-87536048D01*
X71193256Y-87594139D01*
X71133072Y-87637866D01*
X71133070Y-87637868D01*
X71133069Y-87637868D01*
X71010588Y-87760349D01*
X71010588Y-87760350D01*
X71010586Y-87760352D01*
X70966859Y-87820536D01*
X70908768Y-87900491D01*
X70830128Y-88054832D01*
X70776597Y-88219582D01*
X70749500Y-88390669D01*
X64500500Y-88390669D01*
X64500500Y-85850669D01*
X70749500Y-85850669D01*
X70749500Y-86023891D01*
X70776598Y-86194981D01*
X70830127Y-86359725D01*
X70908768Y-86514068D01*
X71010586Y-86654208D01*
X71133072Y-86776694D01*
X71273212Y-86878512D01*
X71427555Y-86957153D01*
X71592299Y-87010682D01*
X71763389Y-87037780D01*
X71763390Y-87037780D01*
X72736610Y-87037780D01*
X72736611Y-87037780D01*
X72907701Y-87010682D01*
X73072445Y-86957153D01*
X73226788Y-86878512D01*
X73366928Y-86776694D01*
X73489414Y-86654208D01*
X73591232Y-86514068D01*
X73669873Y-86359725D01*
X73723402Y-86194981D01*
X73750500Y-86023891D01*
X73750500Y-85850669D01*
X73723402Y-85679579D01*
X73669873Y-85514835D01*
X73591232Y-85360492D01*
X73489414Y-85220352D01*
X73366928Y-85097866D01*
X73226788Y-84996048D01*
X73072445Y-84917407D01*
X72907701Y-84863878D01*
X72907699Y-84863877D01*
X72907698Y-84863877D01*
X72776271Y-84843061D01*
X72736611Y-84836780D01*
X71763389Y-84836780D01*
X71723728Y-84843061D01*
X71592302Y-84863877D01*
X71427552Y-84917408D01*
X71273211Y-84996048D01*
X71193256Y-85054139D01*
X71133072Y-85097866D01*
X71133070Y-85097868D01*
X71133069Y-85097868D01*
X71010588Y-85220349D01*
X71010588Y-85220350D01*
X71010586Y-85220352D01*
X70966859Y-85280536D01*
X70908768Y-85360491D01*
X70830128Y-85514832D01*
X70776597Y-85679582D01*
X70749500Y-85850669D01*
X64500500Y-85850669D01*
X64500500Y-83310669D01*
X70749500Y-83310669D01*
X70749500Y-83483891D01*
X70776598Y-83654981D01*
X70830127Y-83819725D01*
X70908768Y-83974068D01*
X71010586Y-84114208D01*
X71133072Y-84236694D01*
X71273212Y-84338512D01*
X71427555Y-84417153D01*
X71592299Y-84470682D01*
X71763389Y-84497780D01*
X71763390Y-84497780D01*
X72736610Y-84497780D01*
X72736611Y-84497780D01*
X72907701Y-84470682D01*
X73072445Y-84417153D01*
X73226788Y-84338512D01*
X73366928Y-84236694D01*
X73489414Y-84114208D01*
X73591232Y-83974068D01*
X73669873Y-83819725D01*
X73723402Y-83654981D01*
X73750500Y-83483891D01*
X73750500Y-83310669D01*
X73723402Y-83139579D01*
X73669873Y-82974835D01*
X73591232Y-82820492D01*
X73489414Y-82680352D01*
X73366928Y-82557866D01*
X73226788Y-82456048D01*
X73072445Y-82377407D01*
X72907701Y-82323878D01*
X72907699Y-82323877D01*
X72907698Y-82323877D01*
X72776271Y-82303061D01*
X72736611Y-82296780D01*
X71763389Y-82296780D01*
X71723728Y-82303061D01*
X71592302Y-82323877D01*
X71427552Y-82377408D01*
X71273211Y-82456048D01*
X71193256Y-82514139D01*
X71133072Y-82557866D01*
X71133070Y-82557868D01*
X71133069Y-82557868D01*
X71010588Y-82680349D01*
X71010588Y-82680350D01*
X71010586Y-82680352D01*
X70966859Y-82740536D01*
X70908768Y-82820491D01*
X70830128Y-82974832D01*
X70776597Y-83139582D01*
X70749500Y-83310669D01*
X64500500Y-83310669D01*
X64500500Y-80770669D01*
X70749500Y-80770669D01*
X70749500Y-80943891D01*
X70776598Y-81114981D01*
X70830127Y-81279725D01*
X70908768Y-81434068D01*
X71010586Y-81574208D01*
X71133072Y-81696694D01*
X71273212Y-81798512D01*
X71427555Y-81877153D01*
X71592299Y-81930682D01*
X71763389Y-81957780D01*
X71763390Y-81957780D01*
X72736610Y-81957780D01*
X72736611Y-81957780D01*
X72907701Y-81930682D01*
X73072445Y-81877153D01*
X73226788Y-81798512D01*
X73366928Y-81696694D01*
X73489414Y-81574208D01*
X73591232Y-81434068D01*
X73669873Y-81279725D01*
X73723402Y-81114981D01*
X73750500Y-80943891D01*
X73750500Y-80770669D01*
X73723402Y-80599579D01*
X73669873Y-80434835D01*
X73591232Y-80280492D01*
X73489414Y-80140352D01*
X73366928Y-80017866D01*
X73226788Y-79916048D01*
X73072445Y-79837407D01*
X72907701Y-79783878D01*
X72907699Y-79783877D01*
X72907698Y-79783877D01*
X72776271Y-79763061D01*
X72736611Y-79756780D01*
X71763389Y-79756780D01*
X71723728Y-79763061D01*
X71592302Y-79783877D01*
X71427552Y-79837408D01*
X71273211Y-79916048D01*
X71193256Y-79974139D01*
X71133072Y-80017866D01*
X71133070Y-80017868D01*
X71133069Y-80017868D01*
X71010588Y-80140349D01*
X71010588Y-80140350D01*
X71010586Y-80140352D01*
X70966859Y-80200536D01*
X70908768Y-80280491D01*
X70830128Y-80434832D01*
X70776597Y-80599582D01*
X70749500Y-80770669D01*
X64500500Y-80770669D01*
X64500500Y-78230669D01*
X70749500Y-78230669D01*
X70749500Y-78403891D01*
X70776598Y-78574981D01*
X70830127Y-78739725D01*
X70908768Y-78894068D01*
X71010586Y-79034208D01*
X71133072Y-79156694D01*
X71273212Y-79258512D01*
X71427555Y-79337153D01*
X71592299Y-79390682D01*
X71763389Y-79417780D01*
X71763390Y-79417780D01*
X72736610Y-79417780D01*
X72736611Y-79417780D01*
X72907701Y-79390682D01*
X73072445Y-79337153D01*
X73226788Y-79258512D01*
X73366928Y-79156694D01*
X73489414Y-79034208D01*
X73591232Y-78894068D01*
X73669873Y-78739725D01*
X73723402Y-78574981D01*
X73750500Y-78403891D01*
X73750500Y-78230669D01*
X73723402Y-78059579D01*
X73669873Y-77894835D01*
X73591232Y-77740492D01*
X73489414Y-77600352D01*
X73366928Y-77477866D01*
X73226788Y-77376048D01*
X73072445Y-77297407D01*
X72907701Y-77243878D01*
X72907699Y-77243877D01*
X72907698Y-77243877D01*
X72776271Y-77223061D01*
X72736611Y-77216780D01*
X71763389Y-77216780D01*
X71723728Y-77223061D01*
X71592302Y-77243877D01*
X71427552Y-77297408D01*
X71273211Y-77376048D01*
X71240381Y-77399901D01*
X71133072Y-77477866D01*
X71133070Y-77477868D01*
X71133069Y-77477868D01*
X71010588Y-77600349D01*
X71010588Y-77600350D01*
X71010586Y-77600352D01*
X71005751Y-77607007D01*
X70908768Y-77740491D01*
X70830128Y-77894832D01*
X70776597Y-78059582D01*
X70776273Y-78061630D01*
X70749500Y-78230669D01*
X64500500Y-78230669D01*
X64500500Y-75690669D01*
X70749500Y-75690669D01*
X70749500Y-75863891D01*
X70776598Y-76034981D01*
X70830127Y-76199725D01*
X70908768Y-76354068D01*
X71010586Y-76494208D01*
X71133072Y-76616694D01*
X71273212Y-76718512D01*
X71427555Y-76797153D01*
X71592299Y-76850682D01*
X71763389Y-76877780D01*
X71763390Y-76877780D01*
X72736610Y-76877780D01*
X72736611Y-76877780D01*
X72907701Y-76850682D01*
X73072445Y-76797153D01*
X73226788Y-76718512D01*
X73366928Y-76616694D01*
X73489414Y-76494208D01*
X73591232Y-76354068D01*
X73669873Y-76199725D01*
X73723402Y-76034981D01*
X73750500Y-75863891D01*
X73750500Y-75690669D01*
X73723402Y-75519579D01*
X73669873Y-75354835D01*
X73591232Y-75200492D01*
X73489414Y-75060352D01*
X73366928Y-74937866D01*
X73226788Y-74836048D01*
X73072445Y-74757407D01*
X72907701Y-74703878D01*
X72907699Y-74703877D01*
X72907698Y-74703877D01*
X72776271Y-74683061D01*
X72736611Y-74676780D01*
X71763389Y-74676780D01*
X71723728Y-74683061D01*
X71592302Y-74703877D01*
X71427552Y-74757408D01*
X71273211Y-74836048D01*
X71193256Y-74894139D01*
X71133072Y-74937866D01*
X71133070Y-74937868D01*
X71133069Y-74937868D01*
X71010588Y-75060349D01*
X71010588Y-75060350D01*
X71010586Y-75060352D01*
X70979893Y-75102597D01*
X70908768Y-75200491D01*
X70830128Y-75354832D01*
X70776597Y-75519582D01*
X70749801Y-75688770D01*
X70749500Y-75690669D01*
X64500500Y-75690669D01*
X64500500Y-73150669D01*
X70749500Y-73150669D01*
X70749500Y-73323891D01*
X70776598Y-73494981D01*
X70830127Y-73659725D01*
X70908768Y-73814068D01*
X71010586Y-73954208D01*
X71133072Y-74076694D01*
X71273212Y-74178512D01*
X71427555Y-74257153D01*
X71592299Y-74310682D01*
X71763389Y-74337780D01*
X71763390Y-74337780D01*
X72736610Y-74337780D01*
X72736611Y-74337780D01*
X72907701Y-74310682D01*
X73072445Y-74257153D01*
X73226788Y-74178512D01*
X73366928Y-74076694D01*
X73489414Y-73954208D01*
X73591232Y-73814068D01*
X73669873Y-73659725D01*
X73723402Y-73494981D01*
X73750500Y-73323891D01*
X73750500Y-73150669D01*
X73723402Y-72979579D01*
X73669873Y-72814835D01*
X73591232Y-72660492D01*
X73489414Y-72520352D01*
X73366928Y-72397866D01*
X73226788Y-72296048D01*
X73072445Y-72217407D01*
X72907701Y-72163878D01*
X72907699Y-72163877D01*
X72907698Y-72163877D01*
X72776271Y-72143061D01*
X72736611Y-72136780D01*
X71763389Y-72136780D01*
X71723728Y-72143061D01*
X71592302Y-72163877D01*
X71427552Y-72217408D01*
X71273211Y-72296048D01*
X71193256Y-72354139D01*
X71133072Y-72397866D01*
X71133070Y-72397868D01*
X71133069Y-72397868D01*
X71010588Y-72520349D01*
X71010588Y-72520350D01*
X71010586Y-72520352D01*
X70966859Y-72580536D01*
X70908768Y-72660491D01*
X70830128Y-72814832D01*
X70776597Y-72979582D01*
X70749500Y-73150669D01*
X64500500Y-73150669D01*
X64500500Y-70610669D01*
X70749500Y-70610669D01*
X70749500Y-70783890D01*
X70770766Y-70918163D01*
X70776598Y-70954981D01*
X70830127Y-71119725D01*
X70908768Y-71274068D01*
X71010586Y-71414208D01*
X71133072Y-71536694D01*
X71273212Y-71638512D01*
X71427555Y-71717153D01*
X71592299Y-71770682D01*
X71763389Y-71797780D01*
X71763390Y-71797780D01*
X72736610Y-71797780D01*
X72736611Y-71797780D01*
X72907701Y-71770682D01*
X73072445Y-71717153D01*
X73226788Y-71638512D01*
X73366928Y-71536694D01*
X73489414Y-71414208D01*
X73591232Y-71274068D01*
X73669873Y-71119725D01*
X73723402Y-70954981D01*
X73750500Y-70783891D01*
X73750500Y-70610669D01*
X73723402Y-70439579D01*
X73669873Y-70274835D01*
X73591232Y-70120492D01*
X73489414Y-69980352D01*
X73366928Y-69857866D01*
X73226788Y-69756048D01*
X73072445Y-69677407D01*
X72907701Y-69623878D01*
X72907699Y-69623877D01*
X72907698Y-69623877D01*
X72776271Y-69603061D01*
X72736611Y-69596780D01*
X71763389Y-69596780D01*
X71723728Y-69603061D01*
X71592302Y-69623877D01*
X71427552Y-69677408D01*
X71273211Y-69756048D01*
X71193256Y-69814139D01*
X71133072Y-69857866D01*
X71133070Y-69857868D01*
X71133069Y-69857868D01*
X71010588Y-69980349D01*
X71010588Y-69980350D01*
X71010586Y-69980352D01*
X71005379Y-69987519D01*
X70908768Y-70120491D01*
X70830128Y-70274832D01*
X70776597Y-70439582D01*
X70749500Y-70610669D01*
X64500500Y-70610669D01*
X64500500Y-69362483D01*
X82799500Y-69362483D01*
X82799500Y-69987501D01*
X82799501Y-69987519D01*
X82810000Y-70090296D01*
X82810001Y-70090299D01*
X82865185Y-70256831D01*
X82865187Y-70256836D01*
X82957289Y-70406157D01*
X83050951Y-70499819D01*
X83084436Y-70561142D01*
X83079452Y-70630834D01*
X83050951Y-70675181D01*
X82957289Y-70768842D01*
X82865187Y-70918163D01*
X82865186Y-70918166D01*
X82810001Y-71084703D01*
X82810001Y-71084704D01*
X82810000Y-71084704D01*
X82799500Y-71187483D01*
X82799500Y-71812501D01*
X82799501Y-71812519D01*
X82810000Y-71915296D01*
X82810001Y-71915299D01*
X82865185Y-72081831D01*
X82865186Y-72081834D01*
X82957288Y-72231156D01*
X83081344Y-72355212D01*
X83190597Y-72422599D01*
X83237321Y-72474547D01*
X83249500Y-72528138D01*
X83249500Y-91573918D01*
X83249500Y-91573920D01*
X83249499Y-91573920D01*
X83278340Y-91718907D01*
X83278343Y-91718917D01*
X83334914Y-91855492D01*
X83334915Y-91855494D01*
X83334916Y-91855495D01*
X83348966Y-91876523D01*
X83367812Y-91904727D01*
X83367813Y-91904730D01*
X83417046Y-91978414D01*
X83417052Y-91978421D01*
X85241580Y-93802948D01*
X85241581Y-93802949D01*
X85241584Y-93802951D01*
X85321840Y-93856576D01*
X85340625Y-93871993D01*
X88044328Y-96575695D01*
X88044329Y-96575696D01*
X88142701Y-96674068D01*
X88148865Y-96680232D01*
X88271778Y-96762360D01*
X88271791Y-96762367D01*
X88408362Y-96818936D01*
X88408367Y-96818938D01*
X88408371Y-96818938D01*
X88408372Y-96818939D01*
X88553359Y-96847780D01*
X88553362Y-96847780D01*
X96492796Y-96847780D01*
X96559835Y-96867465D01*
X96580477Y-96884099D01*
X96633072Y-96936694D01*
X96773212Y-97038512D01*
X96927555Y-97117153D01*
X97092299Y-97170682D01*
X97263389Y-97197780D01*
X97263390Y-97197780D01*
X98236610Y-97197780D01*
X98236611Y-97197780D01*
X98407701Y-97170682D01*
X98572445Y-97117153D01*
X98726788Y-97038512D01*
X98866928Y-96936694D01*
X98989414Y-96814208D01*
X99091232Y-96674068D01*
X99169873Y-96519725D01*
X99223402Y-96354981D01*
X99250500Y-96183891D01*
X99250500Y-96010669D01*
X99223402Y-95839579D01*
X99169873Y-95674835D01*
X99091232Y-95520492D01*
X98989414Y-95380352D01*
X98866928Y-95257866D01*
X98726788Y-95156048D01*
X98572445Y-95077407D01*
X98407701Y-95023878D01*
X98407699Y-95023877D01*
X98407698Y-95023877D01*
X98276271Y-95003061D01*
X98236611Y-94996780D01*
X97263389Y-94996780D01*
X97223728Y-95003061D01*
X97092302Y-95023877D01*
X96927552Y-95077408D01*
X96773211Y-95156048D01*
X96693256Y-95214139D01*
X96633072Y-95257866D01*
X96633070Y-95257868D01*
X96633069Y-95257868D01*
X96580477Y-95310461D01*
X96519154Y-95343946D01*
X96492796Y-95346780D01*
X88989509Y-95346780D01*
X88922470Y-95327095D01*
X88901828Y-95310461D01*
X86228421Y-92637052D01*
X86228414Y-92637046D01*
X86154731Y-92587813D01*
X86154731Y-92587814D01*
X86148162Y-92583425D01*
X86129369Y-92568002D01*
X84786819Y-91225451D01*
X84753334Y-91164128D01*
X84750500Y-91137770D01*
X84750500Y-90930669D01*
X96249500Y-90930669D01*
X96249500Y-91103891D01*
X96276598Y-91274981D01*
X96330127Y-91439725D01*
X96408768Y-91594068D01*
X96510586Y-91734208D01*
X96633072Y-91856694D01*
X96773212Y-91958512D01*
X96927555Y-92037153D01*
X97092299Y-92090682D01*
X97263389Y-92117780D01*
X97263390Y-92117780D01*
X98236610Y-92117780D01*
X98236611Y-92117780D01*
X98407701Y-92090682D01*
X98572445Y-92037153D01*
X98726788Y-91958512D01*
X98726792Y-91958508D01*
X98729212Y-91957276D01*
X98797881Y-91944380D01*
X98862622Y-91970656D01*
X98902879Y-92027763D01*
X98905871Y-92097568D01*
X98873188Y-92155442D01*
X98564874Y-92463756D01*
X98503551Y-92497241D01*
X98438877Y-92494007D01*
X98407700Y-92483877D01*
X98263708Y-92461071D01*
X98236611Y-92456780D01*
X97263389Y-92456780D01*
X97223728Y-92463061D01*
X97092302Y-92483877D01*
X96927552Y-92537408D01*
X96773211Y-92616048D01*
X96693256Y-92674139D01*
X96633072Y-92717866D01*
X96633070Y-92717868D01*
X96633069Y-92717868D01*
X96510588Y-92840349D01*
X96510588Y-92840350D01*
X96510586Y-92840352D01*
X96466859Y-92900536D01*
X96408768Y-92980491D01*
X96330128Y-93134832D01*
X96276597Y-93299582D01*
X96249500Y-93470669D01*
X96249500Y-93643890D01*
X96274692Y-93802951D01*
X96276598Y-93814981D01*
X96330127Y-93979725D01*
X96408768Y-94134068D01*
X96510586Y-94274208D01*
X96633072Y-94396694D01*
X96773212Y-94498512D01*
X96927555Y-94577153D01*
X97092299Y-94630682D01*
X97263389Y-94657780D01*
X97263390Y-94657780D01*
X98236610Y-94657780D01*
X98236611Y-94657780D01*
X98407701Y-94630682D01*
X98572445Y-94577153D01*
X98726788Y-94498512D01*
X98866928Y-94396694D01*
X98989414Y-94274208D01*
X99091232Y-94134068D01*
X99159120Y-94000827D01*
X99181918Y-93969448D01*
X101332951Y-91818416D01*
X101415084Y-91695495D01*
X101471658Y-91558913D01*
X101480246Y-91515739D01*
X101500500Y-91413918D01*
X101500500Y-89999998D01*
X102694390Y-89999998D01*
X102694390Y-90000001D01*
X102714804Y-90285433D01*
X102775628Y-90565037D01*
X102775630Y-90565043D01*
X102775631Y-90565046D01*
X102875633Y-90833161D01*
X102875635Y-90833166D01*
X103012770Y-91084309D01*
X103012775Y-91084317D01*
X103184254Y-91313387D01*
X103184270Y-91313405D01*
X103386594Y-91515729D01*
X103386612Y-91515745D01*
X103615682Y-91687224D01*
X103615690Y-91687229D01*
X103866833Y-91824364D01*
X103866834Y-91824364D01*
X103866839Y-91824367D01*
X103868824Y-91825107D01*
X103869394Y-91825533D01*
X103870862Y-91826204D01*
X103870716Y-91826523D01*
X103924761Y-91866973D01*
X103949183Y-91932435D01*
X103949500Y-91941292D01*
X103949500Y-101502870D01*
X103949501Y-101502876D01*
X103955908Y-101562483D01*
X104006202Y-101697328D01*
X104006206Y-101697335D01*
X104092452Y-101812544D01*
X104092455Y-101812547D01*
X104207664Y-101898793D01*
X104207671Y-101898797D01*
X104342517Y-101949091D01*
X104342516Y-101949091D01*
X104349444Y-101949835D01*
X104402127Y-101955500D01*
X107097872Y-101955499D01*
X107157483Y-101949091D01*
X107292331Y-101898796D01*
X107407546Y-101812546D01*
X107493796Y-101697331D01*
X107544091Y-101562483D01*
X107550500Y-101502873D01*
X107550499Y-98807128D01*
X107544091Y-98747517D01*
X107542542Y-98743365D01*
X107493797Y-98612671D01*
X107493793Y-98612664D01*
X107407547Y-98497455D01*
X107407544Y-98497452D01*
X107292335Y-98411206D01*
X107292328Y-98411202D01*
X107157482Y-98360908D01*
X107157483Y-98360908D01*
X107097883Y-98354501D01*
X107097881Y-98354500D01*
X107097873Y-98354500D01*
X107097865Y-98354500D01*
X105574500Y-98354500D01*
X105507461Y-98334815D01*
X105461706Y-98282011D01*
X105450500Y-98230500D01*
X105450500Y-91941292D01*
X105470185Y-91874253D01*
X105522989Y-91828498D01*
X105531167Y-91825110D01*
X105533161Y-91824367D01*
X105784315Y-91687226D01*
X106013395Y-91515739D01*
X106215739Y-91313395D01*
X106387226Y-91084315D01*
X106524367Y-90833161D01*
X106624369Y-90565046D01*
X106674319Y-90335428D01*
X106685195Y-90285433D01*
X106685195Y-90285432D01*
X106685196Y-90285428D01*
X106705610Y-90000000D01*
X106685196Y-89714572D01*
X106624369Y-89434954D01*
X106524367Y-89166839D01*
X106387226Y-88915685D01*
X106253169Y-88736605D01*
X106215745Y-88686612D01*
X106215729Y-88686594D01*
X106013405Y-88484270D01*
X106013387Y-88484254D01*
X105784317Y-88312775D01*
X105784309Y-88312770D01*
X105533166Y-88175635D01*
X105533167Y-88175635D01*
X105399093Y-88125628D01*
X105265046Y-88075631D01*
X105265043Y-88075630D01*
X105265037Y-88075628D01*
X104985433Y-88014804D01*
X104700001Y-87994390D01*
X104699999Y-87994390D01*
X104414566Y-88014804D01*
X104134962Y-88075628D01*
X103866833Y-88175635D01*
X103615690Y-88312770D01*
X103615682Y-88312775D01*
X103386612Y-88484254D01*
X103386594Y-88484270D01*
X103184270Y-88686594D01*
X103184254Y-88686612D01*
X103012775Y-88915682D01*
X103012770Y-88915690D01*
X102875635Y-89166833D01*
X102775628Y-89434962D01*
X102714804Y-89714566D01*
X102694390Y-89999998D01*
X101500500Y-89999998D01*
X101500500Y-77799995D01*
X102945093Y-77799995D01*
X102945093Y-77800004D01*
X102964692Y-78061545D01*
X102964693Y-78061550D01*
X103023058Y-78317270D01*
X103118883Y-78561426D01*
X103118882Y-78561426D01*
X103250027Y-78788573D01*
X103297874Y-78848571D01*
X104217037Y-77929408D01*
X104234075Y-77992993D01*
X104299901Y-78107007D01*
X104392993Y-78200099D01*
X104507007Y-78265925D01*
X104570590Y-78282962D01*
X103650830Y-79202720D01*
X103822546Y-79319793D01*
X103822550Y-79319795D01*
X104058854Y-79433594D01*
X104058858Y-79433595D01*
X104309494Y-79510907D01*
X104309500Y-79510909D01*
X104568848Y-79549999D01*
X104568857Y-79550000D01*
X104831143Y-79550000D01*
X104831151Y-79549999D01*
X105090499Y-79510909D01*
X105090505Y-79510907D01*
X105341143Y-79433595D01*
X105577445Y-79319798D01*
X105577447Y-79319797D01*
X105749168Y-79202720D01*
X104829409Y-78282962D01*
X104892993Y-78265925D01*
X105007007Y-78200099D01*
X105100099Y-78107007D01*
X105165925Y-77992993D01*
X105182962Y-77929409D01*
X106102125Y-78848572D01*
X106149971Y-78788573D01*
X106281116Y-78561426D01*
X106376941Y-78317270D01*
X106435306Y-78061550D01*
X106435307Y-78061545D01*
X106454907Y-77800004D01*
X106454907Y-77799995D01*
X106435307Y-77538454D01*
X106435306Y-77538449D01*
X106376941Y-77282729D01*
X106281116Y-77038573D01*
X106281117Y-77038573D01*
X106149972Y-76811426D01*
X106102124Y-76751427D01*
X105182962Y-77670589D01*
X105165925Y-77607007D01*
X105100099Y-77492993D01*
X105007007Y-77399901D01*
X104892993Y-77334075D01*
X104829410Y-77317037D01*
X105749168Y-76397278D01*
X105577454Y-76280206D01*
X105577445Y-76280201D01*
X105341142Y-76166404D01*
X105341144Y-76166404D01*
X105090505Y-76089092D01*
X105090499Y-76089090D01*
X104831151Y-76050000D01*
X104568848Y-76050000D01*
X104309500Y-76089090D01*
X104309494Y-76089092D01*
X104058858Y-76166404D01*
X104058854Y-76166405D01*
X103822547Y-76280205D01*
X103822539Y-76280210D01*
X103650830Y-76397277D01*
X104570590Y-77317037D01*
X104507007Y-77334075D01*
X104392993Y-77399901D01*
X104299901Y-77492993D01*
X104234075Y-77607007D01*
X104217037Y-77670589D01*
X103297874Y-76751427D01*
X103250028Y-76811425D01*
X103118883Y-77038573D01*
X103023058Y-77282729D01*
X102964693Y-77538449D01*
X102964692Y-77538454D01*
X102945093Y-77799995D01*
X101500500Y-77799995D01*
X101500500Y-66742229D01*
X101520185Y-66675190D01*
X101536814Y-66654553D01*
X101926879Y-66264487D01*
X101988199Y-66231005D01*
X102057890Y-66235989D01*
X102113824Y-66277860D01*
X102138085Y-66341363D01*
X102145430Y-66425316D01*
X102145432Y-66425326D01*
X102206566Y-66653483D01*
X102206570Y-66653492D01*
X102306399Y-66867578D01*
X102441894Y-67061082D01*
X102608917Y-67228105D01*
X102802421Y-67363600D01*
X103016507Y-67463429D01*
X103016516Y-67463433D01*
X103230000Y-67520634D01*
X103230000Y-66623012D01*
X103287007Y-66655925D01*
X103414174Y-66690000D01*
X103545826Y-66690000D01*
X103672993Y-66655925D01*
X103730000Y-66623012D01*
X103730000Y-67520633D01*
X103943483Y-67463433D01*
X103943492Y-67463429D01*
X104157578Y-67363600D01*
X104351082Y-67228105D01*
X104518105Y-67061082D01*
X104653600Y-66867578D01*
X104753429Y-66653492D01*
X104753432Y-66653486D01*
X104810636Y-66440000D01*
X103913012Y-66440000D01*
X103945925Y-66382993D01*
X103980000Y-66255826D01*
X103980000Y-66124174D01*
X103945925Y-65997007D01*
X103913012Y-65940000D01*
X104810636Y-65940000D01*
X104810635Y-65939999D01*
X104753432Y-65726513D01*
X104753429Y-65726507D01*
X104653600Y-65512422D01*
X104653599Y-65512420D01*
X104518113Y-65318926D01*
X104518108Y-65318920D01*
X104396053Y-65196865D01*
X104362568Y-65135542D01*
X104367552Y-65065850D01*
X104409424Y-65009917D01*
X104440400Y-64993002D01*
X104572331Y-64943796D01*
X104687546Y-64857546D01*
X104773796Y-64742331D01*
X104824091Y-64607483D01*
X104830500Y-64547873D01*
X104830499Y-62752128D01*
X104824091Y-62692517D01*
X104810035Y-62654832D01*
X104773797Y-62557671D01*
X104773793Y-62557664D01*
X104687547Y-62442455D01*
X104687544Y-62442452D01*
X104572335Y-62356206D01*
X104572328Y-62356202D01*
X104437482Y-62305908D01*
X104437483Y-62305908D01*
X104377883Y-62299501D01*
X104377881Y-62299500D01*
X104377873Y-62299500D01*
X104377864Y-62299500D01*
X102582129Y-62299500D01*
X102582123Y-62299501D01*
X102522516Y-62305908D01*
X102387671Y-62356202D01*
X102387664Y-62356206D01*
X102272455Y-62442452D01*
X102272452Y-62442455D01*
X102186206Y-62557664D01*
X102186202Y-62557671D01*
X102135908Y-62692517D01*
X102129501Y-62752116D01*
X102129501Y-62752123D01*
X102129500Y-62752135D01*
X102129500Y-63887769D01*
X102109815Y-63954808D01*
X102093181Y-63975450D01*
X100167050Y-65901580D01*
X100167044Y-65901588D01*
X100117812Y-65975268D01*
X100117813Y-65975269D01*
X100084921Y-66024496D01*
X100084914Y-66024508D01*
X100028342Y-66161086D01*
X100028340Y-66161092D01*
X99999500Y-66306079D01*
X99999500Y-90977769D01*
X99979815Y-91044808D01*
X99963181Y-91065450D01*
X99288161Y-91740469D01*
X99226838Y-91773954D01*
X99157146Y-91768970D01*
X99101213Y-91727098D01*
X99076796Y-91661634D01*
X99089995Y-91596493D01*
X99091227Y-91594074D01*
X99091232Y-91594068D01*
X99169873Y-91439725D01*
X99223402Y-91274981D01*
X99250500Y-91103891D01*
X99250500Y-90930669D01*
X99223402Y-90759579D01*
X99169873Y-90594835D01*
X99091232Y-90440492D01*
X98989414Y-90300352D01*
X98866928Y-90177866D01*
X98726788Y-90076048D01*
X98572445Y-89997407D01*
X98407701Y-89943878D01*
X98407699Y-89943877D01*
X98407698Y-89943877D01*
X98276271Y-89923061D01*
X98236611Y-89916780D01*
X97263389Y-89916780D01*
X97223728Y-89923061D01*
X97092302Y-89943877D01*
X96927552Y-89997408D01*
X96773211Y-90076048D01*
X96693256Y-90134139D01*
X96633072Y-90177866D01*
X96633070Y-90177868D01*
X96633069Y-90177868D01*
X96510588Y-90300349D01*
X96510588Y-90300350D01*
X96510586Y-90300352D01*
X96485102Y-90335428D01*
X96408768Y-90440491D01*
X96330128Y-90594832D01*
X96276597Y-90759582D01*
X96257024Y-90883166D01*
X96249500Y-90930669D01*
X84750500Y-90930669D01*
X84750500Y-88390669D01*
X96249500Y-88390669D01*
X96249500Y-88563890D01*
X96276597Y-88734977D01*
X96330128Y-88899727D01*
X96363733Y-88965682D01*
X96408768Y-89054068D01*
X96510586Y-89194208D01*
X96633072Y-89316694D01*
X96773212Y-89418512D01*
X96927555Y-89497153D01*
X97092299Y-89550682D01*
X97263389Y-89577780D01*
X97263390Y-89577780D01*
X98236610Y-89577780D01*
X98236611Y-89577780D01*
X98407701Y-89550682D01*
X98572445Y-89497153D01*
X98726788Y-89418512D01*
X98866928Y-89316694D01*
X98989414Y-89194208D01*
X99091232Y-89054068D01*
X99169873Y-88899725D01*
X99223402Y-88734981D01*
X99250500Y-88563891D01*
X99250500Y-88390669D01*
X99223402Y-88219579D01*
X99169873Y-88054835D01*
X99091232Y-87900492D01*
X98989414Y-87760352D01*
X98866928Y-87637866D01*
X98726788Y-87536048D01*
X98572445Y-87457407D01*
X98407701Y-87403878D01*
X98407699Y-87403877D01*
X98407698Y-87403877D01*
X98276271Y-87383061D01*
X98236611Y-87376780D01*
X97263389Y-87376780D01*
X97223728Y-87383061D01*
X97092302Y-87403877D01*
X96927552Y-87457408D01*
X96773211Y-87536048D01*
X96693256Y-87594139D01*
X96633072Y-87637866D01*
X96633070Y-87637868D01*
X96633069Y-87637868D01*
X96510588Y-87760349D01*
X96510588Y-87760350D01*
X96510586Y-87760352D01*
X96466859Y-87820536D01*
X96408768Y-87900491D01*
X96330128Y-88054832D01*
X96276597Y-88219582D01*
X96249500Y-88390669D01*
X84750500Y-88390669D01*
X84750500Y-85850669D01*
X96249500Y-85850669D01*
X96249500Y-86023891D01*
X96276598Y-86194981D01*
X96330127Y-86359725D01*
X96408768Y-86514068D01*
X96510586Y-86654208D01*
X96633072Y-86776694D01*
X96773212Y-86878512D01*
X96927555Y-86957153D01*
X97092299Y-87010682D01*
X97263389Y-87037780D01*
X97263390Y-87037780D01*
X98236610Y-87037780D01*
X98236611Y-87037780D01*
X98407701Y-87010682D01*
X98572445Y-86957153D01*
X98726788Y-86878512D01*
X98866928Y-86776694D01*
X98989414Y-86654208D01*
X99091232Y-86514068D01*
X99169873Y-86359725D01*
X99223402Y-86194981D01*
X99250500Y-86023891D01*
X99250500Y-85850669D01*
X99223402Y-85679579D01*
X99169873Y-85514835D01*
X99091232Y-85360492D01*
X98989414Y-85220352D01*
X98866928Y-85097866D01*
X98726788Y-84996048D01*
X98572445Y-84917407D01*
X98407701Y-84863878D01*
X98407699Y-84863877D01*
X98407698Y-84863877D01*
X98276271Y-84843061D01*
X98236611Y-84836780D01*
X97263389Y-84836780D01*
X97223728Y-84843061D01*
X97092302Y-84863877D01*
X96927552Y-84917408D01*
X96773211Y-84996048D01*
X96693256Y-85054139D01*
X96633072Y-85097866D01*
X96633070Y-85097868D01*
X96633069Y-85097868D01*
X96510588Y-85220349D01*
X96510588Y-85220350D01*
X96510586Y-85220352D01*
X96466859Y-85280536D01*
X96408768Y-85360491D01*
X96330128Y-85514832D01*
X96276597Y-85679582D01*
X96249500Y-85850669D01*
X84750500Y-85850669D01*
X84750500Y-83310669D01*
X96249500Y-83310669D01*
X96249500Y-83483891D01*
X96276598Y-83654981D01*
X96330127Y-83819725D01*
X96408768Y-83974068D01*
X96510586Y-84114208D01*
X96633072Y-84236694D01*
X96773212Y-84338512D01*
X96927555Y-84417153D01*
X97092299Y-84470682D01*
X97263389Y-84497780D01*
X97263390Y-84497780D01*
X98236610Y-84497780D01*
X98236611Y-84497780D01*
X98407701Y-84470682D01*
X98572445Y-84417153D01*
X98726788Y-84338512D01*
X98866928Y-84236694D01*
X98989414Y-84114208D01*
X99091232Y-83974068D01*
X99169873Y-83819725D01*
X99223402Y-83654981D01*
X99250500Y-83483891D01*
X99250500Y-83310669D01*
X99223402Y-83139579D01*
X99169873Y-82974835D01*
X99091232Y-82820492D01*
X98989414Y-82680352D01*
X98866928Y-82557866D01*
X98726788Y-82456048D01*
X98572445Y-82377407D01*
X98407701Y-82323878D01*
X98407699Y-82323877D01*
X98407698Y-82323877D01*
X98276271Y-82303061D01*
X98236611Y-82296780D01*
X97263389Y-82296780D01*
X97223728Y-82303061D01*
X97092302Y-82323877D01*
X96927552Y-82377408D01*
X96773211Y-82456048D01*
X96693256Y-82514139D01*
X96633072Y-82557866D01*
X96633070Y-82557868D01*
X96633069Y-82557868D01*
X96510588Y-82680349D01*
X96510588Y-82680350D01*
X96510586Y-82680352D01*
X96466859Y-82740536D01*
X96408768Y-82820491D01*
X96330128Y-82974832D01*
X96276597Y-83139582D01*
X96249500Y-83310669D01*
X84750500Y-83310669D01*
X84750500Y-80770669D01*
X96249500Y-80770669D01*
X96249500Y-80943891D01*
X96276598Y-81114981D01*
X96330127Y-81279725D01*
X96408768Y-81434068D01*
X96510586Y-81574208D01*
X96633072Y-81696694D01*
X96773212Y-81798512D01*
X96927555Y-81877153D01*
X97092299Y-81930682D01*
X97263389Y-81957780D01*
X97263390Y-81957780D01*
X98236610Y-81957780D01*
X98236611Y-81957780D01*
X98407701Y-81930682D01*
X98572445Y-81877153D01*
X98726788Y-81798512D01*
X98866928Y-81696694D01*
X98989414Y-81574208D01*
X99091232Y-81434068D01*
X99169873Y-81279725D01*
X99223402Y-81114981D01*
X99250500Y-80943891D01*
X99250500Y-80770669D01*
X99223402Y-80599579D01*
X99169873Y-80434835D01*
X99091232Y-80280492D01*
X98989414Y-80140352D01*
X98866928Y-80017866D01*
X98726788Y-79916048D01*
X98572445Y-79837407D01*
X98407701Y-79783878D01*
X98407699Y-79783877D01*
X98407698Y-79783877D01*
X98276271Y-79763061D01*
X98236611Y-79756780D01*
X97263389Y-79756780D01*
X97223728Y-79763061D01*
X97092302Y-79783877D01*
X96927552Y-79837408D01*
X96773211Y-79916048D01*
X96693256Y-79974139D01*
X96633072Y-80017866D01*
X96633070Y-80017868D01*
X96633069Y-80017868D01*
X96510588Y-80140349D01*
X96510588Y-80140350D01*
X96510586Y-80140352D01*
X96466859Y-80200536D01*
X96408768Y-80280491D01*
X96330128Y-80434832D01*
X96276597Y-80599582D01*
X96249500Y-80770669D01*
X84750500Y-80770669D01*
X84750500Y-78230669D01*
X96249500Y-78230669D01*
X96249500Y-78403891D01*
X96276598Y-78574981D01*
X96330127Y-78739725D01*
X96408768Y-78894068D01*
X96510586Y-79034208D01*
X96633072Y-79156694D01*
X96773212Y-79258512D01*
X96927555Y-79337153D01*
X97092299Y-79390682D01*
X97263389Y-79417780D01*
X97263390Y-79417780D01*
X98236610Y-79417780D01*
X98236611Y-79417780D01*
X98407701Y-79390682D01*
X98572445Y-79337153D01*
X98726788Y-79258512D01*
X98866928Y-79156694D01*
X98989414Y-79034208D01*
X99091232Y-78894068D01*
X99169873Y-78739725D01*
X99223402Y-78574981D01*
X99250500Y-78403891D01*
X99250500Y-78230669D01*
X99223402Y-78059579D01*
X99169873Y-77894835D01*
X99091232Y-77740492D01*
X98989414Y-77600352D01*
X98866928Y-77477866D01*
X98726788Y-77376048D01*
X98572445Y-77297407D01*
X98407701Y-77243878D01*
X98407699Y-77243877D01*
X98407698Y-77243877D01*
X98276271Y-77223061D01*
X98236611Y-77216780D01*
X97263389Y-77216780D01*
X97223728Y-77223061D01*
X97092302Y-77243877D01*
X96927552Y-77297408D01*
X96773211Y-77376048D01*
X96740381Y-77399901D01*
X96633072Y-77477866D01*
X96633070Y-77477868D01*
X96633069Y-77477868D01*
X96510588Y-77600349D01*
X96510588Y-77600350D01*
X96510586Y-77600352D01*
X96505751Y-77607007D01*
X96408768Y-77740491D01*
X96330128Y-77894832D01*
X96276597Y-78059582D01*
X96276273Y-78061630D01*
X96249500Y-78230669D01*
X84750500Y-78230669D01*
X84750500Y-75690669D01*
X96249500Y-75690669D01*
X96249500Y-75863891D01*
X96276598Y-76034981D01*
X96330127Y-76199725D01*
X96408768Y-76354068D01*
X96510586Y-76494208D01*
X96633072Y-76616694D01*
X96773212Y-76718512D01*
X96927555Y-76797153D01*
X97092299Y-76850682D01*
X97263389Y-76877780D01*
X97263390Y-76877780D01*
X98236610Y-76877780D01*
X98236611Y-76877780D01*
X98407701Y-76850682D01*
X98572445Y-76797153D01*
X98726788Y-76718512D01*
X98866928Y-76616694D01*
X98989414Y-76494208D01*
X99091232Y-76354068D01*
X99169873Y-76199725D01*
X99223402Y-76034981D01*
X99250500Y-75863891D01*
X99250500Y-75690669D01*
X99223402Y-75519579D01*
X99169873Y-75354835D01*
X99091232Y-75200492D01*
X98989414Y-75060352D01*
X98866928Y-74937866D01*
X98726788Y-74836048D01*
X98572445Y-74757407D01*
X98407701Y-74703878D01*
X98407699Y-74703877D01*
X98407698Y-74703877D01*
X98276271Y-74683061D01*
X98236611Y-74676780D01*
X97263389Y-74676780D01*
X97223728Y-74683061D01*
X97092302Y-74703877D01*
X96927552Y-74757408D01*
X96773211Y-74836048D01*
X96693256Y-74894139D01*
X96633072Y-74937866D01*
X96633070Y-74937868D01*
X96633069Y-74937868D01*
X96510588Y-75060349D01*
X96510588Y-75060350D01*
X96510586Y-75060352D01*
X96479893Y-75102597D01*
X96408768Y-75200491D01*
X96330128Y-75354832D01*
X96276597Y-75519582D01*
X96249801Y-75688770D01*
X96249500Y-75690669D01*
X84750500Y-75690669D01*
X84750500Y-73150669D01*
X96249500Y-73150669D01*
X96249500Y-73323891D01*
X96276598Y-73494981D01*
X96330127Y-73659725D01*
X96408768Y-73814068D01*
X96510586Y-73954208D01*
X96633072Y-74076694D01*
X96773212Y-74178512D01*
X96927555Y-74257153D01*
X97092299Y-74310682D01*
X97263389Y-74337780D01*
X97263390Y-74337780D01*
X98236610Y-74337780D01*
X98236611Y-74337780D01*
X98407701Y-74310682D01*
X98572445Y-74257153D01*
X98726788Y-74178512D01*
X98866928Y-74076694D01*
X98989414Y-73954208D01*
X99091232Y-73814068D01*
X99169873Y-73659725D01*
X99223402Y-73494981D01*
X99250500Y-73323891D01*
X99250500Y-73150669D01*
X99223402Y-72979579D01*
X99169873Y-72814835D01*
X99091232Y-72660492D01*
X98989414Y-72520352D01*
X98866928Y-72397866D01*
X98726788Y-72296048D01*
X98572445Y-72217407D01*
X98407701Y-72163878D01*
X98407699Y-72163877D01*
X98407698Y-72163877D01*
X98276271Y-72143061D01*
X98236611Y-72136780D01*
X97263389Y-72136780D01*
X97223728Y-72143061D01*
X97092302Y-72163877D01*
X96927552Y-72217408D01*
X96773211Y-72296048D01*
X96693256Y-72354139D01*
X96633072Y-72397866D01*
X96633070Y-72397868D01*
X96633069Y-72397868D01*
X96510588Y-72520349D01*
X96510588Y-72520350D01*
X96510586Y-72520352D01*
X96466859Y-72580536D01*
X96408768Y-72660491D01*
X96330128Y-72814832D01*
X96276597Y-72979582D01*
X96249500Y-73150669D01*
X84750500Y-73150669D01*
X84750500Y-72528138D01*
X84770185Y-72461099D01*
X84809401Y-72422600D01*
X84918656Y-72355212D01*
X85042712Y-72231156D01*
X85134814Y-72081834D01*
X85189999Y-71915297D01*
X85200500Y-71812509D01*
X85200499Y-71187492D01*
X85189999Y-71084703D01*
X85134814Y-70918166D01*
X85042712Y-70768844D01*
X84949049Y-70675181D01*
X84915564Y-70613858D01*
X84915792Y-70610669D01*
X96249500Y-70610669D01*
X96249500Y-70783890D01*
X96270766Y-70918163D01*
X96276598Y-70954981D01*
X96330127Y-71119725D01*
X96408768Y-71274068D01*
X96510586Y-71414208D01*
X96633072Y-71536694D01*
X96773212Y-71638512D01*
X96927555Y-71717153D01*
X97092299Y-71770682D01*
X97263389Y-71797780D01*
X97263390Y-71797780D01*
X98236610Y-71797780D01*
X98236611Y-71797780D01*
X98407701Y-71770682D01*
X98572445Y-71717153D01*
X98726788Y-71638512D01*
X98866928Y-71536694D01*
X98989414Y-71414208D01*
X99091232Y-71274068D01*
X99169873Y-71119725D01*
X99223402Y-70954981D01*
X99250500Y-70783891D01*
X99250500Y-70610669D01*
X99223402Y-70439579D01*
X99169873Y-70274835D01*
X99091232Y-70120492D01*
X98989414Y-69980352D01*
X98866928Y-69857866D01*
X98726788Y-69756048D01*
X98572445Y-69677407D01*
X98407701Y-69623878D01*
X98407699Y-69623877D01*
X98407698Y-69623877D01*
X98276271Y-69603061D01*
X98236611Y-69596780D01*
X97263389Y-69596780D01*
X97223728Y-69603061D01*
X97092302Y-69623877D01*
X96927552Y-69677408D01*
X96773211Y-69756048D01*
X96693256Y-69814139D01*
X96633072Y-69857866D01*
X96633070Y-69857868D01*
X96633069Y-69857868D01*
X96510588Y-69980349D01*
X96510588Y-69980350D01*
X96510586Y-69980352D01*
X96505379Y-69987519D01*
X96408768Y-70120491D01*
X96330128Y-70274832D01*
X96276597Y-70439582D01*
X96249500Y-70610669D01*
X84915792Y-70610669D01*
X84920548Y-70544166D01*
X84949049Y-70499819D01*
X85042712Y-70406156D01*
X85134814Y-70256834D01*
X85189999Y-70090297D01*
X85200500Y-69987509D01*
X85200499Y-69362492D01*
X85189999Y-69259703D01*
X85134814Y-69093166D01*
X85042712Y-68943844D01*
X84918656Y-68819788D01*
X84809402Y-68752400D01*
X84762679Y-68700453D01*
X84750500Y-68646862D01*
X84750500Y-68070669D01*
X96249500Y-68070669D01*
X96249500Y-68243891D01*
X96276598Y-68414981D01*
X96330127Y-68579725D01*
X96408768Y-68734068D01*
X96510586Y-68874208D01*
X96633072Y-68996694D01*
X96773212Y-69098512D01*
X96927555Y-69177153D01*
X97092299Y-69230682D01*
X97263389Y-69257780D01*
X97263390Y-69257780D01*
X98236610Y-69257780D01*
X98236611Y-69257780D01*
X98407701Y-69230682D01*
X98572445Y-69177153D01*
X98726788Y-69098512D01*
X98866928Y-68996694D01*
X98989414Y-68874208D01*
X99091232Y-68734068D01*
X99169873Y-68579725D01*
X99223402Y-68414981D01*
X99250500Y-68243891D01*
X99250500Y-68070669D01*
X99223402Y-67899579D01*
X99169873Y-67734835D01*
X99091232Y-67580492D01*
X98989414Y-67440352D01*
X98866928Y-67317866D01*
X98726788Y-67216048D01*
X98572445Y-67137407D01*
X98407701Y-67083878D01*
X98407699Y-67083877D01*
X98407698Y-67083877D01*
X98274740Y-67062819D01*
X98236611Y-67056780D01*
X97263389Y-67056780D01*
X97225260Y-67062819D01*
X97092302Y-67083877D01*
X96927552Y-67137408D01*
X96773211Y-67216048D01*
X96693256Y-67274139D01*
X96633072Y-67317866D01*
X96633070Y-67317868D01*
X96633069Y-67317868D01*
X96510588Y-67440349D01*
X96510588Y-67440350D01*
X96510586Y-67440352D01*
X96493820Y-67463429D01*
X96408768Y-67580491D01*
X96330128Y-67734832D01*
X96276597Y-67899582D01*
X96249500Y-68070669D01*
X84750500Y-68070669D01*
X84750500Y-66794828D01*
X84755424Y-66760233D01*
X84797597Y-66615073D01*
X84797598Y-66615067D01*
X84800499Y-66578201D01*
X84800500Y-66578194D01*
X84800500Y-65412000D01*
X84820185Y-65344961D01*
X84872989Y-65299206D01*
X84924500Y-65288000D01*
X84975500Y-65288000D01*
X85042539Y-65307685D01*
X85088294Y-65360489D01*
X85099500Y-65412000D01*
X85099500Y-66578201D01*
X85102401Y-66615067D01*
X85102402Y-66615073D01*
X85148254Y-66772893D01*
X85148255Y-66772896D01*
X85231917Y-66914362D01*
X85231923Y-66914370D01*
X85348129Y-67030576D01*
X85348133Y-67030579D01*
X85348135Y-67030581D01*
X85489602Y-67114244D01*
X85531224Y-67126336D01*
X85647426Y-67160097D01*
X85647429Y-67160097D01*
X85647431Y-67160098D01*
X85684306Y-67163000D01*
X85684314Y-67163000D01*
X86115686Y-67163000D01*
X86115694Y-67163000D01*
X86152569Y-67160098D01*
X86152571Y-67160097D01*
X86152573Y-67160097D01*
X86219674Y-67140602D01*
X86310398Y-67114244D01*
X86451865Y-67030581D01*
X86568081Y-66914365D01*
X86651744Y-66772898D01*
X86697598Y-66615069D01*
X86700500Y-66578194D01*
X86700500Y-66237230D01*
X86720185Y-66170191D01*
X86736819Y-66149549D01*
X87355699Y-65530669D01*
X96249500Y-65530669D01*
X96249500Y-65703891D01*
X96276598Y-65874981D01*
X96330127Y-66039725D01*
X96408768Y-66194068D01*
X96510586Y-66334208D01*
X96633072Y-66456694D01*
X96773212Y-66558512D01*
X96927555Y-66637153D01*
X97092299Y-66690682D01*
X97263389Y-66717780D01*
X97263390Y-66717780D01*
X98236610Y-66717780D01*
X98236611Y-66717780D01*
X98407701Y-66690682D01*
X98572445Y-66637153D01*
X98726788Y-66558512D01*
X98866928Y-66456694D01*
X98989414Y-66334208D01*
X99091232Y-66194068D01*
X99169873Y-66039725D01*
X99223402Y-65874981D01*
X99250500Y-65703891D01*
X99250500Y-65530669D01*
X99223402Y-65359579D01*
X99169873Y-65194835D01*
X99091232Y-65040492D01*
X98989414Y-64900352D01*
X98866928Y-64777866D01*
X98726788Y-64676048D01*
X98592220Y-64607483D01*
X98572447Y-64597408D01*
X98572446Y-64597407D01*
X98572445Y-64597407D01*
X98407701Y-64543878D01*
X98407699Y-64543877D01*
X98407698Y-64543877D01*
X98276271Y-64523061D01*
X98236611Y-64516780D01*
X97263389Y-64516780D01*
X97223728Y-64523061D01*
X97092302Y-64543877D01*
X96927552Y-64597408D01*
X96773211Y-64676048D01*
X96693256Y-64734139D01*
X96633072Y-64777866D01*
X96633070Y-64777868D01*
X96633069Y-64777868D01*
X96510588Y-64900349D01*
X96510588Y-64900350D01*
X96510586Y-64900352D01*
X96484950Y-64935637D01*
X96408768Y-65040491D01*
X96330128Y-65194832D01*
X96276597Y-65359582D01*
X96268295Y-65412000D01*
X96249500Y-65530669D01*
X87355699Y-65530669D01*
X88150614Y-64735754D01*
X89582952Y-63303416D01*
X89632186Y-63229729D01*
X89665084Y-63180495D01*
X89721658Y-63043913D01*
X89732249Y-62990669D01*
X96249500Y-62990669D01*
X96249500Y-63163890D01*
X96272242Y-63307483D01*
X96276598Y-63334981D01*
X96330127Y-63499725D01*
X96408768Y-63654068D01*
X96510586Y-63794208D01*
X96633072Y-63916694D01*
X96773212Y-64018512D01*
X96927555Y-64097153D01*
X97092299Y-64150682D01*
X97263389Y-64177780D01*
X97263390Y-64177780D01*
X98236610Y-64177780D01*
X98236611Y-64177780D01*
X98407701Y-64150682D01*
X98572445Y-64097153D01*
X98726788Y-64018512D01*
X98866928Y-63916694D01*
X98989414Y-63794208D01*
X99091232Y-63654068D01*
X99169873Y-63499725D01*
X99223402Y-63334981D01*
X99250500Y-63163891D01*
X99250500Y-62990669D01*
X99223402Y-62819579D01*
X99169873Y-62654835D01*
X99091232Y-62500492D01*
X98989414Y-62360352D01*
X98866928Y-62237866D01*
X98726788Y-62136048D01*
X98572445Y-62057407D01*
X98407701Y-62003878D01*
X98407699Y-62003877D01*
X98407698Y-62003877D01*
X98276271Y-61983061D01*
X98236611Y-61976780D01*
X97263389Y-61976780D01*
X97223728Y-61983061D01*
X97092302Y-62003877D01*
X96927552Y-62057408D01*
X96773211Y-62136048D01*
X96693256Y-62194139D01*
X96633072Y-62237866D01*
X96633070Y-62237868D01*
X96633069Y-62237868D01*
X96510588Y-62360349D01*
X96510588Y-62360350D01*
X96510586Y-62360352D01*
X96466859Y-62420536D01*
X96408768Y-62500491D01*
X96330128Y-62654832D01*
X96276597Y-62819582D01*
X96249500Y-62990669D01*
X89732249Y-62990669D01*
X89750500Y-62898918D01*
X89750500Y-60450669D01*
X96249500Y-60450669D01*
X96249500Y-60623891D01*
X96276598Y-60794981D01*
X96330127Y-60959725D01*
X96408768Y-61114068D01*
X96510586Y-61254208D01*
X96633072Y-61376694D01*
X96773212Y-61478512D01*
X96927555Y-61557153D01*
X97092299Y-61610682D01*
X97263389Y-61637780D01*
X97263390Y-61637780D01*
X98236610Y-61637780D01*
X98236611Y-61637780D01*
X98407701Y-61610682D01*
X98572445Y-61557153D01*
X98726788Y-61478512D01*
X98866928Y-61376694D01*
X98989414Y-61254208D01*
X99091232Y-61114068D01*
X99169873Y-60959725D01*
X99223402Y-60794981D01*
X99250500Y-60623891D01*
X99250500Y-60450669D01*
X99223402Y-60279579D01*
X99169873Y-60114835D01*
X99091232Y-59960492D01*
X98989414Y-59820352D01*
X98866928Y-59697866D01*
X98726788Y-59596048D01*
X98572445Y-59517407D01*
X98407701Y-59463878D01*
X98407699Y-59463877D01*
X98407698Y-59463877D01*
X98276271Y-59443061D01*
X98236611Y-59436780D01*
X97263389Y-59436780D01*
X97223728Y-59443061D01*
X97092302Y-59463877D01*
X96927552Y-59517408D01*
X96773211Y-59596048D01*
X96718399Y-59635872D01*
X96633072Y-59697866D01*
X96633070Y-59697868D01*
X96633069Y-59697868D01*
X96510588Y-59820349D01*
X96510588Y-59820350D01*
X96510586Y-59820352D01*
X96502946Y-59830868D01*
X96408768Y-59960491D01*
X96330128Y-60114832D01*
X96276597Y-60279582D01*
X96249500Y-60450669D01*
X89750500Y-60450669D01*
X89750500Y-59862230D01*
X89770185Y-59795191D01*
X89786819Y-59774549D01*
X91647979Y-57913389D01*
X96253180Y-57913389D01*
X96253180Y-58086610D01*
X96279846Y-58254977D01*
X96280278Y-58257701D01*
X96333807Y-58422445D01*
X96412448Y-58576788D01*
X96514266Y-58716928D01*
X96636752Y-58839414D01*
X96776892Y-58941232D01*
X96931235Y-59019873D01*
X97095979Y-59073402D01*
X97267069Y-59100500D01*
X97267070Y-59100500D01*
X98240290Y-59100500D01*
X98240291Y-59100500D01*
X98411381Y-59073402D01*
X98576125Y-59019873D01*
X98730468Y-58941232D01*
X98870608Y-58839414D01*
X98993094Y-58716928D01*
X99094912Y-58576788D01*
X99173553Y-58422445D01*
X99227082Y-58257701D01*
X99254180Y-58086611D01*
X99254180Y-57913389D01*
X99227082Y-57742299D01*
X99173553Y-57577555D01*
X99094912Y-57423212D01*
X98993094Y-57283072D01*
X98870608Y-57160586D01*
X98730468Y-57058768D01*
X98576125Y-56980127D01*
X98411381Y-56926598D01*
X98411379Y-56926597D01*
X98411378Y-56926597D01*
X98279951Y-56905781D01*
X98240291Y-56899500D01*
X97267069Y-56899500D01*
X97227408Y-56905781D01*
X97095982Y-56926597D01*
X97095979Y-56926598D01*
X96978930Y-56964630D01*
X96931232Y-56980128D01*
X96776891Y-57058768D01*
X96696936Y-57116859D01*
X96636752Y-57160586D01*
X96636750Y-57160588D01*
X96636749Y-57160588D01*
X96514268Y-57283069D01*
X96514268Y-57283070D01*
X96514266Y-57283072D01*
X96470539Y-57343256D01*
X96412448Y-57423211D01*
X96333808Y-57577552D01*
X96280277Y-57742302D01*
X96253180Y-57913389D01*
X91647979Y-57913389D01*
X93314549Y-56246819D01*
X93375872Y-56213334D01*
X93402230Y-56210500D01*
X96496476Y-56210500D01*
X96563515Y-56230185D01*
X96584157Y-56246819D01*
X96636752Y-56299414D01*
X96776892Y-56401232D01*
X96931235Y-56479873D01*
X97095979Y-56533402D01*
X97267069Y-56560500D01*
X97267070Y-56560500D01*
X98240290Y-56560500D01*
X98240291Y-56560500D01*
X98411381Y-56533402D01*
X98576125Y-56479873D01*
X98730468Y-56401232D01*
X98870608Y-56299414D01*
X98923203Y-56246819D01*
X98984526Y-56213334D01*
X99010884Y-56210500D01*
X109597770Y-56210500D01*
X109664809Y-56230185D01*
X109685451Y-56246819D01*
X113013181Y-59574549D01*
X113046666Y-59635872D01*
X113049500Y-59662230D01*
X113049500Y-60862819D01*
X113029815Y-60929858D01*
X112999812Y-60962085D01*
X112892452Y-61042455D01*
X112806206Y-61157664D01*
X112806202Y-61157671D01*
X112755908Y-61292517D01*
X112749501Y-61352116D01*
X112749501Y-61352123D01*
X112749500Y-61352135D01*
X112749500Y-63247870D01*
X112749501Y-63247876D01*
X112755908Y-63307483D01*
X112806202Y-63442328D01*
X112806206Y-63442335D01*
X112875358Y-63534709D01*
X112892454Y-63557546D01*
X112999811Y-63637914D01*
X113041682Y-63693847D01*
X113049500Y-63737180D01*
X113049500Y-67062819D01*
X113029815Y-67129858D01*
X112999812Y-67162085D01*
X112892452Y-67242455D01*
X112806206Y-67357664D01*
X112806202Y-67357671D01*
X112755908Y-67492517D01*
X112749501Y-67552116D01*
X112749501Y-67552123D01*
X112749500Y-67552135D01*
X112749500Y-69447870D01*
X112749501Y-69447876D01*
X112755908Y-69507483D01*
X112806202Y-69642328D01*
X112806206Y-69642335D01*
X112892452Y-69757544D01*
X112892455Y-69757547D01*
X113007664Y-69843793D01*
X113007671Y-69843797D01*
X113142517Y-69894091D01*
X113142516Y-69894091D01*
X113149444Y-69894835D01*
X113202127Y-69900500D01*
X114397872Y-69900499D01*
X114457483Y-69894091D01*
X114592331Y-69843796D01*
X114707546Y-69757546D01*
X114793796Y-69642331D01*
X114844091Y-69507483D01*
X114844091Y-69507481D01*
X114845874Y-69499938D01*
X114848005Y-69500441D01*
X114870487Y-69446184D01*
X114927883Y-69406342D01*
X114967030Y-69400000D01*
X116239269Y-69400000D01*
X116306308Y-69419685D01*
X116352063Y-69472489D01*
X116362007Y-69541647D01*
X116332982Y-69605203D01*
X116326950Y-69611681D01*
X116117049Y-69821582D01*
X116102207Y-69843796D01*
X116034913Y-69944508D01*
X115978343Y-70081082D01*
X115978340Y-70081092D01*
X115949500Y-70226079D01*
X115949500Y-75688770D01*
X115929815Y-75755809D01*
X115877011Y-75801564D01*
X115807853Y-75811508D01*
X115744297Y-75782483D01*
X115737819Y-75776451D01*
X108186819Y-68225451D01*
X108153334Y-68164128D01*
X108150500Y-68137770D01*
X108150500Y-58049972D01*
X108157458Y-58009017D01*
X108185368Y-57929254D01*
X108185369Y-57929249D01*
X108205565Y-57750003D01*
X108205565Y-57749996D01*
X108185369Y-57570750D01*
X108185368Y-57570745D01*
X108133744Y-57423212D01*
X108125789Y-57400478D01*
X108029816Y-57247738D01*
X107902262Y-57120184D01*
X107749523Y-57024211D01*
X107579254Y-56964631D01*
X107579249Y-56964630D01*
X107400004Y-56944435D01*
X107399996Y-56944435D01*
X107220750Y-56964630D01*
X107220745Y-56964631D01*
X107050476Y-57024211D01*
X106897737Y-57120184D01*
X106770184Y-57247737D01*
X106674211Y-57400476D01*
X106614631Y-57570745D01*
X106614630Y-57570750D01*
X106594435Y-57749996D01*
X106594435Y-57750003D01*
X106614630Y-57929249D01*
X106614631Y-57929254D01*
X106642542Y-58009017D01*
X106649500Y-58049972D01*
X106649500Y-68573918D01*
X106649500Y-68573920D01*
X106649499Y-68573920D01*
X106678340Y-68718907D01*
X106678343Y-68718917D01*
X106734912Y-68855487D01*
X106734916Y-68855495D01*
X106735734Y-68856718D01*
X106735743Y-68856748D01*
X106735751Y-68856744D01*
X106817051Y-68978420D01*
X106817052Y-68978421D01*
X111628415Y-73789783D01*
X111661900Y-73851106D01*
X111656916Y-73920798D01*
X111615044Y-73976731D01*
X111549580Y-74001148D01*
X111497401Y-73993646D01*
X111452050Y-73976731D01*
X111315046Y-73925631D01*
X111315042Y-73925630D01*
X111315039Y-73925629D01*
X111035433Y-73864804D01*
X110750001Y-73844390D01*
X110749999Y-73844390D01*
X110464566Y-73864804D01*
X110184962Y-73925628D01*
X109916833Y-74025635D01*
X109665690Y-74162770D01*
X109665682Y-74162775D01*
X109436612Y-74334254D01*
X109436594Y-74334270D01*
X109234270Y-74536594D01*
X109234254Y-74536612D01*
X109062775Y-74765682D01*
X109062770Y-74765690D01*
X108925635Y-75016833D01*
X108825628Y-75284962D01*
X108764804Y-75564566D01*
X108744390Y-75849998D01*
X108744390Y-75850001D01*
X108764804Y-76135433D01*
X108825628Y-76415037D01*
X108825630Y-76415043D01*
X108825631Y-76415046D01*
X108900841Y-76616691D01*
X108925635Y-76683166D01*
X109062770Y-76934309D01*
X109062775Y-76934317D01*
X109234254Y-77163387D01*
X109234270Y-77163405D01*
X109436594Y-77365729D01*
X109436612Y-77365745D01*
X109665682Y-77537224D01*
X109665690Y-77537229D01*
X109916833Y-77674364D01*
X109916834Y-77674364D01*
X109916839Y-77674367D01*
X109918824Y-77675107D01*
X109919394Y-77675533D01*
X109920862Y-77676204D01*
X109920716Y-77676523D01*
X109974761Y-77716973D01*
X109999183Y-77782435D01*
X109999500Y-77791292D01*
X109999500Y-98440102D01*
X109979815Y-98507141D01*
X109929303Y-98551821D01*
X109847235Y-98591344D01*
X109847232Y-98591345D01*
X109624258Y-98743365D01*
X109426442Y-98926910D01*
X109258185Y-99137898D01*
X109123258Y-99371599D01*
X109123256Y-99371603D01*
X109024666Y-99622804D01*
X109024664Y-99622811D01*
X108964616Y-99885898D01*
X108944451Y-100154995D01*
X108944451Y-100155004D01*
X108964616Y-100424101D01*
X109024664Y-100687188D01*
X109024666Y-100687195D01*
X109123257Y-100938398D01*
X109258185Y-101172102D01*
X109331384Y-101263890D01*
X109426442Y-101383089D01*
X109613183Y-101556358D01*
X109624259Y-101566635D01*
X109847226Y-101718651D01*
X110090359Y-101835738D01*
X110348228Y-101915280D01*
X110348229Y-101915280D01*
X110348232Y-101915281D01*
X110615063Y-101955499D01*
X110615068Y-101955499D01*
X110615071Y-101955500D01*
X110615072Y-101955500D01*
X110884928Y-101955500D01*
X110884929Y-101955500D01*
X110884936Y-101955499D01*
X111151767Y-101915281D01*
X111151768Y-101915280D01*
X111151772Y-101915280D01*
X111409641Y-101835738D01*
X111652775Y-101718651D01*
X111875741Y-101566635D01*
X112073561Y-101383085D01*
X112241815Y-101172102D01*
X112376743Y-100938398D01*
X112475334Y-100687195D01*
X112535383Y-100424103D01*
X112542105Y-100334402D01*
X112555549Y-100155004D01*
X112555549Y-100154995D01*
X113944451Y-100154995D01*
X113944451Y-100155004D01*
X113964616Y-100424101D01*
X114024664Y-100687188D01*
X114024666Y-100687195D01*
X114123257Y-100938398D01*
X114258185Y-101172102D01*
X114331384Y-101263890D01*
X114426442Y-101383089D01*
X114613183Y-101556358D01*
X114624259Y-101566635D01*
X114847226Y-101718651D01*
X115090359Y-101835738D01*
X115348228Y-101915280D01*
X115348229Y-101915280D01*
X115348232Y-101915281D01*
X115615063Y-101955499D01*
X115615068Y-101955499D01*
X115615071Y-101955500D01*
X115615072Y-101955500D01*
X115884928Y-101955500D01*
X115884929Y-101955500D01*
X115884936Y-101955499D01*
X116151767Y-101915281D01*
X116151768Y-101915280D01*
X116151772Y-101915280D01*
X116409641Y-101835738D01*
X116652775Y-101718651D01*
X116875741Y-101566635D01*
X117073561Y-101383085D01*
X117241815Y-101172102D01*
X117376743Y-100938398D01*
X117475334Y-100687195D01*
X117535383Y-100424103D01*
X117542105Y-100334402D01*
X117555549Y-100155004D01*
X117555549Y-100154995D01*
X117535383Y-99885898D01*
X117495391Y-99710682D01*
X117475334Y-99622805D01*
X117441657Y-99537000D01*
X117435489Y-99467405D01*
X117442526Y-99444244D01*
X117458576Y-99405498D01*
X117471657Y-99373916D01*
X117471659Y-99373912D01*
X117500500Y-99228917D01*
X117500500Y-99081082D01*
X117500500Y-91991292D01*
X117520185Y-91924253D01*
X117572989Y-91878498D01*
X117581167Y-91875110D01*
X117583161Y-91874367D01*
X117834315Y-91737226D01*
X118063395Y-91565739D01*
X118265739Y-91363395D01*
X118437226Y-91134315D01*
X118574367Y-90883161D01*
X118674369Y-90615046D01*
X118735196Y-90335428D01*
X118755610Y-90050000D01*
X118735196Y-89764572D01*
X118677022Y-89497151D01*
X118674371Y-89484962D01*
X118674370Y-89484960D01*
X118674369Y-89484954D01*
X118574367Y-89216839D01*
X118562009Y-89194208D01*
X118437229Y-88965690D01*
X118437224Y-88965682D01*
X118265745Y-88736612D01*
X118265729Y-88736594D01*
X118063405Y-88534270D01*
X118063387Y-88534254D01*
X117834317Y-88362775D01*
X117834309Y-88362770D01*
X117583166Y-88225635D01*
X117583167Y-88225635D01*
X117475915Y-88185632D01*
X117315046Y-88125631D01*
X117315043Y-88125630D01*
X117315037Y-88125628D01*
X117035433Y-88064804D01*
X116750001Y-88044390D01*
X116749999Y-88044390D01*
X116464566Y-88064804D01*
X116184962Y-88125628D01*
X115916833Y-88225635D01*
X115665690Y-88362770D01*
X115665682Y-88362775D01*
X115436612Y-88534254D01*
X115436594Y-88534270D01*
X115234270Y-88736594D01*
X115234254Y-88736612D01*
X115062775Y-88965682D01*
X115062770Y-88965690D01*
X114925635Y-89216833D01*
X114825628Y-89484962D01*
X114764804Y-89764566D01*
X114744390Y-90049998D01*
X114744390Y-90050001D01*
X114764804Y-90335433D01*
X114825628Y-90615037D01*
X114825630Y-90615043D01*
X114825631Y-90615046D01*
X114906984Y-90833161D01*
X114925635Y-90883166D01*
X115062770Y-91134309D01*
X115062775Y-91134317D01*
X115234254Y-91363387D01*
X115234270Y-91363405D01*
X115436594Y-91565729D01*
X115436612Y-91565745D01*
X115665682Y-91737224D01*
X115665690Y-91737229D01*
X115916833Y-91874364D01*
X115916834Y-91874364D01*
X115916839Y-91874367D01*
X115918824Y-91875107D01*
X115919394Y-91875533D01*
X115920862Y-91876204D01*
X115920716Y-91876523D01*
X115974761Y-91916973D01*
X115999183Y-91982435D01*
X115999500Y-91991292D01*
X115999500Y-98230500D01*
X115979815Y-98297539D01*
X115927011Y-98343294D01*
X115875500Y-98354500D01*
X115615063Y-98354500D01*
X115348232Y-98394718D01*
X115348226Y-98394720D01*
X115090358Y-98474262D01*
X114847230Y-98591346D01*
X114624258Y-98743365D01*
X114426442Y-98926910D01*
X114258185Y-99137898D01*
X114123258Y-99371599D01*
X114123256Y-99371603D01*
X114024666Y-99622804D01*
X114024664Y-99622811D01*
X113964616Y-99885898D01*
X113944451Y-100154995D01*
X112555549Y-100154995D01*
X112535383Y-99885898D01*
X112495391Y-99710682D01*
X112475334Y-99622805D01*
X112376743Y-99371602D01*
X112241815Y-99137898D01*
X112073561Y-98926915D01*
X112073560Y-98926914D01*
X112073557Y-98926910D01*
X111875741Y-98743365D01*
X111847176Y-98723890D01*
X111652775Y-98591349D01*
X111652772Y-98591348D01*
X111652770Y-98591346D01*
X111570698Y-98551822D01*
X111518838Y-98504999D01*
X111500500Y-98440102D01*
X111500500Y-77791292D01*
X111520185Y-77724253D01*
X111572989Y-77678498D01*
X111581167Y-77675110D01*
X111583161Y-77674367D01*
X111834315Y-77537226D01*
X112063395Y-77365739D01*
X112265739Y-77163395D01*
X112437226Y-76934315D01*
X112574367Y-76683161D01*
X112674369Y-76415046D01*
X112735196Y-76135428D01*
X112755610Y-75850000D01*
X112735196Y-75564572D01*
X112725408Y-75519579D01*
X112704782Y-75424763D01*
X112674369Y-75284954D01*
X112606352Y-75102596D01*
X112601369Y-75032906D01*
X112634854Y-74971583D01*
X112696177Y-74938098D01*
X112765869Y-74943082D01*
X112810216Y-74971583D01*
X114993000Y-77154367D01*
X115026485Y-77215690D01*
X115023807Y-77278608D01*
X115022577Y-77282593D01*
X114964197Y-77538374D01*
X114964196Y-77538379D01*
X114944592Y-77799995D01*
X114944592Y-77800004D01*
X114964196Y-78061620D01*
X114964197Y-78061625D01*
X115022576Y-78317402D01*
X115022578Y-78317411D01*
X115022580Y-78317416D01*
X115118432Y-78561643D01*
X115249614Y-78788857D01*
X115333517Y-78894068D01*
X115413198Y-78993985D01*
X115588555Y-79156691D01*
X115605521Y-79172433D01*
X115822296Y-79320228D01*
X115822301Y-79320230D01*
X115822302Y-79320231D01*
X115822303Y-79320232D01*
X115947843Y-79380688D01*
X116058673Y-79434061D01*
X116058674Y-79434061D01*
X116058677Y-79434063D01*
X116309385Y-79511396D01*
X116568818Y-79550500D01*
X116831182Y-79550500D01*
X117090615Y-79511396D01*
X117341323Y-79434063D01*
X117577704Y-79320228D01*
X117794479Y-79172433D01*
X117986805Y-78993981D01*
X118150386Y-78788857D01*
X118281568Y-78561643D01*
X118377420Y-78317416D01*
X118435802Y-78061630D01*
X118435808Y-78061550D01*
X118455408Y-77800004D01*
X118455408Y-77799995D01*
X118435803Y-77538379D01*
X118435802Y-77538374D01*
X118435802Y-77538370D01*
X118377420Y-77282584D01*
X118281568Y-77038357D01*
X118150386Y-76811143D01*
X117986805Y-76606019D01*
X117986804Y-76606018D01*
X117986801Y-76606014D01*
X117794479Y-76427567D01*
X117578346Y-76280210D01*
X117577704Y-76279772D01*
X117577701Y-76279771D01*
X117577699Y-76279769D01*
X117520698Y-76252319D01*
X117468838Y-76205496D01*
X117450500Y-76140599D01*
X117450500Y-70662230D01*
X117470185Y-70595191D01*
X117486819Y-70574549D01*
X117655212Y-70406156D01*
X118082952Y-69978416D01*
X118111008Y-69936425D01*
X118164618Y-69891619D01*
X118170762Y-69889138D01*
X118292331Y-69843796D01*
X118407546Y-69757546D01*
X118493796Y-69642331D01*
X118544091Y-69507483D01*
X118550500Y-69447873D01*
X118550499Y-67552128D01*
X118544091Y-67492517D01*
X118533243Y-67463433D01*
X118493797Y-67357671D01*
X118493793Y-67357664D01*
X118407547Y-67242455D01*
X118300188Y-67162085D01*
X118258318Y-67106151D01*
X118250500Y-67062819D01*
X118250500Y-63737180D01*
X118270185Y-63670141D01*
X118300187Y-63637914D01*
X118407546Y-63557546D01*
X118493796Y-63442331D01*
X118544091Y-63307483D01*
X118550500Y-63247873D01*
X118550499Y-61352128D01*
X118544091Y-61292517D01*
X118537743Y-61275498D01*
X118493797Y-61157671D01*
X118493793Y-61157664D01*
X118407547Y-61042455D01*
X118407544Y-61042452D01*
X118292335Y-60956206D01*
X118292328Y-60956202D01*
X118157482Y-60905908D01*
X118157483Y-60905908D01*
X118097883Y-60899501D01*
X118097881Y-60899500D01*
X118097873Y-60899500D01*
X118097864Y-60899500D01*
X116902129Y-60899500D01*
X116902123Y-60899501D01*
X116842516Y-60905908D01*
X116707671Y-60956202D01*
X116707664Y-60956206D01*
X116592455Y-61042452D01*
X116592452Y-61042455D01*
X116506206Y-61157664D01*
X116506202Y-61157671D01*
X116455908Y-61292517D01*
X116454126Y-61300062D01*
X116451994Y-61299558D01*
X116429513Y-61353816D01*
X116372117Y-61393658D01*
X116332970Y-61400000D01*
X114967030Y-61400000D01*
X114899991Y-61380315D01*
X114854236Y-61327511D01*
X114846657Y-61299883D01*
X114845876Y-61300068D01*
X114844092Y-61292520D01*
X114793797Y-61157671D01*
X114793793Y-61157664D01*
X114707547Y-61042455D01*
X114600188Y-60962085D01*
X114558318Y-60906151D01*
X114550500Y-60862819D01*
X114550500Y-59226079D01*
X114521659Y-59081092D01*
X114521658Y-59081091D01*
X114521658Y-59081087D01*
X114490504Y-59005875D01*
X114465085Y-58944507D01*
X114461079Y-58938512D01*
X114412558Y-58865894D01*
X114406176Y-58856342D01*
X114382954Y-58821586D01*
X114382952Y-58821584D01*
X110438421Y-54877052D01*
X110438414Y-54877046D01*
X110364729Y-54827812D01*
X110364729Y-54827813D01*
X110315491Y-54794913D01*
X110178917Y-54738343D01*
X110178907Y-54738340D01*
X110033920Y-54709500D01*
X110033918Y-54709500D01*
X105494573Y-54709500D01*
X105427534Y-54689815D01*
X105381779Y-54637011D01*
X105381044Y-54631902D01*
X115749500Y-54631902D01*
X115749500Y-54868097D01*
X115786446Y-55101368D01*
X115859433Y-55325996D01*
X115899494Y-55404619D01*
X115966657Y-55536433D01*
X116105483Y-55727510D01*
X116272490Y-55894517D01*
X116463567Y-56033343D01*
X116562991Y-56084002D01*
X116674003Y-56140566D01*
X116674005Y-56140566D01*
X116674008Y-56140568D01*
X116776538Y-56173882D01*
X116898631Y-56213553D01*
X117131903Y-56250500D01*
X117131908Y-56250500D01*
X117368097Y-56250500D01*
X117601368Y-56213553D01*
X117610764Y-56210500D01*
X117825992Y-56140568D01*
X118036433Y-56033343D01*
X118227510Y-55894517D01*
X118394517Y-55727510D01*
X118533343Y-55536433D01*
X118640568Y-55325992D01*
X118713553Y-55101368D01*
X118724061Y-55035024D01*
X118750500Y-54868097D01*
X118750500Y-54631902D01*
X118713553Y-54398631D01*
X118640566Y-54174003D01*
X118562479Y-54020750D01*
X118533343Y-53963567D01*
X118394517Y-53772490D01*
X118227510Y-53605483D01*
X118036433Y-53466657D01*
X118000484Y-53448340D01*
X117825996Y-53359433D01*
X117601368Y-53286446D01*
X117368097Y-53249500D01*
X117368092Y-53249500D01*
X117131908Y-53249500D01*
X117131903Y-53249500D01*
X116898631Y-53286446D01*
X116674003Y-53359433D01*
X116463566Y-53466657D01*
X116371417Y-53533608D01*
X116272490Y-53605483D01*
X116272488Y-53605485D01*
X116272487Y-53605485D01*
X116105485Y-53772487D01*
X116105485Y-53772488D01*
X116105483Y-53772490D01*
X116065130Y-53828031D01*
X115966657Y-53963566D01*
X115859433Y-54174003D01*
X115786446Y-54398631D01*
X115749500Y-54631902D01*
X105381044Y-54631902D01*
X105371835Y-54567853D01*
X105377531Y-54544546D01*
X105435367Y-54379257D01*
X105435368Y-54379255D01*
X105455565Y-54200000D01*
X105452636Y-54174008D01*
X105435369Y-54020750D01*
X105435368Y-54020745D01*
X105424678Y-53990194D01*
X105375789Y-53850478D01*
X105279816Y-53697738D01*
X105152262Y-53570184D01*
X105048389Y-53504916D01*
X104999523Y-53474211D01*
X104829254Y-53414631D01*
X104829249Y-53414630D01*
X104650004Y-53394435D01*
X104649996Y-53394435D01*
X104470750Y-53414630D01*
X104463953Y-53416182D01*
X104463629Y-53414763D01*
X104435763Y-53419500D01*
X99318662Y-53419500D01*
X99251623Y-53399815D01*
X99205868Y-53347011D01*
X99195924Y-53277853D01*
X99200731Y-53257181D01*
X99226594Y-53177582D01*
X99227795Y-53170000D01*
X98069366Y-53170000D01*
X98073760Y-53165606D01*
X98126421Y-53074394D01*
X98153680Y-52972661D01*
X98153680Y-52867339D01*
X98126421Y-52765606D01*
X98073760Y-52674394D01*
X98069366Y-52670000D01*
X99227795Y-52670000D01*
X99227795Y-52669999D01*
X99226594Y-52662415D01*
X99173088Y-52497744D01*
X99094484Y-52343475D01*
X98992712Y-52203397D01*
X98870282Y-52080967D01*
X98730204Y-51979195D01*
X98575937Y-51900591D01*
X98411264Y-51847085D01*
X98240251Y-51820000D01*
X98003680Y-51820000D01*
X98003680Y-52604314D01*
X97999286Y-52599920D01*
X97908074Y-52547259D01*
X97806341Y-52520000D01*
X97701019Y-52520000D01*
X97599286Y-52547259D01*
X97508074Y-52599920D01*
X97503680Y-52604314D01*
X97503680Y-51820000D01*
X97267109Y-51820000D01*
X97096095Y-51847085D01*
X96931422Y-51900591D01*
X96777155Y-51979195D01*
X96637077Y-52080967D01*
X96514647Y-52203397D01*
X96412875Y-52343475D01*
X96334271Y-52497744D01*
X96280765Y-52662415D01*
X96279564Y-52669999D01*
X96279565Y-52670000D01*
X97437994Y-52670000D01*
X97433600Y-52674394D01*
X97380939Y-52765606D01*
X97353680Y-52867339D01*
X97353680Y-52972661D01*
X97380939Y-53074394D01*
X97433600Y-53165606D01*
X97437994Y-53170000D01*
X96279565Y-53170000D01*
X96280765Y-53177582D01*
X96306629Y-53257181D01*
X96308624Y-53327023D01*
X96272544Y-53386856D01*
X96209843Y-53417684D01*
X96188698Y-53419500D01*
X92426080Y-53419500D01*
X92281092Y-53448340D01*
X92281082Y-53448343D01*
X92144508Y-53504914D01*
X92144505Y-53504915D01*
X92144505Y-53504916D01*
X92101564Y-53533608D01*
X92101563Y-53533607D01*
X92021585Y-53587046D01*
X92021578Y-53587052D01*
X87070449Y-58538181D01*
X87009126Y-58571666D01*
X86982768Y-58574500D01*
X86299998Y-58574500D01*
X86299980Y-58574501D01*
X86197203Y-58585000D01*
X86197200Y-58585001D01*
X86030668Y-58640185D01*
X86030663Y-58640187D01*
X85881342Y-58732289D01*
X85757289Y-58856342D01*
X85665187Y-59005663D01*
X85665185Y-59005668D01*
X85660479Y-59019871D01*
X85610001Y-59172203D01*
X85610001Y-59172204D01*
X85610000Y-59172204D01*
X85599500Y-59274983D01*
X85599500Y-59962769D01*
X85579815Y-60029808D01*
X85563181Y-60050450D01*
X84367050Y-61246580D01*
X84367044Y-61246588D01*
X84317812Y-61320268D01*
X84317813Y-61320269D01*
X84284921Y-61369496D01*
X84284914Y-61369508D01*
X84228342Y-61506086D01*
X84228340Y-61506092D01*
X84199500Y-61651079D01*
X84199500Y-63180170D01*
X84194576Y-63214765D01*
X84152402Y-63359926D01*
X84152401Y-63359932D01*
X84149500Y-63396798D01*
X84149500Y-64563000D01*
X84129815Y-64630039D01*
X84077011Y-64675794D01*
X84025500Y-64687000D01*
X83784298Y-64687000D01*
X83747432Y-64689901D01*
X83747426Y-64689902D01*
X83589606Y-64735754D01*
X83589603Y-64735755D01*
X83448137Y-64819417D01*
X83448129Y-64819423D01*
X83331923Y-64935629D01*
X83331917Y-64935637D01*
X83248255Y-65077103D01*
X83248254Y-65077106D01*
X83202402Y-65234926D01*
X83202401Y-65234932D01*
X83199500Y-65271798D01*
X83199500Y-66578201D01*
X83202401Y-66615067D01*
X83202402Y-66615073D01*
X83244576Y-66760233D01*
X83249500Y-66794828D01*
X83249500Y-68646862D01*
X83229815Y-68713901D01*
X83190598Y-68752399D01*
X83122288Y-68794533D01*
X83081342Y-68819789D01*
X82957289Y-68943842D01*
X82865187Y-69093163D01*
X82865185Y-69093168D01*
X82837356Y-69177151D01*
X82810001Y-69259703D01*
X82810001Y-69259704D01*
X82810000Y-69259704D01*
X82799500Y-69362483D01*
X64500500Y-69362483D01*
X64500500Y-68070669D01*
X70749500Y-68070669D01*
X70749500Y-68243891D01*
X70776598Y-68414981D01*
X70830127Y-68579725D01*
X70908768Y-68734068D01*
X71010586Y-68874208D01*
X71133072Y-68996694D01*
X71273212Y-69098512D01*
X71427555Y-69177153D01*
X71592299Y-69230682D01*
X71763389Y-69257780D01*
X71763390Y-69257780D01*
X72736610Y-69257780D01*
X72736611Y-69257780D01*
X72907701Y-69230682D01*
X73072445Y-69177153D01*
X73226788Y-69098512D01*
X73366928Y-68996694D01*
X73489414Y-68874208D01*
X73591232Y-68734068D01*
X73669873Y-68579725D01*
X73723402Y-68414981D01*
X73750500Y-68243891D01*
X73750500Y-68070669D01*
X73723402Y-67899579D01*
X73669873Y-67734835D01*
X73591232Y-67580492D01*
X73489414Y-67440352D01*
X73366928Y-67317866D01*
X73226788Y-67216048D01*
X73072445Y-67137407D01*
X72907701Y-67083878D01*
X72907699Y-67083877D01*
X72907698Y-67083877D01*
X72774740Y-67062819D01*
X72736611Y-67056780D01*
X71763389Y-67056780D01*
X71725260Y-67062819D01*
X71592302Y-67083877D01*
X71427552Y-67137408D01*
X71273211Y-67216048D01*
X71193256Y-67274139D01*
X71133072Y-67317866D01*
X71133070Y-67317868D01*
X71133069Y-67317868D01*
X71010588Y-67440349D01*
X71010588Y-67440350D01*
X71010586Y-67440352D01*
X70993820Y-67463429D01*
X70908768Y-67580491D01*
X70830128Y-67734832D01*
X70776597Y-67899582D01*
X70749500Y-68070669D01*
X64500500Y-68070669D01*
X64500500Y-65530669D01*
X70749500Y-65530669D01*
X70749500Y-65703891D01*
X70776598Y-65874981D01*
X70830127Y-66039725D01*
X70908768Y-66194068D01*
X71010586Y-66334208D01*
X71133072Y-66456694D01*
X71273212Y-66558512D01*
X71427555Y-66637153D01*
X71592299Y-66690682D01*
X71763389Y-66717780D01*
X71763390Y-66717780D01*
X72736610Y-66717780D01*
X72736611Y-66717780D01*
X72907701Y-66690682D01*
X73072445Y-66637153D01*
X73226788Y-66558512D01*
X73366928Y-66456694D01*
X73489414Y-66334208D01*
X73591232Y-66194068D01*
X73669873Y-66039725D01*
X73723402Y-65874981D01*
X73750500Y-65703891D01*
X73750500Y-65530669D01*
X73723402Y-65359579D01*
X73669873Y-65194835D01*
X73591232Y-65040492D01*
X73489414Y-64900352D01*
X73366928Y-64777866D01*
X73226788Y-64676048D01*
X73092220Y-64607483D01*
X73072447Y-64597408D01*
X73072446Y-64597407D01*
X73072445Y-64597407D01*
X72907701Y-64543878D01*
X72907699Y-64543877D01*
X72907698Y-64543877D01*
X72776271Y-64523061D01*
X72736611Y-64516780D01*
X71763389Y-64516780D01*
X71723728Y-64523061D01*
X71592302Y-64543877D01*
X71427552Y-64597408D01*
X71273211Y-64676048D01*
X71193256Y-64734139D01*
X71133072Y-64777866D01*
X71133070Y-64777868D01*
X71133069Y-64777868D01*
X71010588Y-64900349D01*
X71010588Y-64900350D01*
X71010586Y-64900352D01*
X70984950Y-64935637D01*
X70908768Y-65040491D01*
X70830128Y-65194832D01*
X70776597Y-65359582D01*
X70768295Y-65412000D01*
X70749500Y-65530669D01*
X64500500Y-65530669D01*
X64500500Y-62990669D01*
X70749500Y-62990669D01*
X70749500Y-63163890D01*
X70772242Y-63307483D01*
X70776598Y-63334981D01*
X70830127Y-63499725D01*
X70908768Y-63654068D01*
X71010586Y-63794208D01*
X71133072Y-63916694D01*
X71273212Y-64018512D01*
X71427555Y-64097153D01*
X71592299Y-64150682D01*
X71763389Y-64177780D01*
X71763390Y-64177780D01*
X72736610Y-64177780D01*
X72736611Y-64177780D01*
X72907701Y-64150682D01*
X73072445Y-64097153D01*
X73226788Y-64018512D01*
X73366928Y-63916694D01*
X73489414Y-63794208D01*
X73591232Y-63654068D01*
X73669873Y-63499725D01*
X73723402Y-63334981D01*
X73750500Y-63163891D01*
X73750500Y-62990669D01*
X73723402Y-62819579D01*
X73669873Y-62654835D01*
X73591232Y-62500492D01*
X73489414Y-62360352D01*
X73366928Y-62237866D01*
X73226788Y-62136048D01*
X73072445Y-62057407D01*
X72907701Y-62003878D01*
X72907699Y-62003877D01*
X72907698Y-62003877D01*
X72776271Y-61983061D01*
X72736611Y-61976780D01*
X71763389Y-61976780D01*
X71723728Y-61983061D01*
X71592302Y-62003877D01*
X71427552Y-62057408D01*
X71273211Y-62136048D01*
X71193256Y-62194139D01*
X71133072Y-62237866D01*
X71133070Y-62237868D01*
X71133069Y-62237868D01*
X71010588Y-62360349D01*
X71010588Y-62360350D01*
X71010586Y-62360352D01*
X70966859Y-62420536D01*
X70908768Y-62500491D01*
X70830128Y-62654832D01*
X70776597Y-62819582D01*
X70749500Y-62990669D01*
X64500500Y-62990669D01*
X64500500Y-60450669D01*
X70749500Y-60450669D01*
X70749500Y-60623891D01*
X70776598Y-60794981D01*
X70830127Y-60959725D01*
X70908768Y-61114068D01*
X71010586Y-61254208D01*
X71133072Y-61376694D01*
X71273212Y-61478512D01*
X71427555Y-61557153D01*
X71592299Y-61610682D01*
X71763389Y-61637780D01*
X71763390Y-61637780D01*
X72736610Y-61637780D01*
X72736611Y-61637780D01*
X72907701Y-61610682D01*
X73072445Y-61557153D01*
X73226788Y-61478512D01*
X73366928Y-61376694D01*
X73489414Y-61254208D01*
X73591232Y-61114068D01*
X73669873Y-60959725D01*
X73723402Y-60794981D01*
X73750500Y-60623891D01*
X73750500Y-60574986D01*
X82100001Y-60574986D01*
X82110494Y-60677697D01*
X82165641Y-60844119D01*
X82165643Y-60844124D01*
X82257684Y-60993345D01*
X82381654Y-61117315D01*
X82530875Y-61209356D01*
X82530880Y-61209358D01*
X82697302Y-61264505D01*
X82697309Y-61264506D01*
X82800019Y-61274999D01*
X82999999Y-61274999D01*
X83500000Y-61274999D01*
X83699972Y-61274999D01*
X83699986Y-61274998D01*
X83802697Y-61264505D01*
X83969119Y-61209358D01*
X83969124Y-61209356D01*
X84118345Y-61117315D01*
X84242315Y-60993345D01*
X84334356Y-60844124D01*
X84334358Y-60844119D01*
X84389505Y-60677697D01*
X84389506Y-60677690D01*
X84399999Y-60574986D01*
X84400000Y-60574973D01*
X84400000Y-60175000D01*
X83500000Y-60175000D01*
X83500000Y-61274999D01*
X82999999Y-61274999D01*
X83000000Y-61274998D01*
X83000000Y-60175000D01*
X82100001Y-60175000D01*
X82100001Y-60574986D01*
X73750500Y-60574986D01*
X73750500Y-60450669D01*
X73723402Y-60279579D01*
X73669873Y-60114835D01*
X73591232Y-59960492D01*
X73489414Y-59820352D01*
X73366928Y-59697866D01*
X73226788Y-59596048D01*
X73072445Y-59517407D01*
X72907701Y-59463878D01*
X72907699Y-59463877D01*
X72907698Y-59463877D01*
X72776271Y-59443061D01*
X72736611Y-59436780D01*
X71763389Y-59436780D01*
X71723728Y-59443061D01*
X71592302Y-59463877D01*
X71427552Y-59517408D01*
X71273211Y-59596048D01*
X71218399Y-59635872D01*
X71133072Y-59697866D01*
X71133070Y-59697868D01*
X71133069Y-59697868D01*
X71010588Y-59820349D01*
X71010588Y-59820350D01*
X71010586Y-59820352D01*
X71002946Y-59830868D01*
X70908768Y-59960491D01*
X70830128Y-60114832D01*
X70776597Y-60279582D01*
X70749500Y-60450669D01*
X64500500Y-60450669D01*
X64500500Y-59275013D01*
X82100000Y-59275013D01*
X82100000Y-59675000D01*
X83000000Y-59675000D01*
X83500000Y-59675000D01*
X84399999Y-59675000D01*
X84399999Y-59275028D01*
X84399998Y-59275013D01*
X84389505Y-59172302D01*
X84334358Y-59005880D01*
X84334356Y-59005875D01*
X84242315Y-58856654D01*
X84118345Y-58732684D01*
X83969124Y-58640643D01*
X83969119Y-58640641D01*
X83802697Y-58585494D01*
X83802690Y-58585493D01*
X83699986Y-58575000D01*
X83500000Y-58575000D01*
X83500000Y-59675000D01*
X83000000Y-59675000D01*
X83000000Y-58575000D01*
X82800029Y-58575000D01*
X82800012Y-58575001D01*
X82697302Y-58585494D01*
X82530880Y-58640641D01*
X82530875Y-58640643D01*
X82381654Y-58732684D01*
X82257684Y-58856654D01*
X82165643Y-59005875D01*
X82165641Y-59005880D01*
X82110494Y-59172302D01*
X82110493Y-59172309D01*
X82100000Y-59275013D01*
X64500500Y-59275013D01*
X64500500Y-57910669D01*
X70749500Y-57910669D01*
X70749500Y-58083891D01*
X70776598Y-58254981D01*
X70830127Y-58419725D01*
X70908768Y-58574068D01*
X71010586Y-58714208D01*
X71133072Y-58836694D01*
X71273212Y-58938512D01*
X71427555Y-59017153D01*
X71592299Y-59070682D01*
X71763389Y-59097780D01*
X71763390Y-59097780D01*
X72736610Y-59097780D01*
X72736611Y-59097780D01*
X72907701Y-59070682D01*
X73072445Y-59017153D01*
X73226788Y-58938512D01*
X73366928Y-58836694D01*
X73489414Y-58714208D01*
X73591232Y-58574068D01*
X73669873Y-58419725D01*
X73723402Y-58254981D01*
X73750500Y-58083891D01*
X73750500Y-57910669D01*
X73723402Y-57739579D01*
X73669873Y-57574835D01*
X73591232Y-57420492D01*
X73489414Y-57280352D01*
X73366928Y-57157866D01*
X73226788Y-57056048D01*
X73072445Y-56977407D01*
X72907701Y-56923878D01*
X72907699Y-56923877D01*
X72907698Y-56923877D01*
X72753784Y-56899500D01*
X72736611Y-56896780D01*
X71763389Y-56896780D01*
X71746216Y-56899500D01*
X71592302Y-56923877D01*
X71427552Y-56977408D01*
X71273211Y-57056048D01*
X71193256Y-57114139D01*
X71133072Y-57157866D01*
X71133070Y-57157868D01*
X71133069Y-57157868D01*
X71010588Y-57280349D01*
X71010588Y-57280350D01*
X71010586Y-57280352D01*
X71008610Y-57283072D01*
X70908768Y-57420491D01*
X70830128Y-57574832D01*
X70776597Y-57739582D01*
X70774948Y-57749996D01*
X70749500Y-57910669D01*
X64500500Y-57910669D01*
X64500500Y-54631902D01*
X66249500Y-54631902D01*
X66249500Y-54868097D01*
X66286446Y-55101368D01*
X66359433Y-55325996D01*
X66399494Y-55404619D01*
X66466657Y-55536433D01*
X66605483Y-55727510D01*
X66772490Y-55894517D01*
X66963567Y-56033343D01*
X67062991Y-56084002D01*
X67174003Y-56140566D01*
X67174005Y-56140566D01*
X67174008Y-56140568D01*
X67276538Y-56173882D01*
X67398631Y-56213553D01*
X67631903Y-56250500D01*
X67631908Y-56250500D01*
X67868097Y-56250500D01*
X68101368Y-56213553D01*
X68110764Y-56210500D01*
X68325992Y-56140568D01*
X68536433Y-56033343D01*
X68727510Y-55894517D01*
X68894517Y-55727510D01*
X69033343Y-55536433D01*
X69140568Y-55325992D01*
X69179140Y-55207279D01*
X70775884Y-55207279D01*
X70775885Y-55207280D01*
X71934314Y-55207280D01*
X71929920Y-55211674D01*
X71877259Y-55302886D01*
X71850000Y-55404619D01*
X71850000Y-55509941D01*
X71877259Y-55611674D01*
X71929920Y-55702886D01*
X71934314Y-55707280D01*
X70775885Y-55707280D01*
X70777085Y-55714864D01*
X70830591Y-55879535D01*
X70909195Y-56033804D01*
X71010967Y-56173882D01*
X71133397Y-56296312D01*
X71273475Y-56398084D01*
X71427742Y-56476688D01*
X71592415Y-56530194D01*
X71763429Y-56557280D01*
X72000000Y-56557280D01*
X72000000Y-55772966D01*
X72004394Y-55777360D01*
X72095606Y-55830021D01*
X72197339Y-55857280D01*
X72302661Y-55857280D01*
X72404394Y-55830021D01*
X72495606Y-55777360D01*
X72500000Y-55772966D01*
X72500000Y-56557280D01*
X72736571Y-56557280D01*
X72907584Y-56530194D01*
X73072257Y-56476688D01*
X73226524Y-56398084D01*
X73366602Y-56296312D01*
X73489032Y-56173882D01*
X73590804Y-56033804D01*
X73669408Y-55879535D01*
X73722914Y-55714864D01*
X73724115Y-55707280D01*
X72565686Y-55707280D01*
X72570080Y-55702886D01*
X72622741Y-55611674D01*
X72650000Y-55509941D01*
X72650000Y-55404619D01*
X72622741Y-55302886D01*
X72570080Y-55211674D01*
X72565686Y-55207280D01*
X73724115Y-55207280D01*
X73724115Y-55207279D01*
X73722914Y-55199695D01*
X73669408Y-55035024D01*
X73590804Y-54880755D01*
X73489032Y-54740677D01*
X73366602Y-54618247D01*
X73226524Y-54516475D01*
X73072257Y-54437871D01*
X72907584Y-54384365D01*
X72736571Y-54357280D01*
X72500000Y-54357280D01*
X72500000Y-55141594D01*
X72495606Y-55137200D01*
X72404394Y-55084539D01*
X72302661Y-55057280D01*
X72197339Y-55057280D01*
X72095606Y-55084539D01*
X72004394Y-55137200D01*
X72000000Y-55141594D01*
X72000000Y-54357280D01*
X71763429Y-54357280D01*
X71592415Y-54384365D01*
X71427742Y-54437871D01*
X71273475Y-54516475D01*
X71133397Y-54618247D01*
X71010967Y-54740677D01*
X70909195Y-54880755D01*
X70830591Y-55035024D01*
X70777085Y-55199695D01*
X70775884Y-55207279D01*
X69179140Y-55207279D01*
X69213553Y-55101368D01*
X69224061Y-55035024D01*
X69250500Y-54868097D01*
X69250500Y-54631902D01*
X69213553Y-54398631D01*
X69140566Y-54174003D01*
X69062479Y-54020750D01*
X69033343Y-53963567D01*
X68894517Y-53772490D01*
X68727510Y-53605483D01*
X68536433Y-53466657D01*
X68500484Y-53448340D01*
X68325996Y-53359433D01*
X68101368Y-53286446D01*
X67868097Y-53249500D01*
X67868092Y-53249500D01*
X67631908Y-53249500D01*
X67631903Y-53249500D01*
X67398631Y-53286446D01*
X67174003Y-53359433D01*
X66963566Y-53466657D01*
X66871417Y-53533608D01*
X66772490Y-53605483D01*
X66772488Y-53605485D01*
X66772487Y-53605485D01*
X66605485Y-53772487D01*
X66605485Y-53772488D01*
X66605483Y-53772490D01*
X66565130Y-53828031D01*
X66466657Y-53963566D01*
X66359433Y-54174003D01*
X66286446Y-54398631D01*
X66249500Y-54631902D01*
X64500500Y-54631902D01*
X64500500Y-54003750D01*
X64500726Y-53996263D01*
X64518271Y-53706205D01*
X64520076Y-53691340D01*
X64559867Y-53474211D01*
X64571780Y-53409197D01*
X64575364Y-53394663D01*
X64586342Y-53359433D01*
X64660696Y-53120822D01*
X64665998Y-53106841D01*
X64783731Y-52845249D01*
X64790676Y-52832016D01*
X64890263Y-52667279D01*
X70775884Y-52667279D01*
X70775885Y-52667280D01*
X71934314Y-52667280D01*
X71929920Y-52671674D01*
X71877259Y-52762886D01*
X71850000Y-52864619D01*
X71850000Y-52969941D01*
X71877259Y-53071674D01*
X71929920Y-53162886D01*
X71934314Y-53167280D01*
X70775885Y-53167280D01*
X70777085Y-53174864D01*
X70830591Y-53339535D01*
X70909195Y-53493804D01*
X71010967Y-53633882D01*
X71133397Y-53756312D01*
X71273475Y-53858084D01*
X71427742Y-53936688D01*
X71592415Y-53990194D01*
X71763429Y-54017280D01*
X72000000Y-54017280D01*
X72000000Y-53232966D01*
X72004394Y-53237360D01*
X72095606Y-53290021D01*
X72197339Y-53317280D01*
X72302661Y-53317280D01*
X72404394Y-53290021D01*
X72495606Y-53237360D01*
X72500000Y-53232966D01*
X72500000Y-54017280D01*
X72736571Y-54017280D01*
X72907584Y-53990194D01*
X73072257Y-53936688D01*
X73226524Y-53858084D01*
X73366602Y-53756312D01*
X73489032Y-53633882D01*
X73590804Y-53493804D01*
X73669408Y-53339535D01*
X73722914Y-53174864D01*
X73724115Y-53167280D01*
X72565686Y-53167280D01*
X72570080Y-53162886D01*
X72622741Y-53071674D01*
X72650000Y-52969941D01*
X72650000Y-52864619D01*
X72622741Y-52762886D01*
X72570080Y-52671674D01*
X72565686Y-52667280D01*
X73724115Y-52667280D01*
X73724115Y-52667279D01*
X73722914Y-52659695D01*
X73669408Y-52495024D01*
X73590804Y-52340755D01*
X73489032Y-52200677D01*
X73366602Y-52078247D01*
X73226524Y-51976475D01*
X73072257Y-51897871D01*
X72907584Y-51844365D01*
X72736571Y-51817280D01*
X72500000Y-51817280D01*
X72500000Y-52601594D01*
X72495606Y-52597200D01*
X72404394Y-52544539D01*
X72302661Y-52517280D01*
X72197339Y-52517280D01*
X72095606Y-52544539D01*
X72004394Y-52597200D01*
X72000000Y-52601594D01*
X72000000Y-51817280D01*
X71763429Y-51817280D01*
X71592415Y-51844365D01*
X71427742Y-51897871D01*
X71273475Y-51976475D01*
X71133397Y-52078247D01*
X71010967Y-52200677D01*
X70909195Y-52340755D01*
X70830591Y-52495024D01*
X70777085Y-52659695D01*
X70775884Y-52667279D01*
X64890263Y-52667279D01*
X64939080Y-52586526D01*
X64947567Y-52574230D01*
X65124480Y-52348417D01*
X65134395Y-52337226D01*
X65337226Y-52134395D01*
X65348417Y-52124480D01*
X65574230Y-51947567D01*
X65586526Y-51939080D01*
X65832016Y-51790676D01*
X65845249Y-51783731D01*
X66106841Y-51665998D01*
X66120822Y-51660696D01*
X66394668Y-51575362D01*
X66409197Y-51571780D01*
X66691344Y-51520075D01*
X66706201Y-51518271D01*
X66996264Y-51500726D01*
X67003751Y-51500500D01*
X67065892Y-51500500D01*
X117934108Y-51500500D01*
X117996249Y-51500500D01*
X118003736Y-51500726D01*
G37*
%TD.AperFunction*%
%TD*%
M02*
