%TF.GenerationSoftware,KiCad,Pcbnew,8.0.6*%
%TF.CreationDate,2024-11-05T11:41:53-08:00*%
%TF.ProjectId,Garage Door Opener,47617261-6765-4204-946f-6f72204f7065,rev?*%
%TF.SameCoordinates,Original*%
%TF.FileFunction,Drillmap*%
%TF.FilePolarity,Positive*%
%FSLAX45Y45*%
G04 Gerber Fmt 4.5, Leading zero omitted, Abs format (unit mm)*
G04 Created by KiCad (PCBNEW 8.0.6) date 2024-11-05 11:41:53*
%MOMM*%
%LPD*%
G01*
G04 APERTURE LIST*
%ADD10C,0.050000*%
%ADD11C,0.200000*%
%ADD12C,0.250000*%
G04 APERTURE END LIST*
D10*
X6700000Y-10800000D02*
G75*
G02*
X6400000Y-10500000I0J300000D01*
G01*
X12100000Y-10500000D02*
G75*
G02*
X11800000Y-10800000I-300000J0D01*
G01*
X6400000Y-5400000D02*
G75*
G02*
X6700000Y-5100000I300000J0D01*
G01*
X11800000Y-5100000D02*
G75*
G02*
X12100000Y-5400000I0J-300000D01*
G01*
X6400000Y-10500000D02*
X6400000Y-5400000D01*
X11800000Y-10800000D02*
X6700000Y-10800000D01*
X12100000Y-5400000D02*
X12100000Y-10500000D01*
X6700000Y-5100000D02*
X11800000Y-5100000D01*
D11*
D12*
X6650000Y-5350000D02*
X6900000Y-5600000D01*
X6900000Y-5350000D02*
X6650000Y-5600000D01*
X11600000Y-5350000D02*
X11850000Y-5600000D01*
X11850000Y-5350000D02*
X11600000Y-5600000D01*
D11*
X6658277Y-11113984D02*
X6658277Y-10913984D01*
X6658277Y-10913984D02*
X6705896Y-10913984D01*
X6705896Y-10913984D02*
X6734467Y-10923508D01*
X6734467Y-10923508D02*
X6753515Y-10942555D01*
X6753515Y-10942555D02*
X6763039Y-10961603D01*
X6763039Y-10961603D02*
X6772562Y-10999698D01*
X6772562Y-10999698D02*
X6772562Y-11028270D01*
X6772562Y-11028270D02*
X6763039Y-11066365D01*
X6763039Y-11066365D02*
X6753515Y-11085412D01*
X6753515Y-11085412D02*
X6734467Y-11104460D01*
X6734467Y-11104460D02*
X6705896Y-11113984D01*
X6705896Y-11113984D02*
X6658277Y-11113984D01*
X6858277Y-11113984D02*
X6858277Y-10980650D01*
X6858277Y-11018746D02*
X6867801Y-10999698D01*
X6867801Y-10999698D02*
X6877324Y-10990174D01*
X6877324Y-10990174D02*
X6896372Y-10980650D01*
X6896372Y-10980650D02*
X6915420Y-10980650D01*
X6982086Y-11113984D02*
X6982086Y-10980650D01*
X6982086Y-10913984D02*
X6972562Y-10923508D01*
X6972562Y-10923508D02*
X6982086Y-10933031D01*
X6982086Y-10933031D02*
X6991610Y-10923508D01*
X6991610Y-10923508D02*
X6982086Y-10913984D01*
X6982086Y-10913984D02*
X6982086Y-10933031D01*
X7105896Y-11113984D02*
X7086848Y-11104460D01*
X7086848Y-11104460D02*
X7077324Y-11085412D01*
X7077324Y-11085412D02*
X7077324Y-10913984D01*
X7210658Y-11113984D02*
X7191610Y-11104460D01*
X7191610Y-11104460D02*
X7182086Y-11085412D01*
X7182086Y-11085412D02*
X7182086Y-10913984D01*
X7439229Y-11113984D02*
X7439229Y-10913984D01*
X7439229Y-10913984D02*
X7505896Y-11056841D01*
X7505896Y-11056841D02*
X7572562Y-10913984D01*
X7572562Y-10913984D02*
X7572562Y-11113984D01*
X7753515Y-11113984D02*
X7753515Y-11009222D01*
X7753515Y-11009222D02*
X7743991Y-10990174D01*
X7743991Y-10990174D02*
X7724943Y-10980650D01*
X7724943Y-10980650D02*
X7686848Y-10980650D01*
X7686848Y-10980650D02*
X7667801Y-10990174D01*
X7753515Y-11104460D02*
X7734467Y-11113984D01*
X7734467Y-11113984D02*
X7686848Y-11113984D01*
X7686848Y-11113984D02*
X7667801Y-11104460D01*
X7667801Y-11104460D02*
X7658277Y-11085412D01*
X7658277Y-11085412D02*
X7658277Y-11066365D01*
X7658277Y-11066365D02*
X7667801Y-11047317D01*
X7667801Y-11047317D02*
X7686848Y-11037793D01*
X7686848Y-11037793D02*
X7734467Y-11037793D01*
X7734467Y-11037793D02*
X7753515Y-11028270D01*
X7848753Y-10980650D02*
X7848753Y-11180650D01*
X7848753Y-10990174D02*
X7867801Y-10980650D01*
X7867801Y-10980650D02*
X7905896Y-10980650D01*
X7905896Y-10980650D02*
X7924943Y-10990174D01*
X7924943Y-10990174D02*
X7934467Y-10999698D01*
X7934467Y-10999698D02*
X7943991Y-11018746D01*
X7943991Y-11018746D02*
X7943991Y-11075889D01*
X7943991Y-11075889D02*
X7934467Y-11094936D01*
X7934467Y-11094936D02*
X7924943Y-11104460D01*
X7924943Y-11104460D02*
X7905896Y-11113984D01*
X7905896Y-11113984D02*
X7867801Y-11113984D01*
X7867801Y-11113984D02*
X7848753Y-11104460D01*
X8029705Y-11094936D02*
X8039229Y-11104460D01*
X8039229Y-11104460D02*
X8029705Y-11113984D01*
X8029705Y-11113984D02*
X8020182Y-11104460D01*
X8020182Y-11104460D02*
X8029705Y-11094936D01*
X8029705Y-11094936D02*
X8029705Y-11113984D01*
X8029705Y-10990174D02*
X8039229Y-10999698D01*
X8039229Y-10999698D02*
X8029705Y-11009222D01*
X8029705Y-11009222D02*
X8020182Y-10999698D01*
X8020182Y-10999698D02*
X8029705Y-10990174D01*
X8029705Y-10990174D02*
X8029705Y-11009222D01*
X6197500Y-11342500D02*
X6397500Y-11542500D01*
X6397500Y-11342500D02*
X6197500Y-11542500D01*
X6648753Y-11353031D02*
X6658277Y-11343508D01*
X6658277Y-11343508D02*
X6677324Y-11333984D01*
X6677324Y-11333984D02*
X6724943Y-11333984D01*
X6724943Y-11333984D02*
X6743991Y-11343508D01*
X6743991Y-11343508D02*
X6753515Y-11353031D01*
X6753515Y-11353031D02*
X6763039Y-11372079D01*
X6763039Y-11372079D02*
X6763039Y-11391127D01*
X6763039Y-11391127D02*
X6753515Y-11419698D01*
X6753515Y-11419698D02*
X6639229Y-11533984D01*
X6639229Y-11533984D02*
X6763039Y-11533984D01*
X6848753Y-11514936D02*
X6858277Y-11524460D01*
X6858277Y-11524460D02*
X6848753Y-11533984D01*
X6848753Y-11533984D02*
X6839229Y-11524460D01*
X6839229Y-11524460D02*
X6848753Y-11514936D01*
X6848753Y-11514936D02*
X6848753Y-11533984D01*
X7039229Y-11333984D02*
X6943991Y-11333984D01*
X6943991Y-11333984D02*
X6934467Y-11429222D01*
X6934467Y-11429222D02*
X6943991Y-11419698D01*
X6943991Y-11419698D02*
X6963039Y-11410174D01*
X6963039Y-11410174D02*
X7010658Y-11410174D01*
X7010658Y-11410174D02*
X7029705Y-11419698D01*
X7029705Y-11419698D02*
X7039229Y-11429222D01*
X7039229Y-11429222D02*
X7048753Y-11448269D01*
X7048753Y-11448269D02*
X7048753Y-11495888D01*
X7048753Y-11495888D02*
X7039229Y-11514936D01*
X7039229Y-11514936D02*
X7029705Y-11524460D01*
X7029705Y-11524460D02*
X7010658Y-11533984D01*
X7010658Y-11533984D02*
X6963039Y-11533984D01*
X6963039Y-11533984D02*
X6943991Y-11524460D01*
X6943991Y-11524460D02*
X6934467Y-11514936D01*
X7172562Y-11333984D02*
X7191610Y-11333984D01*
X7191610Y-11333984D02*
X7210658Y-11343508D01*
X7210658Y-11343508D02*
X7220182Y-11353031D01*
X7220182Y-11353031D02*
X7229705Y-11372079D01*
X7229705Y-11372079D02*
X7239229Y-11410174D01*
X7239229Y-11410174D02*
X7239229Y-11457793D01*
X7239229Y-11457793D02*
X7229705Y-11495888D01*
X7229705Y-11495888D02*
X7220182Y-11514936D01*
X7220182Y-11514936D02*
X7210658Y-11524460D01*
X7210658Y-11524460D02*
X7191610Y-11533984D01*
X7191610Y-11533984D02*
X7172562Y-11533984D01*
X7172562Y-11533984D02*
X7153515Y-11524460D01*
X7153515Y-11524460D02*
X7143991Y-11514936D01*
X7143991Y-11514936D02*
X7134467Y-11495888D01*
X7134467Y-11495888D02*
X7124943Y-11457793D01*
X7124943Y-11457793D02*
X7124943Y-11410174D01*
X7124943Y-11410174D02*
X7134467Y-11372079D01*
X7134467Y-11372079D02*
X7143991Y-11353031D01*
X7143991Y-11353031D02*
X7153515Y-11343508D01*
X7153515Y-11343508D02*
X7172562Y-11333984D01*
X7363039Y-11333984D02*
X7382086Y-11333984D01*
X7382086Y-11333984D02*
X7401134Y-11343508D01*
X7401134Y-11343508D02*
X7410658Y-11353031D01*
X7410658Y-11353031D02*
X7420182Y-11372079D01*
X7420182Y-11372079D02*
X7429705Y-11410174D01*
X7429705Y-11410174D02*
X7429705Y-11457793D01*
X7429705Y-11457793D02*
X7420182Y-11495888D01*
X7420182Y-11495888D02*
X7410658Y-11514936D01*
X7410658Y-11514936D02*
X7401134Y-11524460D01*
X7401134Y-11524460D02*
X7382086Y-11533984D01*
X7382086Y-11533984D02*
X7363039Y-11533984D01*
X7363039Y-11533984D02*
X7343991Y-11524460D01*
X7343991Y-11524460D02*
X7334467Y-11514936D01*
X7334467Y-11514936D02*
X7324943Y-11495888D01*
X7324943Y-11495888D02*
X7315420Y-11457793D01*
X7315420Y-11457793D02*
X7315420Y-11410174D01*
X7315420Y-11410174D02*
X7324943Y-11372079D01*
X7324943Y-11372079D02*
X7334467Y-11353031D01*
X7334467Y-11353031D02*
X7343991Y-11343508D01*
X7343991Y-11343508D02*
X7363039Y-11333984D01*
X7515420Y-11533984D02*
X7515420Y-11400650D01*
X7515420Y-11419698D02*
X7524943Y-11410174D01*
X7524943Y-11410174D02*
X7543991Y-11400650D01*
X7543991Y-11400650D02*
X7572563Y-11400650D01*
X7572563Y-11400650D02*
X7591610Y-11410174D01*
X7591610Y-11410174D02*
X7601134Y-11429222D01*
X7601134Y-11429222D02*
X7601134Y-11533984D01*
X7601134Y-11429222D02*
X7610658Y-11410174D01*
X7610658Y-11410174D02*
X7629705Y-11400650D01*
X7629705Y-11400650D02*
X7658277Y-11400650D01*
X7658277Y-11400650D02*
X7677324Y-11410174D01*
X7677324Y-11410174D02*
X7686848Y-11429222D01*
X7686848Y-11429222D02*
X7686848Y-11533984D01*
X7782086Y-11533984D02*
X7782086Y-11400650D01*
X7782086Y-11419698D02*
X7791610Y-11410174D01*
X7791610Y-11410174D02*
X7810658Y-11400650D01*
X7810658Y-11400650D02*
X7839229Y-11400650D01*
X7839229Y-11400650D02*
X7858277Y-11410174D01*
X7858277Y-11410174D02*
X7867801Y-11429222D01*
X7867801Y-11429222D02*
X7867801Y-11533984D01*
X7867801Y-11429222D02*
X7877324Y-11410174D01*
X7877324Y-11410174D02*
X7896372Y-11400650D01*
X7896372Y-11400650D02*
X7924943Y-11400650D01*
X7924943Y-11400650D02*
X7943991Y-11410174D01*
X7943991Y-11410174D02*
X7953515Y-11429222D01*
X7953515Y-11429222D02*
X7953515Y-11533984D01*
X8343991Y-11324460D02*
X8172563Y-11581603D01*
X8601134Y-11333984D02*
X8620182Y-11333984D01*
X8620182Y-11333984D02*
X8639229Y-11343508D01*
X8639229Y-11343508D02*
X8648753Y-11353031D01*
X8648753Y-11353031D02*
X8658277Y-11372079D01*
X8658277Y-11372079D02*
X8667801Y-11410174D01*
X8667801Y-11410174D02*
X8667801Y-11457793D01*
X8667801Y-11457793D02*
X8658277Y-11495888D01*
X8658277Y-11495888D02*
X8648753Y-11514936D01*
X8648753Y-11514936D02*
X8639229Y-11524460D01*
X8639229Y-11524460D02*
X8620182Y-11533984D01*
X8620182Y-11533984D02*
X8601134Y-11533984D01*
X8601134Y-11533984D02*
X8582087Y-11524460D01*
X8582087Y-11524460D02*
X8572563Y-11514936D01*
X8572563Y-11514936D02*
X8563039Y-11495888D01*
X8563039Y-11495888D02*
X8553515Y-11457793D01*
X8553515Y-11457793D02*
X8553515Y-11410174D01*
X8553515Y-11410174D02*
X8563039Y-11372079D01*
X8563039Y-11372079D02*
X8572563Y-11353031D01*
X8572563Y-11353031D02*
X8582087Y-11343508D01*
X8582087Y-11343508D02*
X8601134Y-11333984D01*
X8753515Y-11514936D02*
X8763039Y-11524460D01*
X8763039Y-11524460D02*
X8753515Y-11533984D01*
X8753515Y-11533984D02*
X8743991Y-11524460D01*
X8743991Y-11524460D02*
X8753515Y-11514936D01*
X8753515Y-11514936D02*
X8753515Y-11533984D01*
X8886848Y-11333984D02*
X8905896Y-11333984D01*
X8905896Y-11333984D02*
X8924944Y-11343508D01*
X8924944Y-11343508D02*
X8934468Y-11353031D01*
X8934468Y-11353031D02*
X8943991Y-11372079D01*
X8943991Y-11372079D02*
X8953515Y-11410174D01*
X8953515Y-11410174D02*
X8953515Y-11457793D01*
X8953515Y-11457793D02*
X8943991Y-11495888D01*
X8943991Y-11495888D02*
X8934468Y-11514936D01*
X8934468Y-11514936D02*
X8924944Y-11524460D01*
X8924944Y-11524460D02*
X8905896Y-11533984D01*
X8905896Y-11533984D02*
X8886848Y-11533984D01*
X8886848Y-11533984D02*
X8867801Y-11524460D01*
X8867801Y-11524460D02*
X8858277Y-11514936D01*
X8858277Y-11514936D02*
X8848753Y-11495888D01*
X8848753Y-11495888D02*
X8839229Y-11457793D01*
X8839229Y-11457793D02*
X8839229Y-11410174D01*
X8839229Y-11410174D02*
X8848753Y-11372079D01*
X8848753Y-11372079D02*
X8858277Y-11353031D01*
X8858277Y-11353031D02*
X8867801Y-11343508D01*
X8867801Y-11343508D02*
X8886848Y-11333984D01*
X9048753Y-11533984D02*
X9086848Y-11533984D01*
X9086848Y-11533984D02*
X9105896Y-11524460D01*
X9105896Y-11524460D02*
X9115420Y-11514936D01*
X9115420Y-11514936D02*
X9134468Y-11486365D01*
X9134468Y-11486365D02*
X9143991Y-11448269D01*
X9143991Y-11448269D02*
X9143991Y-11372079D01*
X9143991Y-11372079D02*
X9134468Y-11353031D01*
X9134468Y-11353031D02*
X9124944Y-11343508D01*
X9124944Y-11343508D02*
X9105896Y-11333984D01*
X9105896Y-11333984D02*
X9067801Y-11333984D01*
X9067801Y-11333984D02*
X9048753Y-11343508D01*
X9048753Y-11343508D02*
X9039229Y-11353031D01*
X9039229Y-11353031D02*
X9029706Y-11372079D01*
X9029706Y-11372079D02*
X9029706Y-11419698D01*
X9029706Y-11419698D02*
X9039229Y-11438746D01*
X9039229Y-11438746D02*
X9048753Y-11448269D01*
X9048753Y-11448269D02*
X9067801Y-11457793D01*
X9067801Y-11457793D02*
X9105896Y-11457793D01*
X9105896Y-11457793D02*
X9124944Y-11448269D01*
X9124944Y-11448269D02*
X9134468Y-11438746D01*
X9134468Y-11438746D02*
X9143991Y-11419698D01*
X9258277Y-11419698D02*
X9239229Y-11410174D01*
X9239229Y-11410174D02*
X9229706Y-11400650D01*
X9229706Y-11400650D02*
X9220182Y-11381603D01*
X9220182Y-11381603D02*
X9220182Y-11372079D01*
X9220182Y-11372079D02*
X9229706Y-11353031D01*
X9229706Y-11353031D02*
X9239229Y-11343508D01*
X9239229Y-11343508D02*
X9258277Y-11333984D01*
X9258277Y-11333984D02*
X9296372Y-11333984D01*
X9296372Y-11333984D02*
X9315420Y-11343508D01*
X9315420Y-11343508D02*
X9324944Y-11353031D01*
X9324944Y-11353031D02*
X9334468Y-11372079D01*
X9334468Y-11372079D02*
X9334468Y-11381603D01*
X9334468Y-11381603D02*
X9324944Y-11400650D01*
X9324944Y-11400650D02*
X9315420Y-11410174D01*
X9315420Y-11410174D02*
X9296372Y-11419698D01*
X9296372Y-11419698D02*
X9258277Y-11419698D01*
X9258277Y-11419698D02*
X9239229Y-11429222D01*
X9239229Y-11429222D02*
X9229706Y-11438746D01*
X9229706Y-11438746D02*
X9220182Y-11457793D01*
X9220182Y-11457793D02*
X9220182Y-11495888D01*
X9220182Y-11495888D02*
X9229706Y-11514936D01*
X9229706Y-11514936D02*
X9239229Y-11524460D01*
X9239229Y-11524460D02*
X9258277Y-11533984D01*
X9258277Y-11533984D02*
X9296372Y-11533984D01*
X9296372Y-11533984D02*
X9315420Y-11524460D01*
X9315420Y-11524460D02*
X9324944Y-11514936D01*
X9324944Y-11514936D02*
X9334468Y-11495888D01*
X9334468Y-11495888D02*
X9334468Y-11457793D01*
X9334468Y-11457793D02*
X9324944Y-11438746D01*
X9324944Y-11438746D02*
X9315420Y-11429222D01*
X9315420Y-11429222D02*
X9296372Y-11419698D01*
X9505896Y-11400650D02*
X9505896Y-11533984D01*
X9458277Y-11324460D02*
X9410658Y-11467317D01*
X9410658Y-11467317D02*
X9534468Y-11467317D01*
X9601134Y-11333984D02*
X9601134Y-11372079D01*
X9677325Y-11333984D02*
X9677325Y-11372079D01*
X9972563Y-11610174D02*
X9963039Y-11600650D01*
X9963039Y-11600650D02*
X9943991Y-11572079D01*
X9943991Y-11572079D02*
X9934468Y-11553031D01*
X9934468Y-11553031D02*
X9924944Y-11524460D01*
X9924944Y-11524460D02*
X9915420Y-11476841D01*
X9915420Y-11476841D02*
X9915420Y-11438746D01*
X9915420Y-11438746D02*
X9924944Y-11391127D01*
X9924944Y-11391127D02*
X9934468Y-11362555D01*
X9934468Y-11362555D02*
X9943991Y-11343508D01*
X9943991Y-11343508D02*
X9963039Y-11314936D01*
X9963039Y-11314936D02*
X9972563Y-11305412D01*
X10039230Y-11353031D02*
X10048753Y-11343508D01*
X10048753Y-11343508D02*
X10067801Y-11333984D01*
X10067801Y-11333984D02*
X10115420Y-11333984D01*
X10115420Y-11333984D02*
X10134468Y-11343508D01*
X10134468Y-11343508D02*
X10143991Y-11353031D01*
X10143991Y-11353031D02*
X10153515Y-11372079D01*
X10153515Y-11372079D02*
X10153515Y-11391127D01*
X10153515Y-11391127D02*
X10143991Y-11419698D01*
X10143991Y-11419698D02*
X10029706Y-11533984D01*
X10029706Y-11533984D02*
X10153515Y-11533984D01*
X10391611Y-11533984D02*
X10391611Y-11333984D01*
X10477325Y-11533984D02*
X10477325Y-11429222D01*
X10477325Y-11429222D02*
X10467801Y-11410174D01*
X10467801Y-11410174D02*
X10448753Y-11400650D01*
X10448753Y-11400650D02*
X10420182Y-11400650D01*
X10420182Y-11400650D02*
X10401134Y-11410174D01*
X10401134Y-11410174D02*
X10391611Y-11419698D01*
X10601134Y-11533984D02*
X10582087Y-11524460D01*
X10582087Y-11524460D02*
X10572563Y-11514936D01*
X10572563Y-11514936D02*
X10563039Y-11495888D01*
X10563039Y-11495888D02*
X10563039Y-11438746D01*
X10563039Y-11438746D02*
X10572563Y-11419698D01*
X10572563Y-11419698D02*
X10582087Y-11410174D01*
X10582087Y-11410174D02*
X10601134Y-11400650D01*
X10601134Y-11400650D02*
X10629706Y-11400650D01*
X10629706Y-11400650D02*
X10648753Y-11410174D01*
X10648753Y-11410174D02*
X10658277Y-11419698D01*
X10658277Y-11419698D02*
X10667801Y-11438746D01*
X10667801Y-11438746D02*
X10667801Y-11495888D01*
X10667801Y-11495888D02*
X10658277Y-11514936D01*
X10658277Y-11514936D02*
X10648753Y-11524460D01*
X10648753Y-11524460D02*
X10629706Y-11533984D01*
X10629706Y-11533984D02*
X10601134Y-11533984D01*
X10782087Y-11533984D02*
X10763039Y-11524460D01*
X10763039Y-11524460D02*
X10753515Y-11505412D01*
X10753515Y-11505412D02*
X10753515Y-11333984D01*
X10934468Y-11524460D02*
X10915420Y-11533984D01*
X10915420Y-11533984D02*
X10877325Y-11533984D01*
X10877325Y-11533984D02*
X10858277Y-11524460D01*
X10858277Y-11524460D02*
X10848753Y-11505412D01*
X10848753Y-11505412D02*
X10848753Y-11429222D01*
X10848753Y-11429222D02*
X10858277Y-11410174D01*
X10858277Y-11410174D02*
X10877325Y-11400650D01*
X10877325Y-11400650D02*
X10915420Y-11400650D01*
X10915420Y-11400650D02*
X10934468Y-11410174D01*
X10934468Y-11410174D02*
X10943992Y-11429222D01*
X10943992Y-11429222D02*
X10943992Y-11448269D01*
X10943992Y-11448269D02*
X10848753Y-11467317D01*
X11020182Y-11524460D02*
X11039230Y-11533984D01*
X11039230Y-11533984D02*
X11077325Y-11533984D01*
X11077325Y-11533984D02*
X11096373Y-11524460D01*
X11096373Y-11524460D02*
X11105896Y-11505412D01*
X11105896Y-11505412D02*
X11105896Y-11495888D01*
X11105896Y-11495888D02*
X11096373Y-11476841D01*
X11096373Y-11476841D02*
X11077325Y-11467317D01*
X11077325Y-11467317D02*
X11048753Y-11467317D01*
X11048753Y-11467317D02*
X11029706Y-11457793D01*
X11029706Y-11457793D02*
X11020182Y-11438746D01*
X11020182Y-11438746D02*
X11020182Y-11429222D01*
X11020182Y-11429222D02*
X11029706Y-11410174D01*
X11029706Y-11410174D02*
X11048753Y-11400650D01*
X11048753Y-11400650D02*
X11077325Y-11400650D01*
X11077325Y-11400650D02*
X11096373Y-11410174D01*
X11172563Y-11610174D02*
X11182087Y-11600650D01*
X11182087Y-11600650D02*
X11201134Y-11572079D01*
X11201134Y-11572079D02*
X11210658Y-11553031D01*
X11210658Y-11553031D02*
X11220182Y-11524460D01*
X11220182Y-11524460D02*
X11229706Y-11476841D01*
X11229706Y-11476841D02*
X11229706Y-11438746D01*
X11229706Y-11438746D02*
X11220182Y-11391127D01*
X11220182Y-11391127D02*
X11210658Y-11362555D01*
X11210658Y-11362555D02*
X11201134Y-11343508D01*
X11201134Y-11343508D02*
X11182087Y-11314936D01*
X11182087Y-11314936D02*
X11172563Y-11305412D01*
X11534468Y-11610174D02*
X11524944Y-11600650D01*
X11524944Y-11600650D02*
X11505896Y-11572079D01*
X11505896Y-11572079D02*
X11496372Y-11553031D01*
X11496372Y-11553031D02*
X11486849Y-11524460D01*
X11486849Y-11524460D02*
X11477325Y-11476841D01*
X11477325Y-11476841D02*
X11477325Y-11438746D01*
X11477325Y-11438746D02*
X11486849Y-11391127D01*
X11486849Y-11391127D02*
X11496372Y-11362555D01*
X11496372Y-11362555D02*
X11505896Y-11343508D01*
X11505896Y-11343508D02*
X11524944Y-11314936D01*
X11524944Y-11314936D02*
X11534468Y-11305412D01*
X11610658Y-11400650D02*
X11610658Y-11533984D01*
X11610658Y-11419698D02*
X11620182Y-11410174D01*
X11620182Y-11410174D02*
X11639230Y-11400650D01*
X11639230Y-11400650D02*
X11667801Y-11400650D01*
X11667801Y-11400650D02*
X11686849Y-11410174D01*
X11686849Y-11410174D02*
X11696372Y-11429222D01*
X11696372Y-11429222D02*
X11696372Y-11533984D01*
X11820182Y-11533984D02*
X11801134Y-11524460D01*
X11801134Y-11524460D02*
X11791611Y-11514936D01*
X11791611Y-11514936D02*
X11782087Y-11495888D01*
X11782087Y-11495888D02*
X11782087Y-11438746D01*
X11782087Y-11438746D02*
X11791611Y-11419698D01*
X11791611Y-11419698D02*
X11801134Y-11410174D01*
X11801134Y-11410174D02*
X11820182Y-11400650D01*
X11820182Y-11400650D02*
X11848753Y-11400650D01*
X11848753Y-11400650D02*
X11867801Y-11410174D01*
X11867801Y-11410174D02*
X11877325Y-11419698D01*
X11877325Y-11419698D02*
X11886849Y-11438746D01*
X11886849Y-11438746D02*
X11886849Y-11495888D01*
X11886849Y-11495888D02*
X11877325Y-11514936D01*
X11877325Y-11514936D02*
X11867801Y-11524460D01*
X11867801Y-11524460D02*
X11848753Y-11533984D01*
X11848753Y-11533984D02*
X11820182Y-11533984D01*
X11943992Y-11400650D02*
X12020182Y-11400650D01*
X11972563Y-11333984D02*
X11972563Y-11505412D01*
X11972563Y-11505412D02*
X11982087Y-11524460D01*
X11982087Y-11524460D02*
X12001134Y-11533984D01*
X12001134Y-11533984D02*
X12020182Y-11533984D01*
X12239230Y-11400650D02*
X12239230Y-11600650D01*
X12239230Y-11410174D02*
X12258277Y-11400650D01*
X12258277Y-11400650D02*
X12296373Y-11400650D01*
X12296373Y-11400650D02*
X12315420Y-11410174D01*
X12315420Y-11410174D02*
X12324944Y-11419698D01*
X12324944Y-11419698D02*
X12334468Y-11438746D01*
X12334468Y-11438746D02*
X12334468Y-11495888D01*
X12334468Y-11495888D02*
X12324944Y-11514936D01*
X12324944Y-11514936D02*
X12315420Y-11524460D01*
X12315420Y-11524460D02*
X12296373Y-11533984D01*
X12296373Y-11533984D02*
X12258277Y-11533984D01*
X12258277Y-11533984D02*
X12239230Y-11524460D01*
X12448753Y-11533984D02*
X12429706Y-11524460D01*
X12429706Y-11524460D02*
X12420182Y-11505412D01*
X12420182Y-11505412D02*
X12420182Y-11333984D01*
X12610658Y-11533984D02*
X12610658Y-11429222D01*
X12610658Y-11429222D02*
X12601134Y-11410174D01*
X12601134Y-11410174D02*
X12582087Y-11400650D01*
X12582087Y-11400650D02*
X12543992Y-11400650D01*
X12543992Y-11400650D02*
X12524944Y-11410174D01*
X12610658Y-11524460D02*
X12591611Y-11533984D01*
X12591611Y-11533984D02*
X12543992Y-11533984D01*
X12543992Y-11533984D02*
X12524944Y-11524460D01*
X12524944Y-11524460D02*
X12515420Y-11505412D01*
X12515420Y-11505412D02*
X12515420Y-11486365D01*
X12515420Y-11486365D02*
X12524944Y-11467317D01*
X12524944Y-11467317D02*
X12543992Y-11457793D01*
X12543992Y-11457793D02*
X12591611Y-11457793D01*
X12591611Y-11457793D02*
X12610658Y-11448269D01*
X12677325Y-11400650D02*
X12753515Y-11400650D01*
X12705896Y-11333984D02*
X12705896Y-11505412D01*
X12705896Y-11505412D02*
X12715420Y-11524460D01*
X12715420Y-11524460D02*
X12734468Y-11533984D01*
X12734468Y-11533984D02*
X12753515Y-11533984D01*
X12896373Y-11524460D02*
X12877325Y-11533984D01*
X12877325Y-11533984D02*
X12839230Y-11533984D01*
X12839230Y-11533984D02*
X12820182Y-11524460D01*
X12820182Y-11524460D02*
X12810658Y-11505412D01*
X12810658Y-11505412D02*
X12810658Y-11429222D01*
X12810658Y-11429222D02*
X12820182Y-11410174D01*
X12820182Y-11410174D02*
X12839230Y-11400650D01*
X12839230Y-11400650D02*
X12877325Y-11400650D01*
X12877325Y-11400650D02*
X12896373Y-11410174D01*
X12896373Y-11410174D02*
X12905896Y-11429222D01*
X12905896Y-11429222D02*
X12905896Y-11448269D01*
X12905896Y-11448269D02*
X12810658Y-11467317D01*
X13077325Y-11533984D02*
X13077325Y-11333984D01*
X13077325Y-11524460D02*
X13058277Y-11533984D01*
X13058277Y-11533984D02*
X13020182Y-11533984D01*
X13020182Y-11533984D02*
X13001134Y-11524460D01*
X13001134Y-11524460D02*
X12991611Y-11514936D01*
X12991611Y-11514936D02*
X12982087Y-11495888D01*
X12982087Y-11495888D02*
X12982087Y-11438746D01*
X12982087Y-11438746D02*
X12991611Y-11419698D01*
X12991611Y-11419698D02*
X13001134Y-11410174D01*
X13001134Y-11410174D02*
X13020182Y-11400650D01*
X13020182Y-11400650D02*
X13058277Y-11400650D01*
X13058277Y-11400650D02*
X13077325Y-11410174D01*
X13153515Y-11610174D02*
X13163039Y-11600650D01*
X13163039Y-11600650D02*
X13182087Y-11572079D01*
X13182087Y-11572079D02*
X13191611Y-11553031D01*
X13191611Y-11553031D02*
X13201134Y-11524460D01*
X13201134Y-11524460D02*
X13210658Y-11476841D01*
X13210658Y-11476841D02*
X13210658Y-11438746D01*
X13210658Y-11438746D02*
X13201134Y-11391127D01*
X13201134Y-11391127D02*
X13191611Y-11362555D01*
X13191611Y-11362555D02*
X13182087Y-11343508D01*
X13182087Y-11343508D02*
X13163039Y-11314936D01*
X13163039Y-11314936D02*
X13153515Y-11305412D01*
M02*
