%TF.GenerationSoftware,KiCad,Pcbnew,8.0.6*%
%TF.CreationDate,2024-11-20T16:48:10-08:00*%
%TF.ProjectId,Garage Door Opener,47617261-6765-4204-946f-6f72204f7065,rev?*%
%TF.SameCoordinates,Original*%
%TF.FileFunction,Legend,Bot*%
%TF.FilePolarity,Positive*%
%FSLAX46Y46*%
G04 Gerber Fmt 4.6, Leading zero omitted, Abs format (unit mm)*
G04 Created by KiCad (PCBNEW 8.0.6) date 2024-11-20 16:48:10*
%MOMM*%
%LPD*%
G01*
G04 APERTURE LIST*
%ADD10C,0.150000*%
G04 APERTURE END LIST*
D10*
X74433219Y-68654841D02*
X74337981Y-68702460D01*
X74337981Y-68702460D02*
X74195124Y-68702460D01*
X74195124Y-68702460D02*
X74052267Y-68654841D01*
X74052267Y-68654841D02*
X73957029Y-68559603D01*
X73957029Y-68559603D02*
X73909410Y-68464365D01*
X73909410Y-68464365D02*
X73861791Y-68273889D01*
X73861791Y-68273889D02*
X73861791Y-68131032D01*
X73861791Y-68131032D02*
X73909410Y-67940556D01*
X73909410Y-67940556D02*
X73957029Y-67845318D01*
X73957029Y-67845318D02*
X74052267Y-67750080D01*
X74052267Y-67750080D02*
X74195124Y-67702460D01*
X74195124Y-67702460D02*
X74290362Y-67702460D01*
X74290362Y-67702460D02*
X74433219Y-67750080D01*
X74433219Y-67750080D02*
X74480838Y-67797699D01*
X74480838Y-67797699D02*
X74480838Y-68131032D01*
X74480838Y-68131032D02*
X74290362Y-68131032D01*
X74909410Y-67702460D02*
X74909410Y-68702460D01*
X74909410Y-68702460D02*
X75290362Y-68702460D01*
X75290362Y-68702460D02*
X75385600Y-68654841D01*
X75385600Y-68654841D02*
X75433219Y-68607222D01*
X75433219Y-68607222D02*
X75480838Y-68511984D01*
X75480838Y-68511984D02*
X75480838Y-68369127D01*
X75480838Y-68369127D02*
X75433219Y-68273889D01*
X75433219Y-68273889D02*
X75385600Y-68226270D01*
X75385600Y-68226270D02*
X75290362Y-68178651D01*
X75290362Y-68178651D02*
X74909410Y-68178651D01*
X75909410Y-67702460D02*
X75909410Y-68702460D01*
X76576076Y-68702460D02*
X76766552Y-68702460D01*
X76766552Y-68702460D02*
X76861790Y-68654841D01*
X76861790Y-68654841D02*
X76957028Y-68559603D01*
X76957028Y-68559603D02*
X77004647Y-68369127D01*
X77004647Y-68369127D02*
X77004647Y-68035794D01*
X77004647Y-68035794D02*
X76957028Y-67845318D01*
X76957028Y-67845318D02*
X76861790Y-67750080D01*
X76861790Y-67750080D02*
X76766552Y-67702460D01*
X76766552Y-67702460D02*
X76576076Y-67702460D01*
X76576076Y-67702460D02*
X76480838Y-67750080D01*
X76480838Y-67750080D02*
X76385600Y-67845318D01*
X76385600Y-67845318D02*
X76337981Y-68035794D01*
X76337981Y-68035794D02*
X76337981Y-68369127D01*
X76337981Y-68369127D02*
X76385600Y-68559603D01*
X76385600Y-68559603D02*
X76480838Y-68654841D01*
X76480838Y-68654841D02*
X76576076Y-68702460D01*
X77861790Y-68369127D02*
X77861790Y-67702460D01*
X77623695Y-68750080D02*
X77385600Y-68035794D01*
X77385600Y-68035794D02*
X78004647Y-68035794D01*
X78528457Y-68273889D02*
X78433219Y-68321508D01*
X78433219Y-68321508D02*
X78385600Y-68369127D01*
X78385600Y-68369127D02*
X78337981Y-68464365D01*
X78337981Y-68464365D02*
X78337981Y-68511984D01*
X78337981Y-68511984D02*
X78385600Y-68607222D01*
X78385600Y-68607222D02*
X78433219Y-68654841D01*
X78433219Y-68654841D02*
X78528457Y-68702460D01*
X78528457Y-68702460D02*
X78718933Y-68702460D01*
X78718933Y-68702460D02*
X78814171Y-68654841D01*
X78814171Y-68654841D02*
X78861790Y-68607222D01*
X78861790Y-68607222D02*
X78909409Y-68511984D01*
X78909409Y-68511984D02*
X78909409Y-68464365D01*
X78909409Y-68464365D02*
X78861790Y-68369127D01*
X78861790Y-68369127D02*
X78814171Y-68321508D01*
X78814171Y-68321508D02*
X78718933Y-68273889D01*
X78718933Y-68273889D02*
X78528457Y-68273889D01*
X78528457Y-68273889D02*
X78433219Y-68226270D01*
X78433219Y-68226270D02*
X78385600Y-68178651D01*
X78385600Y-68178651D02*
X78337981Y-68083413D01*
X78337981Y-68083413D02*
X78337981Y-67892937D01*
X78337981Y-67892937D02*
X78385600Y-67797699D01*
X78385600Y-67797699D02*
X78433219Y-67750080D01*
X78433219Y-67750080D02*
X78528457Y-67702460D01*
X78528457Y-67702460D02*
X78718933Y-67702460D01*
X78718933Y-67702460D02*
X78814171Y-67750080D01*
X78814171Y-67750080D02*
X78861790Y-67797699D01*
X78861790Y-67797699D02*
X78909409Y-67892937D01*
X78909409Y-67892937D02*
X78909409Y-68083413D01*
X78909409Y-68083413D02*
X78861790Y-68178651D01*
X78861790Y-68178651D02*
X78814171Y-68226270D01*
X78814171Y-68226270D02*
X78718933Y-68273889D01*
X93709635Y-104262460D02*
X94328682Y-104262460D01*
X94328682Y-104262460D02*
X93995349Y-103881508D01*
X93995349Y-103881508D02*
X94138206Y-103881508D01*
X94138206Y-103881508D02*
X94233444Y-103833889D01*
X94233444Y-103833889D02*
X94281063Y-103786270D01*
X94281063Y-103786270D02*
X94328682Y-103691032D01*
X94328682Y-103691032D02*
X94328682Y-103452937D01*
X94328682Y-103452937D02*
X94281063Y-103357699D01*
X94281063Y-103357699D02*
X94233444Y-103310080D01*
X94233444Y-103310080D02*
X94138206Y-103262460D01*
X94138206Y-103262460D02*
X93852492Y-103262460D01*
X93852492Y-103262460D02*
X93757254Y-103310080D01*
X93757254Y-103310080D02*
X93709635Y-103357699D01*
X94614397Y-104262460D02*
X94947730Y-103262460D01*
X94947730Y-103262460D02*
X95281063Y-104262460D01*
X95519159Y-104262460D02*
X96138206Y-104262460D01*
X96138206Y-104262460D02*
X95804873Y-103881508D01*
X95804873Y-103881508D02*
X95947730Y-103881508D01*
X95947730Y-103881508D02*
X96042968Y-103833889D01*
X96042968Y-103833889D02*
X96090587Y-103786270D01*
X96090587Y-103786270D02*
X96138206Y-103691032D01*
X96138206Y-103691032D02*
X96138206Y-103452937D01*
X96138206Y-103452937D02*
X96090587Y-103357699D01*
X96090587Y-103357699D02*
X96042968Y-103310080D01*
X96042968Y-103310080D02*
X95947730Y-103262460D01*
X95947730Y-103262460D02*
X95662016Y-103262460D01*
X95662016Y-103262460D02*
X95566778Y-103310080D01*
X95566778Y-103310080D02*
X95519159Y-103357699D01*
X74433219Y-58494841D02*
X74337981Y-58542460D01*
X74337981Y-58542460D02*
X74195124Y-58542460D01*
X74195124Y-58542460D02*
X74052267Y-58494841D01*
X74052267Y-58494841D02*
X73957029Y-58399603D01*
X73957029Y-58399603D02*
X73909410Y-58304365D01*
X73909410Y-58304365D02*
X73861791Y-58113889D01*
X73861791Y-58113889D02*
X73861791Y-57971032D01*
X73861791Y-57971032D02*
X73909410Y-57780556D01*
X73909410Y-57780556D02*
X73957029Y-57685318D01*
X73957029Y-57685318D02*
X74052267Y-57590080D01*
X74052267Y-57590080D02*
X74195124Y-57542460D01*
X74195124Y-57542460D02*
X74290362Y-57542460D01*
X74290362Y-57542460D02*
X74433219Y-57590080D01*
X74433219Y-57590080D02*
X74480838Y-57637699D01*
X74480838Y-57637699D02*
X74480838Y-57971032D01*
X74480838Y-57971032D02*
X74290362Y-57971032D01*
X74909410Y-57542460D02*
X74909410Y-58542460D01*
X74909410Y-58542460D02*
X75290362Y-58542460D01*
X75290362Y-58542460D02*
X75385600Y-58494841D01*
X75385600Y-58494841D02*
X75433219Y-58447222D01*
X75433219Y-58447222D02*
X75480838Y-58351984D01*
X75480838Y-58351984D02*
X75480838Y-58209127D01*
X75480838Y-58209127D02*
X75433219Y-58113889D01*
X75433219Y-58113889D02*
X75385600Y-58066270D01*
X75385600Y-58066270D02*
X75290362Y-58018651D01*
X75290362Y-58018651D02*
X74909410Y-58018651D01*
X75909410Y-57542460D02*
X75909410Y-58542460D01*
X76576076Y-58542460D02*
X76766552Y-58542460D01*
X76766552Y-58542460D02*
X76861790Y-58494841D01*
X76861790Y-58494841D02*
X76957028Y-58399603D01*
X76957028Y-58399603D02*
X77004647Y-58209127D01*
X77004647Y-58209127D02*
X77004647Y-57875794D01*
X77004647Y-57875794D02*
X76957028Y-57685318D01*
X76957028Y-57685318D02*
X76861790Y-57590080D01*
X76861790Y-57590080D02*
X76766552Y-57542460D01*
X76766552Y-57542460D02*
X76576076Y-57542460D01*
X76576076Y-57542460D02*
X76480838Y-57590080D01*
X76480838Y-57590080D02*
X76385600Y-57685318D01*
X76385600Y-57685318D02*
X76337981Y-57875794D01*
X76337981Y-57875794D02*
X76337981Y-58209127D01*
X76337981Y-58209127D02*
X76385600Y-58399603D01*
X76385600Y-58399603D02*
X76480838Y-58494841D01*
X76480838Y-58494841D02*
X76576076Y-58542460D01*
X77957028Y-57542460D02*
X77385600Y-57542460D01*
X77671314Y-57542460D02*
X77671314Y-58542460D01*
X77671314Y-58542460D02*
X77576076Y-58399603D01*
X77576076Y-58399603D02*
X77480838Y-58304365D01*
X77480838Y-58304365D02*
X77385600Y-58256746D01*
X78433219Y-57542460D02*
X78623695Y-57542460D01*
X78623695Y-57542460D02*
X78718933Y-57590080D01*
X78718933Y-57590080D02*
X78766552Y-57637699D01*
X78766552Y-57637699D02*
X78861790Y-57780556D01*
X78861790Y-57780556D02*
X78909409Y-57971032D01*
X78909409Y-57971032D02*
X78909409Y-58351984D01*
X78909409Y-58351984D02*
X78861790Y-58447222D01*
X78861790Y-58447222D02*
X78814171Y-58494841D01*
X78814171Y-58494841D02*
X78718933Y-58542460D01*
X78718933Y-58542460D02*
X78528457Y-58542460D01*
X78528457Y-58542460D02*
X78433219Y-58494841D01*
X78433219Y-58494841D02*
X78385600Y-58447222D01*
X78385600Y-58447222D02*
X78337981Y-58351984D01*
X78337981Y-58351984D02*
X78337981Y-58113889D01*
X78337981Y-58113889D02*
X78385600Y-58018651D01*
X78385600Y-58018651D02*
X78433219Y-57971032D01*
X78433219Y-57971032D02*
X78528457Y-57923413D01*
X78528457Y-57923413D02*
X78718933Y-57923413D01*
X78718933Y-57923413D02*
X78814171Y-57971032D01*
X78814171Y-57971032D02*
X78861790Y-58018651D01*
X78861790Y-58018651D02*
X78909409Y-58113889D01*
X91662016Y-63574841D02*
X91566778Y-63622460D01*
X91566778Y-63622460D02*
X91423921Y-63622460D01*
X91423921Y-63622460D02*
X91281064Y-63574841D01*
X91281064Y-63574841D02*
X91185826Y-63479603D01*
X91185826Y-63479603D02*
X91138207Y-63384365D01*
X91138207Y-63384365D02*
X91090588Y-63193889D01*
X91090588Y-63193889D02*
X91090588Y-63051032D01*
X91090588Y-63051032D02*
X91138207Y-62860556D01*
X91138207Y-62860556D02*
X91185826Y-62765318D01*
X91185826Y-62765318D02*
X91281064Y-62670080D01*
X91281064Y-62670080D02*
X91423921Y-62622460D01*
X91423921Y-62622460D02*
X91519159Y-62622460D01*
X91519159Y-62622460D02*
X91662016Y-62670080D01*
X91662016Y-62670080D02*
X91709635Y-62717699D01*
X91709635Y-62717699D02*
X91709635Y-63051032D01*
X91709635Y-63051032D02*
X91519159Y-63051032D01*
X92138207Y-62622460D02*
X92138207Y-63622460D01*
X92138207Y-63622460D02*
X92519159Y-63622460D01*
X92519159Y-63622460D02*
X92614397Y-63574841D01*
X92614397Y-63574841D02*
X92662016Y-63527222D01*
X92662016Y-63527222D02*
X92709635Y-63431984D01*
X92709635Y-63431984D02*
X92709635Y-63289127D01*
X92709635Y-63289127D02*
X92662016Y-63193889D01*
X92662016Y-63193889D02*
X92614397Y-63146270D01*
X92614397Y-63146270D02*
X92519159Y-63098651D01*
X92519159Y-63098651D02*
X92138207Y-63098651D01*
X93138207Y-62622460D02*
X93138207Y-63622460D01*
X93804873Y-63622460D02*
X93995349Y-63622460D01*
X93995349Y-63622460D02*
X94090587Y-63574841D01*
X94090587Y-63574841D02*
X94185825Y-63479603D01*
X94185825Y-63479603D02*
X94233444Y-63289127D01*
X94233444Y-63289127D02*
X94233444Y-62955794D01*
X94233444Y-62955794D02*
X94185825Y-62765318D01*
X94185825Y-62765318D02*
X94090587Y-62670080D01*
X94090587Y-62670080D02*
X93995349Y-62622460D01*
X93995349Y-62622460D02*
X93804873Y-62622460D01*
X93804873Y-62622460D02*
X93709635Y-62670080D01*
X93709635Y-62670080D02*
X93614397Y-62765318D01*
X93614397Y-62765318D02*
X93566778Y-62955794D01*
X93566778Y-62955794D02*
X93566778Y-63289127D01*
X93566778Y-63289127D02*
X93614397Y-63479603D01*
X93614397Y-63479603D02*
X93709635Y-63574841D01*
X93709635Y-63574841D02*
X93804873Y-63622460D01*
X95185825Y-62622460D02*
X94614397Y-62622460D01*
X94900111Y-62622460D02*
X94900111Y-63622460D01*
X94900111Y-63622460D02*
X94804873Y-63479603D01*
X94804873Y-63479603D02*
X94709635Y-63384365D01*
X94709635Y-63384365D02*
X94614397Y-63336746D01*
X95566778Y-63527222D02*
X95614397Y-63574841D01*
X95614397Y-63574841D02*
X95709635Y-63622460D01*
X95709635Y-63622460D02*
X95947730Y-63622460D01*
X95947730Y-63622460D02*
X96042968Y-63574841D01*
X96042968Y-63574841D02*
X96090587Y-63527222D01*
X96090587Y-63527222D02*
X96138206Y-63431984D01*
X96138206Y-63431984D02*
X96138206Y-63336746D01*
X96138206Y-63336746D02*
X96090587Y-63193889D01*
X96090587Y-63193889D02*
X95519159Y-62622460D01*
X95519159Y-62622460D02*
X96138206Y-62622460D01*
X91662016Y-88974841D02*
X91566778Y-89022460D01*
X91566778Y-89022460D02*
X91423921Y-89022460D01*
X91423921Y-89022460D02*
X91281064Y-88974841D01*
X91281064Y-88974841D02*
X91185826Y-88879603D01*
X91185826Y-88879603D02*
X91138207Y-88784365D01*
X91138207Y-88784365D02*
X91090588Y-88593889D01*
X91090588Y-88593889D02*
X91090588Y-88451032D01*
X91090588Y-88451032D02*
X91138207Y-88260556D01*
X91138207Y-88260556D02*
X91185826Y-88165318D01*
X91185826Y-88165318D02*
X91281064Y-88070080D01*
X91281064Y-88070080D02*
X91423921Y-88022460D01*
X91423921Y-88022460D02*
X91519159Y-88022460D01*
X91519159Y-88022460D02*
X91662016Y-88070080D01*
X91662016Y-88070080D02*
X91709635Y-88117699D01*
X91709635Y-88117699D02*
X91709635Y-88451032D01*
X91709635Y-88451032D02*
X91519159Y-88451032D01*
X92138207Y-88022460D02*
X92138207Y-89022460D01*
X92138207Y-89022460D02*
X92519159Y-89022460D01*
X92519159Y-89022460D02*
X92614397Y-88974841D01*
X92614397Y-88974841D02*
X92662016Y-88927222D01*
X92662016Y-88927222D02*
X92709635Y-88831984D01*
X92709635Y-88831984D02*
X92709635Y-88689127D01*
X92709635Y-88689127D02*
X92662016Y-88593889D01*
X92662016Y-88593889D02*
X92614397Y-88546270D01*
X92614397Y-88546270D02*
X92519159Y-88498651D01*
X92519159Y-88498651D02*
X92138207Y-88498651D01*
X93138207Y-88022460D02*
X93138207Y-89022460D01*
X93804873Y-89022460D02*
X93995349Y-89022460D01*
X93995349Y-89022460D02*
X94090587Y-88974841D01*
X94090587Y-88974841D02*
X94185825Y-88879603D01*
X94185825Y-88879603D02*
X94233444Y-88689127D01*
X94233444Y-88689127D02*
X94233444Y-88355794D01*
X94233444Y-88355794D02*
X94185825Y-88165318D01*
X94185825Y-88165318D02*
X94090587Y-88070080D01*
X94090587Y-88070080D02*
X93995349Y-88022460D01*
X93995349Y-88022460D02*
X93804873Y-88022460D01*
X93804873Y-88022460D02*
X93709635Y-88070080D01*
X93709635Y-88070080D02*
X93614397Y-88165318D01*
X93614397Y-88165318D02*
X93566778Y-88355794D01*
X93566778Y-88355794D02*
X93566778Y-88689127D01*
X93566778Y-88689127D02*
X93614397Y-88879603D01*
X93614397Y-88879603D02*
X93709635Y-88974841D01*
X93709635Y-88974841D02*
X93804873Y-89022460D01*
X95185825Y-88022460D02*
X94614397Y-88022460D01*
X94900111Y-88022460D02*
X94900111Y-89022460D01*
X94900111Y-89022460D02*
X94804873Y-88879603D01*
X94804873Y-88879603D02*
X94709635Y-88784365D01*
X94709635Y-88784365D02*
X94614397Y-88736746D01*
X96090587Y-89022460D02*
X95614397Y-89022460D01*
X95614397Y-89022460D02*
X95566778Y-88546270D01*
X95566778Y-88546270D02*
X95614397Y-88593889D01*
X95614397Y-88593889D02*
X95709635Y-88641508D01*
X95709635Y-88641508D02*
X95947730Y-88641508D01*
X95947730Y-88641508D02*
X96042968Y-88593889D01*
X96042968Y-88593889D02*
X96090587Y-88546270D01*
X96090587Y-88546270D02*
X96138206Y-88451032D01*
X96138206Y-88451032D02*
X96138206Y-88212937D01*
X96138206Y-88212937D02*
X96090587Y-88117699D01*
X96090587Y-88117699D02*
X96042968Y-88070080D01*
X96042968Y-88070080D02*
X95947730Y-88022460D01*
X95947730Y-88022460D02*
X95709635Y-88022460D01*
X95709635Y-88022460D02*
X95614397Y-88070080D01*
X95614397Y-88070080D02*
X95566778Y-88117699D01*
X91662016Y-61034841D02*
X91566778Y-61082460D01*
X91566778Y-61082460D02*
X91423921Y-61082460D01*
X91423921Y-61082460D02*
X91281064Y-61034841D01*
X91281064Y-61034841D02*
X91185826Y-60939603D01*
X91185826Y-60939603D02*
X91138207Y-60844365D01*
X91138207Y-60844365D02*
X91090588Y-60653889D01*
X91090588Y-60653889D02*
X91090588Y-60511032D01*
X91090588Y-60511032D02*
X91138207Y-60320556D01*
X91138207Y-60320556D02*
X91185826Y-60225318D01*
X91185826Y-60225318D02*
X91281064Y-60130080D01*
X91281064Y-60130080D02*
X91423921Y-60082460D01*
X91423921Y-60082460D02*
X91519159Y-60082460D01*
X91519159Y-60082460D02*
X91662016Y-60130080D01*
X91662016Y-60130080D02*
X91709635Y-60177699D01*
X91709635Y-60177699D02*
X91709635Y-60511032D01*
X91709635Y-60511032D02*
X91519159Y-60511032D01*
X92138207Y-60082460D02*
X92138207Y-61082460D01*
X92138207Y-61082460D02*
X92519159Y-61082460D01*
X92519159Y-61082460D02*
X92614397Y-61034841D01*
X92614397Y-61034841D02*
X92662016Y-60987222D01*
X92662016Y-60987222D02*
X92709635Y-60891984D01*
X92709635Y-60891984D02*
X92709635Y-60749127D01*
X92709635Y-60749127D02*
X92662016Y-60653889D01*
X92662016Y-60653889D02*
X92614397Y-60606270D01*
X92614397Y-60606270D02*
X92519159Y-60558651D01*
X92519159Y-60558651D02*
X92138207Y-60558651D01*
X93138207Y-60082460D02*
X93138207Y-61082460D01*
X93804873Y-61082460D02*
X93995349Y-61082460D01*
X93995349Y-61082460D02*
X94090587Y-61034841D01*
X94090587Y-61034841D02*
X94185825Y-60939603D01*
X94185825Y-60939603D02*
X94233444Y-60749127D01*
X94233444Y-60749127D02*
X94233444Y-60415794D01*
X94233444Y-60415794D02*
X94185825Y-60225318D01*
X94185825Y-60225318D02*
X94090587Y-60130080D01*
X94090587Y-60130080D02*
X93995349Y-60082460D01*
X93995349Y-60082460D02*
X93804873Y-60082460D01*
X93804873Y-60082460D02*
X93709635Y-60130080D01*
X93709635Y-60130080D02*
X93614397Y-60225318D01*
X93614397Y-60225318D02*
X93566778Y-60415794D01*
X93566778Y-60415794D02*
X93566778Y-60749127D01*
X93566778Y-60749127D02*
X93614397Y-60939603D01*
X93614397Y-60939603D02*
X93709635Y-61034841D01*
X93709635Y-61034841D02*
X93804873Y-61082460D01*
X95185825Y-60082460D02*
X94614397Y-60082460D01*
X94900111Y-60082460D02*
X94900111Y-61082460D01*
X94900111Y-61082460D02*
X94804873Y-60939603D01*
X94804873Y-60939603D02*
X94709635Y-60844365D01*
X94709635Y-60844365D02*
X94614397Y-60796746D01*
X95519159Y-61082460D02*
X96138206Y-61082460D01*
X96138206Y-61082460D02*
X95804873Y-60701508D01*
X95804873Y-60701508D02*
X95947730Y-60701508D01*
X95947730Y-60701508D02*
X96042968Y-60653889D01*
X96042968Y-60653889D02*
X96090587Y-60606270D01*
X96090587Y-60606270D02*
X96138206Y-60511032D01*
X96138206Y-60511032D02*
X96138206Y-60272937D01*
X96138206Y-60272937D02*
X96090587Y-60177699D01*
X96090587Y-60177699D02*
X96042968Y-60130080D01*
X96042968Y-60130080D02*
X95947730Y-60082460D01*
X95947730Y-60082460D02*
X95662016Y-60082460D01*
X95662016Y-60082460D02*
X95566778Y-60130080D01*
X95566778Y-60130080D02*
X95519159Y-60177699D01*
X94110588Y-53417561D02*
X94015350Y-53465180D01*
X94015350Y-53465180D02*
X93872493Y-53465180D01*
X93872493Y-53465180D02*
X93729636Y-53417561D01*
X93729636Y-53417561D02*
X93634398Y-53322323D01*
X93634398Y-53322323D02*
X93586779Y-53227085D01*
X93586779Y-53227085D02*
X93539160Y-53036609D01*
X93539160Y-53036609D02*
X93539160Y-52893752D01*
X93539160Y-52893752D02*
X93586779Y-52703276D01*
X93586779Y-52703276D02*
X93634398Y-52608038D01*
X93634398Y-52608038D02*
X93729636Y-52512800D01*
X93729636Y-52512800D02*
X93872493Y-52465180D01*
X93872493Y-52465180D02*
X93967731Y-52465180D01*
X93967731Y-52465180D02*
X94110588Y-52512800D01*
X94110588Y-52512800D02*
X94158207Y-52560419D01*
X94158207Y-52560419D02*
X94158207Y-52893752D01*
X94158207Y-52893752D02*
X93967731Y-52893752D01*
X94586779Y-52465180D02*
X94586779Y-53465180D01*
X94586779Y-53465180D02*
X95158207Y-52465180D01*
X95158207Y-52465180D02*
X95158207Y-53465180D01*
X95634398Y-52465180D02*
X95634398Y-53465180D01*
X95634398Y-53465180D02*
X95872493Y-53465180D01*
X95872493Y-53465180D02*
X96015350Y-53417561D01*
X96015350Y-53417561D02*
X96110588Y-53322323D01*
X96110588Y-53322323D02*
X96158207Y-53227085D01*
X96158207Y-53227085D02*
X96205826Y-53036609D01*
X96205826Y-53036609D02*
X96205826Y-52893752D01*
X96205826Y-52893752D02*
X96158207Y-52703276D01*
X96158207Y-52703276D02*
X96110588Y-52608038D01*
X96110588Y-52608038D02*
X96015350Y-52512800D01*
X96015350Y-52512800D02*
X95872493Y-52465180D01*
X95872493Y-52465180D02*
X95634398Y-52465180D01*
X92614398Y-91514841D02*
X92519160Y-91562460D01*
X92519160Y-91562460D02*
X92376303Y-91562460D01*
X92376303Y-91562460D02*
X92233446Y-91514841D01*
X92233446Y-91514841D02*
X92138208Y-91419603D01*
X92138208Y-91419603D02*
X92090589Y-91324365D01*
X92090589Y-91324365D02*
X92042970Y-91133889D01*
X92042970Y-91133889D02*
X92042970Y-90991032D01*
X92042970Y-90991032D02*
X92090589Y-90800556D01*
X92090589Y-90800556D02*
X92138208Y-90705318D01*
X92138208Y-90705318D02*
X92233446Y-90610080D01*
X92233446Y-90610080D02*
X92376303Y-90562460D01*
X92376303Y-90562460D02*
X92471541Y-90562460D01*
X92471541Y-90562460D02*
X92614398Y-90610080D01*
X92614398Y-90610080D02*
X92662017Y-90657699D01*
X92662017Y-90657699D02*
X92662017Y-90991032D01*
X92662017Y-90991032D02*
X92471541Y-90991032D01*
X93090589Y-90562460D02*
X93090589Y-91562460D01*
X93090589Y-91562460D02*
X93471541Y-91562460D01*
X93471541Y-91562460D02*
X93566779Y-91514841D01*
X93566779Y-91514841D02*
X93614398Y-91467222D01*
X93614398Y-91467222D02*
X93662017Y-91371984D01*
X93662017Y-91371984D02*
X93662017Y-91229127D01*
X93662017Y-91229127D02*
X93614398Y-91133889D01*
X93614398Y-91133889D02*
X93566779Y-91086270D01*
X93566779Y-91086270D02*
X93471541Y-91038651D01*
X93471541Y-91038651D02*
X93090589Y-91038651D01*
X94090589Y-90562460D02*
X94090589Y-91562460D01*
X94757255Y-91562460D02*
X94947731Y-91562460D01*
X94947731Y-91562460D02*
X95042969Y-91514841D01*
X95042969Y-91514841D02*
X95138207Y-91419603D01*
X95138207Y-91419603D02*
X95185826Y-91229127D01*
X95185826Y-91229127D02*
X95185826Y-90895794D01*
X95185826Y-90895794D02*
X95138207Y-90705318D01*
X95138207Y-90705318D02*
X95042969Y-90610080D01*
X95042969Y-90610080D02*
X94947731Y-90562460D01*
X94947731Y-90562460D02*
X94757255Y-90562460D01*
X94757255Y-90562460D02*
X94662017Y-90610080D01*
X94662017Y-90610080D02*
X94566779Y-90705318D01*
X94566779Y-90705318D02*
X94519160Y-90895794D01*
X94519160Y-90895794D02*
X94519160Y-91229127D01*
X94519160Y-91229127D02*
X94566779Y-91419603D01*
X94566779Y-91419603D02*
X94662017Y-91514841D01*
X94662017Y-91514841D02*
X94757255Y-91562460D01*
X95519160Y-91562460D02*
X96185826Y-91562460D01*
X96185826Y-91562460D02*
X95757255Y-90562460D01*
X74433219Y-63574841D02*
X74337981Y-63622460D01*
X74337981Y-63622460D02*
X74195124Y-63622460D01*
X74195124Y-63622460D02*
X74052267Y-63574841D01*
X74052267Y-63574841D02*
X73957029Y-63479603D01*
X73957029Y-63479603D02*
X73909410Y-63384365D01*
X73909410Y-63384365D02*
X73861791Y-63193889D01*
X73861791Y-63193889D02*
X73861791Y-63051032D01*
X73861791Y-63051032D02*
X73909410Y-62860556D01*
X73909410Y-62860556D02*
X73957029Y-62765318D01*
X73957029Y-62765318D02*
X74052267Y-62670080D01*
X74052267Y-62670080D02*
X74195124Y-62622460D01*
X74195124Y-62622460D02*
X74290362Y-62622460D01*
X74290362Y-62622460D02*
X74433219Y-62670080D01*
X74433219Y-62670080D02*
X74480838Y-62717699D01*
X74480838Y-62717699D02*
X74480838Y-63051032D01*
X74480838Y-63051032D02*
X74290362Y-63051032D01*
X74909410Y-62622460D02*
X74909410Y-63622460D01*
X74909410Y-63622460D02*
X75290362Y-63622460D01*
X75290362Y-63622460D02*
X75385600Y-63574841D01*
X75385600Y-63574841D02*
X75433219Y-63527222D01*
X75433219Y-63527222D02*
X75480838Y-63431984D01*
X75480838Y-63431984D02*
X75480838Y-63289127D01*
X75480838Y-63289127D02*
X75433219Y-63193889D01*
X75433219Y-63193889D02*
X75385600Y-63146270D01*
X75385600Y-63146270D02*
X75290362Y-63098651D01*
X75290362Y-63098651D02*
X74909410Y-63098651D01*
X75909410Y-62622460D02*
X75909410Y-63622460D01*
X76576076Y-63622460D02*
X76766552Y-63622460D01*
X76766552Y-63622460D02*
X76861790Y-63574841D01*
X76861790Y-63574841D02*
X76957028Y-63479603D01*
X76957028Y-63479603D02*
X77004647Y-63289127D01*
X77004647Y-63289127D02*
X77004647Y-62955794D01*
X77004647Y-62955794D02*
X76957028Y-62765318D01*
X76957028Y-62765318D02*
X76861790Y-62670080D01*
X76861790Y-62670080D02*
X76766552Y-62622460D01*
X76766552Y-62622460D02*
X76576076Y-62622460D01*
X76576076Y-62622460D02*
X76480838Y-62670080D01*
X76480838Y-62670080D02*
X76385600Y-62765318D01*
X76385600Y-62765318D02*
X76337981Y-62955794D01*
X76337981Y-62955794D02*
X76337981Y-63289127D01*
X76337981Y-63289127D02*
X76385600Y-63479603D01*
X76385600Y-63479603D02*
X76480838Y-63574841D01*
X76480838Y-63574841D02*
X76576076Y-63622460D01*
X77385600Y-63527222D02*
X77433219Y-63574841D01*
X77433219Y-63574841D02*
X77528457Y-63622460D01*
X77528457Y-63622460D02*
X77766552Y-63622460D01*
X77766552Y-63622460D02*
X77861790Y-63574841D01*
X77861790Y-63574841D02*
X77909409Y-63527222D01*
X77909409Y-63527222D02*
X77957028Y-63431984D01*
X77957028Y-63431984D02*
X77957028Y-63336746D01*
X77957028Y-63336746D02*
X77909409Y-63193889D01*
X77909409Y-63193889D02*
X77337981Y-62622460D01*
X77337981Y-62622460D02*
X77957028Y-62622460D01*
X78909409Y-62622460D02*
X78337981Y-62622460D01*
X78623695Y-62622460D02*
X78623695Y-63622460D01*
X78623695Y-63622460D02*
X78528457Y-63479603D01*
X78528457Y-63479603D02*
X78433219Y-63384365D01*
X78433219Y-63384365D02*
X78337981Y-63336746D01*
X92614398Y-94054841D02*
X92519160Y-94102460D01*
X92519160Y-94102460D02*
X92376303Y-94102460D01*
X92376303Y-94102460D02*
X92233446Y-94054841D01*
X92233446Y-94054841D02*
X92138208Y-93959603D01*
X92138208Y-93959603D02*
X92090589Y-93864365D01*
X92090589Y-93864365D02*
X92042970Y-93673889D01*
X92042970Y-93673889D02*
X92042970Y-93531032D01*
X92042970Y-93531032D02*
X92090589Y-93340556D01*
X92090589Y-93340556D02*
X92138208Y-93245318D01*
X92138208Y-93245318D02*
X92233446Y-93150080D01*
X92233446Y-93150080D02*
X92376303Y-93102460D01*
X92376303Y-93102460D02*
X92471541Y-93102460D01*
X92471541Y-93102460D02*
X92614398Y-93150080D01*
X92614398Y-93150080D02*
X92662017Y-93197699D01*
X92662017Y-93197699D02*
X92662017Y-93531032D01*
X92662017Y-93531032D02*
X92471541Y-93531032D01*
X93090589Y-93102460D02*
X93090589Y-94102460D01*
X93090589Y-94102460D02*
X93471541Y-94102460D01*
X93471541Y-94102460D02*
X93566779Y-94054841D01*
X93566779Y-94054841D02*
X93614398Y-94007222D01*
X93614398Y-94007222D02*
X93662017Y-93911984D01*
X93662017Y-93911984D02*
X93662017Y-93769127D01*
X93662017Y-93769127D02*
X93614398Y-93673889D01*
X93614398Y-93673889D02*
X93566779Y-93626270D01*
X93566779Y-93626270D02*
X93471541Y-93578651D01*
X93471541Y-93578651D02*
X93090589Y-93578651D01*
X94090589Y-93102460D02*
X94090589Y-94102460D01*
X94757255Y-94102460D02*
X94947731Y-94102460D01*
X94947731Y-94102460D02*
X95042969Y-94054841D01*
X95042969Y-94054841D02*
X95138207Y-93959603D01*
X95138207Y-93959603D02*
X95185826Y-93769127D01*
X95185826Y-93769127D02*
X95185826Y-93435794D01*
X95185826Y-93435794D02*
X95138207Y-93245318D01*
X95138207Y-93245318D02*
X95042969Y-93150080D01*
X95042969Y-93150080D02*
X94947731Y-93102460D01*
X94947731Y-93102460D02*
X94757255Y-93102460D01*
X94757255Y-93102460D02*
X94662017Y-93150080D01*
X94662017Y-93150080D02*
X94566779Y-93245318D01*
X94566779Y-93245318D02*
X94519160Y-93435794D01*
X94519160Y-93435794D02*
X94519160Y-93769127D01*
X94519160Y-93769127D02*
X94566779Y-93959603D01*
X94566779Y-93959603D02*
X94662017Y-94054841D01*
X94662017Y-94054841D02*
X94757255Y-94102460D01*
X96042969Y-94102460D02*
X95852493Y-94102460D01*
X95852493Y-94102460D02*
X95757255Y-94054841D01*
X95757255Y-94054841D02*
X95709636Y-94007222D01*
X95709636Y-94007222D02*
X95614398Y-93864365D01*
X95614398Y-93864365D02*
X95566779Y-93673889D01*
X95566779Y-93673889D02*
X95566779Y-93292937D01*
X95566779Y-93292937D02*
X95614398Y-93197699D01*
X95614398Y-93197699D02*
X95662017Y-93150080D01*
X95662017Y-93150080D02*
X95757255Y-93102460D01*
X95757255Y-93102460D02*
X95947731Y-93102460D01*
X95947731Y-93102460D02*
X96042969Y-93150080D01*
X96042969Y-93150080D02*
X96090588Y-93197699D01*
X96090588Y-93197699D02*
X96138207Y-93292937D01*
X96138207Y-93292937D02*
X96138207Y-93531032D01*
X96138207Y-93531032D02*
X96090588Y-93626270D01*
X96090588Y-93626270D02*
X96042969Y-93673889D01*
X96042969Y-93673889D02*
X95947731Y-93721508D01*
X95947731Y-93721508D02*
X95757255Y-93721508D01*
X95757255Y-93721508D02*
X95662017Y-93673889D01*
X95662017Y-93673889D02*
X95614398Y-93626270D01*
X95614398Y-93626270D02*
X95566779Y-93531032D01*
X74528458Y-86434841D02*
X74433220Y-86482460D01*
X74433220Y-86482460D02*
X74290363Y-86482460D01*
X74290363Y-86482460D02*
X74147506Y-86434841D01*
X74147506Y-86434841D02*
X74052268Y-86339603D01*
X74052268Y-86339603D02*
X74004649Y-86244365D01*
X74004649Y-86244365D02*
X73957030Y-86053889D01*
X73957030Y-86053889D02*
X73957030Y-85911032D01*
X73957030Y-85911032D02*
X74004649Y-85720556D01*
X74004649Y-85720556D02*
X74052268Y-85625318D01*
X74052268Y-85625318D02*
X74147506Y-85530080D01*
X74147506Y-85530080D02*
X74290363Y-85482460D01*
X74290363Y-85482460D02*
X74385601Y-85482460D01*
X74385601Y-85482460D02*
X74528458Y-85530080D01*
X74528458Y-85530080D02*
X74576077Y-85577699D01*
X74576077Y-85577699D02*
X74576077Y-85911032D01*
X74576077Y-85911032D02*
X74385601Y-85911032D01*
X75004649Y-85482460D02*
X75004649Y-86482460D01*
X75004649Y-86482460D02*
X75385601Y-86482460D01*
X75385601Y-86482460D02*
X75480839Y-86434841D01*
X75480839Y-86434841D02*
X75528458Y-86387222D01*
X75528458Y-86387222D02*
X75576077Y-86291984D01*
X75576077Y-86291984D02*
X75576077Y-86149127D01*
X75576077Y-86149127D02*
X75528458Y-86053889D01*
X75528458Y-86053889D02*
X75480839Y-86006270D01*
X75480839Y-86006270D02*
X75385601Y-85958651D01*
X75385601Y-85958651D02*
X75004649Y-85958651D01*
X76004649Y-85482460D02*
X76004649Y-86482460D01*
X76671315Y-86482460D02*
X76861791Y-86482460D01*
X76861791Y-86482460D02*
X76957029Y-86434841D01*
X76957029Y-86434841D02*
X77052267Y-86339603D01*
X77052267Y-86339603D02*
X77099886Y-86149127D01*
X77099886Y-86149127D02*
X77099886Y-85815794D01*
X77099886Y-85815794D02*
X77052267Y-85625318D01*
X77052267Y-85625318D02*
X76957029Y-85530080D01*
X76957029Y-85530080D02*
X76861791Y-85482460D01*
X76861791Y-85482460D02*
X76671315Y-85482460D01*
X76671315Y-85482460D02*
X76576077Y-85530080D01*
X76576077Y-85530080D02*
X76480839Y-85625318D01*
X76480839Y-85625318D02*
X76433220Y-85815794D01*
X76433220Y-85815794D02*
X76433220Y-86149127D01*
X76433220Y-86149127D02*
X76480839Y-86339603D01*
X76480839Y-86339603D02*
X76576077Y-86434841D01*
X76576077Y-86434841D02*
X76671315Y-86482460D01*
X77433220Y-86482460D02*
X78052267Y-86482460D01*
X78052267Y-86482460D02*
X77718934Y-86101508D01*
X77718934Y-86101508D02*
X77861791Y-86101508D01*
X77861791Y-86101508D02*
X77957029Y-86053889D01*
X77957029Y-86053889D02*
X78004648Y-86006270D01*
X78004648Y-86006270D02*
X78052267Y-85911032D01*
X78052267Y-85911032D02*
X78052267Y-85672937D01*
X78052267Y-85672937D02*
X78004648Y-85577699D01*
X78004648Y-85577699D02*
X77957029Y-85530080D01*
X77957029Y-85530080D02*
X77861791Y-85482460D01*
X77861791Y-85482460D02*
X77576077Y-85482460D01*
X77576077Y-85482460D02*
X77480839Y-85530080D01*
X77480839Y-85530080D02*
X77433220Y-85577699D01*
X78528458Y-85482460D02*
X78718934Y-85482460D01*
X78718934Y-85482460D02*
X78814172Y-85530080D01*
X78814172Y-85530080D02*
X78861791Y-85577699D01*
X78861791Y-85577699D02*
X78957029Y-85720556D01*
X78957029Y-85720556D02*
X79004648Y-85911032D01*
X79004648Y-85911032D02*
X79004648Y-86291984D01*
X79004648Y-86291984D02*
X78957029Y-86387222D01*
X78957029Y-86387222D02*
X78909410Y-86434841D01*
X78909410Y-86434841D02*
X78814172Y-86482460D01*
X78814172Y-86482460D02*
X78623696Y-86482460D01*
X78623696Y-86482460D02*
X78528458Y-86434841D01*
X78528458Y-86434841D02*
X78480839Y-86387222D01*
X78480839Y-86387222D02*
X78433220Y-86291984D01*
X78433220Y-86291984D02*
X78433220Y-86053889D01*
X78433220Y-86053889D02*
X78480839Y-85958651D01*
X78480839Y-85958651D02*
X78528458Y-85911032D01*
X78528458Y-85911032D02*
X78623696Y-85863413D01*
X78623696Y-85863413D02*
X78814172Y-85863413D01*
X78814172Y-85863413D02*
X78909410Y-85911032D01*
X78909410Y-85911032D02*
X78957029Y-85958651D01*
X78957029Y-85958651D02*
X79004648Y-86053889D01*
X80147505Y-86530080D02*
X79290363Y-85244365D01*
X80480839Y-85482460D02*
X80480839Y-86482460D01*
X80480839Y-86482460D02*
X80814172Y-85768175D01*
X80814172Y-85768175D02*
X81147505Y-86482460D01*
X81147505Y-86482460D02*
X81147505Y-85482460D01*
X81480839Y-86482460D02*
X82052267Y-86482460D01*
X81766553Y-85482460D02*
X81766553Y-86482460D01*
X82957029Y-85577699D02*
X82909410Y-85530080D01*
X82909410Y-85530080D02*
X82766553Y-85482460D01*
X82766553Y-85482460D02*
X82671315Y-85482460D01*
X82671315Y-85482460D02*
X82528458Y-85530080D01*
X82528458Y-85530080D02*
X82433220Y-85625318D01*
X82433220Y-85625318D02*
X82385601Y-85720556D01*
X82385601Y-85720556D02*
X82337982Y-85911032D01*
X82337982Y-85911032D02*
X82337982Y-86053889D01*
X82337982Y-86053889D02*
X82385601Y-86244365D01*
X82385601Y-86244365D02*
X82433220Y-86339603D01*
X82433220Y-86339603D02*
X82528458Y-86434841D01*
X82528458Y-86434841D02*
X82671315Y-86482460D01*
X82671315Y-86482460D02*
X82766553Y-86482460D01*
X82766553Y-86482460D02*
X82909410Y-86434841D01*
X82909410Y-86434841D02*
X82957029Y-86387222D01*
X83385601Y-85482460D02*
X83385601Y-86482460D01*
X83957029Y-85482460D02*
X83528458Y-86053889D01*
X83957029Y-86482460D02*
X83385601Y-85911032D01*
X74433220Y-94054841D02*
X74337982Y-94102460D01*
X74337982Y-94102460D02*
X74195125Y-94102460D01*
X74195125Y-94102460D02*
X74052268Y-94054841D01*
X74052268Y-94054841D02*
X73957030Y-93959603D01*
X73957030Y-93959603D02*
X73909411Y-93864365D01*
X73909411Y-93864365D02*
X73861792Y-93673889D01*
X73861792Y-93673889D02*
X73861792Y-93531032D01*
X73861792Y-93531032D02*
X73909411Y-93340556D01*
X73909411Y-93340556D02*
X73957030Y-93245318D01*
X73957030Y-93245318D02*
X74052268Y-93150080D01*
X74052268Y-93150080D02*
X74195125Y-93102460D01*
X74195125Y-93102460D02*
X74290363Y-93102460D01*
X74290363Y-93102460D02*
X74433220Y-93150080D01*
X74433220Y-93150080D02*
X74480839Y-93197699D01*
X74480839Y-93197699D02*
X74480839Y-93531032D01*
X74480839Y-93531032D02*
X74290363Y-93531032D01*
X74909411Y-93102460D02*
X74909411Y-94102460D01*
X74909411Y-94102460D02*
X75290363Y-94102460D01*
X75290363Y-94102460D02*
X75385601Y-94054841D01*
X75385601Y-94054841D02*
X75433220Y-94007222D01*
X75433220Y-94007222D02*
X75480839Y-93911984D01*
X75480839Y-93911984D02*
X75480839Y-93769127D01*
X75480839Y-93769127D02*
X75433220Y-93673889D01*
X75433220Y-93673889D02*
X75385601Y-93626270D01*
X75385601Y-93626270D02*
X75290363Y-93578651D01*
X75290363Y-93578651D02*
X74909411Y-93578651D01*
X75909411Y-93102460D02*
X75909411Y-94102460D01*
X76576077Y-94102460D02*
X76766553Y-94102460D01*
X76766553Y-94102460D02*
X76861791Y-94054841D01*
X76861791Y-94054841D02*
X76957029Y-93959603D01*
X76957029Y-93959603D02*
X77004648Y-93769127D01*
X77004648Y-93769127D02*
X77004648Y-93435794D01*
X77004648Y-93435794D02*
X76957029Y-93245318D01*
X76957029Y-93245318D02*
X76861791Y-93150080D01*
X76861791Y-93150080D02*
X76766553Y-93102460D01*
X76766553Y-93102460D02*
X76576077Y-93102460D01*
X76576077Y-93102460D02*
X76480839Y-93150080D01*
X76480839Y-93150080D02*
X76385601Y-93245318D01*
X76385601Y-93245318D02*
X76337982Y-93435794D01*
X76337982Y-93435794D02*
X76337982Y-93769127D01*
X76337982Y-93769127D02*
X76385601Y-93959603D01*
X76385601Y-93959603D02*
X76480839Y-94054841D01*
X76480839Y-94054841D02*
X76576077Y-94102460D01*
X77861791Y-93769127D02*
X77861791Y-93102460D01*
X77623696Y-94150080D02*
X77385601Y-93435794D01*
X77385601Y-93435794D02*
X78004648Y-93435794D01*
X78337982Y-94007222D02*
X78385601Y-94054841D01*
X78385601Y-94054841D02*
X78480839Y-94102460D01*
X78480839Y-94102460D02*
X78718934Y-94102460D01*
X78718934Y-94102460D02*
X78814172Y-94054841D01*
X78814172Y-94054841D02*
X78861791Y-94007222D01*
X78861791Y-94007222D02*
X78909410Y-93911984D01*
X78909410Y-93911984D02*
X78909410Y-93816746D01*
X78909410Y-93816746D02*
X78861791Y-93673889D01*
X78861791Y-93673889D02*
X78290363Y-93102460D01*
X78290363Y-93102460D02*
X78909410Y-93102460D01*
X80052267Y-94150080D02*
X79195125Y-92864365D01*
X80385601Y-93102460D02*
X80385601Y-94102460D01*
X80385601Y-94102460D02*
X80718934Y-93388175D01*
X80718934Y-93388175D02*
X81052267Y-94102460D01*
X81052267Y-94102460D02*
X81052267Y-93102460D01*
X81385601Y-94102460D02*
X81957029Y-94102460D01*
X81671315Y-93102460D02*
X81671315Y-94102460D01*
X82290363Y-93102460D02*
X82290363Y-94102460D01*
X82290363Y-94102460D02*
X82623696Y-93388175D01*
X82623696Y-93388175D02*
X82957029Y-94102460D01*
X82957029Y-94102460D02*
X82957029Y-93102460D01*
X83385601Y-93150080D02*
X83528458Y-93102460D01*
X83528458Y-93102460D02*
X83766553Y-93102460D01*
X83766553Y-93102460D02*
X83861791Y-93150080D01*
X83861791Y-93150080D02*
X83909410Y-93197699D01*
X83909410Y-93197699D02*
X83957029Y-93292937D01*
X83957029Y-93292937D02*
X83957029Y-93388175D01*
X83957029Y-93388175D02*
X83909410Y-93483413D01*
X83909410Y-93483413D02*
X83861791Y-93531032D01*
X83861791Y-93531032D02*
X83766553Y-93578651D01*
X83766553Y-93578651D02*
X83576077Y-93626270D01*
X83576077Y-93626270D02*
X83480839Y-93673889D01*
X83480839Y-93673889D02*
X83433220Y-93721508D01*
X83433220Y-93721508D02*
X83385601Y-93816746D01*
X83385601Y-93816746D02*
X83385601Y-93911984D01*
X83385601Y-93911984D02*
X83433220Y-94007222D01*
X83433220Y-94007222D02*
X83480839Y-94054841D01*
X83480839Y-94054841D02*
X83576077Y-94102460D01*
X83576077Y-94102460D02*
X83814172Y-94102460D01*
X83814172Y-94102460D02*
X83957029Y-94054841D01*
X74433219Y-78814841D02*
X74337981Y-78862460D01*
X74337981Y-78862460D02*
X74195124Y-78862460D01*
X74195124Y-78862460D02*
X74052267Y-78814841D01*
X74052267Y-78814841D02*
X73957029Y-78719603D01*
X73957029Y-78719603D02*
X73909410Y-78624365D01*
X73909410Y-78624365D02*
X73861791Y-78433889D01*
X73861791Y-78433889D02*
X73861791Y-78291032D01*
X73861791Y-78291032D02*
X73909410Y-78100556D01*
X73909410Y-78100556D02*
X73957029Y-78005318D01*
X73957029Y-78005318D02*
X74052267Y-77910080D01*
X74052267Y-77910080D02*
X74195124Y-77862460D01*
X74195124Y-77862460D02*
X74290362Y-77862460D01*
X74290362Y-77862460D02*
X74433219Y-77910080D01*
X74433219Y-77910080D02*
X74480838Y-77957699D01*
X74480838Y-77957699D02*
X74480838Y-78291032D01*
X74480838Y-78291032D02*
X74290362Y-78291032D01*
X74909410Y-77862460D02*
X74909410Y-78862460D01*
X74909410Y-78862460D02*
X75290362Y-78862460D01*
X75290362Y-78862460D02*
X75385600Y-78814841D01*
X75385600Y-78814841D02*
X75433219Y-78767222D01*
X75433219Y-78767222D02*
X75480838Y-78671984D01*
X75480838Y-78671984D02*
X75480838Y-78529127D01*
X75480838Y-78529127D02*
X75433219Y-78433889D01*
X75433219Y-78433889D02*
X75385600Y-78386270D01*
X75385600Y-78386270D02*
X75290362Y-78338651D01*
X75290362Y-78338651D02*
X74909410Y-78338651D01*
X75909410Y-77862460D02*
X75909410Y-78862460D01*
X76576076Y-78862460D02*
X76766552Y-78862460D01*
X76766552Y-78862460D02*
X76861790Y-78814841D01*
X76861790Y-78814841D02*
X76957028Y-78719603D01*
X76957028Y-78719603D02*
X77004647Y-78529127D01*
X77004647Y-78529127D02*
X77004647Y-78195794D01*
X77004647Y-78195794D02*
X76957028Y-78005318D01*
X76957028Y-78005318D02*
X76861790Y-77910080D01*
X76861790Y-77910080D02*
X76766552Y-77862460D01*
X76766552Y-77862460D02*
X76576076Y-77862460D01*
X76576076Y-77862460D02*
X76480838Y-77910080D01*
X76480838Y-77910080D02*
X76385600Y-78005318D01*
X76385600Y-78005318D02*
X76337981Y-78195794D01*
X76337981Y-78195794D02*
X76337981Y-78529127D01*
X76337981Y-78529127D02*
X76385600Y-78719603D01*
X76385600Y-78719603D02*
X76480838Y-78814841D01*
X76480838Y-78814841D02*
X76576076Y-78862460D01*
X77337981Y-78862460D02*
X77957028Y-78862460D01*
X77957028Y-78862460D02*
X77623695Y-78481508D01*
X77623695Y-78481508D02*
X77766552Y-78481508D01*
X77766552Y-78481508D02*
X77861790Y-78433889D01*
X77861790Y-78433889D02*
X77909409Y-78386270D01*
X77909409Y-78386270D02*
X77957028Y-78291032D01*
X77957028Y-78291032D02*
X77957028Y-78052937D01*
X77957028Y-78052937D02*
X77909409Y-77957699D01*
X77909409Y-77957699D02*
X77861790Y-77910080D01*
X77861790Y-77910080D02*
X77766552Y-77862460D01*
X77766552Y-77862460D02*
X77480838Y-77862460D01*
X77480838Y-77862460D02*
X77385600Y-77910080D01*
X77385600Y-77910080D02*
X77337981Y-77957699D01*
X78814171Y-78862460D02*
X78623695Y-78862460D01*
X78623695Y-78862460D02*
X78528457Y-78814841D01*
X78528457Y-78814841D02*
X78480838Y-78767222D01*
X78480838Y-78767222D02*
X78385600Y-78624365D01*
X78385600Y-78624365D02*
X78337981Y-78433889D01*
X78337981Y-78433889D02*
X78337981Y-78052937D01*
X78337981Y-78052937D02*
X78385600Y-77957699D01*
X78385600Y-77957699D02*
X78433219Y-77910080D01*
X78433219Y-77910080D02*
X78528457Y-77862460D01*
X78528457Y-77862460D02*
X78718933Y-77862460D01*
X78718933Y-77862460D02*
X78814171Y-77910080D01*
X78814171Y-77910080D02*
X78861790Y-77957699D01*
X78861790Y-77957699D02*
X78909409Y-78052937D01*
X78909409Y-78052937D02*
X78909409Y-78291032D01*
X78909409Y-78291032D02*
X78861790Y-78386270D01*
X78861790Y-78386270D02*
X78814171Y-78433889D01*
X78814171Y-78433889D02*
X78718933Y-78481508D01*
X78718933Y-78481508D02*
X78528457Y-78481508D01*
X78528457Y-78481508D02*
X78433219Y-78433889D01*
X78433219Y-78433889D02*
X78385600Y-78386270D01*
X78385600Y-78386270D02*
X78337981Y-78291032D01*
X91662016Y-58494841D02*
X91566778Y-58542460D01*
X91566778Y-58542460D02*
X91423921Y-58542460D01*
X91423921Y-58542460D02*
X91281064Y-58494841D01*
X91281064Y-58494841D02*
X91185826Y-58399603D01*
X91185826Y-58399603D02*
X91138207Y-58304365D01*
X91138207Y-58304365D02*
X91090588Y-58113889D01*
X91090588Y-58113889D02*
X91090588Y-57971032D01*
X91090588Y-57971032D02*
X91138207Y-57780556D01*
X91138207Y-57780556D02*
X91185826Y-57685318D01*
X91185826Y-57685318D02*
X91281064Y-57590080D01*
X91281064Y-57590080D02*
X91423921Y-57542460D01*
X91423921Y-57542460D02*
X91519159Y-57542460D01*
X91519159Y-57542460D02*
X91662016Y-57590080D01*
X91662016Y-57590080D02*
X91709635Y-57637699D01*
X91709635Y-57637699D02*
X91709635Y-57971032D01*
X91709635Y-57971032D02*
X91519159Y-57971032D01*
X92138207Y-57542460D02*
X92138207Y-58542460D01*
X92138207Y-58542460D02*
X92519159Y-58542460D01*
X92519159Y-58542460D02*
X92614397Y-58494841D01*
X92614397Y-58494841D02*
X92662016Y-58447222D01*
X92662016Y-58447222D02*
X92709635Y-58351984D01*
X92709635Y-58351984D02*
X92709635Y-58209127D01*
X92709635Y-58209127D02*
X92662016Y-58113889D01*
X92662016Y-58113889D02*
X92614397Y-58066270D01*
X92614397Y-58066270D02*
X92519159Y-58018651D01*
X92519159Y-58018651D02*
X92138207Y-58018651D01*
X93138207Y-57542460D02*
X93138207Y-58542460D01*
X93804873Y-58542460D02*
X93995349Y-58542460D01*
X93995349Y-58542460D02*
X94090587Y-58494841D01*
X94090587Y-58494841D02*
X94185825Y-58399603D01*
X94185825Y-58399603D02*
X94233444Y-58209127D01*
X94233444Y-58209127D02*
X94233444Y-57875794D01*
X94233444Y-57875794D02*
X94185825Y-57685318D01*
X94185825Y-57685318D02*
X94090587Y-57590080D01*
X94090587Y-57590080D02*
X93995349Y-57542460D01*
X93995349Y-57542460D02*
X93804873Y-57542460D01*
X93804873Y-57542460D02*
X93709635Y-57590080D01*
X93709635Y-57590080D02*
X93614397Y-57685318D01*
X93614397Y-57685318D02*
X93566778Y-57875794D01*
X93566778Y-57875794D02*
X93566778Y-58209127D01*
X93566778Y-58209127D02*
X93614397Y-58399603D01*
X93614397Y-58399603D02*
X93709635Y-58494841D01*
X93709635Y-58494841D02*
X93804873Y-58542460D01*
X95185825Y-57542460D02*
X94614397Y-57542460D01*
X94900111Y-57542460D02*
X94900111Y-58542460D01*
X94900111Y-58542460D02*
X94804873Y-58399603D01*
X94804873Y-58399603D02*
X94709635Y-58304365D01*
X94709635Y-58304365D02*
X94614397Y-58256746D01*
X96042968Y-58209127D02*
X96042968Y-57542460D01*
X95804873Y-58590080D02*
X95566778Y-57875794D01*
X95566778Y-57875794D02*
X96185825Y-57875794D01*
X92614398Y-78814841D02*
X92519160Y-78862460D01*
X92519160Y-78862460D02*
X92376303Y-78862460D01*
X92376303Y-78862460D02*
X92233446Y-78814841D01*
X92233446Y-78814841D02*
X92138208Y-78719603D01*
X92138208Y-78719603D02*
X92090589Y-78624365D01*
X92090589Y-78624365D02*
X92042970Y-78433889D01*
X92042970Y-78433889D02*
X92042970Y-78291032D01*
X92042970Y-78291032D02*
X92090589Y-78100556D01*
X92090589Y-78100556D02*
X92138208Y-78005318D01*
X92138208Y-78005318D02*
X92233446Y-77910080D01*
X92233446Y-77910080D02*
X92376303Y-77862460D01*
X92376303Y-77862460D02*
X92471541Y-77862460D01*
X92471541Y-77862460D02*
X92614398Y-77910080D01*
X92614398Y-77910080D02*
X92662017Y-77957699D01*
X92662017Y-77957699D02*
X92662017Y-78291032D01*
X92662017Y-78291032D02*
X92471541Y-78291032D01*
X93090589Y-77862460D02*
X93090589Y-78862460D01*
X93090589Y-78862460D02*
X93471541Y-78862460D01*
X93471541Y-78862460D02*
X93566779Y-78814841D01*
X93566779Y-78814841D02*
X93614398Y-78767222D01*
X93614398Y-78767222D02*
X93662017Y-78671984D01*
X93662017Y-78671984D02*
X93662017Y-78529127D01*
X93662017Y-78529127D02*
X93614398Y-78433889D01*
X93614398Y-78433889D02*
X93566779Y-78386270D01*
X93566779Y-78386270D02*
X93471541Y-78338651D01*
X93471541Y-78338651D02*
X93090589Y-78338651D01*
X94090589Y-77862460D02*
X94090589Y-78862460D01*
X94757255Y-78862460D02*
X94947731Y-78862460D01*
X94947731Y-78862460D02*
X95042969Y-78814841D01*
X95042969Y-78814841D02*
X95138207Y-78719603D01*
X95138207Y-78719603D02*
X95185826Y-78529127D01*
X95185826Y-78529127D02*
X95185826Y-78195794D01*
X95185826Y-78195794D02*
X95138207Y-78005318D01*
X95138207Y-78005318D02*
X95042969Y-77910080D01*
X95042969Y-77910080D02*
X94947731Y-77862460D01*
X94947731Y-77862460D02*
X94757255Y-77862460D01*
X94757255Y-77862460D02*
X94662017Y-77910080D01*
X94662017Y-77910080D02*
X94566779Y-78005318D01*
X94566779Y-78005318D02*
X94519160Y-78195794D01*
X94519160Y-78195794D02*
X94519160Y-78529127D01*
X94519160Y-78529127D02*
X94566779Y-78719603D01*
X94566779Y-78719603D02*
X94662017Y-78814841D01*
X94662017Y-78814841D02*
X94757255Y-78862460D01*
X95757255Y-78433889D02*
X95662017Y-78481508D01*
X95662017Y-78481508D02*
X95614398Y-78529127D01*
X95614398Y-78529127D02*
X95566779Y-78624365D01*
X95566779Y-78624365D02*
X95566779Y-78671984D01*
X95566779Y-78671984D02*
X95614398Y-78767222D01*
X95614398Y-78767222D02*
X95662017Y-78814841D01*
X95662017Y-78814841D02*
X95757255Y-78862460D01*
X95757255Y-78862460D02*
X95947731Y-78862460D01*
X95947731Y-78862460D02*
X96042969Y-78814841D01*
X96042969Y-78814841D02*
X96090588Y-78767222D01*
X96090588Y-78767222D02*
X96138207Y-78671984D01*
X96138207Y-78671984D02*
X96138207Y-78624365D01*
X96138207Y-78624365D02*
X96090588Y-78529127D01*
X96090588Y-78529127D02*
X96042969Y-78481508D01*
X96042969Y-78481508D02*
X95947731Y-78433889D01*
X95947731Y-78433889D02*
X95757255Y-78433889D01*
X95757255Y-78433889D02*
X95662017Y-78386270D01*
X95662017Y-78386270D02*
X95614398Y-78338651D01*
X95614398Y-78338651D02*
X95566779Y-78243413D01*
X95566779Y-78243413D02*
X95566779Y-78052937D01*
X95566779Y-78052937D02*
X95614398Y-77957699D01*
X95614398Y-77957699D02*
X95662017Y-77910080D01*
X95662017Y-77910080D02*
X95757255Y-77862460D01*
X95757255Y-77862460D02*
X95947731Y-77862460D01*
X95947731Y-77862460D02*
X96042969Y-77910080D01*
X96042969Y-77910080D02*
X96090588Y-77957699D01*
X96090588Y-77957699D02*
X96138207Y-78052937D01*
X96138207Y-78052937D02*
X96138207Y-78243413D01*
X96138207Y-78243413D02*
X96090588Y-78338651D01*
X96090588Y-78338651D02*
X96042969Y-78386270D01*
X96042969Y-78386270D02*
X95947731Y-78433889D01*
X74433220Y-99134841D02*
X74337982Y-99182460D01*
X74337982Y-99182460D02*
X74195125Y-99182460D01*
X74195125Y-99182460D02*
X74052268Y-99134841D01*
X74052268Y-99134841D02*
X73957030Y-99039603D01*
X73957030Y-99039603D02*
X73909411Y-98944365D01*
X73909411Y-98944365D02*
X73861792Y-98753889D01*
X73861792Y-98753889D02*
X73861792Y-98611032D01*
X73861792Y-98611032D02*
X73909411Y-98420556D01*
X73909411Y-98420556D02*
X73957030Y-98325318D01*
X73957030Y-98325318D02*
X74052268Y-98230080D01*
X74052268Y-98230080D02*
X74195125Y-98182460D01*
X74195125Y-98182460D02*
X74290363Y-98182460D01*
X74290363Y-98182460D02*
X74433220Y-98230080D01*
X74433220Y-98230080D02*
X74480839Y-98277699D01*
X74480839Y-98277699D02*
X74480839Y-98611032D01*
X74480839Y-98611032D02*
X74290363Y-98611032D01*
X74909411Y-98182460D02*
X74909411Y-99182460D01*
X74909411Y-99182460D02*
X75290363Y-99182460D01*
X75290363Y-99182460D02*
X75385601Y-99134841D01*
X75385601Y-99134841D02*
X75433220Y-99087222D01*
X75433220Y-99087222D02*
X75480839Y-98991984D01*
X75480839Y-98991984D02*
X75480839Y-98849127D01*
X75480839Y-98849127D02*
X75433220Y-98753889D01*
X75433220Y-98753889D02*
X75385601Y-98706270D01*
X75385601Y-98706270D02*
X75290363Y-98658651D01*
X75290363Y-98658651D02*
X74909411Y-98658651D01*
X75909411Y-98182460D02*
X75909411Y-99182460D01*
X76576077Y-99182460D02*
X76766553Y-99182460D01*
X76766553Y-99182460D02*
X76861791Y-99134841D01*
X76861791Y-99134841D02*
X76957029Y-99039603D01*
X76957029Y-99039603D02*
X77004648Y-98849127D01*
X77004648Y-98849127D02*
X77004648Y-98515794D01*
X77004648Y-98515794D02*
X76957029Y-98325318D01*
X76957029Y-98325318D02*
X76861791Y-98230080D01*
X76861791Y-98230080D02*
X76766553Y-98182460D01*
X76766553Y-98182460D02*
X76576077Y-98182460D01*
X76576077Y-98182460D02*
X76480839Y-98230080D01*
X76480839Y-98230080D02*
X76385601Y-98325318D01*
X76385601Y-98325318D02*
X76337982Y-98515794D01*
X76337982Y-98515794D02*
X76337982Y-98849127D01*
X76337982Y-98849127D02*
X76385601Y-99039603D01*
X76385601Y-99039603D02*
X76480839Y-99134841D01*
X76480839Y-99134841D02*
X76576077Y-99182460D01*
X77957029Y-98182460D02*
X77385601Y-98182460D01*
X77671315Y-98182460D02*
X77671315Y-99182460D01*
X77671315Y-99182460D02*
X77576077Y-99039603D01*
X77576077Y-99039603D02*
X77480839Y-98944365D01*
X77480839Y-98944365D02*
X77385601Y-98896746D01*
X74433219Y-71194841D02*
X74337981Y-71242460D01*
X74337981Y-71242460D02*
X74195124Y-71242460D01*
X74195124Y-71242460D02*
X74052267Y-71194841D01*
X74052267Y-71194841D02*
X73957029Y-71099603D01*
X73957029Y-71099603D02*
X73909410Y-71004365D01*
X73909410Y-71004365D02*
X73861791Y-70813889D01*
X73861791Y-70813889D02*
X73861791Y-70671032D01*
X73861791Y-70671032D02*
X73909410Y-70480556D01*
X73909410Y-70480556D02*
X73957029Y-70385318D01*
X73957029Y-70385318D02*
X74052267Y-70290080D01*
X74052267Y-70290080D02*
X74195124Y-70242460D01*
X74195124Y-70242460D02*
X74290362Y-70242460D01*
X74290362Y-70242460D02*
X74433219Y-70290080D01*
X74433219Y-70290080D02*
X74480838Y-70337699D01*
X74480838Y-70337699D02*
X74480838Y-70671032D01*
X74480838Y-70671032D02*
X74290362Y-70671032D01*
X74909410Y-70242460D02*
X74909410Y-71242460D01*
X74909410Y-71242460D02*
X75290362Y-71242460D01*
X75290362Y-71242460D02*
X75385600Y-71194841D01*
X75385600Y-71194841D02*
X75433219Y-71147222D01*
X75433219Y-71147222D02*
X75480838Y-71051984D01*
X75480838Y-71051984D02*
X75480838Y-70909127D01*
X75480838Y-70909127D02*
X75433219Y-70813889D01*
X75433219Y-70813889D02*
X75385600Y-70766270D01*
X75385600Y-70766270D02*
X75290362Y-70718651D01*
X75290362Y-70718651D02*
X74909410Y-70718651D01*
X75909410Y-70242460D02*
X75909410Y-71242460D01*
X76576076Y-71242460D02*
X76766552Y-71242460D01*
X76766552Y-71242460D02*
X76861790Y-71194841D01*
X76861790Y-71194841D02*
X76957028Y-71099603D01*
X76957028Y-71099603D02*
X77004647Y-70909127D01*
X77004647Y-70909127D02*
X77004647Y-70575794D01*
X77004647Y-70575794D02*
X76957028Y-70385318D01*
X76957028Y-70385318D02*
X76861790Y-70290080D01*
X76861790Y-70290080D02*
X76766552Y-70242460D01*
X76766552Y-70242460D02*
X76576076Y-70242460D01*
X76576076Y-70242460D02*
X76480838Y-70290080D01*
X76480838Y-70290080D02*
X76385600Y-70385318D01*
X76385600Y-70385318D02*
X76337981Y-70575794D01*
X76337981Y-70575794D02*
X76337981Y-70909127D01*
X76337981Y-70909127D02*
X76385600Y-71099603D01*
X76385600Y-71099603D02*
X76480838Y-71194841D01*
X76480838Y-71194841D02*
X76576076Y-71242460D01*
X77861790Y-70909127D02*
X77861790Y-70242460D01*
X77623695Y-71290080D02*
X77385600Y-70575794D01*
X77385600Y-70575794D02*
X78004647Y-70575794D01*
X78861790Y-71242460D02*
X78385600Y-71242460D01*
X78385600Y-71242460D02*
X78337981Y-70766270D01*
X78337981Y-70766270D02*
X78385600Y-70813889D01*
X78385600Y-70813889D02*
X78480838Y-70861508D01*
X78480838Y-70861508D02*
X78718933Y-70861508D01*
X78718933Y-70861508D02*
X78814171Y-70813889D01*
X78814171Y-70813889D02*
X78861790Y-70766270D01*
X78861790Y-70766270D02*
X78909409Y-70671032D01*
X78909409Y-70671032D02*
X78909409Y-70432937D01*
X78909409Y-70432937D02*
X78861790Y-70337699D01*
X78861790Y-70337699D02*
X78814171Y-70290080D01*
X78814171Y-70290080D02*
X78718933Y-70242460D01*
X78718933Y-70242460D02*
X78480838Y-70242460D01*
X78480838Y-70242460D02*
X78385600Y-70290080D01*
X78385600Y-70290080D02*
X78337981Y-70337699D01*
X92610588Y-71194841D02*
X92515350Y-71242460D01*
X92515350Y-71242460D02*
X92372493Y-71242460D01*
X92372493Y-71242460D02*
X92229636Y-71194841D01*
X92229636Y-71194841D02*
X92134398Y-71099603D01*
X92134398Y-71099603D02*
X92086779Y-71004365D01*
X92086779Y-71004365D02*
X92039160Y-70813889D01*
X92039160Y-70813889D02*
X92039160Y-70671032D01*
X92039160Y-70671032D02*
X92086779Y-70480556D01*
X92086779Y-70480556D02*
X92134398Y-70385318D01*
X92134398Y-70385318D02*
X92229636Y-70290080D01*
X92229636Y-70290080D02*
X92372493Y-70242460D01*
X92372493Y-70242460D02*
X92467731Y-70242460D01*
X92467731Y-70242460D02*
X92610588Y-70290080D01*
X92610588Y-70290080D02*
X92658207Y-70337699D01*
X92658207Y-70337699D02*
X92658207Y-70671032D01*
X92658207Y-70671032D02*
X92467731Y-70671032D01*
X93086779Y-70242460D02*
X93086779Y-71242460D01*
X93086779Y-71242460D02*
X93467731Y-71242460D01*
X93467731Y-71242460D02*
X93562969Y-71194841D01*
X93562969Y-71194841D02*
X93610588Y-71147222D01*
X93610588Y-71147222D02*
X93658207Y-71051984D01*
X93658207Y-71051984D02*
X93658207Y-70909127D01*
X93658207Y-70909127D02*
X93610588Y-70813889D01*
X93610588Y-70813889D02*
X93562969Y-70766270D01*
X93562969Y-70766270D02*
X93467731Y-70718651D01*
X93467731Y-70718651D02*
X93086779Y-70718651D01*
X94086779Y-70242460D02*
X94086779Y-71242460D01*
X94753445Y-71242460D02*
X94943921Y-71242460D01*
X94943921Y-71242460D02*
X95039159Y-71194841D01*
X95039159Y-71194841D02*
X95134397Y-71099603D01*
X95134397Y-71099603D02*
X95182016Y-70909127D01*
X95182016Y-70909127D02*
X95182016Y-70575794D01*
X95182016Y-70575794D02*
X95134397Y-70385318D01*
X95134397Y-70385318D02*
X95039159Y-70290080D01*
X95039159Y-70290080D02*
X94943921Y-70242460D01*
X94943921Y-70242460D02*
X94753445Y-70242460D01*
X94753445Y-70242460D02*
X94658207Y-70290080D01*
X94658207Y-70290080D02*
X94562969Y-70385318D01*
X94562969Y-70385318D02*
X94515350Y-70575794D01*
X94515350Y-70575794D02*
X94515350Y-70909127D01*
X94515350Y-70909127D02*
X94562969Y-71099603D01*
X94562969Y-71099603D02*
X94658207Y-71194841D01*
X94658207Y-71194841D02*
X94753445Y-71242460D01*
X95658207Y-70242460D02*
X95848683Y-70242460D01*
X95848683Y-70242460D02*
X95943921Y-70290080D01*
X95943921Y-70290080D02*
X95991540Y-70337699D01*
X95991540Y-70337699D02*
X96086778Y-70480556D01*
X96086778Y-70480556D02*
X96134397Y-70671032D01*
X96134397Y-70671032D02*
X96134397Y-71051984D01*
X96134397Y-71051984D02*
X96086778Y-71147222D01*
X96086778Y-71147222D02*
X96039159Y-71194841D01*
X96039159Y-71194841D02*
X95943921Y-71242460D01*
X95943921Y-71242460D02*
X95753445Y-71242460D01*
X95753445Y-71242460D02*
X95658207Y-71194841D01*
X95658207Y-71194841D02*
X95610588Y-71147222D01*
X95610588Y-71147222D02*
X95562969Y-71051984D01*
X95562969Y-71051984D02*
X95562969Y-70813889D01*
X95562969Y-70813889D02*
X95610588Y-70718651D01*
X95610588Y-70718651D02*
X95658207Y-70671032D01*
X95658207Y-70671032D02*
X95753445Y-70623413D01*
X95753445Y-70623413D02*
X95943921Y-70623413D01*
X95943921Y-70623413D02*
X96039159Y-70671032D01*
X96039159Y-70671032D02*
X96086778Y-70718651D01*
X96086778Y-70718651D02*
X96134397Y-70813889D01*
X91662016Y-81354841D02*
X91566778Y-81402460D01*
X91566778Y-81402460D02*
X91423921Y-81402460D01*
X91423921Y-81402460D02*
X91281064Y-81354841D01*
X91281064Y-81354841D02*
X91185826Y-81259603D01*
X91185826Y-81259603D02*
X91138207Y-81164365D01*
X91138207Y-81164365D02*
X91090588Y-80973889D01*
X91090588Y-80973889D02*
X91090588Y-80831032D01*
X91090588Y-80831032D02*
X91138207Y-80640556D01*
X91138207Y-80640556D02*
X91185826Y-80545318D01*
X91185826Y-80545318D02*
X91281064Y-80450080D01*
X91281064Y-80450080D02*
X91423921Y-80402460D01*
X91423921Y-80402460D02*
X91519159Y-80402460D01*
X91519159Y-80402460D02*
X91662016Y-80450080D01*
X91662016Y-80450080D02*
X91709635Y-80497699D01*
X91709635Y-80497699D02*
X91709635Y-80831032D01*
X91709635Y-80831032D02*
X91519159Y-80831032D01*
X92138207Y-80402460D02*
X92138207Y-81402460D01*
X92138207Y-81402460D02*
X92519159Y-81402460D01*
X92519159Y-81402460D02*
X92614397Y-81354841D01*
X92614397Y-81354841D02*
X92662016Y-81307222D01*
X92662016Y-81307222D02*
X92709635Y-81211984D01*
X92709635Y-81211984D02*
X92709635Y-81069127D01*
X92709635Y-81069127D02*
X92662016Y-80973889D01*
X92662016Y-80973889D02*
X92614397Y-80926270D01*
X92614397Y-80926270D02*
X92519159Y-80878651D01*
X92519159Y-80878651D02*
X92138207Y-80878651D01*
X93138207Y-80402460D02*
X93138207Y-81402460D01*
X93804873Y-81402460D02*
X93995349Y-81402460D01*
X93995349Y-81402460D02*
X94090587Y-81354841D01*
X94090587Y-81354841D02*
X94185825Y-81259603D01*
X94185825Y-81259603D02*
X94233444Y-81069127D01*
X94233444Y-81069127D02*
X94233444Y-80735794D01*
X94233444Y-80735794D02*
X94185825Y-80545318D01*
X94185825Y-80545318D02*
X94090587Y-80450080D01*
X94090587Y-80450080D02*
X93995349Y-80402460D01*
X93995349Y-80402460D02*
X93804873Y-80402460D01*
X93804873Y-80402460D02*
X93709635Y-80450080D01*
X93709635Y-80450080D02*
X93614397Y-80545318D01*
X93614397Y-80545318D02*
X93566778Y-80735794D01*
X93566778Y-80735794D02*
X93566778Y-81069127D01*
X93566778Y-81069127D02*
X93614397Y-81259603D01*
X93614397Y-81259603D02*
X93709635Y-81354841D01*
X93709635Y-81354841D02*
X93804873Y-81402460D01*
X95185825Y-80402460D02*
X94614397Y-80402460D01*
X94900111Y-80402460D02*
X94900111Y-81402460D01*
X94900111Y-81402460D02*
X94804873Y-81259603D01*
X94804873Y-81259603D02*
X94709635Y-81164365D01*
X94709635Y-81164365D02*
X94614397Y-81116746D01*
X95757254Y-80973889D02*
X95662016Y-81021508D01*
X95662016Y-81021508D02*
X95614397Y-81069127D01*
X95614397Y-81069127D02*
X95566778Y-81164365D01*
X95566778Y-81164365D02*
X95566778Y-81211984D01*
X95566778Y-81211984D02*
X95614397Y-81307222D01*
X95614397Y-81307222D02*
X95662016Y-81354841D01*
X95662016Y-81354841D02*
X95757254Y-81402460D01*
X95757254Y-81402460D02*
X95947730Y-81402460D01*
X95947730Y-81402460D02*
X96042968Y-81354841D01*
X96042968Y-81354841D02*
X96090587Y-81307222D01*
X96090587Y-81307222D02*
X96138206Y-81211984D01*
X96138206Y-81211984D02*
X96138206Y-81164365D01*
X96138206Y-81164365D02*
X96090587Y-81069127D01*
X96090587Y-81069127D02*
X96042968Y-81021508D01*
X96042968Y-81021508D02*
X95947730Y-80973889D01*
X95947730Y-80973889D02*
X95757254Y-80973889D01*
X95757254Y-80973889D02*
X95662016Y-80926270D01*
X95662016Y-80926270D02*
X95614397Y-80878651D01*
X95614397Y-80878651D02*
X95566778Y-80783413D01*
X95566778Y-80783413D02*
X95566778Y-80592937D01*
X95566778Y-80592937D02*
X95614397Y-80497699D01*
X95614397Y-80497699D02*
X95662016Y-80450080D01*
X95662016Y-80450080D02*
X95757254Y-80402460D01*
X95757254Y-80402460D02*
X95947730Y-80402460D01*
X95947730Y-80402460D02*
X96042968Y-80450080D01*
X96042968Y-80450080D02*
X96090587Y-80497699D01*
X96090587Y-80497699D02*
X96138206Y-80592937D01*
X96138206Y-80592937D02*
X96138206Y-80783413D01*
X96138206Y-80783413D02*
X96090587Y-80878651D01*
X96090587Y-80878651D02*
X96042968Y-80926270D01*
X96042968Y-80926270D02*
X95947730Y-80973889D01*
X91662016Y-66114841D02*
X91566778Y-66162460D01*
X91566778Y-66162460D02*
X91423921Y-66162460D01*
X91423921Y-66162460D02*
X91281064Y-66114841D01*
X91281064Y-66114841D02*
X91185826Y-66019603D01*
X91185826Y-66019603D02*
X91138207Y-65924365D01*
X91138207Y-65924365D02*
X91090588Y-65733889D01*
X91090588Y-65733889D02*
X91090588Y-65591032D01*
X91090588Y-65591032D02*
X91138207Y-65400556D01*
X91138207Y-65400556D02*
X91185826Y-65305318D01*
X91185826Y-65305318D02*
X91281064Y-65210080D01*
X91281064Y-65210080D02*
X91423921Y-65162460D01*
X91423921Y-65162460D02*
X91519159Y-65162460D01*
X91519159Y-65162460D02*
X91662016Y-65210080D01*
X91662016Y-65210080D02*
X91709635Y-65257699D01*
X91709635Y-65257699D02*
X91709635Y-65591032D01*
X91709635Y-65591032D02*
X91519159Y-65591032D01*
X92138207Y-65162460D02*
X92138207Y-66162460D01*
X92138207Y-66162460D02*
X92519159Y-66162460D01*
X92519159Y-66162460D02*
X92614397Y-66114841D01*
X92614397Y-66114841D02*
X92662016Y-66067222D01*
X92662016Y-66067222D02*
X92709635Y-65971984D01*
X92709635Y-65971984D02*
X92709635Y-65829127D01*
X92709635Y-65829127D02*
X92662016Y-65733889D01*
X92662016Y-65733889D02*
X92614397Y-65686270D01*
X92614397Y-65686270D02*
X92519159Y-65638651D01*
X92519159Y-65638651D02*
X92138207Y-65638651D01*
X93138207Y-65162460D02*
X93138207Y-66162460D01*
X93804873Y-66162460D02*
X93995349Y-66162460D01*
X93995349Y-66162460D02*
X94090587Y-66114841D01*
X94090587Y-66114841D02*
X94185825Y-66019603D01*
X94185825Y-66019603D02*
X94233444Y-65829127D01*
X94233444Y-65829127D02*
X94233444Y-65495794D01*
X94233444Y-65495794D02*
X94185825Y-65305318D01*
X94185825Y-65305318D02*
X94090587Y-65210080D01*
X94090587Y-65210080D02*
X93995349Y-65162460D01*
X93995349Y-65162460D02*
X93804873Y-65162460D01*
X93804873Y-65162460D02*
X93709635Y-65210080D01*
X93709635Y-65210080D02*
X93614397Y-65305318D01*
X93614397Y-65305318D02*
X93566778Y-65495794D01*
X93566778Y-65495794D02*
X93566778Y-65829127D01*
X93566778Y-65829127D02*
X93614397Y-66019603D01*
X93614397Y-66019603D02*
X93709635Y-66114841D01*
X93709635Y-66114841D02*
X93804873Y-66162460D01*
X95185825Y-65162460D02*
X94614397Y-65162460D01*
X94900111Y-65162460D02*
X94900111Y-66162460D01*
X94900111Y-66162460D02*
X94804873Y-66019603D01*
X94804873Y-66019603D02*
X94709635Y-65924365D01*
X94709635Y-65924365D02*
X94614397Y-65876746D01*
X96138206Y-65162460D02*
X95566778Y-65162460D01*
X95852492Y-65162460D02*
X95852492Y-66162460D01*
X95852492Y-66162460D02*
X95757254Y-66019603D01*
X95757254Y-66019603D02*
X95662016Y-65924365D01*
X95662016Y-65924365D02*
X95566778Y-65876746D01*
X74480839Y-88974841D02*
X74385601Y-89022460D01*
X74385601Y-89022460D02*
X74242744Y-89022460D01*
X74242744Y-89022460D02*
X74099887Y-88974841D01*
X74099887Y-88974841D02*
X74004649Y-88879603D01*
X74004649Y-88879603D02*
X73957030Y-88784365D01*
X73957030Y-88784365D02*
X73909411Y-88593889D01*
X73909411Y-88593889D02*
X73909411Y-88451032D01*
X73909411Y-88451032D02*
X73957030Y-88260556D01*
X73957030Y-88260556D02*
X74004649Y-88165318D01*
X74004649Y-88165318D02*
X74099887Y-88070080D01*
X74099887Y-88070080D02*
X74242744Y-88022460D01*
X74242744Y-88022460D02*
X74337982Y-88022460D01*
X74337982Y-88022460D02*
X74480839Y-88070080D01*
X74480839Y-88070080D02*
X74528458Y-88117699D01*
X74528458Y-88117699D02*
X74528458Y-88451032D01*
X74528458Y-88451032D02*
X74337982Y-88451032D01*
X74957030Y-88022460D02*
X74957030Y-89022460D01*
X74957030Y-89022460D02*
X75337982Y-89022460D01*
X75337982Y-89022460D02*
X75433220Y-88974841D01*
X75433220Y-88974841D02*
X75480839Y-88927222D01*
X75480839Y-88927222D02*
X75528458Y-88831984D01*
X75528458Y-88831984D02*
X75528458Y-88689127D01*
X75528458Y-88689127D02*
X75480839Y-88593889D01*
X75480839Y-88593889D02*
X75433220Y-88546270D01*
X75433220Y-88546270D02*
X75337982Y-88498651D01*
X75337982Y-88498651D02*
X74957030Y-88498651D01*
X75957030Y-88022460D02*
X75957030Y-89022460D01*
X76623696Y-89022460D02*
X76814172Y-89022460D01*
X76814172Y-89022460D02*
X76909410Y-88974841D01*
X76909410Y-88974841D02*
X77004648Y-88879603D01*
X77004648Y-88879603D02*
X77052267Y-88689127D01*
X77052267Y-88689127D02*
X77052267Y-88355794D01*
X77052267Y-88355794D02*
X77004648Y-88165318D01*
X77004648Y-88165318D02*
X76909410Y-88070080D01*
X76909410Y-88070080D02*
X76814172Y-88022460D01*
X76814172Y-88022460D02*
X76623696Y-88022460D01*
X76623696Y-88022460D02*
X76528458Y-88070080D01*
X76528458Y-88070080D02*
X76433220Y-88165318D01*
X76433220Y-88165318D02*
X76385601Y-88355794D01*
X76385601Y-88355794D02*
X76385601Y-88689127D01*
X76385601Y-88689127D02*
X76433220Y-88879603D01*
X76433220Y-88879603D02*
X76528458Y-88974841D01*
X76528458Y-88974841D02*
X76623696Y-89022460D01*
X77909410Y-88689127D02*
X77909410Y-88022460D01*
X77671315Y-89070080D02*
X77433220Y-88355794D01*
X77433220Y-88355794D02*
X78052267Y-88355794D01*
X78623696Y-89022460D02*
X78718934Y-89022460D01*
X78718934Y-89022460D02*
X78814172Y-88974841D01*
X78814172Y-88974841D02*
X78861791Y-88927222D01*
X78861791Y-88927222D02*
X78909410Y-88831984D01*
X78909410Y-88831984D02*
X78957029Y-88641508D01*
X78957029Y-88641508D02*
X78957029Y-88403413D01*
X78957029Y-88403413D02*
X78909410Y-88212937D01*
X78909410Y-88212937D02*
X78861791Y-88117699D01*
X78861791Y-88117699D02*
X78814172Y-88070080D01*
X78814172Y-88070080D02*
X78718934Y-88022460D01*
X78718934Y-88022460D02*
X78623696Y-88022460D01*
X78623696Y-88022460D02*
X78528458Y-88070080D01*
X78528458Y-88070080D02*
X78480839Y-88117699D01*
X78480839Y-88117699D02*
X78433220Y-88212937D01*
X78433220Y-88212937D02*
X78385601Y-88403413D01*
X78385601Y-88403413D02*
X78385601Y-88641508D01*
X78385601Y-88641508D02*
X78433220Y-88831984D01*
X78433220Y-88831984D02*
X78480839Y-88927222D01*
X78480839Y-88927222D02*
X78528458Y-88974841D01*
X78528458Y-88974841D02*
X78623696Y-89022460D01*
X80099886Y-89070080D02*
X79242744Y-87784365D01*
X80433220Y-88022460D02*
X80433220Y-89022460D01*
X80433220Y-89022460D02*
X80766553Y-88308175D01*
X80766553Y-88308175D02*
X81099886Y-89022460D01*
X81099886Y-89022460D02*
X81099886Y-88022460D01*
X81433220Y-89022460D02*
X82004648Y-89022460D01*
X81718934Y-88022460D02*
X81718934Y-89022460D01*
X82337982Y-88022460D02*
X82337982Y-89022460D01*
X82337982Y-89022460D02*
X82576077Y-89022460D01*
X82576077Y-89022460D02*
X82718934Y-88974841D01*
X82718934Y-88974841D02*
X82814172Y-88879603D01*
X82814172Y-88879603D02*
X82861791Y-88784365D01*
X82861791Y-88784365D02*
X82909410Y-88593889D01*
X82909410Y-88593889D02*
X82909410Y-88451032D01*
X82909410Y-88451032D02*
X82861791Y-88260556D01*
X82861791Y-88260556D02*
X82814172Y-88165318D01*
X82814172Y-88165318D02*
X82718934Y-88070080D01*
X82718934Y-88070080D02*
X82576077Y-88022460D01*
X82576077Y-88022460D02*
X82337982Y-88022460D01*
X83528458Y-89022460D02*
X83718934Y-89022460D01*
X83718934Y-89022460D02*
X83814172Y-88974841D01*
X83814172Y-88974841D02*
X83909410Y-88879603D01*
X83909410Y-88879603D02*
X83957029Y-88689127D01*
X83957029Y-88689127D02*
X83957029Y-88355794D01*
X83957029Y-88355794D02*
X83909410Y-88165318D01*
X83909410Y-88165318D02*
X83814172Y-88070080D01*
X83814172Y-88070080D02*
X83718934Y-88022460D01*
X83718934Y-88022460D02*
X83528458Y-88022460D01*
X83528458Y-88022460D02*
X83433220Y-88070080D01*
X83433220Y-88070080D02*
X83337982Y-88165318D01*
X83337982Y-88165318D02*
X83290363Y-88355794D01*
X83290363Y-88355794D02*
X83290363Y-88689127D01*
X83290363Y-88689127D02*
X83337982Y-88879603D01*
X83337982Y-88879603D02*
X83433220Y-88974841D01*
X83433220Y-88974841D02*
X83528458Y-89022460D01*
X91610588Y-73734841D02*
X91515350Y-73782460D01*
X91515350Y-73782460D02*
X91372493Y-73782460D01*
X91372493Y-73782460D02*
X91229636Y-73734841D01*
X91229636Y-73734841D02*
X91134398Y-73639603D01*
X91134398Y-73639603D02*
X91086779Y-73544365D01*
X91086779Y-73544365D02*
X91039160Y-73353889D01*
X91039160Y-73353889D02*
X91039160Y-73211032D01*
X91039160Y-73211032D02*
X91086779Y-73020556D01*
X91086779Y-73020556D02*
X91134398Y-72925318D01*
X91134398Y-72925318D02*
X91229636Y-72830080D01*
X91229636Y-72830080D02*
X91372493Y-72782460D01*
X91372493Y-72782460D02*
X91467731Y-72782460D01*
X91467731Y-72782460D02*
X91610588Y-72830080D01*
X91610588Y-72830080D02*
X91658207Y-72877699D01*
X91658207Y-72877699D02*
X91658207Y-73211032D01*
X91658207Y-73211032D02*
X91467731Y-73211032D01*
X92086779Y-72782460D02*
X92086779Y-73782460D01*
X92086779Y-73782460D02*
X92467731Y-73782460D01*
X92467731Y-73782460D02*
X92562969Y-73734841D01*
X92562969Y-73734841D02*
X92610588Y-73687222D01*
X92610588Y-73687222D02*
X92658207Y-73591984D01*
X92658207Y-73591984D02*
X92658207Y-73449127D01*
X92658207Y-73449127D02*
X92610588Y-73353889D01*
X92610588Y-73353889D02*
X92562969Y-73306270D01*
X92562969Y-73306270D02*
X92467731Y-73258651D01*
X92467731Y-73258651D02*
X92086779Y-73258651D01*
X93086779Y-72782460D02*
X93086779Y-73782460D01*
X93753445Y-73782460D02*
X93943921Y-73782460D01*
X93943921Y-73782460D02*
X94039159Y-73734841D01*
X94039159Y-73734841D02*
X94134397Y-73639603D01*
X94134397Y-73639603D02*
X94182016Y-73449127D01*
X94182016Y-73449127D02*
X94182016Y-73115794D01*
X94182016Y-73115794D02*
X94134397Y-72925318D01*
X94134397Y-72925318D02*
X94039159Y-72830080D01*
X94039159Y-72830080D02*
X93943921Y-72782460D01*
X93943921Y-72782460D02*
X93753445Y-72782460D01*
X93753445Y-72782460D02*
X93658207Y-72830080D01*
X93658207Y-72830080D02*
X93562969Y-72925318D01*
X93562969Y-72925318D02*
X93515350Y-73115794D01*
X93515350Y-73115794D02*
X93515350Y-73449127D01*
X93515350Y-73449127D02*
X93562969Y-73639603D01*
X93562969Y-73639603D02*
X93658207Y-73734841D01*
X93658207Y-73734841D02*
X93753445Y-73782460D01*
X95039159Y-73449127D02*
X95039159Y-72782460D01*
X94801064Y-73830080D02*
X94562969Y-73115794D01*
X94562969Y-73115794D02*
X95182016Y-73115794D01*
X95991540Y-73782460D02*
X95801064Y-73782460D01*
X95801064Y-73782460D02*
X95705826Y-73734841D01*
X95705826Y-73734841D02*
X95658207Y-73687222D01*
X95658207Y-73687222D02*
X95562969Y-73544365D01*
X95562969Y-73544365D02*
X95515350Y-73353889D01*
X95515350Y-73353889D02*
X95515350Y-72972937D01*
X95515350Y-72972937D02*
X95562969Y-72877699D01*
X95562969Y-72877699D02*
X95610588Y-72830080D01*
X95610588Y-72830080D02*
X95705826Y-72782460D01*
X95705826Y-72782460D02*
X95896302Y-72782460D01*
X95896302Y-72782460D02*
X95991540Y-72830080D01*
X95991540Y-72830080D02*
X96039159Y-72877699D01*
X96039159Y-72877699D02*
X96086778Y-72972937D01*
X96086778Y-72972937D02*
X96086778Y-73211032D01*
X96086778Y-73211032D02*
X96039159Y-73306270D01*
X96039159Y-73306270D02*
X95991540Y-73353889D01*
X95991540Y-73353889D02*
X95896302Y-73401508D01*
X95896302Y-73401508D02*
X95705826Y-73401508D01*
X95705826Y-73401508D02*
X95610588Y-73353889D01*
X95610588Y-73353889D02*
X95562969Y-73306270D01*
X95562969Y-73306270D02*
X95515350Y-73211032D01*
X92614398Y-99134841D02*
X92519160Y-99182460D01*
X92519160Y-99182460D02*
X92376303Y-99182460D01*
X92376303Y-99182460D02*
X92233446Y-99134841D01*
X92233446Y-99134841D02*
X92138208Y-99039603D01*
X92138208Y-99039603D02*
X92090589Y-98944365D01*
X92090589Y-98944365D02*
X92042970Y-98753889D01*
X92042970Y-98753889D02*
X92042970Y-98611032D01*
X92042970Y-98611032D02*
X92090589Y-98420556D01*
X92090589Y-98420556D02*
X92138208Y-98325318D01*
X92138208Y-98325318D02*
X92233446Y-98230080D01*
X92233446Y-98230080D02*
X92376303Y-98182460D01*
X92376303Y-98182460D02*
X92471541Y-98182460D01*
X92471541Y-98182460D02*
X92614398Y-98230080D01*
X92614398Y-98230080D02*
X92662017Y-98277699D01*
X92662017Y-98277699D02*
X92662017Y-98611032D01*
X92662017Y-98611032D02*
X92471541Y-98611032D01*
X93090589Y-98182460D02*
X93090589Y-99182460D01*
X93090589Y-99182460D02*
X93471541Y-99182460D01*
X93471541Y-99182460D02*
X93566779Y-99134841D01*
X93566779Y-99134841D02*
X93614398Y-99087222D01*
X93614398Y-99087222D02*
X93662017Y-98991984D01*
X93662017Y-98991984D02*
X93662017Y-98849127D01*
X93662017Y-98849127D02*
X93614398Y-98753889D01*
X93614398Y-98753889D02*
X93566779Y-98706270D01*
X93566779Y-98706270D02*
X93471541Y-98658651D01*
X93471541Y-98658651D02*
X93090589Y-98658651D01*
X94090589Y-98182460D02*
X94090589Y-99182460D01*
X94757255Y-99182460D02*
X94947731Y-99182460D01*
X94947731Y-99182460D02*
X95042969Y-99134841D01*
X95042969Y-99134841D02*
X95138207Y-99039603D01*
X95138207Y-99039603D02*
X95185826Y-98849127D01*
X95185826Y-98849127D02*
X95185826Y-98515794D01*
X95185826Y-98515794D02*
X95138207Y-98325318D01*
X95138207Y-98325318D02*
X95042969Y-98230080D01*
X95042969Y-98230080D02*
X94947731Y-98182460D01*
X94947731Y-98182460D02*
X94757255Y-98182460D01*
X94757255Y-98182460D02*
X94662017Y-98230080D01*
X94662017Y-98230080D02*
X94566779Y-98325318D01*
X94566779Y-98325318D02*
X94519160Y-98515794D01*
X94519160Y-98515794D02*
X94519160Y-98849127D01*
X94519160Y-98849127D02*
X94566779Y-99039603D01*
X94566779Y-99039603D02*
X94662017Y-99134841D01*
X94662017Y-99134841D02*
X94757255Y-99182460D01*
X96042969Y-98849127D02*
X96042969Y-98182460D01*
X95804874Y-99230080D02*
X95566779Y-98515794D01*
X95566779Y-98515794D02*
X96185826Y-98515794D01*
X91662016Y-83894841D02*
X91566778Y-83942460D01*
X91566778Y-83942460D02*
X91423921Y-83942460D01*
X91423921Y-83942460D02*
X91281064Y-83894841D01*
X91281064Y-83894841D02*
X91185826Y-83799603D01*
X91185826Y-83799603D02*
X91138207Y-83704365D01*
X91138207Y-83704365D02*
X91090588Y-83513889D01*
X91090588Y-83513889D02*
X91090588Y-83371032D01*
X91090588Y-83371032D02*
X91138207Y-83180556D01*
X91138207Y-83180556D02*
X91185826Y-83085318D01*
X91185826Y-83085318D02*
X91281064Y-82990080D01*
X91281064Y-82990080D02*
X91423921Y-82942460D01*
X91423921Y-82942460D02*
X91519159Y-82942460D01*
X91519159Y-82942460D02*
X91662016Y-82990080D01*
X91662016Y-82990080D02*
X91709635Y-83037699D01*
X91709635Y-83037699D02*
X91709635Y-83371032D01*
X91709635Y-83371032D02*
X91519159Y-83371032D01*
X92138207Y-82942460D02*
X92138207Y-83942460D01*
X92138207Y-83942460D02*
X92519159Y-83942460D01*
X92519159Y-83942460D02*
X92614397Y-83894841D01*
X92614397Y-83894841D02*
X92662016Y-83847222D01*
X92662016Y-83847222D02*
X92709635Y-83751984D01*
X92709635Y-83751984D02*
X92709635Y-83609127D01*
X92709635Y-83609127D02*
X92662016Y-83513889D01*
X92662016Y-83513889D02*
X92614397Y-83466270D01*
X92614397Y-83466270D02*
X92519159Y-83418651D01*
X92519159Y-83418651D02*
X92138207Y-83418651D01*
X93138207Y-82942460D02*
X93138207Y-83942460D01*
X93804873Y-83942460D02*
X93995349Y-83942460D01*
X93995349Y-83942460D02*
X94090587Y-83894841D01*
X94090587Y-83894841D02*
X94185825Y-83799603D01*
X94185825Y-83799603D02*
X94233444Y-83609127D01*
X94233444Y-83609127D02*
X94233444Y-83275794D01*
X94233444Y-83275794D02*
X94185825Y-83085318D01*
X94185825Y-83085318D02*
X94090587Y-82990080D01*
X94090587Y-82990080D02*
X93995349Y-82942460D01*
X93995349Y-82942460D02*
X93804873Y-82942460D01*
X93804873Y-82942460D02*
X93709635Y-82990080D01*
X93709635Y-82990080D02*
X93614397Y-83085318D01*
X93614397Y-83085318D02*
X93566778Y-83275794D01*
X93566778Y-83275794D02*
X93566778Y-83609127D01*
X93566778Y-83609127D02*
X93614397Y-83799603D01*
X93614397Y-83799603D02*
X93709635Y-83894841D01*
X93709635Y-83894841D02*
X93804873Y-83942460D01*
X95185825Y-82942460D02*
X94614397Y-82942460D01*
X94900111Y-82942460D02*
X94900111Y-83942460D01*
X94900111Y-83942460D02*
X94804873Y-83799603D01*
X94804873Y-83799603D02*
X94709635Y-83704365D01*
X94709635Y-83704365D02*
X94614397Y-83656746D01*
X95519159Y-83942460D02*
X96185825Y-83942460D01*
X96185825Y-83942460D02*
X95757254Y-82942460D01*
X74671314Y-104214841D02*
X74576076Y-104262460D01*
X74576076Y-104262460D02*
X74433219Y-104262460D01*
X74433219Y-104262460D02*
X74290362Y-104214841D01*
X74290362Y-104214841D02*
X74195124Y-104119603D01*
X74195124Y-104119603D02*
X74147505Y-104024365D01*
X74147505Y-104024365D02*
X74099886Y-103833889D01*
X74099886Y-103833889D02*
X74099886Y-103691032D01*
X74099886Y-103691032D02*
X74147505Y-103500556D01*
X74147505Y-103500556D02*
X74195124Y-103405318D01*
X74195124Y-103405318D02*
X74290362Y-103310080D01*
X74290362Y-103310080D02*
X74433219Y-103262460D01*
X74433219Y-103262460D02*
X74528457Y-103262460D01*
X74528457Y-103262460D02*
X74671314Y-103310080D01*
X74671314Y-103310080D02*
X74718933Y-103357699D01*
X74718933Y-103357699D02*
X74718933Y-103691032D01*
X74718933Y-103691032D02*
X74528457Y-103691032D01*
X75147505Y-103262460D02*
X75147505Y-104262460D01*
X75147505Y-104262460D02*
X75528457Y-104262460D01*
X75528457Y-104262460D02*
X75623695Y-104214841D01*
X75623695Y-104214841D02*
X75671314Y-104167222D01*
X75671314Y-104167222D02*
X75718933Y-104071984D01*
X75718933Y-104071984D02*
X75718933Y-103929127D01*
X75718933Y-103929127D02*
X75671314Y-103833889D01*
X75671314Y-103833889D02*
X75623695Y-103786270D01*
X75623695Y-103786270D02*
X75528457Y-103738651D01*
X75528457Y-103738651D02*
X75147505Y-103738651D01*
X76147505Y-103262460D02*
X76147505Y-104262460D01*
X76814171Y-104262460D02*
X77004647Y-104262460D01*
X77004647Y-104262460D02*
X77099885Y-104214841D01*
X77099885Y-104214841D02*
X77195123Y-104119603D01*
X77195123Y-104119603D02*
X77242742Y-103929127D01*
X77242742Y-103929127D02*
X77242742Y-103595794D01*
X77242742Y-103595794D02*
X77195123Y-103405318D01*
X77195123Y-103405318D02*
X77099885Y-103310080D01*
X77099885Y-103310080D02*
X77004647Y-103262460D01*
X77004647Y-103262460D02*
X76814171Y-103262460D01*
X76814171Y-103262460D02*
X76718933Y-103310080D01*
X76718933Y-103310080D02*
X76623695Y-103405318D01*
X76623695Y-103405318D02*
X76576076Y-103595794D01*
X76576076Y-103595794D02*
X76576076Y-103929127D01*
X76576076Y-103929127D02*
X76623695Y-104119603D01*
X76623695Y-104119603D02*
X76718933Y-104214841D01*
X76718933Y-104214841D02*
X76814171Y-104262460D01*
X78099885Y-103929127D02*
X78099885Y-103262460D01*
X77861790Y-104310080D02*
X77623695Y-103595794D01*
X77623695Y-103595794D02*
X78242742Y-103595794D01*
X78528457Y-104262460D02*
X79147504Y-104262460D01*
X79147504Y-104262460D02*
X78814171Y-103881508D01*
X78814171Y-103881508D02*
X78957028Y-103881508D01*
X78957028Y-103881508D02*
X79052266Y-103833889D01*
X79052266Y-103833889D02*
X79099885Y-103786270D01*
X79099885Y-103786270D02*
X79147504Y-103691032D01*
X79147504Y-103691032D02*
X79147504Y-103452937D01*
X79147504Y-103452937D02*
X79099885Y-103357699D01*
X79099885Y-103357699D02*
X79052266Y-103310080D01*
X79052266Y-103310080D02*
X78957028Y-103262460D01*
X78957028Y-103262460D02*
X78671314Y-103262460D01*
X78671314Y-103262460D02*
X78576076Y-103310080D01*
X78576076Y-103310080D02*
X78528457Y-103357699D01*
X80290361Y-104310080D02*
X79433219Y-103024365D01*
X80623695Y-104262460D02*
X80623695Y-103452937D01*
X80623695Y-103452937D02*
X80671314Y-103357699D01*
X80671314Y-103357699D02*
X80718933Y-103310080D01*
X80718933Y-103310080D02*
X80814171Y-103262460D01*
X80814171Y-103262460D02*
X81004647Y-103262460D01*
X81004647Y-103262460D02*
X81099885Y-103310080D01*
X81099885Y-103310080D02*
X81147504Y-103357699D01*
X81147504Y-103357699D02*
X81195123Y-103452937D01*
X81195123Y-103452937D02*
X81195123Y-104262460D01*
X81861790Y-104262460D02*
X81957028Y-104262460D01*
X81957028Y-104262460D02*
X82052266Y-104214841D01*
X82052266Y-104214841D02*
X82099885Y-104167222D01*
X82099885Y-104167222D02*
X82147504Y-104071984D01*
X82147504Y-104071984D02*
X82195123Y-103881508D01*
X82195123Y-103881508D02*
X82195123Y-103643413D01*
X82195123Y-103643413D02*
X82147504Y-103452937D01*
X82147504Y-103452937D02*
X82099885Y-103357699D01*
X82099885Y-103357699D02*
X82052266Y-103310080D01*
X82052266Y-103310080D02*
X81957028Y-103262460D01*
X81957028Y-103262460D02*
X81861790Y-103262460D01*
X81861790Y-103262460D02*
X81766552Y-103310080D01*
X81766552Y-103310080D02*
X81718933Y-103357699D01*
X81718933Y-103357699D02*
X81671314Y-103452937D01*
X81671314Y-103452937D02*
X81623695Y-103643413D01*
X81623695Y-103643413D02*
X81623695Y-103881508D01*
X81623695Y-103881508D02*
X81671314Y-104071984D01*
X81671314Y-104071984D02*
X81718933Y-104167222D01*
X81718933Y-104167222D02*
X81766552Y-104214841D01*
X81766552Y-104214841D02*
X81861790Y-104262460D01*
X82480838Y-104262460D02*
X83052266Y-104262460D01*
X82766552Y-103262460D02*
X82766552Y-104262460D01*
X83290362Y-104262460D02*
X83957028Y-103262460D01*
X83957028Y-104262460D02*
X83290362Y-103262460D01*
X84337981Y-103262460D02*
X84337981Y-104262460D01*
X84337981Y-104262460D02*
X84576076Y-104262460D01*
X84576076Y-104262460D02*
X84718933Y-104214841D01*
X84718933Y-104214841D02*
X84814171Y-104119603D01*
X84814171Y-104119603D02*
X84861790Y-104024365D01*
X84861790Y-104024365D02*
X84909409Y-103833889D01*
X84909409Y-103833889D02*
X84909409Y-103691032D01*
X84909409Y-103691032D02*
X84861790Y-103500556D01*
X84861790Y-103500556D02*
X84814171Y-103405318D01*
X84814171Y-103405318D02*
X84718933Y-103310080D01*
X84718933Y-103310080D02*
X84576076Y-103262460D01*
X84576076Y-103262460D02*
X84337981Y-103262460D01*
X92614398Y-76274841D02*
X92519160Y-76322460D01*
X92519160Y-76322460D02*
X92376303Y-76322460D01*
X92376303Y-76322460D02*
X92233446Y-76274841D01*
X92233446Y-76274841D02*
X92138208Y-76179603D01*
X92138208Y-76179603D02*
X92090589Y-76084365D01*
X92090589Y-76084365D02*
X92042970Y-75893889D01*
X92042970Y-75893889D02*
X92042970Y-75751032D01*
X92042970Y-75751032D02*
X92090589Y-75560556D01*
X92090589Y-75560556D02*
X92138208Y-75465318D01*
X92138208Y-75465318D02*
X92233446Y-75370080D01*
X92233446Y-75370080D02*
X92376303Y-75322460D01*
X92376303Y-75322460D02*
X92471541Y-75322460D01*
X92471541Y-75322460D02*
X92614398Y-75370080D01*
X92614398Y-75370080D02*
X92662017Y-75417699D01*
X92662017Y-75417699D02*
X92662017Y-75751032D01*
X92662017Y-75751032D02*
X92471541Y-75751032D01*
X93090589Y-75322460D02*
X93090589Y-76322460D01*
X93090589Y-76322460D02*
X93471541Y-76322460D01*
X93471541Y-76322460D02*
X93566779Y-76274841D01*
X93566779Y-76274841D02*
X93614398Y-76227222D01*
X93614398Y-76227222D02*
X93662017Y-76131984D01*
X93662017Y-76131984D02*
X93662017Y-75989127D01*
X93662017Y-75989127D02*
X93614398Y-75893889D01*
X93614398Y-75893889D02*
X93566779Y-75846270D01*
X93566779Y-75846270D02*
X93471541Y-75798651D01*
X93471541Y-75798651D02*
X93090589Y-75798651D01*
X94090589Y-75322460D02*
X94090589Y-76322460D01*
X94757255Y-76322460D02*
X94947731Y-76322460D01*
X94947731Y-76322460D02*
X95042969Y-76274841D01*
X95042969Y-76274841D02*
X95138207Y-76179603D01*
X95138207Y-76179603D02*
X95185826Y-75989127D01*
X95185826Y-75989127D02*
X95185826Y-75655794D01*
X95185826Y-75655794D02*
X95138207Y-75465318D01*
X95138207Y-75465318D02*
X95042969Y-75370080D01*
X95042969Y-75370080D02*
X94947731Y-75322460D01*
X94947731Y-75322460D02*
X94757255Y-75322460D01*
X94757255Y-75322460D02*
X94662017Y-75370080D01*
X94662017Y-75370080D02*
X94566779Y-75465318D01*
X94566779Y-75465318D02*
X94519160Y-75655794D01*
X94519160Y-75655794D02*
X94519160Y-75989127D01*
X94519160Y-75989127D02*
X94566779Y-76179603D01*
X94566779Y-76179603D02*
X94662017Y-76274841D01*
X94662017Y-76274841D02*
X94757255Y-76322460D01*
X95519160Y-76322460D02*
X96138207Y-76322460D01*
X96138207Y-76322460D02*
X95804874Y-75941508D01*
X95804874Y-75941508D02*
X95947731Y-75941508D01*
X95947731Y-75941508D02*
X96042969Y-75893889D01*
X96042969Y-75893889D02*
X96090588Y-75846270D01*
X96090588Y-75846270D02*
X96138207Y-75751032D01*
X96138207Y-75751032D02*
X96138207Y-75512937D01*
X96138207Y-75512937D02*
X96090588Y-75417699D01*
X96090588Y-75417699D02*
X96042969Y-75370080D01*
X96042969Y-75370080D02*
X95947731Y-75322460D01*
X95947731Y-75322460D02*
X95662017Y-75322460D01*
X95662017Y-75322460D02*
X95566779Y-75370080D01*
X95566779Y-75370080D02*
X95519160Y-75417699D01*
X74433219Y-101674841D02*
X74337981Y-101722460D01*
X74337981Y-101722460D02*
X74195124Y-101722460D01*
X74195124Y-101722460D02*
X74052267Y-101674841D01*
X74052267Y-101674841D02*
X73957029Y-101579603D01*
X73957029Y-101579603D02*
X73909410Y-101484365D01*
X73909410Y-101484365D02*
X73861791Y-101293889D01*
X73861791Y-101293889D02*
X73861791Y-101151032D01*
X73861791Y-101151032D02*
X73909410Y-100960556D01*
X73909410Y-100960556D02*
X73957029Y-100865318D01*
X73957029Y-100865318D02*
X74052267Y-100770080D01*
X74052267Y-100770080D02*
X74195124Y-100722460D01*
X74195124Y-100722460D02*
X74290362Y-100722460D01*
X74290362Y-100722460D02*
X74433219Y-100770080D01*
X74433219Y-100770080D02*
X74480838Y-100817699D01*
X74480838Y-100817699D02*
X74480838Y-101151032D01*
X74480838Y-101151032D02*
X74290362Y-101151032D01*
X74909410Y-100722460D02*
X74909410Y-101722460D01*
X74909410Y-101722460D02*
X75290362Y-101722460D01*
X75290362Y-101722460D02*
X75385600Y-101674841D01*
X75385600Y-101674841D02*
X75433219Y-101627222D01*
X75433219Y-101627222D02*
X75480838Y-101531984D01*
X75480838Y-101531984D02*
X75480838Y-101389127D01*
X75480838Y-101389127D02*
X75433219Y-101293889D01*
X75433219Y-101293889D02*
X75385600Y-101246270D01*
X75385600Y-101246270D02*
X75290362Y-101198651D01*
X75290362Y-101198651D02*
X74909410Y-101198651D01*
X75909410Y-100722460D02*
X75909410Y-101722460D01*
X76576076Y-101722460D02*
X76766552Y-101722460D01*
X76766552Y-101722460D02*
X76861790Y-101674841D01*
X76861790Y-101674841D02*
X76957028Y-101579603D01*
X76957028Y-101579603D02*
X77004647Y-101389127D01*
X77004647Y-101389127D02*
X77004647Y-101055794D01*
X77004647Y-101055794D02*
X76957028Y-100865318D01*
X76957028Y-100865318D02*
X76861790Y-100770080D01*
X76861790Y-100770080D02*
X76766552Y-100722460D01*
X76766552Y-100722460D02*
X76576076Y-100722460D01*
X76576076Y-100722460D02*
X76480838Y-100770080D01*
X76480838Y-100770080D02*
X76385600Y-100865318D01*
X76385600Y-100865318D02*
X76337981Y-101055794D01*
X76337981Y-101055794D02*
X76337981Y-101389127D01*
X76337981Y-101389127D02*
X76385600Y-101579603D01*
X76385600Y-101579603D02*
X76480838Y-101674841D01*
X76480838Y-101674841D02*
X76576076Y-101722460D01*
X77861790Y-101389127D02*
X77861790Y-100722460D01*
X77623695Y-101770080D02*
X77385600Y-101055794D01*
X77385600Y-101055794D02*
X78004647Y-101055794D01*
X78814171Y-101389127D02*
X78814171Y-100722460D01*
X78576076Y-101770080D02*
X78337981Y-101055794D01*
X78337981Y-101055794D02*
X78957028Y-101055794D01*
X80052266Y-101770080D02*
X79195124Y-100484365D01*
X80385600Y-101722460D02*
X80385600Y-100912937D01*
X80385600Y-100912937D02*
X80433219Y-100817699D01*
X80433219Y-100817699D02*
X80480838Y-100770080D01*
X80480838Y-100770080D02*
X80576076Y-100722460D01*
X80576076Y-100722460D02*
X80766552Y-100722460D01*
X80766552Y-100722460D02*
X80861790Y-100770080D01*
X80861790Y-100770080D02*
X80909409Y-100817699D01*
X80909409Y-100817699D02*
X80957028Y-100912937D01*
X80957028Y-100912937D02*
X80957028Y-101722460D01*
X81623695Y-101722460D02*
X81718933Y-101722460D01*
X81718933Y-101722460D02*
X81814171Y-101674841D01*
X81814171Y-101674841D02*
X81861790Y-101627222D01*
X81861790Y-101627222D02*
X81909409Y-101531984D01*
X81909409Y-101531984D02*
X81957028Y-101341508D01*
X81957028Y-101341508D02*
X81957028Y-101103413D01*
X81957028Y-101103413D02*
X81909409Y-100912937D01*
X81909409Y-100912937D02*
X81861790Y-100817699D01*
X81861790Y-100817699D02*
X81814171Y-100770080D01*
X81814171Y-100770080D02*
X81718933Y-100722460D01*
X81718933Y-100722460D02*
X81623695Y-100722460D01*
X81623695Y-100722460D02*
X81528457Y-100770080D01*
X81528457Y-100770080D02*
X81480838Y-100817699D01*
X81480838Y-100817699D02*
X81433219Y-100912937D01*
X81433219Y-100912937D02*
X81385600Y-101103413D01*
X81385600Y-101103413D02*
X81385600Y-101341508D01*
X81385600Y-101341508D02*
X81433219Y-101531984D01*
X81433219Y-101531984D02*
X81480838Y-101627222D01*
X81480838Y-101627222D02*
X81528457Y-101674841D01*
X81528457Y-101674841D02*
X81623695Y-101722460D01*
X82957028Y-100722460D02*
X82623695Y-101198651D01*
X82385600Y-100722460D02*
X82385600Y-101722460D01*
X82385600Y-101722460D02*
X82766552Y-101722460D01*
X82766552Y-101722460D02*
X82861790Y-101674841D01*
X82861790Y-101674841D02*
X82909409Y-101627222D01*
X82909409Y-101627222D02*
X82957028Y-101531984D01*
X82957028Y-101531984D02*
X82957028Y-101389127D01*
X82957028Y-101389127D02*
X82909409Y-101293889D01*
X82909409Y-101293889D02*
X82861790Y-101246270D01*
X82861790Y-101246270D02*
X82766552Y-101198651D01*
X82766552Y-101198651D02*
X82385600Y-101198651D01*
X83290362Y-101722460D02*
X83957028Y-100722460D01*
X83957028Y-101722460D02*
X83290362Y-100722460D01*
X84337981Y-100722460D02*
X84337981Y-101722460D01*
X84337981Y-101722460D02*
X84576076Y-101722460D01*
X84576076Y-101722460D02*
X84718933Y-101674841D01*
X84718933Y-101674841D02*
X84814171Y-101579603D01*
X84814171Y-101579603D02*
X84861790Y-101484365D01*
X84861790Y-101484365D02*
X84909409Y-101293889D01*
X84909409Y-101293889D02*
X84909409Y-101151032D01*
X84909409Y-101151032D02*
X84861790Y-100960556D01*
X84861790Y-100960556D02*
X84814171Y-100865318D01*
X84814171Y-100865318D02*
X84718933Y-100770080D01*
X84718933Y-100770080D02*
X84576076Y-100722460D01*
X84576076Y-100722460D02*
X84337981Y-100722460D01*
X74615601Y-106754841D02*
X74520363Y-106802460D01*
X74520363Y-106802460D02*
X74377506Y-106802460D01*
X74377506Y-106802460D02*
X74234649Y-106754841D01*
X74234649Y-106754841D02*
X74139411Y-106659603D01*
X74139411Y-106659603D02*
X74091792Y-106564365D01*
X74091792Y-106564365D02*
X74044173Y-106373889D01*
X74044173Y-106373889D02*
X74044173Y-106231032D01*
X74044173Y-106231032D02*
X74091792Y-106040556D01*
X74091792Y-106040556D02*
X74139411Y-105945318D01*
X74139411Y-105945318D02*
X74234649Y-105850080D01*
X74234649Y-105850080D02*
X74377506Y-105802460D01*
X74377506Y-105802460D02*
X74472744Y-105802460D01*
X74472744Y-105802460D02*
X74615601Y-105850080D01*
X74615601Y-105850080D02*
X74663220Y-105897699D01*
X74663220Y-105897699D02*
X74663220Y-106231032D01*
X74663220Y-106231032D02*
X74472744Y-106231032D01*
X75091792Y-105802460D02*
X75091792Y-106802460D01*
X75091792Y-106802460D02*
X75663220Y-105802460D01*
X75663220Y-105802460D02*
X75663220Y-106802460D01*
X76139411Y-105802460D02*
X76139411Y-106802460D01*
X76139411Y-106802460D02*
X76377506Y-106802460D01*
X76377506Y-106802460D02*
X76520363Y-106754841D01*
X76520363Y-106754841D02*
X76615601Y-106659603D01*
X76615601Y-106659603D02*
X76663220Y-106564365D01*
X76663220Y-106564365D02*
X76710839Y-106373889D01*
X76710839Y-106373889D02*
X76710839Y-106231032D01*
X76710839Y-106231032D02*
X76663220Y-106040556D01*
X76663220Y-106040556D02*
X76615601Y-105945318D01*
X76615601Y-105945318D02*
X76520363Y-105850080D01*
X76520363Y-105850080D02*
X76377506Y-105802460D01*
X76377506Y-105802460D02*
X76139411Y-105802460D01*
X74433219Y-55954841D02*
X74337981Y-56002460D01*
X74337981Y-56002460D02*
X74195124Y-56002460D01*
X74195124Y-56002460D02*
X74052267Y-55954841D01*
X74052267Y-55954841D02*
X73957029Y-55859603D01*
X73957029Y-55859603D02*
X73909410Y-55764365D01*
X73909410Y-55764365D02*
X73861791Y-55573889D01*
X73861791Y-55573889D02*
X73861791Y-55431032D01*
X73861791Y-55431032D02*
X73909410Y-55240556D01*
X73909410Y-55240556D02*
X73957029Y-55145318D01*
X73957029Y-55145318D02*
X74052267Y-55050080D01*
X74052267Y-55050080D02*
X74195124Y-55002460D01*
X74195124Y-55002460D02*
X74290362Y-55002460D01*
X74290362Y-55002460D02*
X74433219Y-55050080D01*
X74433219Y-55050080D02*
X74480838Y-55097699D01*
X74480838Y-55097699D02*
X74480838Y-55431032D01*
X74480838Y-55431032D02*
X74290362Y-55431032D01*
X74909410Y-55002460D02*
X74909410Y-56002460D01*
X74909410Y-56002460D02*
X75480838Y-55002460D01*
X75480838Y-55002460D02*
X75480838Y-56002460D01*
X75957029Y-55002460D02*
X75957029Y-56002460D01*
X75957029Y-56002460D02*
X76195124Y-56002460D01*
X76195124Y-56002460D02*
X76337981Y-55954841D01*
X76337981Y-55954841D02*
X76433219Y-55859603D01*
X76433219Y-55859603D02*
X76480838Y-55764365D01*
X76480838Y-55764365D02*
X76528457Y-55573889D01*
X76528457Y-55573889D02*
X76528457Y-55431032D01*
X76528457Y-55431032D02*
X76480838Y-55240556D01*
X76480838Y-55240556D02*
X76433219Y-55145318D01*
X76433219Y-55145318D02*
X76337981Y-55050080D01*
X76337981Y-55050080D02*
X76195124Y-55002460D01*
X76195124Y-55002460D02*
X75957029Y-55002460D01*
X95062969Y-56005180D02*
X94586779Y-56005180D01*
X94586779Y-56005180D02*
X94539160Y-55528990D01*
X94539160Y-55528990D02*
X94586779Y-55576609D01*
X94586779Y-55576609D02*
X94682017Y-55624228D01*
X94682017Y-55624228D02*
X94920112Y-55624228D01*
X94920112Y-55624228D02*
X95015350Y-55576609D01*
X95015350Y-55576609D02*
X95062969Y-55528990D01*
X95062969Y-55528990D02*
X95110588Y-55433752D01*
X95110588Y-55433752D02*
X95110588Y-55195657D01*
X95110588Y-55195657D02*
X95062969Y-55100419D01*
X95062969Y-55100419D02*
X95015350Y-55052800D01*
X95015350Y-55052800D02*
X94920112Y-55005180D01*
X94920112Y-55005180D02*
X94682017Y-55005180D01*
X94682017Y-55005180D02*
X94586779Y-55052800D01*
X94586779Y-55052800D02*
X94539160Y-55100419D01*
X95396303Y-56005180D02*
X95729636Y-55005180D01*
X95729636Y-55005180D02*
X96062969Y-56005180D01*
X74433219Y-83894841D02*
X74337981Y-83942460D01*
X74337981Y-83942460D02*
X74195124Y-83942460D01*
X74195124Y-83942460D02*
X74052267Y-83894841D01*
X74052267Y-83894841D02*
X73957029Y-83799603D01*
X73957029Y-83799603D02*
X73909410Y-83704365D01*
X73909410Y-83704365D02*
X73861791Y-83513889D01*
X73861791Y-83513889D02*
X73861791Y-83371032D01*
X73861791Y-83371032D02*
X73909410Y-83180556D01*
X73909410Y-83180556D02*
X73957029Y-83085318D01*
X73957029Y-83085318D02*
X74052267Y-82990080D01*
X74052267Y-82990080D02*
X74195124Y-82942460D01*
X74195124Y-82942460D02*
X74290362Y-82942460D01*
X74290362Y-82942460D02*
X74433219Y-82990080D01*
X74433219Y-82990080D02*
X74480838Y-83037699D01*
X74480838Y-83037699D02*
X74480838Y-83371032D01*
X74480838Y-83371032D02*
X74290362Y-83371032D01*
X74909410Y-82942460D02*
X74909410Y-83942460D01*
X74909410Y-83942460D02*
X75290362Y-83942460D01*
X75290362Y-83942460D02*
X75385600Y-83894841D01*
X75385600Y-83894841D02*
X75433219Y-83847222D01*
X75433219Y-83847222D02*
X75480838Y-83751984D01*
X75480838Y-83751984D02*
X75480838Y-83609127D01*
X75480838Y-83609127D02*
X75433219Y-83513889D01*
X75433219Y-83513889D02*
X75385600Y-83466270D01*
X75385600Y-83466270D02*
X75290362Y-83418651D01*
X75290362Y-83418651D02*
X74909410Y-83418651D01*
X75909410Y-82942460D02*
X75909410Y-83942460D01*
X76576076Y-83942460D02*
X76766552Y-83942460D01*
X76766552Y-83942460D02*
X76861790Y-83894841D01*
X76861790Y-83894841D02*
X76957028Y-83799603D01*
X76957028Y-83799603D02*
X77004647Y-83609127D01*
X77004647Y-83609127D02*
X77004647Y-83275794D01*
X77004647Y-83275794D02*
X76957028Y-83085318D01*
X76957028Y-83085318D02*
X76861790Y-82990080D01*
X76861790Y-82990080D02*
X76766552Y-82942460D01*
X76766552Y-82942460D02*
X76576076Y-82942460D01*
X76576076Y-82942460D02*
X76480838Y-82990080D01*
X76480838Y-82990080D02*
X76385600Y-83085318D01*
X76385600Y-83085318D02*
X76337981Y-83275794D01*
X76337981Y-83275794D02*
X76337981Y-83609127D01*
X76337981Y-83609127D02*
X76385600Y-83799603D01*
X76385600Y-83799603D02*
X76480838Y-83894841D01*
X76480838Y-83894841D02*
X76576076Y-83942460D01*
X77337981Y-83942460D02*
X77957028Y-83942460D01*
X77957028Y-83942460D02*
X77623695Y-83561508D01*
X77623695Y-83561508D02*
X77766552Y-83561508D01*
X77766552Y-83561508D02*
X77861790Y-83513889D01*
X77861790Y-83513889D02*
X77909409Y-83466270D01*
X77909409Y-83466270D02*
X77957028Y-83371032D01*
X77957028Y-83371032D02*
X77957028Y-83132937D01*
X77957028Y-83132937D02*
X77909409Y-83037699D01*
X77909409Y-83037699D02*
X77861790Y-82990080D01*
X77861790Y-82990080D02*
X77766552Y-82942460D01*
X77766552Y-82942460D02*
X77480838Y-82942460D01*
X77480838Y-82942460D02*
X77385600Y-82990080D01*
X77385600Y-82990080D02*
X77337981Y-83037699D01*
X78528457Y-83513889D02*
X78433219Y-83561508D01*
X78433219Y-83561508D02*
X78385600Y-83609127D01*
X78385600Y-83609127D02*
X78337981Y-83704365D01*
X78337981Y-83704365D02*
X78337981Y-83751984D01*
X78337981Y-83751984D02*
X78385600Y-83847222D01*
X78385600Y-83847222D02*
X78433219Y-83894841D01*
X78433219Y-83894841D02*
X78528457Y-83942460D01*
X78528457Y-83942460D02*
X78718933Y-83942460D01*
X78718933Y-83942460D02*
X78814171Y-83894841D01*
X78814171Y-83894841D02*
X78861790Y-83847222D01*
X78861790Y-83847222D02*
X78909409Y-83751984D01*
X78909409Y-83751984D02*
X78909409Y-83704365D01*
X78909409Y-83704365D02*
X78861790Y-83609127D01*
X78861790Y-83609127D02*
X78814171Y-83561508D01*
X78814171Y-83561508D02*
X78718933Y-83513889D01*
X78718933Y-83513889D02*
X78528457Y-83513889D01*
X78528457Y-83513889D02*
X78433219Y-83466270D01*
X78433219Y-83466270D02*
X78385600Y-83418651D01*
X78385600Y-83418651D02*
X78337981Y-83323413D01*
X78337981Y-83323413D02*
X78337981Y-83132937D01*
X78337981Y-83132937D02*
X78385600Y-83037699D01*
X78385600Y-83037699D02*
X78433219Y-82990080D01*
X78433219Y-82990080D02*
X78528457Y-82942460D01*
X78528457Y-82942460D02*
X78718933Y-82942460D01*
X78718933Y-82942460D02*
X78814171Y-82990080D01*
X78814171Y-82990080D02*
X78861790Y-83037699D01*
X78861790Y-83037699D02*
X78909409Y-83132937D01*
X78909409Y-83132937D02*
X78909409Y-83323413D01*
X78909409Y-83323413D02*
X78861790Y-83418651D01*
X78861790Y-83418651D02*
X78814171Y-83466270D01*
X78814171Y-83466270D02*
X78718933Y-83513889D01*
X91662016Y-68654841D02*
X91566778Y-68702460D01*
X91566778Y-68702460D02*
X91423921Y-68702460D01*
X91423921Y-68702460D02*
X91281064Y-68654841D01*
X91281064Y-68654841D02*
X91185826Y-68559603D01*
X91185826Y-68559603D02*
X91138207Y-68464365D01*
X91138207Y-68464365D02*
X91090588Y-68273889D01*
X91090588Y-68273889D02*
X91090588Y-68131032D01*
X91090588Y-68131032D02*
X91138207Y-67940556D01*
X91138207Y-67940556D02*
X91185826Y-67845318D01*
X91185826Y-67845318D02*
X91281064Y-67750080D01*
X91281064Y-67750080D02*
X91423921Y-67702460D01*
X91423921Y-67702460D02*
X91519159Y-67702460D01*
X91519159Y-67702460D02*
X91662016Y-67750080D01*
X91662016Y-67750080D02*
X91709635Y-67797699D01*
X91709635Y-67797699D02*
X91709635Y-68131032D01*
X91709635Y-68131032D02*
X91519159Y-68131032D01*
X92138207Y-67702460D02*
X92138207Y-68702460D01*
X92138207Y-68702460D02*
X92519159Y-68702460D01*
X92519159Y-68702460D02*
X92614397Y-68654841D01*
X92614397Y-68654841D02*
X92662016Y-68607222D01*
X92662016Y-68607222D02*
X92709635Y-68511984D01*
X92709635Y-68511984D02*
X92709635Y-68369127D01*
X92709635Y-68369127D02*
X92662016Y-68273889D01*
X92662016Y-68273889D02*
X92614397Y-68226270D01*
X92614397Y-68226270D02*
X92519159Y-68178651D01*
X92519159Y-68178651D02*
X92138207Y-68178651D01*
X93138207Y-67702460D02*
X93138207Y-68702460D01*
X93804873Y-68702460D02*
X93995349Y-68702460D01*
X93995349Y-68702460D02*
X94090587Y-68654841D01*
X94090587Y-68654841D02*
X94185825Y-68559603D01*
X94185825Y-68559603D02*
X94233444Y-68369127D01*
X94233444Y-68369127D02*
X94233444Y-68035794D01*
X94233444Y-68035794D02*
X94185825Y-67845318D01*
X94185825Y-67845318D02*
X94090587Y-67750080D01*
X94090587Y-67750080D02*
X93995349Y-67702460D01*
X93995349Y-67702460D02*
X93804873Y-67702460D01*
X93804873Y-67702460D02*
X93709635Y-67750080D01*
X93709635Y-67750080D02*
X93614397Y-67845318D01*
X93614397Y-67845318D02*
X93566778Y-68035794D01*
X93566778Y-68035794D02*
X93566778Y-68369127D01*
X93566778Y-68369127D02*
X93614397Y-68559603D01*
X93614397Y-68559603D02*
X93709635Y-68654841D01*
X93709635Y-68654841D02*
X93804873Y-68702460D01*
X95185825Y-67702460D02*
X94614397Y-67702460D01*
X94900111Y-67702460D02*
X94900111Y-68702460D01*
X94900111Y-68702460D02*
X94804873Y-68559603D01*
X94804873Y-68559603D02*
X94709635Y-68464365D01*
X94709635Y-68464365D02*
X94614397Y-68416746D01*
X95804873Y-68702460D02*
X95900111Y-68702460D01*
X95900111Y-68702460D02*
X95995349Y-68654841D01*
X95995349Y-68654841D02*
X96042968Y-68607222D01*
X96042968Y-68607222D02*
X96090587Y-68511984D01*
X96090587Y-68511984D02*
X96138206Y-68321508D01*
X96138206Y-68321508D02*
X96138206Y-68083413D01*
X96138206Y-68083413D02*
X96090587Y-67892937D01*
X96090587Y-67892937D02*
X96042968Y-67797699D01*
X96042968Y-67797699D02*
X95995349Y-67750080D01*
X95995349Y-67750080D02*
X95900111Y-67702460D01*
X95900111Y-67702460D02*
X95804873Y-67702460D01*
X95804873Y-67702460D02*
X95709635Y-67750080D01*
X95709635Y-67750080D02*
X95662016Y-67797699D01*
X95662016Y-67797699D02*
X95614397Y-67892937D01*
X95614397Y-67892937D02*
X95566778Y-68083413D01*
X95566778Y-68083413D02*
X95566778Y-68321508D01*
X95566778Y-68321508D02*
X95614397Y-68511984D01*
X95614397Y-68511984D02*
X95662016Y-68607222D01*
X95662016Y-68607222D02*
X95709635Y-68654841D01*
X95709635Y-68654841D02*
X95804873Y-68702460D01*
X74433219Y-66114841D02*
X74337981Y-66162460D01*
X74337981Y-66162460D02*
X74195124Y-66162460D01*
X74195124Y-66162460D02*
X74052267Y-66114841D01*
X74052267Y-66114841D02*
X73957029Y-66019603D01*
X73957029Y-66019603D02*
X73909410Y-65924365D01*
X73909410Y-65924365D02*
X73861791Y-65733889D01*
X73861791Y-65733889D02*
X73861791Y-65591032D01*
X73861791Y-65591032D02*
X73909410Y-65400556D01*
X73909410Y-65400556D02*
X73957029Y-65305318D01*
X73957029Y-65305318D02*
X74052267Y-65210080D01*
X74052267Y-65210080D02*
X74195124Y-65162460D01*
X74195124Y-65162460D02*
X74290362Y-65162460D01*
X74290362Y-65162460D02*
X74433219Y-65210080D01*
X74433219Y-65210080D02*
X74480838Y-65257699D01*
X74480838Y-65257699D02*
X74480838Y-65591032D01*
X74480838Y-65591032D02*
X74290362Y-65591032D01*
X74909410Y-65162460D02*
X74909410Y-66162460D01*
X74909410Y-66162460D02*
X75290362Y-66162460D01*
X75290362Y-66162460D02*
X75385600Y-66114841D01*
X75385600Y-66114841D02*
X75433219Y-66067222D01*
X75433219Y-66067222D02*
X75480838Y-65971984D01*
X75480838Y-65971984D02*
X75480838Y-65829127D01*
X75480838Y-65829127D02*
X75433219Y-65733889D01*
X75433219Y-65733889D02*
X75385600Y-65686270D01*
X75385600Y-65686270D02*
X75290362Y-65638651D01*
X75290362Y-65638651D02*
X74909410Y-65638651D01*
X75909410Y-65162460D02*
X75909410Y-66162460D01*
X76576076Y-66162460D02*
X76766552Y-66162460D01*
X76766552Y-66162460D02*
X76861790Y-66114841D01*
X76861790Y-66114841D02*
X76957028Y-66019603D01*
X76957028Y-66019603D02*
X77004647Y-65829127D01*
X77004647Y-65829127D02*
X77004647Y-65495794D01*
X77004647Y-65495794D02*
X76957028Y-65305318D01*
X76957028Y-65305318D02*
X76861790Y-65210080D01*
X76861790Y-65210080D02*
X76766552Y-65162460D01*
X76766552Y-65162460D02*
X76576076Y-65162460D01*
X76576076Y-65162460D02*
X76480838Y-65210080D01*
X76480838Y-65210080D02*
X76385600Y-65305318D01*
X76385600Y-65305318D02*
X76337981Y-65495794D01*
X76337981Y-65495794D02*
X76337981Y-65829127D01*
X76337981Y-65829127D02*
X76385600Y-66019603D01*
X76385600Y-66019603D02*
X76480838Y-66114841D01*
X76480838Y-66114841D02*
X76576076Y-66162460D01*
X77861790Y-65829127D02*
X77861790Y-65162460D01*
X77623695Y-66210080D02*
X77385600Y-65495794D01*
X77385600Y-65495794D02*
X78004647Y-65495794D01*
X78290362Y-66162460D02*
X78957028Y-66162460D01*
X78957028Y-66162460D02*
X78528457Y-65162460D01*
X74433219Y-53414841D02*
X74337981Y-53462460D01*
X74337981Y-53462460D02*
X74195124Y-53462460D01*
X74195124Y-53462460D02*
X74052267Y-53414841D01*
X74052267Y-53414841D02*
X73957029Y-53319603D01*
X73957029Y-53319603D02*
X73909410Y-53224365D01*
X73909410Y-53224365D02*
X73861791Y-53033889D01*
X73861791Y-53033889D02*
X73861791Y-52891032D01*
X73861791Y-52891032D02*
X73909410Y-52700556D01*
X73909410Y-52700556D02*
X73957029Y-52605318D01*
X73957029Y-52605318D02*
X74052267Y-52510080D01*
X74052267Y-52510080D02*
X74195124Y-52462460D01*
X74195124Y-52462460D02*
X74290362Y-52462460D01*
X74290362Y-52462460D02*
X74433219Y-52510080D01*
X74433219Y-52510080D02*
X74480838Y-52557699D01*
X74480838Y-52557699D02*
X74480838Y-52891032D01*
X74480838Y-52891032D02*
X74290362Y-52891032D01*
X74909410Y-52462460D02*
X74909410Y-53462460D01*
X74909410Y-53462460D02*
X75480838Y-52462460D01*
X75480838Y-52462460D02*
X75480838Y-53462460D01*
X75957029Y-52462460D02*
X75957029Y-53462460D01*
X75957029Y-53462460D02*
X76195124Y-53462460D01*
X76195124Y-53462460D02*
X76337981Y-53414841D01*
X76337981Y-53414841D02*
X76433219Y-53319603D01*
X76433219Y-53319603D02*
X76480838Y-53224365D01*
X76480838Y-53224365D02*
X76528457Y-53033889D01*
X76528457Y-53033889D02*
X76528457Y-52891032D01*
X76528457Y-52891032D02*
X76480838Y-52700556D01*
X76480838Y-52700556D02*
X76433219Y-52605318D01*
X76433219Y-52605318D02*
X76337981Y-52510080D01*
X76337981Y-52510080D02*
X76195124Y-52462460D01*
X76195124Y-52462460D02*
X75957029Y-52462460D01*
X74433220Y-96594841D02*
X74337982Y-96642460D01*
X74337982Y-96642460D02*
X74195125Y-96642460D01*
X74195125Y-96642460D02*
X74052268Y-96594841D01*
X74052268Y-96594841D02*
X73957030Y-96499603D01*
X73957030Y-96499603D02*
X73909411Y-96404365D01*
X73909411Y-96404365D02*
X73861792Y-96213889D01*
X73861792Y-96213889D02*
X73861792Y-96071032D01*
X73861792Y-96071032D02*
X73909411Y-95880556D01*
X73909411Y-95880556D02*
X73957030Y-95785318D01*
X73957030Y-95785318D02*
X74052268Y-95690080D01*
X74052268Y-95690080D02*
X74195125Y-95642460D01*
X74195125Y-95642460D02*
X74290363Y-95642460D01*
X74290363Y-95642460D02*
X74433220Y-95690080D01*
X74433220Y-95690080D02*
X74480839Y-95737699D01*
X74480839Y-95737699D02*
X74480839Y-96071032D01*
X74480839Y-96071032D02*
X74290363Y-96071032D01*
X74909411Y-95642460D02*
X74909411Y-96642460D01*
X74909411Y-96642460D02*
X75290363Y-96642460D01*
X75290363Y-96642460D02*
X75385601Y-96594841D01*
X75385601Y-96594841D02*
X75433220Y-96547222D01*
X75433220Y-96547222D02*
X75480839Y-96451984D01*
X75480839Y-96451984D02*
X75480839Y-96309127D01*
X75480839Y-96309127D02*
X75433220Y-96213889D01*
X75433220Y-96213889D02*
X75385601Y-96166270D01*
X75385601Y-96166270D02*
X75290363Y-96118651D01*
X75290363Y-96118651D02*
X74909411Y-96118651D01*
X75909411Y-95642460D02*
X75909411Y-96642460D01*
X76576077Y-96642460D02*
X76766553Y-96642460D01*
X76766553Y-96642460D02*
X76861791Y-96594841D01*
X76861791Y-96594841D02*
X76957029Y-96499603D01*
X76957029Y-96499603D02*
X77004648Y-96309127D01*
X77004648Y-96309127D02*
X77004648Y-95975794D01*
X77004648Y-95975794D02*
X76957029Y-95785318D01*
X76957029Y-95785318D02*
X76861791Y-95690080D01*
X76861791Y-95690080D02*
X76766553Y-95642460D01*
X76766553Y-95642460D02*
X76576077Y-95642460D01*
X76576077Y-95642460D02*
X76480839Y-95690080D01*
X76480839Y-95690080D02*
X76385601Y-95785318D01*
X76385601Y-95785318D02*
X76337982Y-95975794D01*
X76337982Y-95975794D02*
X76337982Y-96309127D01*
X76337982Y-96309127D02*
X76385601Y-96499603D01*
X76385601Y-96499603D02*
X76480839Y-96594841D01*
X76480839Y-96594841D02*
X76576077Y-96642460D01*
X77385601Y-96547222D02*
X77433220Y-96594841D01*
X77433220Y-96594841D02*
X77528458Y-96642460D01*
X77528458Y-96642460D02*
X77766553Y-96642460D01*
X77766553Y-96642460D02*
X77861791Y-96594841D01*
X77861791Y-96594841D02*
X77909410Y-96547222D01*
X77909410Y-96547222D02*
X77957029Y-96451984D01*
X77957029Y-96451984D02*
X77957029Y-96356746D01*
X77957029Y-96356746D02*
X77909410Y-96213889D01*
X77909410Y-96213889D02*
X77337982Y-95642460D01*
X77337982Y-95642460D02*
X77957029Y-95642460D01*
X74306078Y-91514841D02*
X74210840Y-91562460D01*
X74210840Y-91562460D02*
X74067983Y-91562460D01*
X74067983Y-91562460D02*
X73925126Y-91514841D01*
X73925126Y-91514841D02*
X73829888Y-91419603D01*
X73829888Y-91419603D02*
X73782269Y-91324365D01*
X73782269Y-91324365D02*
X73734650Y-91133889D01*
X73734650Y-91133889D02*
X73734650Y-90991032D01*
X73734650Y-90991032D02*
X73782269Y-90800556D01*
X73782269Y-90800556D02*
X73829888Y-90705318D01*
X73829888Y-90705318D02*
X73925126Y-90610080D01*
X73925126Y-90610080D02*
X74067983Y-90562460D01*
X74067983Y-90562460D02*
X74163221Y-90562460D01*
X74163221Y-90562460D02*
X74306078Y-90610080D01*
X74306078Y-90610080D02*
X74353697Y-90657699D01*
X74353697Y-90657699D02*
X74353697Y-90991032D01*
X74353697Y-90991032D02*
X74163221Y-90991032D01*
X74782269Y-90562460D02*
X74782269Y-91562460D01*
X74782269Y-91562460D02*
X75163221Y-91562460D01*
X75163221Y-91562460D02*
X75258459Y-91514841D01*
X75258459Y-91514841D02*
X75306078Y-91467222D01*
X75306078Y-91467222D02*
X75353697Y-91371984D01*
X75353697Y-91371984D02*
X75353697Y-91229127D01*
X75353697Y-91229127D02*
X75306078Y-91133889D01*
X75306078Y-91133889D02*
X75258459Y-91086270D01*
X75258459Y-91086270D02*
X75163221Y-91038651D01*
X75163221Y-91038651D02*
X74782269Y-91038651D01*
X75782269Y-90562460D02*
X75782269Y-91562460D01*
X76448935Y-91562460D02*
X76639411Y-91562460D01*
X76639411Y-91562460D02*
X76734649Y-91514841D01*
X76734649Y-91514841D02*
X76829887Y-91419603D01*
X76829887Y-91419603D02*
X76877506Y-91229127D01*
X76877506Y-91229127D02*
X76877506Y-90895794D01*
X76877506Y-90895794D02*
X76829887Y-90705318D01*
X76829887Y-90705318D02*
X76734649Y-90610080D01*
X76734649Y-90610080D02*
X76639411Y-90562460D01*
X76639411Y-90562460D02*
X76448935Y-90562460D01*
X76448935Y-90562460D02*
X76353697Y-90610080D01*
X76353697Y-90610080D02*
X76258459Y-90705318D01*
X76258459Y-90705318D02*
X76210840Y-90895794D01*
X76210840Y-90895794D02*
X76210840Y-91229127D01*
X76210840Y-91229127D02*
X76258459Y-91419603D01*
X76258459Y-91419603D02*
X76353697Y-91514841D01*
X76353697Y-91514841D02*
X76448935Y-91562460D01*
X77734649Y-91229127D02*
X77734649Y-90562460D01*
X77496554Y-91610080D02*
X77258459Y-90895794D01*
X77258459Y-90895794D02*
X77877506Y-90895794D01*
X78782268Y-90562460D02*
X78210840Y-90562460D01*
X78496554Y-90562460D02*
X78496554Y-91562460D01*
X78496554Y-91562460D02*
X78401316Y-91419603D01*
X78401316Y-91419603D02*
X78306078Y-91324365D01*
X78306078Y-91324365D02*
X78210840Y-91276746D01*
X79925125Y-91610080D02*
X79067983Y-90324365D01*
X80258459Y-90562460D02*
X80258459Y-91562460D01*
X80258459Y-91562460D02*
X80591792Y-90848175D01*
X80591792Y-90848175D02*
X80925125Y-91562460D01*
X80925125Y-91562460D02*
X80925125Y-90562460D01*
X81258459Y-91562460D02*
X81829887Y-91562460D01*
X81544173Y-90562460D02*
X81544173Y-91562460D01*
X82163221Y-90562460D02*
X82163221Y-91562460D01*
X82163221Y-91562460D02*
X82401316Y-91562460D01*
X82401316Y-91562460D02*
X82544173Y-91514841D01*
X82544173Y-91514841D02*
X82639411Y-91419603D01*
X82639411Y-91419603D02*
X82687030Y-91324365D01*
X82687030Y-91324365D02*
X82734649Y-91133889D01*
X82734649Y-91133889D02*
X82734649Y-90991032D01*
X82734649Y-90991032D02*
X82687030Y-90800556D01*
X82687030Y-90800556D02*
X82639411Y-90705318D01*
X82639411Y-90705318D02*
X82544173Y-90610080D01*
X82544173Y-90610080D02*
X82401316Y-90562460D01*
X82401316Y-90562460D02*
X82163221Y-90562460D01*
X83163221Y-90562460D02*
X83163221Y-91562460D01*
X92614398Y-96594841D02*
X92519160Y-96642460D01*
X92519160Y-96642460D02*
X92376303Y-96642460D01*
X92376303Y-96642460D02*
X92233446Y-96594841D01*
X92233446Y-96594841D02*
X92138208Y-96499603D01*
X92138208Y-96499603D02*
X92090589Y-96404365D01*
X92090589Y-96404365D02*
X92042970Y-96213889D01*
X92042970Y-96213889D02*
X92042970Y-96071032D01*
X92042970Y-96071032D02*
X92090589Y-95880556D01*
X92090589Y-95880556D02*
X92138208Y-95785318D01*
X92138208Y-95785318D02*
X92233446Y-95690080D01*
X92233446Y-95690080D02*
X92376303Y-95642460D01*
X92376303Y-95642460D02*
X92471541Y-95642460D01*
X92471541Y-95642460D02*
X92614398Y-95690080D01*
X92614398Y-95690080D02*
X92662017Y-95737699D01*
X92662017Y-95737699D02*
X92662017Y-96071032D01*
X92662017Y-96071032D02*
X92471541Y-96071032D01*
X93090589Y-95642460D02*
X93090589Y-96642460D01*
X93090589Y-96642460D02*
X93471541Y-96642460D01*
X93471541Y-96642460D02*
X93566779Y-96594841D01*
X93566779Y-96594841D02*
X93614398Y-96547222D01*
X93614398Y-96547222D02*
X93662017Y-96451984D01*
X93662017Y-96451984D02*
X93662017Y-96309127D01*
X93662017Y-96309127D02*
X93614398Y-96213889D01*
X93614398Y-96213889D02*
X93566779Y-96166270D01*
X93566779Y-96166270D02*
X93471541Y-96118651D01*
X93471541Y-96118651D02*
X93090589Y-96118651D01*
X94090589Y-95642460D02*
X94090589Y-96642460D01*
X94757255Y-96642460D02*
X94947731Y-96642460D01*
X94947731Y-96642460D02*
X95042969Y-96594841D01*
X95042969Y-96594841D02*
X95138207Y-96499603D01*
X95138207Y-96499603D02*
X95185826Y-96309127D01*
X95185826Y-96309127D02*
X95185826Y-95975794D01*
X95185826Y-95975794D02*
X95138207Y-95785318D01*
X95138207Y-95785318D02*
X95042969Y-95690080D01*
X95042969Y-95690080D02*
X94947731Y-95642460D01*
X94947731Y-95642460D02*
X94757255Y-95642460D01*
X94757255Y-95642460D02*
X94662017Y-95690080D01*
X94662017Y-95690080D02*
X94566779Y-95785318D01*
X94566779Y-95785318D02*
X94519160Y-95975794D01*
X94519160Y-95975794D02*
X94519160Y-96309127D01*
X94519160Y-96309127D02*
X94566779Y-96499603D01*
X94566779Y-96499603D02*
X94662017Y-96594841D01*
X94662017Y-96594841D02*
X94757255Y-96642460D01*
X96090588Y-96642460D02*
X95614398Y-96642460D01*
X95614398Y-96642460D02*
X95566779Y-96166270D01*
X95566779Y-96166270D02*
X95614398Y-96213889D01*
X95614398Y-96213889D02*
X95709636Y-96261508D01*
X95709636Y-96261508D02*
X95947731Y-96261508D01*
X95947731Y-96261508D02*
X96042969Y-96213889D01*
X96042969Y-96213889D02*
X96090588Y-96166270D01*
X96090588Y-96166270D02*
X96138207Y-96071032D01*
X96138207Y-96071032D02*
X96138207Y-95832937D01*
X96138207Y-95832937D02*
X96090588Y-95737699D01*
X96090588Y-95737699D02*
X96042969Y-95690080D01*
X96042969Y-95690080D02*
X95947731Y-95642460D01*
X95947731Y-95642460D02*
X95709636Y-95642460D01*
X95709636Y-95642460D02*
X95614398Y-95690080D01*
X95614398Y-95690080D02*
X95566779Y-95737699D01*
X91662016Y-86434841D02*
X91566778Y-86482460D01*
X91566778Y-86482460D02*
X91423921Y-86482460D01*
X91423921Y-86482460D02*
X91281064Y-86434841D01*
X91281064Y-86434841D02*
X91185826Y-86339603D01*
X91185826Y-86339603D02*
X91138207Y-86244365D01*
X91138207Y-86244365D02*
X91090588Y-86053889D01*
X91090588Y-86053889D02*
X91090588Y-85911032D01*
X91090588Y-85911032D02*
X91138207Y-85720556D01*
X91138207Y-85720556D02*
X91185826Y-85625318D01*
X91185826Y-85625318D02*
X91281064Y-85530080D01*
X91281064Y-85530080D02*
X91423921Y-85482460D01*
X91423921Y-85482460D02*
X91519159Y-85482460D01*
X91519159Y-85482460D02*
X91662016Y-85530080D01*
X91662016Y-85530080D02*
X91709635Y-85577699D01*
X91709635Y-85577699D02*
X91709635Y-85911032D01*
X91709635Y-85911032D02*
X91519159Y-85911032D01*
X92138207Y-85482460D02*
X92138207Y-86482460D01*
X92138207Y-86482460D02*
X92519159Y-86482460D01*
X92519159Y-86482460D02*
X92614397Y-86434841D01*
X92614397Y-86434841D02*
X92662016Y-86387222D01*
X92662016Y-86387222D02*
X92709635Y-86291984D01*
X92709635Y-86291984D02*
X92709635Y-86149127D01*
X92709635Y-86149127D02*
X92662016Y-86053889D01*
X92662016Y-86053889D02*
X92614397Y-86006270D01*
X92614397Y-86006270D02*
X92519159Y-85958651D01*
X92519159Y-85958651D02*
X92138207Y-85958651D01*
X93138207Y-85482460D02*
X93138207Y-86482460D01*
X93804873Y-86482460D02*
X93995349Y-86482460D01*
X93995349Y-86482460D02*
X94090587Y-86434841D01*
X94090587Y-86434841D02*
X94185825Y-86339603D01*
X94185825Y-86339603D02*
X94233444Y-86149127D01*
X94233444Y-86149127D02*
X94233444Y-85815794D01*
X94233444Y-85815794D02*
X94185825Y-85625318D01*
X94185825Y-85625318D02*
X94090587Y-85530080D01*
X94090587Y-85530080D02*
X93995349Y-85482460D01*
X93995349Y-85482460D02*
X93804873Y-85482460D01*
X93804873Y-85482460D02*
X93709635Y-85530080D01*
X93709635Y-85530080D02*
X93614397Y-85625318D01*
X93614397Y-85625318D02*
X93566778Y-85815794D01*
X93566778Y-85815794D02*
X93566778Y-86149127D01*
X93566778Y-86149127D02*
X93614397Y-86339603D01*
X93614397Y-86339603D02*
X93709635Y-86434841D01*
X93709635Y-86434841D02*
X93804873Y-86482460D01*
X95185825Y-85482460D02*
X94614397Y-85482460D01*
X94900111Y-85482460D02*
X94900111Y-86482460D01*
X94900111Y-86482460D02*
X94804873Y-86339603D01*
X94804873Y-86339603D02*
X94709635Y-86244365D01*
X94709635Y-86244365D02*
X94614397Y-86196746D01*
X96042968Y-86482460D02*
X95852492Y-86482460D01*
X95852492Y-86482460D02*
X95757254Y-86434841D01*
X95757254Y-86434841D02*
X95709635Y-86387222D01*
X95709635Y-86387222D02*
X95614397Y-86244365D01*
X95614397Y-86244365D02*
X95566778Y-86053889D01*
X95566778Y-86053889D02*
X95566778Y-85672937D01*
X95566778Y-85672937D02*
X95614397Y-85577699D01*
X95614397Y-85577699D02*
X95662016Y-85530080D01*
X95662016Y-85530080D02*
X95757254Y-85482460D01*
X95757254Y-85482460D02*
X95947730Y-85482460D01*
X95947730Y-85482460D02*
X96042968Y-85530080D01*
X96042968Y-85530080D02*
X96090587Y-85577699D01*
X96090587Y-85577699D02*
X96138206Y-85672937D01*
X96138206Y-85672937D02*
X96138206Y-85911032D01*
X96138206Y-85911032D02*
X96090587Y-86006270D01*
X96090587Y-86006270D02*
X96042968Y-86053889D01*
X96042968Y-86053889D02*
X95947730Y-86101508D01*
X95947730Y-86101508D02*
X95757254Y-86101508D01*
X95757254Y-86101508D02*
X95662016Y-86053889D01*
X95662016Y-86053889D02*
X95614397Y-86006270D01*
X95614397Y-86006270D02*
X95566778Y-85911032D01*
X74437030Y-73734841D02*
X74341792Y-73782460D01*
X74341792Y-73782460D02*
X74198935Y-73782460D01*
X74198935Y-73782460D02*
X74056078Y-73734841D01*
X74056078Y-73734841D02*
X73960840Y-73639603D01*
X73960840Y-73639603D02*
X73913221Y-73544365D01*
X73913221Y-73544365D02*
X73865602Y-73353889D01*
X73865602Y-73353889D02*
X73865602Y-73211032D01*
X73865602Y-73211032D02*
X73913221Y-73020556D01*
X73913221Y-73020556D02*
X73960840Y-72925318D01*
X73960840Y-72925318D02*
X74056078Y-72830080D01*
X74056078Y-72830080D02*
X74198935Y-72782460D01*
X74198935Y-72782460D02*
X74294173Y-72782460D01*
X74294173Y-72782460D02*
X74437030Y-72830080D01*
X74437030Y-72830080D02*
X74484649Y-72877699D01*
X74484649Y-72877699D02*
X74484649Y-73211032D01*
X74484649Y-73211032D02*
X74294173Y-73211032D01*
X74913221Y-72782460D02*
X74913221Y-73782460D01*
X74913221Y-73782460D02*
X75294173Y-73782460D01*
X75294173Y-73782460D02*
X75389411Y-73734841D01*
X75389411Y-73734841D02*
X75437030Y-73687222D01*
X75437030Y-73687222D02*
X75484649Y-73591984D01*
X75484649Y-73591984D02*
X75484649Y-73449127D01*
X75484649Y-73449127D02*
X75437030Y-73353889D01*
X75437030Y-73353889D02*
X75389411Y-73306270D01*
X75389411Y-73306270D02*
X75294173Y-73258651D01*
X75294173Y-73258651D02*
X74913221Y-73258651D01*
X75913221Y-72782460D02*
X75913221Y-73782460D01*
X76579887Y-73782460D02*
X76770363Y-73782460D01*
X76770363Y-73782460D02*
X76865601Y-73734841D01*
X76865601Y-73734841D02*
X76960839Y-73639603D01*
X76960839Y-73639603D02*
X77008458Y-73449127D01*
X77008458Y-73449127D02*
X77008458Y-73115794D01*
X77008458Y-73115794D02*
X76960839Y-72925318D01*
X76960839Y-72925318D02*
X76865601Y-72830080D01*
X76865601Y-72830080D02*
X76770363Y-72782460D01*
X76770363Y-72782460D02*
X76579887Y-72782460D01*
X76579887Y-72782460D02*
X76484649Y-72830080D01*
X76484649Y-72830080D02*
X76389411Y-72925318D01*
X76389411Y-72925318D02*
X76341792Y-73115794D01*
X76341792Y-73115794D02*
X76341792Y-73449127D01*
X76341792Y-73449127D02*
X76389411Y-73639603D01*
X76389411Y-73639603D02*
X76484649Y-73734841D01*
X76484649Y-73734841D02*
X76579887Y-73782460D01*
X77627506Y-73782460D02*
X77722744Y-73782460D01*
X77722744Y-73782460D02*
X77817982Y-73734841D01*
X77817982Y-73734841D02*
X77865601Y-73687222D01*
X77865601Y-73687222D02*
X77913220Y-73591984D01*
X77913220Y-73591984D02*
X77960839Y-73401508D01*
X77960839Y-73401508D02*
X77960839Y-73163413D01*
X77960839Y-73163413D02*
X77913220Y-72972937D01*
X77913220Y-72972937D02*
X77865601Y-72877699D01*
X77865601Y-72877699D02*
X77817982Y-72830080D01*
X77817982Y-72830080D02*
X77722744Y-72782460D01*
X77722744Y-72782460D02*
X77627506Y-72782460D01*
X77627506Y-72782460D02*
X77532268Y-72830080D01*
X77532268Y-72830080D02*
X77484649Y-72877699D01*
X77484649Y-72877699D02*
X77437030Y-72972937D01*
X77437030Y-72972937D02*
X77389411Y-73163413D01*
X77389411Y-73163413D02*
X77389411Y-73401508D01*
X77389411Y-73401508D02*
X77437030Y-73591984D01*
X77437030Y-73591984D02*
X77484649Y-73687222D01*
X77484649Y-73687222D02*
X77532268Y-73734841D01*
X77532268Y-73734841D02*
X77627506Y-73782460D01*
X74433219Y-81354841D02*
X74337981Y-81402460D01*
X74337981Y-81402460D02*
X74195124Y-81402460D01*
X74195124Y-81402460D02*
X74052267Y-81354841D01*
X74052267Y-81354841D02*
X73957029Y-81259603D01*
X73957029Y-81259603D02*
X73909410Y-81164365D01*
X73909410Y-81164365D02*
X73861791Y-80973889D01*
X73861791Y-80973889D02*
X73861791Y-80831032D01*
X73861791Y-80831032D02*
X73909410Y-80640556D01*
X73909410Y-80640556D02*
X73957029Y-80545318D01*
X73957029Y-80545318D02*
X74052267Y-80450080D01*
X74052267Y-80450080D02*
X74195124Y-80402460D01*
X74195124Y-80402460D02*
X74290362Y-80402460D01*
X74290362Y-80402460D02*
X74433219Y-80450080D01*
X74433219Y-80450080D02*
X74480838Y-80497699D01*
X74480838Y-80497699D02*
X74480838Y-80831032D01*
X74480838Y-80831032D02*
X74290362Y-80831032D01*
X74909410Y-80402460D02*
X74909410Y-81402460D01*
X74909410Y-81402460D02*
X75290362Y-81402460D01*
X75290362Y-81402460D02*
X75385600Y-81354841D01*
X75385600Y-81354841D02*
X75433219Y-81307222D01*
X75433219Y-81307222D02*
X75480838Y-81211984D01*
X75480838Y-81211984D02*
X75480838Y-81069127D01*
X75480838Y-81069127D02*
X75433219Y-80973889D01*
X75433219Y-80973889D02*
X75385600Y-80926270D01*
X75385600Y-80926270D02*
X75290362Y-80878651D01*
X75290362Y-80878651D02*
X74909410Y-80878651D01*
X75909410Y-80402460D02*
X75909410Y-81402460D01*
X76576076Y-81402460D02*
X76766552Y-81402460D01*
X76766552Y-81402460D02*
X76861790Y-81354841D01*
X76861790Y-81354841D02*
X76957028Y-81259603D01*
X76957028Y-81259603D02*
X77004647Y-81069127D01*
X77004647Y-81069127D02*
X77004647Y-80735794D01*
X77004647Y-80735794D02*
X76957028Y-80545318D01*
X76957028Y-80545318D02*
X76861790Y-80450080D01*
X76861790Y-80450080D02*
X76766552Y-80402460D01*
X76766552Y-80402460D02*
X76576076Y-80402460D01*
X76576076Y-80402460D02*
X76480838Y-80450080D01*
X76480838Y-80450080D02*
X76385600Y-80545318D01*
X76385600Y-80545318D02*
X76337981Y-80735794D01*
X76337981Y-80735794D02*
X76337981Y-81069127D01*
X76337981Y-81069127D02*
X76385600Y-81259603D01*
X76385600Y-81259603D02*
X76480838Y-81354841D01*
X76480838Y-81354841D02*
X76576076Y-81402460D01*
X77337981Y-81402460D02*
X77957028Y-81402460D01*
X77957028Y-81402460D02*
X77623695Y-81021508D01*
X77623695Y-81021508D02*
X77766552Y-81021508D01*
X77766552Y-81021508D02*
X77861790Y-80973889D01*
X77861790Y-80973889D02*
X77909409Y-80926270D01*
X77909409Y-80926270D02*
X77957028Y-80831032D01*
X77957028Y-80831032D02*
X77957028Y-80592937D01*
X77957028Y-80592937D02*
X77909409Y-80497699D01*
X77909409Y-80497699D02*
X77861790Y-80450080D01*
X77861790Y-80450080D02*
X77766552Y-80402460D01*
X77766552Y-80402460D02*
X77480838Y-80402460D01*
X77480838Y-80402460D02*
X77385600Y-80450080D01*
X77385600Y-80450080D02*
X77337981Y-80497699D01*
X78290362Y-81402460D02*
X78957028Y-81402460D01*
X78957028Y-81402460D02*
X78528457Y-80402460D01*
X93709635Y-106802460D02*
X94328682Y-106802460D01*
X94328682Y-106802460D02*
X93995349Y-106421508D01*
X93995349Y-106421508D02*
X94138206Y-106421508D01*
X94138206Y-106421508D02*
X94233444Y-106373889D01*
X94233444Y-106373889D02*
X94281063Y-106326270D01*
X94281063Y-106326270D02*
X94328682Y-106231032D01*
X94328682Y-106231032D02*
X94328682Y-105992937D01*
X94328682Y-105992937D02*
X94281063Y-105897699D01*
X94281063Y-105897699D02*
X94233444Y-105850080D01*
X94233444Y-105850080D02*
X94138206Y-105802460D01*
X94138206Y-105802460D02*
X93852492Y-105802460D01*
X93852492Y-105802460D02*
X93757254Y-105850080D01*
X93757254Y-105850080D02*
X93709635Y-105897699D01*
X94614397Y-106802460D02*
X94947730Y-105802460D01*
X94947730Y-105802460D02*
X95281063Y-106802460D01*
X95519159Y-106802460D02*
X96138206Y-106802460D01*
X96138206Y-106802460D02*
X95804873Y-106421508D01*
X95804873Y-106421508D02*
X95947730Y-106421508D01*
X95947730Y-106421508D02*
X96042968Y-106373889D01*
X96042968Y-106373889D02*
X96090587Y-106326270D01*
X96090587Y-106326270D02*
X96138206Y-106231032D01*
X96138206Y-106231032D02*
X96138206Y-105992937D01*
X96138206Y-105992937D02*
X96090587Y-105897699D01*
X96090587Y-105897699D02*
X96042968Y-105850080D01*
X96042968Y-105850080D02*
X95947730Y-105802460D01*
X95947730Y-105802460D02*
X95662016Y-105802460D01*
X95662016Y-105802460D02*
X95566778Y-105850080D01*
X95566778Y-105850080D02*
X95519159Y-105897699D01*
X74433219Y-76274841D02*
X74337981Y-76322460D01*
X74337981Y-76322460D02*
X74195124Y-76322460D01*
X74195124Y-76322460D02*
X74052267Y-76274841D01*
X74052267Y-76274841D02*
X73957029Y-76179603D01*
X73957029Y-76179603D02*
X73909410Y-76084365D01*
X73909410Y-76084365D02*
X73861791Y-75893889D01*
X73861791Y-75893889D02*
X73861791Y-75751032D01*
X73861791Y-75751032D02*
X73909410Y-75560556D01*
X73909410Y-75560556D02*
X73957029Y-75465318D01*
X73957029Y-75465318D02*
X74052267Y-75370080D01*
X74052267Y-75370080D02*
X74195124Y-75322460D01*
X74195124Y-75322460D02*
X74290362Y-75322460D01*
X74290362Y-75322460D02*
X74433219Y-75370080D01*
X74433219Y-75370080D02*
X74480838Y-75417699D01*
X74480838Y-75417699D02*
X74480838Y-75751032D01*
X74480838Y-75751032D02*
X74290362Y-75751032D01*
X74909410Y-75322460D02*
X74909410Y-76322460D01*
X74909410Y-76322460D02*
X75290362Y-76322460D01*
X75290362Y-76322460D02*
X75385600Y-76274841D01*
X75385600Y-76274841D02*
X75433219Y-76227222D01*
X75433219Y-76227222D02*
X75480838Y-76131984D01*
X75480838Y-76131984D02*
X75480838Y-75989127D01*
X75480838Y-75989127D02*
X75433219Y-75893889D01*
X75433219Y-75893889D02*
X75385600Y-75846270D01*
X75385600Y-75846270D02*
X75290362Y-75798651D01*
X75290362Y-75798651D02*
X74909410Y-75798651D01*
X75909410Y-75322460D02*
X75909410Y-76322460D01*
X76576076Y-76322460D02*
X76766552Y-76322460D01*
X76766552Y-76322460D02*
X76861790Y-76274841D01*
X76861790Y-76274841D02*
X76957028Y-76179603D01*
X76957028Y-76179603D02*
X77004647Y-75989127D01*
X77004647Y-75989127D02*
X77004647Y-75655794D01*
X77004647Y-75655794D02*
X76957028Y-75465318D01*
X76957028Y-75465318D02*
X76861790Y-75370080D01*
X76861790Y-75370080D02*
X76766552Y-75322460D01*
X76766552Y-75322460D02*
X76576076Y-75322460D01*
X76576076Y-75322460D02*
X76480838Y-75370080D01*
X76480838Y-75370080D02*
X76385600Y-75465318D01*
X76385600Y-75465318D02*
X76337981Y-75655794D01*
X76337981Y-75655794D02*
X76337981Y-75989127D01*
X76337981Y-75989127D02*
X76385600Y-76179603D01*
X76385600Y-76179603D02*
X76480838Y-76274841D01*
X76480838Y-76274841D02*
X76576076Y-76322460D01*
X77337981Y-76322460D02*
X77957028Y-76322460D01*
X77957028Y-76322460D02*
X77623695Y-75941508D01*
X77623695Y-75941508D02*
X77766552Y-75941508D01*
X77766552Y-75941508D02*
X77861790Y-75893889D01*
X77861790Y-75893889D02*
X77909409Y-75846270D01*
X77909409Y-75846270D02*
X77957028Y-75751032D01*
X77957028Y-75751032D02*
X77957028Y-75512937D01*
X77957028Y-75512937D02*
X77909409Y-75417699D01*
X77909409Y-75417699D02*
X77861790Y-75370080D01*
X77861790Y-75370080D02*
X77766552Y-75322460D01*
X77766552Y-75322460D02*
X77480838Y-75322460D01*
X77480838Y-75322460D02*
X77385600Y-75370080D01*
X77385600Y-75370080D02*
X77337981Y-75417699D01*
X78861790Y-76322460D02*
X78385600Y-76322460D01*
X78385600Y-76322460D02*
X78337981Y-75846270D01*
X78337981Y-75846270D02*
X78385600Y-75893889D01*
X78385600Y-75893889D02*
X78480838Y-75941508D01*
X78480838Y-75941508D02*
X78718933Y-75941508D01*
X78718933Y-75941508D02*
X78814171Y-75893889D01*
X78814171Y-75893889D02*
X78861790Y-75846270D01*
X78861790Y-75846270D02*
X78909409Y-75751032D01*
X78909409Y-75751032D02*
X78909409Y-75512937D01*
X78909409Y-75512937D02*
X78861790Y-75417699D01*
X78861790Y-75417699D02*
X78814171Y-75370080D01*
X78814171Y-75370080D02*
X78718933Y-75322460D01*
X78718933Y-75322460D02*
X78480838Y-75322460D01*
X78480838Y-75322460D02*
X78385600Y-75370080D01*
X78385600Y-75370080D02*
X78337981Y-75417699D01*
X88865601Y-101248990D02*
X89198934Y-101248990D01*
X89341791Y-100725180D02*
X88865601Y-100725180D01*
X88865601Y-100725180D02*
X88865601Y-101725180D01*
X88865601Y-101725180D02*
X89341791Y-101725180D01*
X89770363Y-100725180D02*
X89770363Y-101725180D01*
X89770363Y-101725180D02*
X90341791Y-100725180D01*
X90341791Y-100725180D02*
X90341791Y-101725180D01*
X91532267Y-101772800D02*
X90675125Y-100487085D01*
X92437029Y-100725180D02*
X92103696Y-101201371D01*
X91865601Y-100725180D02*
X91865601Y-101725180D01*
X91865601Y-101725180D02*
X92246553Y-101725180D01*
X92246553Y-101725180D02*
X92341791Y-101677561D01*
X92341791Y-101677561D02*
X92389410Y-101629942D01*
X92389410Y-101629942D02*
X92437029Y-101534704D01*
X92437029Y-101534704D02*
X92437029Y-101391847D01*
X92437029Y-101391847D02*
X92389410Y-101296609D01*
X92389410Y-101296609D02*
X92341791Y-101248990D01*
X92341791Y-101248990D02*
X92246553Y-101201371D01*
X92246553Y-101201371D02*
X91865601Y-101201371D01*
X92865601Y-101248990D02*
X93198934Y-101248990D01*
X93341791Y-100725180D02*
X92865601Y-100725180D01*
X92865601Y-100725180D02*
X92865601Y-101725180D01*
X92865601Y-101725180D02*
X93341791Y-101725180D01*
X93722744Y-100772800D02*
X93865601Y-100725180D01*
X93865601Y-100725180D02*
X94103696Y-100725180D01*
X94103696Y-100725180D02*
X94198934Y-100772800D01*
X94198934Y-100772800D02*
X94246553Y-100820419D01*
X94246553Y-100820419D02*
X94294172Y-100915657D01*
X94294172Y-100915657D02*
X94294172Y-101010895D01*
X94294172Y-101010895D02*
X94246553Y-101106133D01*
X94246553Y-101106133D02*
X94198934Y-101153752D01*
X94198934Y-101153752D02*
X94103696Y-101201371D01*
X94103696Y-101201371D02*
X93913220Y-101248990D01*
X93913220Y-101248990D02*
X93817982Y-101296609D01*
X93817982Y-101296609D02*
X93770363Y-101344228D01*
X93770363Y-101344228D02*
X93722744Y-101439466D01*
X93722744Y-101439466D02*
X93722744Y-101534704D01*
X93722744Y-101534704D02*
X93770363Y-101629942D01*
X93770363Y-101629942D02*
X93817982Y-101677561D01*
X93817982Y-101677561D02*
X93913220Y-101725180D01*
X93913220Y-101725180D02*
X94151315Y-101725180D01*
X94151315Y-101725180D02*
X94294172Y-101677561D01*
X94722744Y-101248990D02*
X95056077Y-101248990D01*
X95198934Y-100725180D02*
X94722744Y-100725180D01*
X94722744Y-100725180D02*
X94722744Y-101725180D01*
X94722744Y-101725180D02*
X95198934Y-101725180D01*
X95484649Y-101725180D02*
X96056077Y-101725180D01*
X95770363Y-100725180D02*
X95770363Y-101725180D01*
X74433219Y-61034841D02*
X74337981Y-61082460D01*
X74337981Y-61082460D02*
X74195124Y-61082460D01*
X74195124Y-61082460D02*
X74052267Y-61034841D01*
X74052267Y-61034841D02*
X73957029Y-60939603D01*
X73957029Y-60939603D02*
X73909410Y-60844365D01*
X73909410Y-60844365D02*
X73861791Y-60653889D01*
X73861791Y-60653889D02*
X73861791Y-60511032D01*
X73861791Y-60511032D02*
X73909410Y-60320556D01*
X73909410Y-60320556D02*
X73957029Y-60225318D01*
X73957029Y-60225318D02*
X74052267Y-60130080D01*
X74052267Y-60130080D02*
X74195124Y-60082460D01*
X74195124Y-60082460D02*
X74290362Y-60082460D01*
X74290362Y-60082460D02*
X74433219Y-60130080D01*
X74433219Y-60130080D02*
X74480838Y-60177699D01*
X74480838Y-60177699D02*
X74480838Y-60511032D01*
X74480838Y-60511032D02*
X74290362Y-60511032D01*
X74909410Y-60082460D02*
X74909410Y-61082460D01*
X74909410Y-61082460D02*
X75290362Y-61082460D01*
X75290362Y-61082460D02*
X75385600Y-61034841D01*
X75385600Y-61034841D02*
X75433219Y-60987222D01*
X75433219Y-60987222D02*
X75480838Y-60891984D01*
X75480838Y-60891984D02*
X75480838Y-60749127D01*
X75480838Y-60749127D02*
X75433219Y-60653889D01*
X75433219Y-60653889D02*
X75385600Y-60606270D01*
X75385600Y-60606270D02*
X75290362Y-60558651D01*
X75290362Y-60558651D02*
X74909410Y-60558651D01*
X75909410Y-60082460D02*
X75909410Y-61082460D01*
X76576076Y-61082460D02*
X76766552Y-61082460D01*
X76766552Y-61082460D02*
X76861790Y-61034841D01*
X76861790Y-61034841D02*
X76957028Y-60939603D01*
X76957028Y-60939603D02*
X77004647Y-60749127D01*
X77004647Y-60749127D02*
X77004647Y-60415794D01*
X77004647Y-60415794D02*
X76957028Y-60225318D01*
X76957028Y-60225318D02*
X76861790Y-60130080D01*
X76861790Y-60130080D02*
X76766552Y-60082460D01*
X76766552Y-60082460D02*
X76576076Y-60082460D01*
X76576076Y-60082460D02*
X76480838Y-60130080D01*
X76480838Y-60130080D02*
X76385600Y-60225318D01*
X76385600Y-60225318D02*
X76337981Y-60415794D01*
X76337981Y-60415794D02*
X76337981Y-60749127D01*
X76337981Y-60749127D02*
X76385600Y-60939603D01*
X76385600Y-60939603D02*
X76480838Y-61034841D01*
X76480838Y-61034841D02*
X76576076Y-61082460D01*
X77385600Y-60987222D02*
X77433219Y-61034841D01*
X77433219Y-61034841D02*
X77528457Y-61082460D01*
X77528457Y-61082460D02*
X77766552Y-61082460D01*
X77766552Y-61082460D02*
X77861790Y-61034841D01*
X77861790Y-61034841D02*
X77909409Y-60987222D01*
X77909409Y-60987222D02*
X77957028Y-60891984D01*
X77957028Y-60891984D02*
X77957028Y-60796746D01*
X77957028Y-60796746D02*
X77909409Y-60653889D01*
X77909409Y-60653889D02*
X77337981Y-60082460D01*
X77337981Y-60082460D02*
X77957028Y-60082460D01*
X78576076Y-61082460D02*
X78671314Y-61082460D01*
X78671314Y-61082460D02*
X78766552Y-61034841D01*
X78766552Y-61034841D02*
X78814171Y-60987222D01*
X78814171Y-60987222D02*
X78861790Y-60891984D01*
X78861790Y-60891984D02*
X78909409Y-60701508D01*
X78909409Y-60701508D02*
X78909409Y-60463413D01*
X78909409Y-60463413D02*
X78861790Y-60272937D01*
X78861790Y-60272937D02*
X78814171Y-60177699D01*
X78814171Y-60177699D02*
X78766552Y-60130080D01*
X78766552Y-60130080D02*
X78671314Y-60082460D01*
X78671314Y-60082460D02*
X78576076Y-60082460D01*
X78576076Y-60082460D02*
X78480838Y-60130080D01*
X78480838Y-60130080D02*
X78433219Y-60177699D01*
X78433219Y-60177699D02*
X78385600Y-60272937D01*
X78385600Y-60272937D02*
X78337981Y-60463413D01*
X78337981Y-60463413D02*
X78337981Y-60701508D01*
X78337981Y-60701508D02*
X78385600Y-60891984D01*
X78385600Y-60891984D02*
X78433219Y-60987222D01*
X78433219Y-60987222D02*
X78480838Y-61034841D01*
X78480838Y-61034841D02*
X78576076Y-61082460D01*
M02*
